solid cable guide
   facet normal 0.000000e+00 0.000000e+00 -1.000000e+00
      outer loop
         vertex 7.000000e+00 1.750000e+01 6.000000e+00
         vertex 4.156793e+00 1.700822e+01 6.000000e+00
         vertex 4.749999e+00 1.720096e+01 6.000000e+00
      endloop
   endfacet
   facet normal 0.000000e+00 0.000000e+00 -1.000000e+00
      outer loop
         vertex 1.800000e+01 4.500000e+00 6.000000e+00
         vertex 9.250000e+00 1.620096e+01 6.000000e+00
         vertex 9.713525e+00 1.661832e+01 6.000000e+00
      endloop
   endfacet
   facet normal -0.000000e+00 0.000000e+00 -1.000000e+00
      outer loop
         vertex 2.629681e+00 1.788990e+01 6.000000e+00
         vertex 0.000000e+00 4.500000e+00 6.000000e+00
         vertex 2.499999e+00 1.850000e+01 6.000000e+00
      endloop
   endfacet
   facet normal -0.000000e+00 0.000000e+00 -1.000000e+00
      outer loop
         vertex 2.499999e+00 1.850000e+01 6.000000e+00
         vertex 0.000000e+00 4.500000e+00 6.000000e+00
         vertex 0.000000e+00 2.100000e+01 6.000000e+00
      endloop
   endfacet
   facet normal 0.000000e+00 0.000000e+00 -1.000000e+00
      outer loop
         vertex 2.499999e+00 1.850000e+01 6.000000e+00
         vertex 0.000000e+00 2.100000e+01 6.000000e+00
         vertex 2.629681e+00 1.911011e+01 6.000000e+00
      endloop
   endfacet
   facet normal 0.000000e+00 0.000000e+00 -1.000000e+00
      outer loop
         vertex 9.713525e+00 1.838168e+01 6.000000e+00
         vertex 9.250000e+00 1.879904e+01 6.000000e+00
         vertex 1.150377e+01 1.860633e+01 6.000000e+00
      endloop
   endfacet
   facet normal 0.000000e+00 0.000000e+00 -1.000000e+00
      outer loop
         vertex 1.150377e+01 1.860633e+01 6.000000e+00
         vertex 9.250000e+00 1.879904e+01 6.000000e+00
         vertex 8.656792e+00 1.899178e+01 6.000000e+00
      endloop
   endfacet
   facet normal -0.000000e+00 0.000000e+00 -1.000000e+00
      outer loop
         vertex 4.156793e+00 1.999178e+01 6.000000e+00
         vertex 3.536474e+00 1.992658e+01 6.000000e+00
         vertex 0.000000e+00 2.100000e+01 6.000000e+00
      endloop
   endfacet
   facet normal 0.000000e+00 0.000000e+00 -1.000000e+00
      outer loop
         vertex 0.000000e+00 2.100000e+01 6.000000e+00
         vertex 3.536474e+00 1.992658e+01 6.000000e+00
         vertex 2.996304e+00 1.961472e+01 6.000000e+00
      endloop
   endfacet
   facet normal 0.000000e+00 0.000000e+00 -1.000000e+00
      outer loop
         vertex 0.000000e+00 2.100000e+01 6.000000e+00
         vertex 2.996304e+00 1.961472e+01 6.000000e+00
         vertex 2.629681e+00 1.911011e+01 6.000000e+00
      endloop
   endfacet
   facet normal 0.000000e+00 0.000000e+00 -1.000000e+00
      outer loop
         vertex 1.489367e+01 1.600377e+01 6.000000e+00
         vertex 1.547434e+01 1.607698e+01 6.000000e+00
         vertex 1.800000e+01 4.500000e+00 6.000000e+00
      endloop
   endfacet
   facet normal 0.000000e+00 0.000000e+00 -1.000000e+00
      outer loop
         vertex 1.800000e+01 4.500000e+00 6.000000e+00
         vertex 1.547434e+01 1.607698e+01 6.000000e+00
         vertex 1.598280e+01 1.636682e+01 6.000000e+00
      endloop
   endfacet
   facet normal 0.000000e+00 0.000000e+00 -1.000000e+00
      outer loop
         vertex 0.000000e+00 2.100000e+01 6.000000e+00
         vertex 1.201720e+01 1.963318e+01 6.000000e+00
         vertex 1.165836e+01 1.917082e+01 6.000000e+00
      endloop
   endfacet
   facet normal -0.000000e+00 0.000000e+00 -1.000000e+00
      outer loop
         vertex 1.165836e+01 1.917082e+01 6.000000e+00
         vertex 1.150377e+01 1.860633e+01 6.000000e+00
         vertex 0.000000e+00 2.100000e+01 6.000000e+00
      endloop
   endfacet
   facet normal 0.000000e+00 0.000000e+00 -1.000000e+00
      outer loop
         vertex 0.000000e+00 2.100000e+01 6.000000e+00
         vertex 1.150377e+01 1.860633e+01 6.000000e+00
         vertex 8.656792e+00 1.899178e+01 6.000000e+00
      endloop
   endfacet
   facet normal 0.000000e+00 0.000000e+00 -1.000000e+00
      outer loop
         vertex 0.000000e+00 2.100000e+01 6.000000e+00
         vertex 8.656792e+00 1.899178e+01 6.000000e+00
         vertex 4.156793e+00 1.999178e+01 6.000000e+00
      endloop
   endfacet
   facet normal 0.000000e+00 0.000000e+00 -1.000000e+00
      outer loop
         vertex 4.156793e+00 1.999178e+01 6.000000e+00
         vertex 8.656792e+00 1.899178e+01 6.000000e+00
         vertex 8.036474e+00 1.892659e+01 6.000000e+00
      endloop
   endfacet
   facet normal 0.000000e+00 0.000000e+00 -1.000000e+00
      outer loop
         vertex 4.156793e+00 1.999178e+01 6.000000e+00
         vertex 8.036474e+00 1.892659e+01 6.000000e+00
         vertex 4.749999e+00 1.979904e+01 6.000000e+00
      endloop
   endfacet
   facet normal 0.000000e+00 0.000000e+00 -1.000000e+00
      outer loop
         vertex 4.749999e+00 1.979904e+01 6.000000e+00
         vertex 8.036474e+00 1.892659e+01 6.000000e+00
         vertex 7.496304e+00 1.861472e+01 6.000000e+00
      endloop
   endfacet
   facet normal 0.000000e+00 0.000000e+00 -1.000000e+00
      outer loop
         vertex 7.129681e+00 1.811010e+01 6.000000e+00
         vertex 5.467221e+00 1.881187e+01 6.000000e+00
         vertex 7.496304e+00 1.861472e+01 6.000000e+00
      endloop
   endfacet
   facet normal 0.000000e+00 0.000000e+00 -1.000000e+00
      outer loop
         vertex 7.496304e+00 1.861472e+01 6.000000e+00
         vertex 5.467221e+00 1.881187e+01 6.000000e+00
         vertex 5.213525e+00 1.938168e+01 6.000000e+00
      endloop
   endfacet
   facet normal 0.000000e+00 0.000000e+00 -1.000000e+00
      outer loop
         vertex 7.496304e+00 1.861472e+01 6.000000e+00
         vertex 5.213525e+00 1.938168e+01 6.000000e+00
         vertex 4.749999e+00 1.979904e+01 6.000000e+00
      endloop
   endfacet
   facet normal 0.000000e+00 -0.000000e+00 -1.000000e+00
      outer loop
         vertex 2.629681e+00 1.788990e+01 6.000000e+00
         vertex 2.996304e+00 1.738528e+01 6.000000e+00
         vertex 0.000000e+00 4.500000e+00 6.000000e+00
      endloop
   endfacet
   facet normal 0.000000e+00 0.000000e+00 -1.000000e+00
      outer loop
         vertex 0.000000e+00 4.500000e+00 6.000000e+00
         vertex 2.996304e+00 1.738528e+01 6.000000e+00
         vertex 3.536474e+00 1.707342e+01 6.000000e+00
      endloop
   endfacet
   facet normal 0.000000e+00 0.000000e+00 -1.000000e+00
      outer loop
         vertex 0.000000e+00 4.500000e+00 6.000000e+00
         vertex 3.536474e+00 1.707342e+01 6.000000e+00
         vertex 4.156793e+00 1.700822e+01 6.000000e+00
      endloop
   endfacet
   facet normal 0.000000e+00 -0.000000e+00 -1.000000e+00
      outer loop
         vertex 7.000000e+00 1.750000e+01 6.000000e+00
         vertex 7.129681e+00 1.688989e+01 6.000000e+00
         vertex 4.156793e+00 1.700822e+01 6.000000e+00
      endloop
   endfacet
   facet normal 0.000000e+00 0.000000e+00 -1.000000e+00
      outer loop
         vertex 4.156793e+00 1.700822e+01 6.000000e+00
         vertex 7.129681e+00 1.688989e+01 6.000000e+00
         vertex 7.496304e+00 1.638528e+01 6.000000e+00
      endloop
   endfacet
   facet normal 0.000000e+00 -0.000000e+00 -1.000000e+00
      outer loop
         vertex 4.156793e+00 1.700822e+01 6.000000e+00
         vertex 7.496304e+00 1.638528e+01 6.000000e+00
         vertex 0.000000e+00 4.500000e+00 6.000000e+00
      endloop
   endfacet
   facet normal 0.000000e+00 0.000000e+00 -1.000000e+00
      outer loop
         vertex 0.000000e+00 4.500000e+00 6.000000e+00
         vertex 7.496304e+00 1.638528e+01 6.000000e+00
         vertex 8.036474e+00 1.607342e+01 6.000000e+00
      endloop
   endfacet
   facet normal 0.000000e+00 0.000000e+00 -1.000000e+00
      outer loop
         vertex 0.000000e+00 4.500000e+00 6.000000e+00
         vertex 8.036474e+00 1.607342e+01 6.000000e+00
         vertex 1.800000e+01 4.500000e+00 6.000000e+00
      endloop
   endfacet
   facet normal 0.000000e+00 0.000000e+00 -1.000000e+00
      outer loop
         vertex 1.800000e+01 4.500000e+00 6.000000e+00
         vertex 8.036474e+00 1.607342e+01 6.000000e+00
         vertex 8.656792e+00 1.600822e+01 6.000000e+00
      endloop
   endfacet
   facet normal 0.000000e+00 0.000000e+00 -1.000000e+00
      outer loop
         vertex 1.800000e+01 4.500000e+00 6.000000e+00
         vertex 8.656792e+00 1.600822e+01 6.000000e+00
         vertex 9.250000e+00 1.620096e+01 6.000000e+00
      endloop
   endfacet
   facet normal 0.000000e+00 0.000000e+00 -1.000000e+00
      outer loop
         vertex 4.749999e+00 1.720096e+01 6.000000e+00
         vertex 5.213525e+00 1.761832e+01 6.000000e+00
         vertex 7.000000e+00 1.750000e+01 6.000000e+00
      endloop
   endfacet
   facet normal 0.000000e+00 0.000000e+00 -1.000000e+00
      outer loop
         vertex 7.000000e+00 1.750000e+01 6.000000e+00
         vertex 5.213525e+00 1.761832e+01 6.000000e+00
         vertex 5.467221e+00 1.818813e+01 6.000000e+00
      endloop
   endfacet
   facet normal 0.000000e+00 0.000000e+00 -1.000000e+00
      outer loop
         vertex 7.000000e+00 1.750000e+01 6.000000e+00
         vertex 5.467221e+00 1.818813e+01 6.000000e+00
         vertex 7.129681e+00 1.811010e+01 6.000000e+00
      endloop
   endfacet
   facet normal 0.000000e+00 0.000000e+00 -1.000000e+00
      outer loop
         vertex 7.129681e+00 1.811010e+01 6.000000e+00
         vertex 5.467221e+00 1.818813e+01 6.000000e+00
         vertex 5.500000e+00 1.850000e+01 6.000000e+00
      endloop
   endfacet
   facet normal 0.000000e+00 0.000000e+00 -1.000000e+00
      outer loop
         vertex 7.129681e+00 1.811010e+01 6.000000e+00
         vertex 5.500000e+00 1.850000e+01 6.000000e+00
         vertex 5.467221e+00 1.881187e+01 6.000000e+00
      endloop
   endfacet
   facet normal 0.000000e+00 0.000000e+00 -1.000000e+00
      outer loop
         vertex 9.713525e+00 1.838168e+01 6.000000e+00
         vertex 1.150377e+01 1.860633e+01 6.000000e+00
         vertex 9.967221e+00 1.781187e+01 6.000000e+00
      endloop
   endfacet
   facet normal 0.000000e+00 0.000000e+00 -1.000000e+00
      outer loop
         vertex 9.967221e+00 1.781187e+01 6.000000e+00
         vertex 1.150377e+01 1.860633e+01 6.000000e+00
         vertex 1.157697e+01 1.802566e+01 6.000000e+00
      endloop
   endfacet
   facet normal 0.000000e+00 0.000000e+00 -1.000000e+00
      outer loop
         vertex 9.967221e+00 1.781187e+01 6.000000e+00
         vertex 1.157697e+01 1.802566e+01 6.000000e+00
         vertex 1.000000e+01 1.750000e+01 6.000000e+00
      endloop
   endfacet
   facet normal 0.000000e+00 0.000000e+00 -1.000000e+00
      outer loop
         vertex 1.598280e+01 1.636682e+01 6.000000e+00
         vertex 1.634164e+01 1.682918e+01 6.000000e+00
         vertex 1.800000e+01 4.500000e+00 6.000000e+00
      endloop
   endfacet
   facet normal 0.000000e+00 0.000000e+00 -1.000000e+00
      outer loop
         vertex 1.800000e+01 4.500000e+00 6.000000e+00
         vertex 1.634164e+01 1.682918e+01 6.000000e+00
         vertex 1.649623e+01 1.739367e+01 6.000000e+00
      endloop
   endfacet
   facet normal 0.000000e+00 0.000000e+00 -1.000000e+00
      outer loop
         vertex 1.800000e+01 4.500000e+00 6.000000e+00
         vertex 1.649623e+01 1.739367e+01 6.000000e+00
         vertex 1.800000e+01 2.100000e+01 6.000000e+00
      endloop
   endfacet
   facet normal 0.000000e+00 0.000000e+00 -1.000000e+00
      outer loop
         vertex 1.800000e+01 2.100000e+01 6.000000e+00
         vertex 1.649623e+01 1.739367e+01 6.000000e+00
         vertex 1.642302e+01 1.797434e+01 6.000000e+00
      endloop
   endfacet
   facet normal 0.000000e+00 0.000000e+00 -1.000000e+00
      outer loop
         vertex 1.800000e+01 2.100000e+01 6.000000e+00
         vertex 1.642302e+01 1.797434e+01 6.000000e+00
         vertex 1.613318e+01 1.848280e+01 6.000000e+00
      endloop
   endfacet
   facet normal -0.000000e+00 0.000000e+00 -1.000000e+00
      outer loop
         vertex 1.800000e+01 2.100000e+01 6.000000e+00
         vertex 1.310633e+01 1.999623e+01 6.000000e+00
         vertex 0.000000e+00 2.100000e+01 6.000000e+00
      endloop
   endfacet
   facet normal 0.000000e+00 0.000000e+00 -1.000000e+00
      outer loop
         vertex 0.000000e+00 2.100000e+01 6.000000e+00
         vertex 1.310633e+01 1.999623e+01 6.000000e+00
         vertex 1.252566e+01 1.992302e+01 6.000000e+00
      endloop
   endfacet
   facet normal 0.000000e+00 0.000000e+00 -1.000000e+00
      outer loop
         vertex 0.000000e+00 2.100000e+01 6.000000e+00
         vertex 1.252566e+01 1.992302e+01 6.000000e+00
         vertex 1.201720e+01 1.963318e+01 6.000000e+00
      endloop
   endfacet
   facet normal 0.000000e+00 -0.000000e+00 -1.000000e+00
      outer loop
         vertex 1.000000e+01 1.750000e+01 6.000000e+00
         vertex 1.157697e+01 1.802566e+01 6.000000e+00
         vertex 9.967221e+00 1.718813e+01 6.000000e+00
      endloop
   endfacet
   facet normal 0.000000e+00 0.000000e+00 -1.000000e+00
      outer loop
         vertex 9.967221e+00 1.718813e+01 6.000000e+00
         vertex 1.157697e+01 1.802566e+01 6.000000e+00
         vertex 1.186682e+01 1.751720e+01 6.000000e+00
      endloop
   endfacet
   facet normal 0.000000e+00 -0.000000e+00 -1.000000e+00
      outer loop
         vertex 9.967221e+00 1.718813e+01 6.000000e+00
         vertex 1.186682e+01 1.751720e+01 6.000000e+00
         vertex 9.713525e+00 1.661832e+01 6.000000e+00
      endloop
   endfacet
   facet normal 0.000000e+00 0.000000e+00 -1.000000e+00
      outer loop
         vertex 9.713525e+00 1.661832e+01 6.000000e+00
         vertex 1.186682e+01 1.751720e+01 6.000000e+00
         vertex 1.232918e+01 1.715836e+01 6.000000e+00
      endloop
   endfacet
   facet normal 0.000000e+00 0.000000e+00 -1.000000e+00
      outer loop
         vertex 9.713525e+00 1.661832e+01 6.000000e+00
         vertex 1.232918e+01 1.715836e+01 6.000000e+00
         vertex 1.800000e+01 4.500000e+00 6.000000e+00
      endloop
   endfacet
   facet normal 0.000000e+00 0.000000e+00 -1.000000e+00
      outer loop
         vertex 1.800000e+01 4.500000e+00 6.000000e+00
         vertex 1.232918e+01 1.715836e+01 6.000000e+00
         vertex 1.432918e+01 1.615836e+01 6.000000e+00
      endloop
   endfacet
   facet normal 0.000000e+00 0.000000e+00 -1.000000e+00
      outer loop
         vertex 1.800000e+01 4.500000e+00 6.000000e+00
         vertex 1.432918e+01 1.615836e+01 6.000000e+00
         vertex 1.489367e+01 1.600377e+01 6.000000e+00
      endloop
   endfacet
   facet normal 0.000000e+00 0.000000e+00 -1.000000e+00
      outer loop
         vertex 1.613318e+01 1.848280e+01 6.000000e+00
         vertex 1.567082e+01 1.884164e+01 6.000000e+00
         vertex 1.800000e+01 2.100000e+01 6.000000e+00
      endloop
   endfacet
   facet normal 0.000000e+00 0.000000e+00 -1.000000e+00
      outer loop
         vertex 1.800000e+01 2.100000e+01 6.000000e+00
         vertex 1.567082e+01 1.884164e+01 6.000000e+00
         vertex 1.367082e+01 1.984164e+01 6.000000e+00
      endloop
   endfacet
   facet normal 0.000000e+00 0.000000e+00 -1.000000e+00
      outer loop
         vertex 1.800000e+01 2.100000e+01 6.000000e+00
         vertex 1.367082e+01 1.984164e+01 6.000000e+00
         vertex 1.310633e+01 1.999623e+01 6.000000e+00
      endloop
   endfacet
   facet normal -1.000000e+00 0.000000e+00 0.000000e+00
      outer loop
         vertex 0.000000e+00 1.500000e+00 8.500000e+00
         vertex 0.000000e+00 2.100000e+01 8.500000e+00
         vertex 0.000000e+00 2.100000e+01 6.000000e+00
      endloop
   endfacet
   facet normal -1.000000e+00 0.000000e+00 0.000000e+00
      outer loop
         vertex 0.000000e+00 3.000000e+00 0.000000e+00
         vertex 0.000000e+00 0.000000e+00 0.000000e+00
         vertex 0.000000e+00 3.000000e+00 4.500000e+00
      endloop
   endfacet
   facet normal -1.000000e+00 -0.000000e+00 0.000000e+00
      outer loop
         vertex 0.000000e+00 3.000000e+00 4.500000e+00
         vertex 0.000000e+00 0.000000e+00 0.000000e+00
         vertex 0.000000e+00 0.000000e+00 7.000000e+00
      endloop
   endfacet
   facet normal -1.000000e+00 0.000000e+00 0.000000e+00
      outer loop
         vertex 0.000000e+00 3.000000e+00 4.500000e+00
         vertex 0.000000e+00 0.000000e+00 7.000000e+00
         vertex 0.000000e+00 3.114181e+00 5.074025e+00
      endloop
   endfacet
   facet normal -1.000000e+00 0.000000e+00 0.000000e+00
      outer loop
         vertex 0.000000e+00 2.100000e+01 6.000000e+00
         vertex 0.000000e+00 4.500000e+00 6.000000e+00
         vertex 0.000000e+00 1.500000e+00 8.500000e+00
      endloop
   endfacet
   facet normal -1.000000e+00 0.000000e+00 0.000000e+00
      outer loop
         vertex 0.000000e+00 1.500000e+00 8.500000e+00
         vertex 0.000000e+00 4.500000e+00 6.000000e+00
         vertex 0.000000e+00 3.925974e+00 5.885819e+00
      endloop
   endfacet
   facet normal -1.000000e+00 0.000000e+00 -0.000000e+00
      outer loop
         vertex 0.000000e+00 1.500000e+00 8.500000e+00
         vertex 0.000000e+00 3.925974e+00 5.885819e+00
         vertex 0.000000e+00 9.259749e-01 8.385819e+00
      endloop
   endfacet
   facet normal -1.000000e+00 0.000000e+00 0.000000e+00
      outer loop
         vertex 0.000000e+00 9.259749e-01 8.385819e+00
         vertex 0.000000e+00 3.925974e+00 5.885819e+00
         vertex 0.000000e+00 3.439340e+00 5.560660e+00
      endloop
   endfacet
   facet normal -1.000000e+00 0.000000e+00 -0.000000e+00
      outer loop
         vertex 0.000000e+00 9.259749e-01 8.385819e+00
         vertex 0.000000e+00 3.439340e+00 5.560660e+00
         vertex 0.000000e+00 4.393393e-01 8.060660e+00
      endloop
   endfacet
   facet normal -1.000000e+00 0.000000e+00 0.000000e+00
      outer loop
         vertex 0.000000e+00 4.393393e-01 8.060660e+00
         vertex 0.000000e+00 3.439340e+00 5.560660e+00
         vertex 0.000000e+00 3.114181e+00 5.074025e+00
      endloop
   endfacet
   facet normal -1.000000e+00 0.000000e+00 -0.000000e+00
      outer loop
         vertex 0.000000e+00 4.393393e-01 8.060660e+00
         vertex 0.000000e+00 3.114181e+00 5.074025e+00
         vertex 0.000000e+00 1.141801e-01 7.574025e+00
      endloop
   endfacet
   facet normal -1.000000e+00 0.000000e+00 -0.000000e+00
      outer loop
         vertex 0.000000e+00 1.141801e-01 7.574025e+00
         vertex 0.000000e+00 3.114181e+00 5.074025e+00
         vertex 0.000000e+00 0.000000e+00 7.000000e+00
      endloop
   endfacet
   facet normal 0.000000e+00 -1.000000e+00 0.000000e+00
      outer loop
         vertex 0.000000e+00 0.000000e+00 7.000000e+00
         vertex 0.000000e+00 0.000000e+00 0.000000e+00
         vertex 1.800000e+01 0.000000e+00 7.000000e+00
      endloop
   endfacet
   facet normal 0.000000e+00 -1.000000e+00 -0.000000e+00
      outer loop
         vertex 1.800000e+01 0.000000e+00 7.000000e+00
         vertex 0.000000e+00 0.000000e+00 0.000000e+00
         vertex 1.800000e+01 0.000000e+00 0.000000e+00
      endloop
   endfacet
   facet normal 1.000000e+00 0.000000e+00 0.000000e+00
      outer loop
         vertex 1.800000e+01 0.000000e+00 0.000000e+00
         vertex 1.800000e+01 3.000000e+00 0.000000e+00
         vertex 1.800000e+01 0.000000e+00 7.000000e+00
      endloop
   endfacet
   facet normal 1.000000e+00 0.000000e+00 0.000000e+00
      outer loop
         vertex 1.800000e+01 0.000000e+00 7.000000e+00
         vertex 1.800000e+01 3.000000e+00 0.000000e+00
         vertex 1.800000e+01 3.000000e+00 4.500000e+00
      endloop
   endfacet
   facet normal 1.000000e+00 0.000000e+00 0.000000e+00
      outer loop
         vertex 1.800000e+01 0.000000e+00 7.000000e+00
         vertex 1.800000e+01 3.000000e+00 4.500000e+00
         vertex 1.800000e+01 3.114181e+00 5.074025e+00
      endloop
   endfacet
   facet normal 1.000000e+00 0.000000e+00 -0.000000e+00
      outer loop
         vertex 1.800000e+01 2.100000e+01 6.000000e+00
         vertex 1.800000e+01 2.100000e+01 8.500000e+00
         vertex 1.800000e+01 4.500000e+00 6.000000e+00
      endloop
   endfacet
   facet normal 1.000000e+00 0.000000e+00 -0.000000e+00
      outer loop
         vertex 1.800000e+01 4.500000e+00 6.000000e+00
         vertex 1.800000e+01 2.100000e+01 8.500000e+00
         vertex 1.800000e+01 1.500000e+00 8.500000e+00
      endloop
   endfacet
   facet normal 1.000000e+00 -0.000000e+00 0.000000e+00
      outer loop
         vertex 1.800000e+01 1.141801e-01 7.574025e+00
         vertex 1.800000e+01 0.000000e+00 7.000000e+00
         vertex 1.800000e+01 4.393393e-01 8.060660e+00
      endloop
   endfacet
   facet normal 1.000000e+00 0.000000e+00 0.000000e+00
      outer loop
         vertex 1.800000e+01 4.393393e-01 8.060660e+00
         vertex 1.800000e+01 0.000000e+00 7.000000e+00
         vertex 1.800000e+01 3.114181e+00 5.074025e+00
      endloop
   endfacet
   facet normal 1.000000e+00 -0.000000e+00 0.000000e+00
      outer loop
         vertex 1.800000e+01 4.393393e-01 8.060660e+00
         vertex 1.800000e+01 3.114181e+00 5.074025e+00
         vertex 1.800000e+01 9.259749e-01 8.385819e+00
      endloop
   endfacet
   facet normal 1.000000e+00 0.000000e+00 0.000000e+00
      outer loop
         vertex 1.800000e+01 9.259749e-01 8.385819e+00
         vertex 1.800000e+01 3.114181e+00 5.074025e+00
         vertex 1.800000e+01 3.439340e+00 5.560660e+00
      endloop
   endfacet
   facet normal 1.000000e+00 -0.000000e+00 0.000000e+00
      outer loop
         vertex 1.800000e+01 9.259749e-01 8.385819e+00
         vertex 1.800000e+01 3.439340e+00 5.560660e+00
         vertex 1.800000e+01 1.500000e+00 8.500000e+00
      endloop
   endfacet
   facet normal 1.000000e+00 0.000000e+00 0.000000e+00
      outer loop
         vertex 1.800000e+01 1.500000e+00 8.500000e+00
         vertex 1.800000e+01 3.439340e+00 5.560660e+00
         vertex 1.800000e+01 3.925974e+00 5.885819e+00
      endloop
   endfacet
   facet normal 1.000000e+00 0.000000e+00 0.000000e+00
      outer loop
         vertex 1.800000e+01 1.500000e+00 8.500000e+00
         vertex 1.800000e+01 3.925974e+00 5.885819e+00
         vertex 1.800000e+01 4.500000e+00 6.000000e+00
      endloop
   endfacet
   facet normal -6.131153e-01 -7.899934e-01 -0.000000e+00
      outer loop
         vertex 1.567082e+01 1.884164e+01 8.500000e+00
         vertex 1.567082e+01 1.884164e+01 6.000000e+00
         vertex 1.613318e+01 1.848280e+01 8.500000e+00
      endloop
   endfacet
   facet normal -6.131153e-01 -7.899934e-01 -0.000000e+00
      outer loop
         vertex 1.613318e+01 1.848280e+01 8.500000e+00
         vertex 1.567082e+01 1.884164e+01 6.000000e+00
         vertex 1.613318e+01 1.848280e+01 6.000000e+00
      endloop
   endfacet
   facet normal -8.687615e-01 -4.952308e-01 -0.000000e+00
      outer loop
         vertex 1.613318e+01 1.848280e+01 8.500000e+00
         vertex 1.613318e+01 1.848280e+01 6.000000e+00
         vertex 1.642302e+01 1.797434e+01 8.500000e+00
      endloop
   endfacet
   facet normal -8.687615e-01 -4.952308e-01 -0.000000e+00
      outer loop
         vertex 1.642302e+01 1.797434e+01 8.500000e+00
         vertex 1.613318e+01 1.848280e+01 6.000000e+00
         vertex 1.642302e+01 1.797434e+01 6.000000e+00
      endloop
   endfacet
   facet normal -9.921477e-01 -1.250721e-01 -0.000000e+00
      outer loop
         vertex 1.642302e+01 1.797434e+01 8.500000e+00
         vertex 1.642302e+01 1.797434e+01 6.000000e+00
         vertex 1.649623e+01 1.739367e+01 8.500000e+00
      endloop
   endfacet
   facet normal -9.921477e-01 -1.250721e-01 -0.000000e+00
      outer loop
         vertex 1.649623e+01 1.739367e+01 8.500000e+00
         vertex 1.642302e+01 1.797434e+01 6.000000e+00
         vertex 1.649623e+01 1.739367e+01 6.000000e+00
      endloop
   endfacet
   facet normal -9.644882e-01 2.641258e-01 0.000000e+00
      outer loop
         vertex 1.649623e+01 1.739367e+01 8.500000e+00
         vertex 1.649623e+01 1.739367e+01 6.000000e+00
         vertex 1.634164e+01 1.682918e+01 8.500000e+00
      endloop
   endfacet
   facet normal -9.644882e-01 2.641258e-01 0.000000e+00
      outer loop
         vertex 1.634164e+01 1.682918e+01 8.500000e+00
         vertex 1.649623e+01 1.739367e+01 6.000000e+00
         vertex 1.634164e+01 1.682918e+01 6.000000e+00
      endloop
   endfacet
   facet normal -7.899937e-01 6.131149e-01 0.000000e+00
      outer loop
         vertex 1.634164e+01 1.682918e+01 8.500000e+00
         vertex 1.634164e+01 1.682918e+01 6.000000e+00
         vertex 1.598280e+01 1.636682e+01 8.500000e+00
      endloop
   endfacet
   facet normal -7.899937e-01 6.131149e-01 0.000000e+00
      outer loop
         vertex 1.598280e+01 1.636682e+01 8.500000e+00
         vertex 1.634164e+01 1.682918e+01 6.000000e+00
         vertex 1.598280e+01 1.636682e+01 6.000000e+00
      endloop
   endfacet
   facet normal -4.952305e-01 8.687616e-01 0.000000e+00
      outer loop
         vertex 1.598280e+01 1.636682e+01 8.500000e+00
         vertex 1.598280e+01 1.636682e+01 6.000000e+00
         vertex 1.547434e+01 1.607698e+01 8.500000e+00
      endloop
   endfacet
   facet normal -4.952305e-01 8.687616e-01 0.000000e+00
      outer loop
         vertex 1.547434e+01 1.607698e+01 8.500000e+00
         vertex 1.598280e+01 1.636682e+01 6.000000e+00
         vertex 1.547434e+01 1.607698e+01 6.000000e+00
      endloop
   endfacet
   facet normal -1.250728e-01 9.921476e-01 0.000000e+00
      outer loop
         vertex 1.547434e+01 1.607698e+01 8.500000e+00
         vertex 1.547434e+01 1.607698e+01 6.000000e+00
         vertex 1.489367e+01 1.600377e+01 8.500000e+00
      endloop
   endfacet
   facet normal -1.250728e-01 9.921476e-01 0.000000e+00
      outer loop
         vertex 1.489367e+01 1.600377e+01 8.500000e+00
         vertex 1.547434e+01 1.607698e+01 6.000000e+00
         vertex 1.489367e+01 1.600377e+01 6.000000e+00
      endloop
   endfacet
   facet normal 2.641266e-01 9.644880e-01 0.000000e+00
      outer loop
         vertex 1.489367e+01 1.600377e+01 8.500000e+00
         vertex 1.489367e+01 1.600377e+01 6.000000e+00
         vertex 1.432918e+01 1.615836e+01 8.500000e+00
      endloop
   endfacet
   facet normal 2.641266e-01 9.644880e-01 0.000000e+00
      outer loop
         vertex 1.432918e+01 1.615836e+01 8.500000e+00
         vertex 1.489367e+01 1.600377e+01 6.000000e+00
         vertex 1.432918e+01 1.615836e+01 6.000000e+00
      endloop
   endfacet
   facet normal 4.472137e-01 8.944271e-01 0.000000e+00
      outer loop
         vertex 1.232918e+01 1.715836e+01 8.500000e+00
         vertex 1.432918e+01 1.615836e+01 8.500000e+00
         vertex 1.232918e+01 1.715836e+01 6.000000e+00
      endloop
   endfacet
   facet normal 4.472137e-01 8.944271e-01 0.000000e+00
      outer loop
         vertex 1.232918e+01 1.715836e+01 6.000000e+00
         vertex 1.432918e+01 1.615836e+01 8.500000e+00
         vertex 1.432918e+01 1.615836e+01 6.000000e+00
      endloop
   endfacet
   facet normal 6.131144e-01 7.899941e-01 0.000000e+00
      outer loop
         vertex 1.232918e+01 1.715836e+01 8.500000e+00
         vertex 1.232918e+01 1.715836e+01 6.000000e+00
         vertex 1.186682e+01 1.751720e+01 8.500000e+00
      endloop
   endfacet
   facet normal 6.131144e-01 7.899941e-01 0.000000e+00
      outer loop
         vertex 1.186682e+01 1.751720e+01 8.500000e+00
         vertex 1.232918e+01 1.715836e+01 6.000000e+00
         vertex 1.186682e+01 1.751720e+01 6.000000e+00
      endloop
   endfacet
   facet normal 8.687616e-01 4.952305e-01 0.000000e+00
      outer loop
         vertex 1.186682e+01 1.751720e+01 8.500000e+00
         vertex 1.186682e+01 1.751720e+01 6.000000e+00
         vertex 1.157697e+01 1.802566e+01 8.500000e+00
      endloop
   endfacet
   facet normal 8.687616e-01 4.952305e-01 0.000000e+00
      outer loop
         vertex 1.157697e+01 1.802566e+01 8.500000e+00
         vertex 1.186682e+01 1.751720e+01 6.000000e+00
         vertex 1.157697e+01 1.802566e+01 6.000000e+00
      endloop
   endfacet
   facet normal 9.921476e-01 1.250729e-01 0.000000e+00
      outer loop
         vertex 1.157697e+01 1.802566e+01 8.500000e+00
         vertex 1.157697e+01 1.802566e+01 6.000000e+00
         vertex 1.150377e+01 1.860633e+01 8.500000e+00
      endloop
   endfacet
   facet normal 9.921476e-01 1.250729e-01 0.000000e+00
      outer loop
         vertex 1.150377e+01 1.860633e+01 8.500000e+00
         vertex 1.157697e+01 1.802566e+01 6.000000e+00
         vertex 1.150377e+01 1.860633e+01 6.000000e+00
      endloop
   endfacet
   facet normal 9.644881e-01 -2.641262e-01 0.000000e+00
      outer loop
         vertex 1.150377e+01 1.860633e+01 8.500000e+00
         vertex 1.150377e+01 1.860633e+01 6.000000e+00
         vertex 1.165836e+01 1.917082e+01 8.500000e+00
      endloop
   endfacet
   facet normal 9.644881e-01 -2.641262e-01 0.000000e+00
      outer loop
         vertex 1.165836e+01 1.917082e+01 8.500000e+00
         vertex 1.150377e+01 1.860633e+01 6.000000e+00
         vertex 1.165836e+01 1.917082e+01 6.000000e+00
      endloop
   endfacet
   facet normal 7.899935e-01 -6.131152e-01 0.000000e+00
      outer loop
         vertex 1.165836e+01 1.917082e+01 8.500000e+00
         vertex 1.165836e+01 1.917082e+01 6.000000e+00
         vertex 1.201720e+01 1.963318e+01 8.500000e+00
      endloop
   endfacet
   facet normal 7.899935e-01 -6.131152e-01 0.000000e+00
      outer loop
         vertex 1.201720e+01 1.963318e+01 8.500000e+00
         vertex 1.165836e+01 1.917082e+01 6.000000e+00
         vertex 1.201720e+01 1.963318e+01 6.000000e+00
      endloop
   endfacet
   facet normal 4.952309e-01 -8.687614e-01 0.000000e+00
      outer loop
         vertex 1.201720e+01 1.963318e+01 8.500000e+00
         vertex 1.201720e+01 1.963318e+01 6.000000e+00
         vertex 1.252566e+01 1.992302e+01 8.500000e+00
      endloop
   endfacet
   facet normal 4.952309e-01 -8.687614e-01 0.000000e+00
      outer loop
         vertex 1.252566e+01 1.992302e+01 8.500000e+00
         vertex 1.201720e+01 1.963318e+01 6.000000e+00
         vertex 1.252566e+01 1.992302e+01 6.000000e+00
      endloop
   endfacet
   facet normal 1.250720e-01 -9.921477e-01 0.000000e+00
      outer loop
         vertex 1.252566e+01 1.992302e+01 8.500000e+00
         vertex 1.252566e+01 1.992302e+01 6.000000e+00
         vertex 1.310633e+01 1.999623e+01 8.500000e+00
      endloop
   endfacet
   facet normal 1.250720e-01 -9.921477e-01 0.000000e+00
      outer loop
         vertex 1.310633e+01 1.999623e+01 8.500000e+00
         vertex 1.252566e+01 1.992302e+01 6.000000e+00
         vertex 1.310633e+01 1.999623e+01 6.000000e+00
      endloop
   endfacet
   facet normal -2.641266e-01 -9.644880e-01 -0.000000e+00
      outer loop
         vertex 1.310633e+01 1.999623e+01 8.500000e+00
         vertex 1.310633e+01 1.999623e+01 6.000000e+00
         vertex 1.367082e+01 1.984164e+01 8.500000e+00
      endloop
   endfacet
   facet normal -2.641266e-01 -9.644880e-01 -0.000000e+00
      outer loop
         vertex 1.367082e+01 1.984164e+01 8.500000e+00
         vertex 1.310633e+01 1.999623e+01 6.000000e+00
         vertex 1.367082e+01 1.984164e+01 6.000000e+00
      endloop
   endfacet
   facet normal 9.781475e-01 -2.079121e-01 0.000000e+00
      outer loop
         vertex 2.499999e+00 1.850000e+01 8.500000e+00
         vertex 2.499999e+00 1.850000e+01 6.000000e+00
         vertex 2.629681e+00 1.911011e+01 8.500000e+00
      endloop
   endfacet
   facet normal 9.781475e-01 -2.079121e-01 0.000000e+00
      outer loop
         vertex 2.629681e+00 1.911011e+01 8.500000e+00
         vertex 2.499999e+00 1.850000e+01 6.000000e+00
         vertex 2.629681e+00 1.911011e+01 6.000000e+00
      endloop
   endfacet
   facet normal 8.090170e-01 -5.877853e-01 0.000000e+00
      outer loop
         vertex 2.629681e+00 1.911011e+01 8.500000e+00
         vertex 2.629681e+00 1.911011e+01 6.000000e+00
         vertex 2.996304e+00 1.961472e+01 8.500000e+00
      endloop
   endfacet
   facet normal 8.090170e-01 -5.877853e-01 0.000000e+00
      outer loop
         vertex 2.996304e+00 1.961472e+01 8.500000e+00
         vertex 2.629681e+00 1.911011e+01 6.000000e+00
         vertex 2.996304e+00 1.961472e+01 6.000000e+00
      endloop
   endfacet
   facet normal 4.999998e-01 -8.660255e-01 0.000000e+00
      outer loop
         vertex 2.996304e+00 1.961472e+01 8.500000e+00
         vertex 2.996304e+00 1.961472e+01 6.000000e+00
         vertex 3.536474e+00 1.992658e+01 8.500000e+00
      endloop
   endfacet
   facet normal 4.999998e-01 -8.660255e-01 0.000000e+00
      outer loop
         vertex 3.536474e+00 1.992658e+01 8.500000e+00
         vertex 2.996304e+00 1.961472e+01 6.000000e+00
         vertex 3.536474e+00 1.992658e+01 6.000000e+00
      endloop
   endfacet
   facet normal 1.045286e-01 -9.945219e-01 0.000000e+00
      outer loop
         vertex 3.536474e+00 1.992658e+01 8.500000e+00
         vertex 3.536474e+00 1.992658e+01 6.000000e+00
         vertex 4.156793e+00 1.999178e+01 8.500000e+00
      endloop
   endfacet
   facet normal 1.045286e-01 -9.945219e-01 0.000000e+00
      outer loop
         vertex 4.156793e+00 1.999178e+01 8.500000e+00
         vertex 3.536474e+00 1.992658e+01 6.000000e+00
         vertex 4.156793e+00 1.999178e+01 6.000000e+00
      endloop
   endfacet
   facet normal -3.090171e-01 -9.510565e-01 -0.000000e+00
      outer loop
         vertex 4.156793e+00 1.999178e+01 8.500000e+00
         vertex 4.156793e+00 1.999178e+01 6.000000e+00
         vertex 4.749999e+00 1.979904e+01 8.500000e+00
      endloop
   endfacet
   facet normal -3.090171e-01 -9.510565e-01 -0.000000e+00
      outer loop
         vertex 4.749999e+00 1.979904e+01 8.500000e+00
         vertex 4.156793e+00 1.999178e+01 6.000000e+00
         vertex 4.749999e+00 1.979904e+01 6.000000e+00
      endloop
   endfacet
   facet normal -6.691303e-01 -7.431451e-01 -0.000000e+00
      outer loop
         vertex 4.749999e+00 1.979904e+01 8.500000e+00
         vertex 4.749999e+00 1.979904e+01 6.000000e+00
         vertex 5.213525e+00 1.938168e+01 8.500000e+00
      endloop
   endfacet
   facet normal -6.691303e-01 -7.431451e-01 -0.000000e+00
      outer loop
         vertex 5.213525e+00 1.938168e+01 8.500000e+00
         vertex 4.749999e+00 1.979904e+01 6.000000e+00
         vertex 5.213525e+00 1.938168e+01 6.000000e+00
      endloop
   endfacet
   facet normal -9.135455e-01 -4.067366e-01 -0.000000e+00
      outer loop
         vertex 5.213525e+00 1.938168e+01 8.500000e+00
         vertex 5.213525e+00 1.938168e+01 6.000000e+00
         vertex 5.467221e+00 1.881187e+01 8.500000e+00
      endloop
   endfacet
   facet normal -9.135455e-01 -4.067366e-01 -0.000000e+00
      outer loop
         vertex 5.467221e+00 1.881187e+01 8.500000e+00
         vertex 5.213525e+00 1.938168e+01 6.000000e+00
         vertex 5.467221e+00 1.881187e+01 6.000000e+00
      endloop
   endfacet
   facet normal -9.945219e-01 -1.045285e-01 -0.000000e+00
      outer loop
         vertex 5.467221e+00 1.881187e+01 8.500000e+00
         vertex 5.467221e+00 1.881187e+01 6.000000e+00
         vertex 5.500000e+00 1.850000e+01 8.500000e+00
      endloop
   endfacet
   facet normal -9.945219e-01 -1.045285e-01 -0.000000e+00
      outer loop
         vertex 5.500000e+00 1.850000e+01 8.500000e+00
         vertex 5.467221e+00 1.881187e+01 6.000000e+00
         vertex 5.500000e+00 1.850000e+01 6.000000e+00
      endloop
   endfacet
   facet normal -9.945219e-01 1.045284e-01 0.000000e+00
      outer loop
         vertex 5.500000e+00 1.850000e+01 8.500000e+00
         vertex 5.500000e+00 1.850000e+01 6.000000e+00
         vertex 5.467221e+00 1.818813e+01 8.500000e+00
      endloop
   endfacet
   facet normal -9.945219e-01 1.045284e-01 0.000000e+00
      outer loop
         vertex 5.467221e+00 1.818813e+01 8.500000e+00
         vertex 5.500000e+00 1.850000e+01 6.000000e+00
         vertex 5.467221e+00 1.818813e+01 6.000000e+00
      endloop
   endfacet
   facet normal -9.135456e-01 4.067363e-01 0.000000e+00
      outer loop
         vertex 5.467221e+00 1.818813e+01 8.500000e+00
         vertex 5.467221e+00 1.818813e+01 6.000000e+00
         vertex 5.213525e+00 1.761832e+01 8.500000e+00
      endloop
   endfacet
   facet normal -9.135456e-01 4.067363e-01 0.000000e+00
      outer loop
         vertex 5.213525e+00 1.761832e+01 8.500000e+00
         vertex 5.467221e+00 1.818813e+01 6.000000e+00
         vertex 5.213525e+00 1.761832e+01 6.000000e+00
      endloop
   endfacet
   facet normal -6.691303e-01 7.431451e-01 0.000000e+00
      outer loop
         vertex 5.213525e+00 1.761832e+01 8.500000e+00
         vertex 5.213525e+00 1.761832e+01 6.000000e+00
         vertex 4.749999e+00 1.720096e+01 8.500000e+00
      endloop
   endfacet
   facet normal -6.691303e-01 7.431451e-01 0.000000e+00
      outer loop
         vertex 4.749999e+00 1.720096e+01 8.500000e+00
         vertex 5.213525e+00 1.761832e+01 6.000000e+00
         vertex 4.749999e+00 1.720096e+01 6.000000e+00
      endloop
   endfacet
   facet normal -3.090171e-01 9.510565e-01 0.000000e+00
      outer loop
         vertex 4.749999e+00 1.720096e+01 8.500000e+00
         vertex 4.749999e+00 1.720096e+01 6.000000e+00
         vertex 4.156793e+00 1.700822e+01 8.500000e+00
      endloop
   endfacet
   facet normal -3.090171e-01 9.510565e-01 0.000000e+00
      outer loop
         vertex 4.156793e+00 1.700822e+01 8.500000e+00
         vertex 4.749999e+00 1.720096e+01 6.000000e+00
         vertex 4.156793e+00 1.700822e+01 6.000000e+00
      endloop
   endfacet
   facet normal 1.045286e-01 9.945219e-01 0.000000e+00
      outer loop
         vertex 4.156793e+00 1.700822e+01 8.500000e+00
         vertex 4.156793e+00 1.700822e+01 6.000000e+00
         vertex 3.536474e+00 1.707342e+01 8.500000e+00
      endloop
   endfacet
   facet normal 1.045286e-01 9.945219e-01 0.000000e+00
      outer loop
         vertex 3.536474e+00 1.707342e+01 8.500000e+00
         vertex 4.156793e+00 1.700822e+01 6.000000e+00
         vertex 3.536474e+00 1.707342e+01 6.000000e+00
      endloop
   endfacet
   facet normal 4.999998e-01 8.660255e-01 0.000000e+00
      outer loop
         vertex 3.536474e+00 1.707342e+01 8.500000e+00
         vertex 3.536474e+00 1.707342e+01 6.000000e+00
         vertex 2.996304e+00 1.738528e+01 8.500000e+00
      endloop
   endfacet
   facet normal 4.999998e-01 8.660255e-01 0.000000e+00
      outer loop
         vertex 2.996304e+00 1.738528e+01 8.500000e+00
         vertex 3.536474e+00 1.707342e+01 6.000000e+00
         vertex 2.996304e+00 1.738528e+01 6.000000e+00
      endloop
   endfacet
   facet normal 8.090172e-01 5.877849e-01 0.000000e+00
      outer loop
         vertex 2.996304e+00 1.738528e+01 8.500000e+00
         vertex 2.996304e+00 1.738528e+01 6.000000e+00
         vertex 2.629681e+00 1.788990e+01 8.500000e+00
      endloop
   endfacet
   facet normal 8.090172e-01 5.877849e-01 0.000000e+00
      outer loop
         vertex 2.629681e+00 1.788990e+01 8.500000e+00
         vertex 2.996304e+00 1.738528e+01 6.000000e+00
         vertex 2.629681e+00 1.788990e+01 6.000000e+00
      endloop
   endfacet
   facet normal 9.781476e-01 2.079119e-01 0.000000e+00
      outer loop
         vertex 2.629681e+00 1.788990e+01 8.500000e+00
         vertex 2.629681e+00 1.788990e+01 6.000000e+00
         vertex 2.499999e+00 1.850000e+01 8.500000e+00
      endloop
   endfacet
   facet normal 9.781476e-01 2.079119e-01 0.000000e+00
      outer loop
         vertex 2.499999e+00 1.850000e+01 8.500000e+00
         vertex 2.629681e+00 1.788990e+01 6.000000e+00
         vertex 2.499999e+00 1.850000e+01 6.000000e+00
      endloop
   endfacet
   facet normal -4.472133e-01 -8.944274e-01 -0.000000e+00
      outer loop
         vertex 1.567082e+01 1.884164e+01 8.500000e+00
         vertex 1.367082e+01 1.984164e+01 8.500000e+00
         vertex 1.567082e+01 1.884164e+01 6.000000e+00
      endloop
   endfacet
   facet normal -4.472133e-01 -8.944274e-01 0.000000e+00
      outer loop
         vertex 1.567082e+01 1.884164e+01 6.000000e+00
         vertex 1.367082e+01 1.984164e+01 8.500000e+00
         vertex 1.367082e+01 1.984164e+01 6.000000e+00
      endloop
   endfacet
   facet normal 9.781476e-01 -2.079119e-01 0.000000e+00
      outer loop
         vertex 7.000000e+00 1.750000e+01 8.500000e+00
         vertex 7.000000e+00 1.750000e+01 6.000000e+00
         vertex 7.129681e+00 1.811010e+01 8.500000e+00
      endloop
   endfacet
   facet normal 9.781476e-01 -2.079119e-01 0.000000e+00
      outer loop
         vertex 7.129681e+00 1.811010e+01 8.500000e+00
         vertex 7.000000e+00 1.750000e+01 6.000000e+00
         vertex 7.129681e+00 1.811010e+01 6.000000e+00
      endloop
   endfacet
   facet normal 8.090169e-01 -5.877854e-01 0.000000e+00
      outer loop
         vertex 7.129681e+00 1.811010e+01 8.500000e+00
         vertex 7.129681e+00 1.811010e+01 6.000000e+00
         vertex 7.496304e+00 1.861472e+01 8.500000e+00
      endloop
   endfacet
   facet normal 8.090169e-01 -5.877854e-01 0.000000e+00
      outer loop
         vertex 7.496304e+00 1.861472e+01 8.500000e+00
         vertex 7.129681e+00 1.811010e+01 6.000000e+00
         vertex 7.496304e+00 1.861472e+01 6.000000e+00
      endloop
   endfacet
   facet normal 5.000008e-01 -8.660249e-01 0.000000e+00
      outer loop
         vertex 7.496304e+00 1.861472e+01 8.500000e+00
         vertex 7.496304e+00 1.861472e+01 6.000000e+00
         vertex 8.036474e+00 1.892659e+01 8.500000e+00
      endloop
   endfacet
   facet normal 5.000008e-01 -8.660249e-01 0.000000e+00
      outer loop
         vertex 8.036474e+00 1.892659e+01 8.500000e+00
         vertex 7.496304e+00 1.861472e+01 6.000000e+00
         vertex 8.036474e+00 1.892659e+01 6.000000e+00
      endloop
   endfacet
   facet normal 1.045271e-01 -9.945220e-01 0.000000e+00
      outer loop
         vertex 8.036474e+00 1.892659e+01 8.500000e+00
         vertex 8.036474e+00 1.892659e+01 6.000000e+00
         vertex 8.656792e+00 1.899178e+01 8.500000e+00
      endloop
   endfacet
   facet normal 1.045271e-01 -9.945220e-01 0.000000e+00
      outer loop
         vertex 8.656792e+00 1.899178e+01 8.500000e+00
         vertex 8.036474e+00 1.892659e+01 6.000000e+00
         vertex 8.656792e+00 1.899178e+01 6.000000e+00
      endloop
   endfacet
   facet normal -3.090169e-01 -9.510566e-01 -0.000000e+00
      outer loop
         vertex 8.656792e+00 1.899178e+01 8.500000e+00
         vertex 8.656792e+00 1.899178e+01 6.000000e+00
         vertex 9.250000e+00 1.879904e+01 8.500000e+00
      endloop
   endfacet
   facet normal -3.090169e-01 -9.510566e-01 -0.000000e+00
      outer loop
         vertex 9.250000e+00 1.879904e+01 8.500000e+00
         vertex 8.656792e+00 1.899178e+01 6.000000e+00
         vertex 9.250000e+00 1.879904e+01 6.000000e+00
      endloop
   endfacet
   facet normal -6.691305e-01 -7.431449e-01 -0.000000e+00
      outer loop
         vertex 9.250000e+00 1.879904e+01 8.500000e+00
         vertex 9.250000e+00 1.879904e+01 6.000000e+00
         vertex 9.713525e+00 1.838168e+01 8.500000e+00
      endloop
   endfacet
   facet normal -6.691305e-01 -7.431449e-01 -0.000000e+00
      outer loop
         vertex 9.713525e+00 1.838168e+01 8.500000e+00
         vertex 9.250000e+00 1.879904e+01 6.000000e+00
         vertex 9.713525e+00 1.838168e+01 6.000000e+00
      endloop
   endfacet
   facet normal -9.135454e-01 -4.067367e-01 -0.000000e+00
      outer loop
         vertex 9.713525e+00 1.838168e+01 8.500000e+00
         vertex 9.713525e+00 1.838168e+01 6.000000e+00
         vertex 9.967221e+00 1.781187e+01 8.500000e+00
      endloop
   endfacet
   facet normal -9.135454e-01 -4.067367e-01 -0.000000e+00
      outer loop
         vertex 9.967221e+00 1.781187e+01 8.500000e+00
         vertex 9.713525e+00 1.838168e+01 6.000000e+00
         vertex 9.967221e+00 1.781187e+01 6.000000e+00
      endloop
   endfacet
   facet normal -9.945219e-01 -1.045287e-01 -0.000000e+00
      outer loop
         vertex 9.967221e+00 1.781187e+01 8.500000e+00
         vertex 9.967221e+00 1.781187e+01 6.000000e+00
         vertex 1.000000e+01 1.750000e+01 8.500000e+00
      endloop
   endfacet
   facet normal -9.945219e-01 -1.045287e-01 -0.000000e+00
      outer loop
         vertex 1.000000e+01 1.750000e+01 8.500000e+00
         vertex 9.967221e+00 1.781187e+01 6.000000e+00
         vertex 1.000000e+01 1.750000e+01 6.000000e+00
      endloop
   endfacet
   facet normal -9.945219e-01 1.045286e-01 0.000000e+00
      outer loop
         vertex 1.000000e+01 1.750000e+01 8.500000e+00
         vertex 1.000000e+01 1.750000e+01 6.000000e+00
         vertex 9.967221e+00 1.718813e+01 8.500000e+00
      endloop
   endfacet
   facet normal -9.945219e-01 1.045286e-01 0.000000e+00
      outer loop
         vertex 9.967221e+00 1.718813e+01 8.500000e+00
         vertex 1.000000e+01 1.750000e+01 6.000000e+00
         vertex 9.967221e+00 1.718813e+01 6.000000e+00
      endloop
   endfacet
   facet normal -9.135454e-01 4.067367e-01 0.000000e+00
      outer loop
         vertex 9.967221e+00 1.718813e+01 8.500000e+00
         vertex 9.967221e+00 1.718813e+01 6.000000e+00
         vertex 9.713525e+00 1.661832e+01 8.500000e+00
      endloop
   endfacet
   facet normal -9.135454e-01 4.067367e-01 0.000000e+00
      outer loop
         vertex 9.713525e+00 1.661832e+01 8.500000e+00
         vertex 9.967221e+00 1.718813e+01 6.000000e+00
         vertex 9.713525e+00 1.661832e+01 6.000000e+00
      endloop
   endfacet
   facet normal -6.691309e-01 7.431446e-01 0.000000e+00
      outer loop
         vertex 9.713525e+00 1.661832e+01 8.500000e+00
         vertex 9.713525e+00 1.661832e+01 6.000000e+00
         vertex 9.250000e+00 1.620096e+01 8.500000e+00
      endloop
   endfacet
   facet normal -6.691309e-01 7.431446e-01 0.000000e+00
      outer loop
         vertex 9.250000e+00 1.620096e+01 8.500000e+00
         vertex 9.713525e+00 1.661832e+01 6.000000e+00
         vertex 9.250000e+00 1.620096e+01 6.000000e+00
      endloop
   endfacet
   facet normal -3.090169e-01 9.510566e-01 0.000000e+00
      outer loop
         vertex 9.250000e+00 1.620096e+01 8.500000e+00
         vertex 9.250000e+00 1.620096e+01 6.000000e+00
         vertex 8.656792e+00 1.600822e+01 8.500000e+00
      endloop
   endfacet
   facet normal -3.090169e-01 9.510566e-01 0.000000e+00
      outer loop
         vertex 8.656792e+00 1.600822e+01 8.500000e+00
         vertex 9.250000e+00 1.620096e+01 6.000000e+00
         vertex 8.656792e+00 1.600822e+01 6.000000e+00
      endloop
   endfacet
   facet normal 1.045286e-01 9.945219e-01 0.000000e+00
      outer loop
         vertex 8.656792e+00 1.600822e+01 8.500000e+00
         vertex 8.656792e+00 1.600822e+01 6.000000e+00
         vertex 8.036474e+00 1.607342e+01 8.500000e+00
      endloop
   endfacet
   facet normal 1.045286e-01 9.945219e-01 0.000000e+00
      outer loop
         vertex 8.036474e+00 1.607342e+01 8.500000e+00
         vertex 8.656792e+00 1.600822e+01 6.000000e+00
         vertex 8.036474e+00 1.607342e+01 6.000000e+00
      endloop
   endfacet
   facet normal 4.999997e-01 8.660256e-01 0.000000e+00
      outer loop
         vertex 8.036474e+00 1.607342e+01 8.500000e+00
         vertex 8.036474e+00 1.607342e+01 6.000000e+00
         vertex 7.496304e+00 1.638528e+01 8.500000e+00
      endloop
   endfacet
   facet normal 4.999997e-01 8.660256e-01 0.000000e+00
      outer loop
         vertex 7.496304e+00 1.638528e+01 8.500000e+00
         vertex 8.036474e+00 1.607342e+01 6.000000e+00
         vertex 7.496304e+00 1.638528e+01 6.000000e+00
      endloop
   endfacet
   facet normal 8.090171e-01 5.877851e-01 0.000000e+00
      outer loop
         vertex 7.496304e+00 1.638528e+01 8.500000e+00
         vertex 7.496304e+00 1.638528e+01 6.000000e+00
         vertex 7.129681e+00 1.688989e+01 8.500000e+00
      endloop
   endfacet
   facet normal 8.090171e-01 5.877851e-01 0.000000e+00
      outer loop
         vertex 7.129681e+00 1.688989e+01 8.500000e+00
         vertex 7.496304e+00 1.638528e+01 6.000000e+00
         vertex 7.129681e+00 1.688989e+01 6.000000e+00
      endloop
   endfacet
   facet normal 9.781476e-01 2.079117e-01 0.000000e+00
      outer loop
         vertex 7.129681e+00 1.688989e+01 8.500000e+00
         vertex 7.129681e+00 1.688989e+01 6.000000e+00
         vertex 7.000000e+00 1.750000e+01 8.500000e+00
      endloop
   endfacet
   facet normal 9.781476e-01 2.079117e-01 0.000000e+00
      outer loop
         vertex 7.000000e+00 1.750000e+01 8.500000e+00
         vertex 7.129681e+00 1.688989e+01 6.000000e+00
         vertex 7.000000e+00 1.750000e+01 6.000000e+00
      endloop
   endfacet
   facet normal -0.000000e+00 1.000000e+00 0.000000e+00
      outer loop
         vertex 0.000000e+00 2.100000e+01 8.500000e+00
         vertex 1.800000e+01 2.100000e+01 8.500000e+00
         vertex 0.000000e+00 2.100000e+01 6.000000e+00
      endloop
   endfacet
   facet normal 0.000000e+00 1.000000e+00 0.000000e+00
      outer loop
         vertex 0.000000e+00 2.100000e+01 6.000000e+00
         vertex 1.800000e+01 2.100000e+01 8.500000e+00
         vertex 1.800000e+01 2.100000e+01 6.000000e+00
      endloop
   endfacet
   facet normal 0.000000e+00 -0.000000e+00 1.000000e+00
      outer loop
         vertex 2.629681e+00 1.911011e+01 8.500000e+00
         vertex 2.996304e+00 1.961472e+01 8.500000e+00
         vertex 0.000000e+00 2.100000e+01 8.500000e+00
      endloop
   endfacet
   facet normal 0.000000e+00 0.000000e+00 1.000000e+00
      outer loop
         vertex 5.500000e+00 1.850000e+01 8.500000e+00
         vertex 7.496304e+00 1.638528e+01 8.500000e+00
         vertex 7.129681e+00 1.688989e+01 8.500000e+00
      endloop
   endfacet
   facet normal 0.000000e+00 0.000000e+00 1.000000e+00
      outer loop
         vertex 1.598280e+01 1.636682e+01 8.500000e+00
         vertex 1.547434e+01 1.607698e+01 8.500000e+00
         vertex 1.800000e+01 1.500000e+00 8.500000e+00
      endloop
   endfacet
   facet normal 0.000000e+00 0.000000e+00 1.000000e+00
      outer loop
         vertex 1.800000e+01 1.500000e+00 8.500000e+00
         vertex 1.547434e+01 1.607698e+01 8.500000e+00
         vertex 1.489367e+01 1.600377e+01 8.500000e+00
      endloop
   endfacet
   facet normal 0.000000e+00 0.000000e+00 1.000000e+00
      outer loop
         vertex 8.036474e+00 1.607342e+01 8.500000e+00
         vertex 0.000000e+00 1.500000e+00 8.500000e+00
         vertex 8.656792e+00 1.600822e+01 8.500000e+00
      endloop
   endfacet
   facet normal 0.000000e+00 0.000000e+00 1.000000e+00
      outer loop
         vertex 8.656792e+00 1.600822e+01 8.500000e+00
         vertex 0.000000e+00 1.500000e+00 8.500000e+00
         vertex 1.800000e+01 1.500000e+00 8.500000e+00
      endloop
   endfacet
   facet normal -0.000000e+00 0.000000e+00 1.000000e+00
      outer loop
         vertex 8.656792e+00 1.600822e+01 8.500000e+00
         vertex 1.800000e+01 1.500000e+00 8.500000e+00
         vertex 9.250000e+00 1.620096e+01 8.500000e+00
      endloop
   endfacet
   facet normal -0.000000e+00 -0.000000e+00 1.000000e+00
      outer loop
         vertex 5.500000e+00 1.850000e+01 8.500000e+00
         vertex 7.129681e+00 1.688989e+01 8.500000e+00
         vertex 5.467221e+00 1.881187e+01 8.500000e+00
      endloop
   endfacet
   facet normal 0.000000e+00 0.000000e+00 1.000000e+00
      outer loop
         vertex 5.467221e+00 1.881187e+01 8.500000e+00
         vertex 7.129681e+00 1.688989e+01 8.500000e+00
         vertex 7.000000e+00 1.750000e+01 8.500000e+00
      endloop
   endfacet
   facet normal -0.000000e+00 -0.000000e+00 1.000000e+00
      outer loop
         vertex 5.467221e+00 1.881187e+01 8.500000e+00
         vertex 7.000000e+00 1.750000e+01 8.500000e+00
         vertex 5.213525e+00 1.938168e+01 8.500000e+00
      endloop
   endfacet
   facet normal 0.000000e+00 0.000000e+00 1.000000e+00
      outer loop
         vertex 1.800000e+01 2.100000e+01 8.500000e+00
         vertex 1.649623e+01 1.739367e+01 8.500000e+00
         vertex 1.800000e+01 1.500000e+00 8.500000e+00
      endloop
   endfacet
   facet normal 0.000000e+00 0.000000e+00 1.000000e+00
      outer loop
         vertex 1.800000e+01 1.500000e+00 8.500000e+00
         vertex 1.649623e+01 1.739367e+01 8.500000e+00
         vertex 1.634164e+01 1.682918e+01 8.500000e+00
      endloop
   endfacet
   facet normal 0.000000e+00 0.000000e+00 1.000000e+00
      outer loop
         vertex 1.800000e+01 1.500000e+00 8.500000e+00
         vertex 1.634164e+01 1.682918e+01 8.500000e+00
         vertex 1.598280e+01 1.636682e+01 8.500000e+00
      endloop
   endfacet
   facet normal 0.000000e+00 0.000000e+00 1.000000e+00
      outer loop
         vertex 1.489367e+01 1.600377e+01 8.500000e+00
         vertex 9.967221e+00 1.718813e+01 8.500000e+00
         vertex 1.800000e+01 1.500000e+00 8.500000e+00
      endloop
   endfacet
   facet normal 0.000000e+00 0.000000e+00 1.000000e+00
      outer loop
         vertex 1.800000e+01 1.500000e+00 8.500000e+00
         vertex 9.967221e+00 1.718813e+01 8.500000e+00
         vertex 9.713525e+00 1.661832e+01 8.500000e+00
      endloop
   endfacet
   facet normal 0.000000e+00 0.000000e+00 1.000000e+00
      outer loop
         vertex 1.800000e+01 1.500000e+00 8.500000e+00
         vertex 9.713525e+00 1.661832e+01 8.500000e+00
         vertex 9.250000e+00 1.620096e+01 8.500000e+00
      endloop
   endfacet
   facet normal 0.000000e+00 0.000000e+00 1.000000e+00
      outer loop
         vertex 5.500000e+00 1.850000e+01 8.500000e+00
         vertex 5.467221e+00 1.818813e+01 8.500000e+00
         vertex 7.496304e+00 1.638528e+01 8.500000e+00
      endloop
   endfacet
   facet normal 0.000000e+00 0.000000e+00 1.000000e+00
      outer loop
         vertex 7.496304e+00 1.638528e+01 8.500000e+00
         vertex 5.467221e+00 1.818813e+01 8.500000e+00
         vertex 5.213525e+00 1.761832e+01 8.500000e+00
      endloop
   endfacet
   facet normal 0.000000e+00 0.000000e+00 1.000000e+00
      outer loop
         vertex 7.496304e+00 1.638528e+01 8.500000e+00
         vertex 5.213525e+00 1.761832e+01 8.500000e+00
         vertex 8.036474e+00 1.607342e+01 8.500000e+00
      endloop
   endfacet
   facet normal 0.000000e+00 0.000000e+00 1.000000e+00
      outer loop
         vertex 8.036474e+00 1.607342e+01 8.500000e+00
         vertex 5.213525e+00 1.761832e+01 8.500000e+00
         vertex 4.749999e+00 1.720096e+01 8.500000e+00
      endloop
   endfacet
   facet normal 0.000000e+00 0.000000e+00 1.000000e+00
      outer loop
         vertex 8.036474e+00 1.607342e+01 8.500000e+00
         vertex 4.749999e+00 1.720096e+01 8.500000e+00
         vertex 0.000000e+00 1.500000e+00 8.500000e+00
      endloop
   endfacet
   facet normal 0.000000e+00 0.000000e+00 1.000000e+00
      outer loop
         vertex 0.000000e+00 1.500000e+00 8.500000e+00
         vertex 4.749999e+00 1.720096e+01 8.500000e+00
         vertex 4.156793e+00 1.700822e+01 8.500000e+00
      endloop
   endfacet
   facet normal 0.000000e+00 0.000000e+00 1.000000e+00
      outer loop
         vertex 0.000000e+00 1.500000e+00 8.500000e+00
         vertex 4.156793e+00 1.700822e+01 8.500000e+00
         vertex 3.536474e+00 1.707342e+01 8.500000e+00
      endloop
   endfacet
   facet normal 0.000000e+00 -0.000000e+00 1.000000e+00
      outer loop
         vertex 2.996304e+00 1.961472e+01 8.500000e+00
         vertex 3.536474e+00 1.992658e+01 8.500000e+00
         vertex 0.000000e+00 2.100000e+01 8.500000e+00
      endloop
   endfacet
   facet normal 0.000000e+00 0.000000e+00 1.000000e+00
      outer loop
         vertex 0.000000e+00 2.100000e+01 8.500000e+00
         vertex 3.536474e+00 1.992658e+01 8.500000e+00
         vertex 4.156793e+00 1.999178e+01 8.500000e+00
      endloop
   endfacet
   facet normal -0.000000e+00 0.000000e+00 1.000000e+00
      outer loop
         vertex 0.000000e+00 2.100000e+01 8.500000e+00
         vertex 4.156793e+00 1.999178e+01 8.500000e+00
         vertex 1.800000e+01 2.100000e+01 8.500000e+00
      endloop
   endfacet
   facet normal 0.000000e+00 -0.000000e+00 1.000000e+00
      outer loop
         vertex 9.713525e+00 1.838168e+01 8.500000e+00
         vertex 1.252566e+01 1.992302e+01 8.500000e+00
         vertex 9.250000e+00 1.879904e+01 8.500000e+00
      endloop
   endfacet
   facet normal 0.000000e+00 -0.000000e+00 1.000000e+00
      outer loop
         vertex 9.250000e+00 1.879904e+01 8.500000e+00
         vertex 1.252566e+01 1.992302e+01 8.500000e+00
         vertex 8.656792e+00 1.899178e+01 8.500000e+00
      endloop
   endfacet
   facet normal 0.000000e+00 -0.000000e+00 1.000000e+00
      outer loop
         vertex 1.150377e+01 1.860633e+01 8.500000e+00
         vertex 1.165836e+01 1.917082e+01 8.500000e+00
         vertex 9.713525e+00 1.838168e+01 8.500000e+00
      endloop
   endfacet
   facet normal 0.000000e+00 0.000000e+00 1.000000e+00
      outer loop
         vertex 9.713525e+00 1.838168e+01 8.500000e+00
         vertex 1.165836e+01 1.917082e+01 8.500000e+00
         vertex 1.201720e+01 1.963318e+01 8.500000e+00
      endloop
   endfacet
   facet normal 0.000000e+00 0.000000e+00 1.000000e+00
      outer loop
         vertex 9.713525e+00 1.838168e+01 8.500000e+00
         vertex 1.201720e+01 1.963318e+01 8.500000e+00
         vertex 1.252566e+01 1.992302e+01 8.500000e+00
      endloop
   endfacet
   facet normal 0.000000e+00 0.000000e+00 1.000000e+00
      outer loop
         vertex 1.489367e+01 1.600377e+01 8.500000e+00
         vertex 1.432918e+01 1.615836e+01 8.500000e+00
         vertex 9.967221e+00 1.718813e+01 8.500000e+00
      endloop
   endfacet
   facet normal 0.000000e+00 0.000000e+00 1.000000e+00
      outer loop
         vertex 9.967221e+00 1.718813e+01 8.500000e+00
         vertex 1.432918e+01 1.615836e+01 8.500000e+00
         vertex 1.232918e+01 1.715836e+01 8.500000e+00
      endloop
   endfacet
   facet normal -0.000000e+00 0.000000e+00 1.000000e+00
      outer loop
         vertex 9.967221e+00 1.718813e+01 8.500000e+00
         vertex 1.232918e+01 1.715836e+01 8.500000e+00
         vertex 1.000000e+01 1.750000e+01 8.500000e+00
      endloop
   endfacet
   facet normal -0.000000e+00 0.000000e+00 1.000000e+00
      outer loop
         vertex 1.000000e+01 1.750000e+01 8.500000e+00
         vertex 1.232918e+01 1.715836e+01 8.500000e+00
         vertex 1.186682e+01 1.751720e+01 8.500000e+00
      endloop
   endfacet
   facet normal 0.000000e+00 0.000000e+00 1.000000e+00
      outer loop
         vertex 1.000000e+01 1.750000e+01 8.500000e+00
         vertex 1.186682e+01 1.751720e+01 8.500000e+00
         vertex 1.157697e+01 1.802566e+01 8.500000e+00
      endloop
   endfacet
   facet normal 0.000000e+00 0.000000e+00 1.000000e+00
      outer loop
         vertex 3.536474e+00 1.707342e+01 8.500000e+00
         vertex 2.996304e+00 1.738528e+01 8.500000e+00
         vertex 0.000000e+00 1.500000e+00 8.500000e+00
      endloop
   endfacet
   facet normal 0.000000e+00 0.000000e+00 1.000000e+00
      outer loop
         vertex 0.000000e+00 1.500000e+00 8.500000e+00
         vertex 2.996304e+00 1.738528e+01 8.500000e+00
         vertex 2.629681e+00 1.788990e+01 8.500000e+00
      endloop
   endfacet
   facet normal 0.000000e+00 0.000000e+00 1.000000e+00
      outer loop
         vertex 0.000000e+00 1.500000e+00 8.500000e+00
         vertex 2.629681e+00 1.788990e+01 8.500000e+00
         vertex 0.000000e+00 2.100000e+01 8.500000e+00
      endloop
   endfacet
   facet normal 0.000000e+00 0.000000e+00 1.000000e+00
      outer loop
         vertex 0.000000e+00 2.100000e+01 8.500000e+00
         vertex 2.629681e+00 1.788990e+01 8.500000e+00
         vertex 2.499999e+00 1.850000e+01 8.500000e+00
      endloop
   endfacet
   facet normal 0.000000e+00 0.000000e+00 1.000000e+00
      outer loop
         vertex 0.000000e+00 2.100000e+01 8.500000e+00
         vertex 2.499999e+00 1.850000e+01 8.500000e+00
         vertex 2.629681e+00 1.911011e+01 8.500000e+00
      endloop
   endfacet
   facet normal -0.000000e+00 0.000000e+00 1.000000e+00
      outer loop
         vertex 1.567082e+01 1.884164e+01 8.500000e+00
         vertex 1.613318e+01 1.848280e+01 8.500000e+00
         vertex 1.800000e+01 2.100000e+01 8.500000e+00
      endloop
   endfacet
   facet normal 0.000000e+00 0.000000e+00 1.000000e+00
      outer loop
         vertex 1.800000e+01 2.100000e+01 8.500000e+00
         vertex 1.613318e+01 1.848280e+01 8.500000e+00
         vertex 1.642302e+01 1.797434e+01 8.500000e+00
      endloop
   endfacet
   facet normal 0.000000e+00 0.000000e+00 1.000000e+00
      outer loop
         vertex 1.800000e+01 2.100000e+01 8.500000e+00
         vertex 1.642302e+01 1.797434e+01 8.500000e+00
         vertex 1.649623e+01 1.739367e+01 8.500000e+00
      endloop
   endfacet
   facet normal 0.000000e+00 0.000000e+00 1.000000e+00
      outer loop
         vertex 1.150377e+01 1.860633e+01 8.500000e+00
         vertex 9.713525e+00 1.838168e+01 8.500000e+00
         vertex 1.157697e+01 1.802566e+01 8.500000e+00
      endloop
   endfacet
   facet normal 0.000000e+00 0.000000e+00 1.000000e+00
      outer loop
         vertex 1.157697e+01 1.802566e+01 8.500000e+00
         vertex 9.713525e+00 1.838168e+01 8.500000e+00
         vertex 9.967221e+00 1.781187e+01 8.500000e+00
      endloop
   endfacet
   facet normal 0.000000e+00 0.000000e+00 1.000000e+00
      outer loop
         vertex 1.157697e+01 1.802566e+01 8.500000e+00
         vertex 9.967221e+00 1.781187e+01 8.500000e+00
         vertex 1.000000e+01 1.750000e+01 8.500000e+00
      endloop
   endfacet
   facet normal 0.000000e+00 -0.000000e+00 1.000000e+00
      outer loop
         vertex 7.000000e+00 1.750000e+01 8.500000e+00
         vertex 7.129681e+00 1.811010e+01 8.500000e+00
         vertex 5.213525e+00 1.938168e+01 8.500000e+00
      endloop
   endfacet
   facet normal 0.000000e+00 0.000000e+00 1.000000e+00
      outer loop
         vertex 5.213525e+00 1.938168e+01 8.500000e+00
         vertex 7.129681e+00 1.811010e+01 8.500000e+00
         vertex 7.496304e+00 1.861472e+01 8.500000e+00
      endloop
   endfacet
   facet normal -0.000000e+00 -0.000000e+00 1.000000e+00
      outer loop
         vertex 5.213525e+00 1.938168e+01 8.500000e+00
         vertex 7.496304e+00 1.861472e+01 8.500000e+00
         vertex 4.749999e+00 1.979904e+01 8.500000e+00
      endloop
   endfacet
   facet normal 0.000000e+00 0.000000e+00 1.000000e+00
      outer loop
         vertex 4.749999e+00 1.979904e+01 8.500000e+00
         vertex 7.496304e+00 1.861472e+01 8.500000e+00
         vertex 8.036474e+00 1.892659e+01 8.500000e+00
      endloop
   endfacet
   facet normal -0.000000e+00 -0.000000e+00 1.000000e+00
      outer loop
         vertex 4.749999e+00 1.979904e+01 8.500000e+00
         vertex 8.036474e+00 1.892659e+01 8.500000e+00
         vertex 4.156793e+00 1.999178e+01 8.500000e+00
      endloop
   endfacet
   facet normal 0.000000e+00 0.000000e+00 1.000000e+00
      outer loop
         vertex 4.156793e+00 1.999178e+01 8.500000e+00
         vertex 8.036474e+00 1.892659e+01 8.500000e+00
         vertex 8.656792e+00 1.899178e+01 8.500000e+00
      endloop
   endfacet
   facet normal 0.000000e+00 -0.000000e+00 1.000000e+00
      outer loop
         vertex 8.656792e+00 1.899178e+01 8.500000e+00
         vertex 1.252566e+01 1.992302e+01 8.500000e+00
         vertex 4.156793e+00 1.999178e+01 8.500000e+00
      endloop
   endfacet
   facet normal -0.000000e+00 0.000000e+00 1.000000e+00
      outer loop
         vertex 4.156793e+00 1.999178e+01 8.500000e+00
         vertex 1.252566e+01 1.992302e+01 8.500000e+00
         vertex 1.310633e+01 1.999623e+01 8.500000e+00
      endloop
   endfacet
   facet normal 0.000000e+00 0.000000e+00 1.000000e+00
      outer loop
         vertex 4.156793e+00 1.999178e+01 8.500000e+00
         vertex 1.310633e+01 1.999623e+01 8.500000e+00
         vertex 1.800000e+01 2.100000e+01 8.500000e+00
      endloop
   endfacet
   facet normal 0.000000e+00 0.000000e+00 1.000000e+00
      outer loop
         vertex 1.800000e+01 2.100000e+01 8.500000e+00
         vertex 1.310633e+01 1.999623e+01 8.500000e+00
         vertex 1.367082e+01 1.984164e+01 8.500000e+00
      endloop
   endfacet
   facet normal 0.000000e+00 0.000000e+00 1.000000e+00
      outer loop
         vertex 1.800000e+01 2.100000e+01 8.500000e+00
         vertex 1.367082e+01 1.984164e+01 8.500000e+00
         vertex 1.567082e+01 1.884164e+01 8.500000e+00
      endloop
   endfacet
   facet normal 0.000000e+00 1.000000e+00 0.000000e+00
      outer loop
         vertex 1.800000e+01 3.000000e+00 4.500000e+00
         vertex 1.800000e+01 3.000000e+00 0.000000e+00
         vertex 0.000000e+00 3.000000e+00 4.500000e+00
      endloop
   endfacet
   facet normal 0.000000e+00 1.000000e+00 0.000000e+00
      outer loop
         vertex 0.000000e+00 3.000000e+00 4.500000e+00
         vertex 1.800000e+01 3.000000e+00 0.000000e+00
         vertex 0.000000e+00 3.000000e+00 0.000000e+00
      endloop
   endfacet
   facet normal 0.000000e+00 0.000000e+00 -1.000000e+00
      outer loop
         vertex 1.800000e+01 0.000000e+00 0.000000e+00
         vertex 0.000000e+00 0.000000e+00 0.000000e+00
         vertex 1.800000e+01 3.000000e+00 0.000000e+00
      endloop
   endfacet
   facet normal -0.000000e+00 0.000000e+00 -1.000000e+00
      outer loop
         vertex 1.800000e+01 3.000000e+00 0.000000e+00
         vertex 0.000000e+00 0.000000e+00 0.000000e+00
         vertex 0.000000e+00 3.000000e+00 0.000000e+00
      endloop
   endfacet
   facet normal 0.000000e+00 -1.950901e-01 9.807853e-01
      outer loop
         vertex 1.800000e+01 1.500000e+00 8.500000e+00
         vertex 0.000000e+00 1.500000e+00 8.500000e+00
         vertex 0.000000e+00 9.259749e-01 8.385819e+00
      endloop
   endfacet
   facet normal 0.000000e+00 -1.950901e-01 9.807853e-01
      outer loop
         vertex 1.800000e+01 1.500000e+00 8.500000e+00
         vertex 0.000000e+00 9.259749e-01 8.385819e+00
         vertex 1.800000e+01 9.259749e-01 8.385819e+00
      endloop
   endfacet
   facet normal 0.000000e+00 -5.555698e-01 8.314699e-01
      outer loop
         vertex 1.800000e+01 9.259749e-01 8.385819e+00
         vertex 0.000000e+00 9.259749e-01 8.385819e+00
         vertex 0.000000e+00 4.393393e-01 8.060660e+00
      endloop
   endfacet
   facet normal 0.000000e+00 -5.555698e-01 8.314699e-01
      outer loop
         vertex 1.800000e+01 9.259749e-01 8.385819e+00
         vertex 0.000000e+00 4.393393e-01 8.060660e+00
         vertex 1.800000e+01 4.393393e-01 8.060660e+00
      endloop
   endfacet
   facet normal 0.000000e+00 -8.314696e-01 5.555703e-01
      outer loop
         vertex 1.800000e+01 4.393393e-01 8.060660e+00
         vertex 0.000000e+00 4.393393e-01 8.060660e+00
         vertex 0.000000e+00 1.141801e-01 7.574025e+00
      endloop
   endfacet
   facet normal 0.000000e+00 -8.314696e-01 5.555703e-01
      outer loop
         vertex 1.800000e+01 4.393393e-01 8.060660e+00
         vertex 0.000000e+00 1.141801e-01 7.574025e+00
         vertex 1.800000e+01 1.141801e-01 7.574025e+00
      endloop
   endfacet
   facet normal 0.000000e+00 -9.807855e-01 1.950894e-01
      outer loop
         vertex 1.800000e+01 1.141801e-01 7.574025e+00
         vertex 0.000000e+00 1.141801e-01 7.574025e+00
         vertex 0.000000e+00 0.000000e+00 7.000000e+00
      endloop
   endfacet
   facet normal 0.000000e+00 -9.807855e-01 1.950894e-01
      outer loop
         vertex 1.800000e+01 1.141801e-01 7.574025e+00
         vertex 0.000000e+00 0.000000e+00 7.000000e+00
         vertex 1.800000e+01 0.000000e+00 7.000000e+00
      endloop
   endfacet
   facet normal 0.000000e+00 9.807853e-01 -1.950902e-01
      outer loop
         vertex 1.800000e+01 3.000000e+00 4.500000e+00
         vertex 0.000000e+00 3.000000e+00 4.500000e+00
         vertex 1.800000e+01 3.114181e+00 5.074025e+00
      endloop
   endfacet
   facet normal 0.000000e+00 9.807853e-01 -1.950902e-01
      outer loop
         vertex 1.800000e+01 3.114181e+00 5.074025e+00
         vertex 0.000000e+00 3.000000e+00 4.500000e+00
         vertex 0.000000e+00 3.114181e+00 5.074025e+00
      endloop
   endfacet
   facet normal 0.000000e+00 8.314696e-01 -5.555703e-01
      outer loop
         vertex 1.800000e+01 3.114181e+00 5.074025e+00
         vertex 0.000000e+00 3.114181e+00 5.074025e+00
         vertex 1.800000e+01 3.439340e+00 5.560660e+00
      endloop
   endfacet
   facet normal 0.000000e+00 8.314696e-01 -5.555703e-01
      outer loop
         vertex 1.800000e+01 3.439340e+00 5.560660e+00
         vertex 0.000000e+00 3.114181e+00 5.074025e+00
         vertex 0.000000e+00 3.439340e+00 5.560660e+00
      endloop
   endfacet
   facet normal 0.000000e+00 5.555705e-01 -8.314694e-01
      outer loop
         vertex 1.800000e+01 3.439340e+00 5.560660e+00
         vertex 0.000000e+00 3.439340e+00 5.560660e+00
         vertex 1.800000e+01 3.925974e+00 5.885819e+00
      endloop
   endfacet
   facet normal 0.000000e+00 5.555705e-01 -8.314694e-01
      outer loop
         vertex 1.800000e+01 3.925974e+00 5.885819e+00
         vertex 0.000000e+00 3.439340e+00 5.560660e+00
         vertex 0.000000e+00 3.925974e+00 5.885819e+00
      endloop
   endfacet
   facet normal 0.000000e+00 1.950903e-01 -9.807853e-01
      outer loop
         vertex 1.800000e+01 3.925974e+00 5.885819e+00
         vertex 0.000000e+00 3.925974e+00 5.885819e+00
         vertex 1.800000e+01 4.500000e+00 6.000000e+00
      endloop
   endfacet
   facet normal 0.000000e+00 1.950903e-01 -9.807853e-01
      outer loop
         vertex 1.800000e+01 4.500000e+00 6.000000e+00
         vertex 0.000000e+00 3.925974e+00 5.885819e+00
         vertex 0.000000e+00 4.500000e+00 6.000000e+00
      endloop
   endfacet
endsolid