solid camera mount holder
   facet normal 0.000000e+00 0.000000e+00 1.000000e+00
      outer loop
         vertex 7.800000e+00 4.000000e+00 1.885000e+01
         vertex 4.220000e+01 4.000000e+00 1.885000e+01
         vertex 3.520000e+01 9.000000e+00 1.885000e+01
      endloop
   endfacet
   facet normal -0.000000e+00 0.000000e+00 1.000000e+00
      outer loop
         vertex 3.520000e+01 9.000000e+00 1.885000e+01
         vertex 4.220000e+01 4.000000e+00 1.885000e+01
         vertex 3.720000e+01 9.000000e+00 1.885000e+01
      endloop
   endfacet
   facet normal -0.000000e+00 0.000000e+00 1.000000e+00
      outer loop
         vertex 1.280000e+01 9.000000e+00 1.885000e+01
         vertex 7.800000e+00 4.000000e+00 1.885000e+01
         vertex 1.480000e+01 9.000000e+00 1.885000e+01
      endloop
   endfacet
   facet normal -0.000000e+00 0.000000e+00 1.000000e+00
      outer loop
         vertex 1.480000e+01 9.000000e+00 1.885000e+01
         vertex 7.800000e+00 4.000000e+00 1.885000e+01
         vertex 3.520000e+01 9.000000e+00 1.885000e+01
      endloop
   endfacet
   facet normal 0.000000e+00 0.000000e+00 1.000000e+00
      outer loop
         vertex 1.480000e+01 9.000000e+00 1.885000e+01
         vertex 3.520000e+01 9.000000e+00 1.885000e+01
         vertex 1.480000e+01 1.500000e+01 1.885000e+01
      endloop
   endfacet
   facet normal -0.000000e+00 0.000000e+00 1.000000e+00
      outer loop
         vertex 1.480000e+01 1.500000e+01 1.885000e+01
         vertex 3.520000e+01 9.000000e+00 1.885000e+01
         vertex 3.520000e+01 1.500000e+01 1.885000e+01
      endloop
   endfacet
   facet normal -0.000000e+00 1.000000e+00 0.000000e+00
      outer loop
         vertex 3.220000e+01 3.000000e+01 1.985000e+01
         vertex 3.520000e+01 3.000000e+01 2.135000e+01
         vertex 3.220000e+01 3.000000e+01 4.150000e+00
      endloop
   endfacet
   facet normal -0.000000e+00 1.000000e+00 0.000000e+00
      outer loop
         vertex 3.220000e+01 3.000000e+01 4.150000e+00
         vertex 3.520000e+01 3.000000e+01 2.135000e+01
         vertex 3.520000e+01 3.000000e+01 2.650000e+00
      endloop
   endfacet
   facet normal 0.000000e+00 1.000000e+00 0.000000e+00
      outer loop
         vertex 3.220000e+01 3.000000e+01 4.150000e+00
         vertex 3.520000e+01 3.000000e+01 2.650000e+00
         vertex 1.780000e+01 3.000000e+01 4.150000e+00
      endloop
   endfacet
   facet normal 0.000000e+00 1.000000e+00 0.000000e+00
      outer loop
         vertex 1.780000e+01 3.000000e+01 4.150000e+00
         vertex 3.520000e+01 3.000000e+01 2.650000e+00
         vertex 1.480000e+01 3.000000e+01 2.650000e+00
      endloop
   endfacet
   facet normal 0.000000e+00 1.000000e+00 -0.000000e+00
      outer loop
         vertex 1.780000e+01 3.000000e+01 4.150000e+00
         vertex 1.480000e+01 3.000000e+01 2.650000e+00
         vertex 1.780000e+01 3.000000e+01 1.985000e+01
      endloop
   endfacet
   facet normal 0.000000e+00 1.000000e+00 0.000000e+00
      outer loop
         vertex 1.780000e+01 3.000000e+01 1.985000e+01
         vertex 1.480000e+01 3.000000e+01 2.650000e+00
         vertex 1.480000e+01 3.000000e+01 2.135000e+01
      endloop
   endfacet
   facet normal 0.000000e+00 1.000000e+00 -0.000000e+00
      outer loop
         vertex 1.780000e+01 3.000000e+01 1.985000e+01
         vertex 1.480000e+01 3.000000e+01 2.135000e+01
         vertex 3.220000e+01 3.000000e+01 1.985000e+01
      endloop
   endfacet
   facet normal 0.000000e+00 1.000000e+00 -0.000000e+00
      outer loop
         vertex 3.220000e+01 3.000000e+01 1.985000e+01
         vertex 1.480000e+01 3.000000e+01 2.135000e+01
         vertex 3.520000e+01 3.000000e+01 2.135000e+01
      endloop
   endfacet
   facet normal 0.000000e+00 1.000000e+00 0.000000e+00
      outer loop
         vertex 6.800000e+00 3.000000e+00 1.585000e+01
         vertex 6.700000e+00 3.000000e+00 1.000000e+01
         vertex 6.472243e+00 3.000000e+00 1.085000e+01
      endloop
   endfacet
   facet normal 0.000000e+00 1.000000e+00 0.000000e+00
      outer loop
         vertex 4.340000e+01 3.000000e+00 1.170000e+01
         vertex 4.255000e+01 3.000000e+00 1.147224e+01
         vertex 3.820000e+01 3.000000e+00 1.585000e+01
      endloop
   endfacet
   facet normal -0.000000e+00 1.000000e+00 0.000000e+00
      outer loop
         vertex 6.800000e+00 3.000000e+00 1.585000e+01
         vertex 1.180000e+01 3.000000e+00 1.585000e+01
         vertex 6.700000e+00 3.000000e+00 1.000000e+01
      endloop
   endfacet
   facet normal -0.000000e+00 1.000000e+00 0.000000e+00
      outer loop
         vertex 6.700000e+00 3.000000e+00 1.000000e+01
         vertex 1.180000e+01 3.000000e+00 1.585000e+01
         vertex 1.180000e+01 3.000000e+00 4.150000e+00
      endloop
   endfacet
   facet normal 0.000000e+00 1.000000e+00 0.000000e+00
      outer loop
         vertex 6.700000e+00 3.000000e+00 1.000000e+01
         vertex 1.180000e+01 3.000000e+00 4.150000e+00
         vertex 6.472243e+00 3.000000e+00 9.150000e+00
      endloop
   endfacet
   facet normal 0.000000e+00 1.000000e+00 0.000000e+00
      outer loop
         vertex 4.255000e+01 3.000000e+00 1.147224e+01
         vertex 4.192776e+01 3.000000e+00 1.085000e+01
         vertex 3.820000e+01 3.000000e+00 1.585000e+01
      endloop
   endfacet
   facet normal 0.000000e+00 1.000000e+00 0.000000e+00
      outer loop
         vertex 3.820000e+01 3.000000e+00 1.585000e+01
         vertex 4.192776e+01 3.000000e+00 1.085000e+01
         vertex 4.170000e+01 3.000000e+00 1.000000e+01
      endloop
   endfacet
   facet normal 0.000000e+00 1.000000e+00 0.000000e+00
      outer loop
         vertex 3.820000e+01 3.000000e+00 1.585000e+01
         vertex 4.170000e+01 3.000000e+00 1.000000e+01
         vertex 3.820000e+01 3.000000e+00 4.150000e+00
      endloop
   endfacet
   facet normal 0.000000e+00 1.000000e+00 0.000000e+00
      outer loop
         vertex 6.472243e+00 3.000000e+00 9.150000e+00
         vertex 1.180000e+01 3.000000e+00 4.150000e+00
         vertex 5.850000e+00 3.000000e+00 8.527757e+00
      endloop
   endfacet
   facet normal 0.000000e+00 1.000000e+00 0.000000e+00
      outer loop
         vertex 5.850000e+00 3.000000e+00 8.527757e+00
         vertex 1.180000e+01 3.000000e+00 4.150000e+00
         vertex 6.800000e+00 3.000000e+00 4.150000e+00
      endloop
   endfacet
   facet normal 0.000000e+00 1.000000e+00 0.000000e+00
      outer loop
         vertex 5.850000e+00 3.000000e+00 8.527757e+00
         vertex 6.800000e+00 3.000000e+00 4.150000e+00
         vertex 5.000001e+00 3.000000e+00 8.300000e+00
      endloop
   endfacet
   facet normal 0.000000e+00 1.000000e+00 0.000000e+00
      outer loop
         vertex 4.973205e+01 3.000000e+00 1.900000e+01
         vertex 5.000000e+01 3.000000e+00 1.800000e+01
         vertex 4.632911e+01 3.000000e+00 1.105993e+01
      endloop
   endfacet
   facet normal -0.000000e+00 1.000000e+00 0.000000e+00
      outer loop
         vertex 4.632911e+01 3.000000e+00 1.105993e+01
         vertex 5.000000e+01 3.000000e+00 1.800000e+01
         vertex 4.665738e+01 3.000000e+00 1.037829e+01
      endloop
   endfacet
   facet normal 0.000000e+00 1.000000e+00 0.000000e+00
      outer loop
         vertex 0.000000e+00 3.000000e+00 1.800000e+01
         vertex 3.300000e+00 3.000000e+00 1.000000e+01
         vertex 0.000000e+00 3.000000e+00 1.999999e+00
      endloop
   endfacet
   facet normal 0.000000e+00 1.000000e+00 0.000000e+00
      outer loop
         vertex 0.000000e+00 3.000000e+00 1.999999e+00
         vertex 3.300000e+00 3.000000e+00 1.000000e+01
         vertex 3.527757e+00 3.000000e+00 9.150000e+00
      endloop
   endfacet
   facet normal -0.000000e+00 1.000000e+00 0.000000e+00
      outer loop
         vertex 0.000000e+00 3.000000e+00 1.999999e+00
         vertex 3.527757e+00 3.000000e+00 9.150000e+00
         vertex 2.679490e-01 3.000000e+00 1.000000e+00
      endloop
   endfacet
   facet normal 0.000000e+00 1.000000e+00 0.000000e+00
      outer loop
         vertex 4.800000e+01 3.000000e+00 0.000000e+00
         vertex 4.320000e+01 3.000000e+00 1.499997e-01
         vertex 4.320000e+01 3.000000e+00 4.150000e+00
      endloop
   endfacet
   facet normal 0.000000e+00 1.000000e+00 0.000000e+00
      outer loop
         vertex 4.320000e+01 3.000000e+00 1.985000e+01
         vertex 4.632911e+01 3.000000e+00 1.105993e+01
         vertex 4.320000e+01 3.000000e+00 1.585000e+01
      endloop
   endfacet
   facet normal 0.000000e+00 1.000000e+00 0.000000e+00
      outer loop
         vertex 4.320000e+01 3.000000e+00 1.585000e+01
         vertex 4.632911e+01 3.000000e+00 1.105993e+01
         vertex 4.573760e+01 3.000000e+00 1.153165e+01
      endloop
   endfacet
   facet normal 0.000000e+00 1.000000e+00 0.000000e+00
      outer loop
         vertex 4.320000e+01 3.000000e+00 1.585000e+01
         vertex 4.573760e+01 3.000000e+00 1.153165e+01
         vertex 3.820000e+01 3.000000e+00 1.585000e+01
      endloop
   endfacet
   facet normal 0.000000e+00 1.000000e+00 0.000000e+00
      outer loop
         vertex 3.820000e+01 3.000000e+00 1.585000e+01
         vertex 4.573760e+01 3.000000e+00 1.153165e+01
         vertex 4.500000e+01 3.000000e+00 1.170000e+01
      endloop
   endfacet
   facet normal 0.000000e+00 1.000000e+00 0.000000e+00
      outer loop
         vertex 3.820000e+01 3.000000e+00 1.585000e+01
         vertex 4.500000e+01 3.000000e+00 1.170000e+01
         vertex 4.340000e+01 3.000000e+00 1.170000e+01
      endloop
   endfacet
   facet normal 0.000000e+00 1.000000e+00 0.000000e+00
      outer loop
         vertex 4.170000e+01 3.000000e+00 1.000000e+01
         vertex 4.192776e+01 3.000000e+00 9.150000e+00
         vertex 3.820000e+01 3.000000e+00 4.150000e+00
      endloop
   endfacet
   facet normal 0.000000e+00 1.000000e+00 0.000000e+00
      outer loop
         vertex 3.820000e+01 3.000000e+00 4.150000e+00
         vertex 4.192776e+01 3.000000e+00 9.150000e+00
         vertex 4.255000e+01 3.000000e+00 8.527757e+00
      endloop
   endfacet
   facet normal 0.000000e+00 1.000000e+00 0.000000e+00
      outer loop
         vertex 3.820000e+01 3.000000e+00 4.150000e+00
         vertex 4.255000e+01 3.000000e+00 8.527757e+00
         vertex 4.320000e+01 3.000000e+00 4.150000e+00
      endloop
   endfacet
   facet normal 0.000000e+00 1.000000e+00 -0.000000e+00
      outer loop
         vertex 4.320000e+01 3.000000e+00 4.150000e+00
         vertex 4.255000e+01 3.000000e+00 8.527757e+00
         vertex 4.340000e+01 3.000000e+00 8.300000e+00
      endloop
   endfacet
   facet normal 0.000000e+00 1.000000e+00 0.000000e+00
      outer loop
         vertex 4.320000e+01 3.000000e+00 4.150000e+00
         vertex 4.340000e+01 3.000000e+00 8.300000e+00
         vertex 4.500000e+01 3.000000e+00 8.300000e+00
      endloop
   endfacet
   facet normal 0.000000e+00 1.000000e+00 0.000000e+00
      outer loop
         vertex 5.000001e+00 3.000000e+00 1.170000e+01
         vertex 4.149999e+00 3.000000e+00 1.147224e+01
         vertex 2.000000e+00 3.000000e+00 2.000000e+01
      endloop
   endfacet
   facet normal 0.000000e+00 1.000000e+00 -0.000000e+00
      outer loop
         vertex 6.800000e+00 3.000000e+00 1.499997e-01
         vertex 3.527757e+00 3.000000e+00 9.150000e+00
         vertex 6.800000e+00 3.000000e+00 4.150000e+00
      endloop
   endfacet
   facet normal 0.000000e+00 1.000000e+00 0.000000e+00
      outer loop
         vertex 6.800000e+00 3.000000e+00 4.150000e+00
         vertex 3.527757e+00 3.000000e+00 9.150000e+00
         vertex 4.149999e+00 3.000000e+00 8.527757e+00
      endloop
   endfacet
   facet normal 0.000000e+00 1.000000e+00 0.000000e+00
      outer loop
         vertex 6.800000e+00 3.000000e+00 4.150000e+00
         vertex 4.149999e+00 3.000000e+00 8.527757e+00
         vertex 5.000001e+00 3.000000e+00 8.300000e+00
      endloop
   endfacet
   facet normal -0.000000e+00 1.000000e+00 0.000000e+00
      outer loop
         vertex 1.000000e+00 3.000000e+00 1.973205e+01
         vertex 2.000000e+00 3.000000e+00 2.000000e+01
         vertex 2.679490e-01 3.000000e+00 1.900000e+01
      endloop
   endfacet
   facet normal -0.000000e+00 1.000000e+00 0.000000e+00
      outer loop
         vertex 2.679490e-01 3.000000e+00 1.900000e+01
         vertex 2.000000e+00 3.000000e+00 2.000000e+01
         vertex 4.149999e+00 3.000000e+00 1.147224e+01
      endloop
   endfacet
   facet normal 0.000000e+00 1.000000e+00 0.000000e+00
      outer loop
         vertex 2.679490e-01 3.000000e+00 1.900000e+01
         vertex 4.149999e+00 3.000000e+00 1.147224e+01
         vertex 0.000000e+00 3.000000e+00 1.800000e+01
      endloop
   endfacet
   facet normal 0.000000e+00 1.000000e+00 0.000000e+00
      outer loop
         vertex 0.000000e+00 3.000000e+00 1.800000e+01
         vertex 4.149999e+00 3.000000e+00 1.147224e+01
         vertex 3.527757e+00 3.000000e+00 1.085000e+01
      endloop
   endfacet
   facet normal 0.000000e+00 1.000000e+00 0.000000e+00
      outer loop
         vertex 0.000000e+00 3.000000e+00 1.800000e+01
         vertex 3.527757e+00 3.000000e+00 1.085000e+01
         vertex 3.300000e+00 3.000000e+00 1.000000e+01
      endloop
   endfacet
   facet normal 0.000000e+00 1.000000e+00 0.000000e+00
      outer loop
         vertex 4.900000e+01 3.000000e+00 2.679490e-01
         vertex 4.800000e+01 3.000000e+00 0.000000e+00
         vertex 4.632911e+01 3.000000e+00 8.940067e+00
      endloop
   endfacet
   facet normal 0.000000e+00 1.000000e+00 0.000000e+00
      outer loop
         vertex 4.632911e+01 3.000000e+00 8.940067e+00
         vertex 4.800000e+01 3.000000e+00 0.000000e+00
         vertex 4.320000e+01 3.000000e+00 4.150000e+00
      endloop
   endfacet
   facet normal 0.000000e+00 1.000000e+00 0.000000e+00
      outer loop
         vertex 4.632911e+01 3.000000e+00 8.940067e+00
         vertex 4.320000e+01 3.000000e+00 4.150000e+00
         vertex 4.573760e+01 3.000000e+00 8.468353e+00
      endloop
   endfacet
   facet normal 0.000000e+00 1.000000e+00 0.000000e+00
      outer loop
         vertex 4.573760e+01 3.000000e+00 8.468353e+00
         vertex 4.320000e+01 3.000000e+00 4.150000e+00
         vertex 4.500000e+01 3.000000e+00 8.300000e+00
      endloop
   endfacet
   facet normal 0.000000e+00 1.000000e+00 -0.000000e+00
      outer loop
         vertex 6.472243e+00 3.000000e+00 1.085000e+01
         vertex 5.850000e+00 3.000000e+00 1.147224e+01
         vertex 6.800000e+00 3.000000e+00 1.585000e+01
      endloop
   endfacet
   facet normal 0.000000e+00 1.000000e+00 0.000000e+00
      outer loop
         vertex 6.800000e+00 3.000000e+00 1.585000e+01
         vertex 5.850000e+00 3.000000e+00 1.147224e+01
         vertex 5.000001e+00 3.000000e+00 1.170000e+01
      endloop
   endfacet
   facet normal 0.000000e+00 1.000000e+00 -0.000000e+00
      outer loop
         vertex 6.800000e+00 3.000000e+00 1.585000e+01
         vertex 5.000001e+00 3.000000e+00 1.170000e+01
         vertex 6.800000e+00 3.000000e+00 1.985000e+01
      endloop
   endfacet
   facet normal 0.000000e+00 1.000000e+00 0.000000e+00
      outer loop
         vertex 6.800000e+00 3.000000e+00 1.985000e+01
         vertex 5.000001e+00 3.000000e+00 1.170000e+01
         vertex 2.000000e+00 3.000000e+00 2.000000e+01
      endloop
   endfacet
   facet normal 0.000000e+00 1.000000e+00 -0.000000e+00
      outer loop
         vertex 6.800000e+00 3.000000e+00 1.985000e+01
         vertex 2.000000e+00 3.000000e+00 2.000000e+01
         vertex 4.320000e+01 3.000000e+00 1.985000e+01
      endloop
   endfacet
   facet normal 0.000000e+00 1.000000e+00 -0.000000e+00
      outer loop
         vertex 4.320000e+01 3.000000e+00 1.985000e+01
         vertex 2.000000e+00 3.000000e+00 2.000000e+01
         vertex 4.800000e+01 3.000000e+00 2.000000e+01
      endloop
   endfacet
   facet normal -0.000000e+00 1.000000e+00 0.000000e+00
      outer loop
         vertex 4.320000e+01 3.000000e+00 1.985000e+01
         vertex 4.800000e+01 3.000000e+00 2.000000e+01
         vertex 4.632911e+01 3.000000e+00 1.105993e+01
      endloop
   endfacet
   facet normal 0.000000e+00 1.000000e+00 0.000000e+00
      outer loop
         vertex 4.632911e+01 3.000000e+00 1.105993e+01
         vertex 4.800000e+01 3.000000e+00 2.000000e+01
         vertex 4.900000e+01 3.000000e+00 1.973205e+01
      endloop
   endfacet
   facet normal 0.000000e+00 1.000000e+00 0.000000e+00
      outer loop
         vertex 4.632911e+01 3.000000e+00 1.105993e+01
         vertex 4.900000e+01 3.000000e+00 1.973205e+01
         vertex 4.973205e+01 3.000000e+00 1.900000e+01
      endloop
   endfacet
   facet normal 0.000000e+00 1.000000e+00 0.000000e+00
      outer loop
         vertex 4.320000e+01 3.000000e+00 1.499997e-01
         vertex 4.800000e+01 3.000000e+00 0.000000e+00
         vertex 6.800000e+00 3.000000e+00 1.499997e-01
      endloop
   endfacet
   facet normal 0.000000e+00 1.000000e+00 0.000000e+00
      outer loop
         vertex 6.800000e+00 3.000000e+00 1.499997e-01
         vertex 4.800000e+01 3.000000e+00 0.000000e+00
         vertex 2.000000e+00 3.000000e+00 0.000000e+00
      endloop
   endfacet
   facet normal 0.000000e+00 1.000000e+00 0.000000e+00
      outer loop
         vertex 6.800000e+00 3.000000e+00 1.499997e-01
         vertex 2.000000e+00 3.000000e+00 0.000000e+00
         vertex 3.527757e+00 3.000000e+00 9.150000e+00
      endloop
   endfacet
   facet normal 0.000000e+00 1.000000e+00 0.000000e+00
      outer loop
         vertex 3.527757e+00 3.000000e+00 9.150000e+00
         vertex 2.000000e+00 3.000000e+00 0.000000e+00
         vertex 1.000000e+00 3.000000e+00 2.679490e-01
      endloop
   endfacet
   facet normal 0.000000e+00 1.000000e+00 0.000000e+00
      outer loop
         vertex 3.527757e+00 3.000000e+00 9.150000e+00
         vertex 1.000000e+00 3.000000e+00 2.679490e-01
         vertex 2.679490e-01 3.000000e+00 1.000000e+00
      endloop
   endfacet
   facet normal -0.000000e+00 1.000000e+00 0.000000e+00
      outer loop
         vertex 4.665738e+01 3.000000e+00 1.037829e+01
         vertex 5.000000e+01 3.000000e+00 1.800000e+01
         vertex 4.665738e+01 3.000000e+00 9.621714e+00
      endloop
   endfacet
   facet normal -0.000000e+00 1.000000e+00 0.000000e+00
      outer loop
         vertex 4.665738e+01 3.000000e+00 9.621714e+00
         vertex 5.000000e+01 3.000000e+00 1.800000e+01
         vertex 5.000000e+01 3.000000e+00 1.999999e+00
      endloop
   endfacet
   facet normal 0.000000e+00 1.000000e+00 0.000000e+00
      outer loop
         vertex 4.665738e+01 3.000000e+00 9.621714e+00
         vertex 5.000000e+01 3.000000e+00 1.999999e+00
         vertex 4.632911e+01 3.000000e+00 8.940067e+00
      endloop
   endfacet
   facet normal 0.000000e+00 1.000000e+00 0.000000e+00
      outer loop
         vertex 4.632911e+01 3.000000e+00 8.940067e+00
         vertex 5.000000e+01 3.000000e+00 1.999999e+00
         vertex 4.973205e+01 3.000000e+00 1.000000e+00
      endloop
   endfacet
   facet normal 0.000000e+00 1.000000e+00 0.000000e+00
      outer loop
         vertex 4.632911e+01 3.000000e+00 8.940067e+00
         vertex 4.973205e+01 3.000000e+00 1.000000e+00
         vertex 4.900000e+01 3.000000e+00 2.679490e-01
      endloop
   endfacet
   facet normal 0.000000e+00 0.000000e+00 -1.000000e+00
      outer loop
         vertex 4.220000e+01 4.000000e+00 1.150000e+00
         vertex 7.800000e+00 4.000000e+00 1.150000e+00
         vertex 1.480000e+01 9.000000e+00 1.150000e+00
      endloop
   endfacet
   facet normal -0.000000e+00 0.000000e+00 -1.000000e+00
      outer loop
         vertex 1.480000e+01 9.000000e+00 1.150000e+00
         vertex 7.800000e+00 4.000000e+00 1.150000e+00
         vertex 1.280000e+01 9.000000e+00 1.150000e+00
      endloop
   endfacet
   facet normal -0.000000e+00 -0.000000e+00 -1.000000e+00
      outer loop
         vertex 3.720000e+01 9.000000e+00 1.150000e+00
         vertex 4.220000e+01 4.000000e+00 1.150000e+00
         vertex 3.520000e+01 9.000000e+00 1.150000e+00
      endloop
   endfacet
   facet normal -0.000000e+00 -0.000000e+00 -1.000000e+00
      outer loop
         vertex 3.520000e+01 9.000000e+00 1.150000e+00
         vertex 4.220000e+01 4.000000e+00 1.150000e+00
         vertex 1.480000e+01 9.000000e+00 1.150000e+00
      endloop
   endfacet
   facet normal 0.000000e+00 0.000000e+00 -1.000000e+00
      outer loop
         vertex 3.520000e+01 9.000000e+00 1.150000e+00
         vertex 1.480000e+01 9.000000e+00 1.150000e+00
         vertex 3.520000e+01 1.500000e+01 1.150000e+00
      endloop
   endfacet
   facet normal -0.000000e+00 0.000000e+00 -1.000000e+00
      outer loop
         vertex 3.520000e+01 1.500000e+01 1.150000e+00
         vertex 1.480000e+01 9.000000e+00 1.150000e+00
         vertex 1.480000e+01 1.500000e+01 1.150000e+00
      endloop
   endfacet
   facet normal 1.000000e+00 -0.000000e+00 0.000000e+00
      outer loop
         vertex 3.520000e+01 6.000000e+00 1.585000e+01
         vertex 3.520000e+01 6.000000e+00 4.150000e+00
         vertex 3.520000e+01 9.000000e+00 1.585000e+01
      endloop
   endfacet
   facet normal 1.000000e+00 0.000000e+00 0.000000e+00
      outer loop
         vertex 3.520000e+01 9.000000e+00 1.585000e+01
         vertex 3.520000e+01 6.000000e+00 4.150000e+00
         vertex 3.520000e+01 9.000000e+00 4.150000e+00
      endloop
   endfacet
   facet normal 1.000000e+00 -0.000000e+00 0.000000e+00
      outer loop
         vertex 3.520000e+01 9.000000e+00 1.885000e+01
         vertex 3.520000e+01 9.000000e+00 1.585000e+01
         vertex 3.520000e+01 1.500000e+01 1.885000e+01
      endloop
   endfacet
   facet normal 1.000000e+00 0.000000e+00 0.000000e+00
      outer loop
         vertex 3.520000e+01 1.500000e+01 1.885000e+01
         vertex 3.520000e+01 9.000000e+00 1.585000e+01
         vertex 3.520000e+01 2.026783e+01 2.650000e+00
      endloop
   endfacet
   facet normal 1.000000e+00 -0.000000e+00 0.000000e+00
      outer loop
         vertex 3.520000e+01 1.500000e+01 1.885000e+01
         vertex 3.520000e+01 2.026783e+01 2.650000e+00
         vertex 3.520000e+01 2.500000e+01 2.135000e+01
      endloop
   endfacet
   facet normal 1.000000e+00 0.000000e+00 0.000000e+00
      outer loop
         vertex 3.520000e+01 2.500000e+01 2.135000e+01
         vertex 3.520000e+01 2.026783e+01 2.650000e+00
         vertex 3.520000e+01 3.000000e+01 2.650000e+00
      endloop
   endfacet
   facet normal 1.000000e+00 -0.000000e+00 0.000000e+00
      outer loop
         vertex 3.520000e+01 2.500000e+01 2.135000e+01
         vertex 3.520000e+01 3.000000e+01 2.650000e+00
         vertex 3.520000e+01 3.000000e+01 2.135000e+01
      endloop
   endfacet
   facet normal 1.000000e+00 0.000000e+00 0.000000e+00
      outer loop
         vertex 3.520000e+01 9.000000e+00 1.150000e+00
         vertex 3.520000e+01 1.500000e+01 1.150000e+00
         vertex 3.520000e+01 9.000000e+00 4.150000e+00
      endloop
   endfacet
   facet normal 1.000000e+00 0.000000e+00 0.000000e+00
      outer loop
         vertex 3.520000e+01 9.000000e+00 4.150000e+00
         vertex 3.520000e+01 1.500000e+01 1.150000e+00
         vertex 3.520000e+01 1.665285e+01 1.973729e+00
      endloop
   endfacet
   facet normal 1.000000e+00 -0.000000e+00 0.000000e+00
      outer loop
         vertex 3.520000e+01 9.000000e+00 4.150000e+00
         vertex 3.520000e+01 1.665285e+01 1.973729e+00
         vertex 3.520000e+01 9.000000e+00 1.585000e+01
      endloop
   endfacet
   facet normal 1.000000e+00 0.000000e+00 0.000000e+00
      outer loop
         vertex 3.520000e+01 9.000000e+00 1.585000e+01
         vertex 3.520000e+01 1.665285e+01 1.973729e+00
         vertex 3.520000e+01 1.842898e+01 2.479478e+00
      endloop
   endfacet
   facet normal 1.000000e+00 0.000000e+00 0.000000e+00
      outer loop
         vertex 3.520000e+01 9.000000e+00 1.585000e+01
         vertex 3.520000e+01 1.842898e+01 2.479478e+00
         vertex 3.520000e+01 2.026783e+01 2.650000e+00
      endloop
   endfacet
   facet normal -1.000000e+00 0.000000e+00 0.000000e+00
      outer loop
         vertex 1.480000e+01 1.500000e+01 1.150000e+00
         vertex 1.480000e+01 9.000000e+00 1.150000e+00
         vertex 1.480000e+01 9.000000e+00 4.150000e+00
      endloop
   endfacet
   facet normal -1.000000e+00 0.000000e+00 0.000000e+00
      outer loop
         vertex 1.480000e+01 2.500000e+01 2.135000e+01
         vertex 1.480000e+01 1.842898e+01 2.479478e+00
         vertex 1.480000e+01 1.665285e+01 1.973729e+00
      endloop
   endfacet
   facet normal -1.000000e+00 0.000000e+00 0.000000e+00
      outer loop
         vertex 1.480000e+01 6.000000e+00 4.150000e+00
         vertex 1.480000e+01 6.000000e+00 1.585000e+01
         vertex 1.480000e+01 9.000000e+00 4.150000e+00
      endloop
   endfacet
   facet normal -1.000000e+00 0.000000e+00 0.000000e+00
      outer loop
         vertex 1.480000e+01 9.000000e+00 4.150000e+00
         vertex 1.480000e+01 6.000000e+00 1.585000e+01
         vertex 1.480000e+01 9.000000e+00 1.585000e+01
      endloop
   endfacet
   facet normal -1.000000e+00 -0.000000e+00 -0.000000e+00
      outer loop
         vertex 1.480000e+01 3.000000e+01 2.135000e+01
         vertex 1.480000e+01 3.000000e+01 2.650000e+00
         vertex 1.480000e+01 2.500000e+01 2.135000e+01
      endloop
   endfacet
   facet normal -1.000000e+00 0.000000e+00 -0.000000e+00
      outer loop
         vertex 1.480000e+01 2.500000e+01 2.135000e+01
         vertex 1.480000e+01 3.000000e+01 2.650000e+00
         vertex 1.480000e+01 2.026783e+01 2.650000e+00
      endloop
   endfacet
   facet normal -1.000000e+00 0.000000e+00 0.000000e+00
      outer loop
         vertex 1.480000e+01 2.500000e+01 2.135000e+01
         vertex 1.480000e+01 2.026783e+01 2.650000e+00
         vertex 1.480000e+01 1.842898e+01 2.479478e+00
      endloop
   endfacet
   facet normal -1.000000e+00 -0.000000e+00 0.000000e+00
      outer loop
         vertex 1.480000e+01 1.665285e+01 1.973729e+00
         vertex 1.480000e+01 1.500000e+01 1.150000e+00
         vertex 1.480000e+01 2.500000e+01 2.135000e+01
      endloop
   endfacet
   facet normal -1.000000e+00 0.000000e+00 0.000000e+00
      outer loop
         vertex 1.480000e+01 2.500000e+01 2.135000e+01
         vertex 1.480000e+01 1.500000e+01 1.150000e+00
         vertex 1.480000e+01 9.000000e+00 4.150000e+00
      endloop
   endfacet
   facet normal -1.000000e+00 0.000000e+00 0.000000e+00
      outer loop
         vertex 1.480000e+01 2.500000e+01 2.135000e+01
         vertex 1.480000e+01 9.000000e+00 4.150000e+00
         vertex 1.480000e+01 1.500000e+01 1.885000e+01
      endloop
   endfacet
   facet normal -1.000000e+00 0.000000e+00 0.000000e+00
      outer loop
         vertex 1.480000e+01 1.500000e+01 1.885000e+01
         vertex 1.480000e+01 9.000000e+00 4.150000e+00
         vertex 1.480000e+01 9.000000e+00 1.585000e+01
      endloop
   endfacet
   facet normal -1.000000e+00 -0.000000e+00 0.000000e+00
      outer loop
         vertex 1.480000e+01 1.500000e+01 1.885000e+01
         vertex 1.480000e+01 9.000000e+00 1.585000e+01
         vertex 1.480000e+01 9.000000e+00 1.885000e+01
      endloop
   endfacet
   facet normal 9.807853e-01 0.000000e+00 1.950903e-01
      outer loop
         vertex 2.185000e+01 2.500000e+01 1.000000e+01
         vertex 2.185000e+01 0.000000e+00 1.000000e+01
         vertex 2.208978e+01 2.500000e+01 8.794547e+00
      endloop
   endfacet
   facet normal 9.807853e-01 0.000000e+00 1.950903e-01
      outer loop
         vertex 2.208978e+01 2.500000e+01 8.794547e+00
         vertex 2.185000e+01 0.000000e+00 1.000000e+01
         vertex 2.208978e+01 0.000000e+00 8.794547e+00
      endloop
   endfacet
   facet normal 8.314697e-01 0.000000e+00 5.555701e-01
      outer loop
         vertex 2.208978e+01 2.500000e+01 8.794547e+00
         vertex 2.208978e+01 0.000000e+00 8.794547e+00
         vertex 2.277261e+01 2.500000e+01 7.772613e+00
      endloop
   endfacet
   facet normal 8.314697e-01 0.000000e+00 5.555701e-01
      outer loop
         vertex 2.277261e+01 2.500000e+01 7.772613e+00
         vertex 2.208978e+01 0.000000e+00 8.794547e+00
         vertex 2.277261e+01 0.000000e+00 7.772613e+00
      endloop
   endfacet
   facet normal 5.555701e-01 0.000000e+00 8.314697e-01
      outer loop
         vertex 2.277261e+01 2.500000e+01 7.772613e+00
         vertex 2.277261e+01 0.000000e+00 7.772613e+00
         vertex 2.379455e+01 2.500000e+01 7.089779e+00
      endloop
   endfacet
   facet normal 5.555701e-01 0.000000e+00 8.314697e-01
      outer loop
         vertex 2.379455e+01 2.500000e+01 7.089779e+00
         vertex 2.277261e+01 0.000000e+00 7.772613e+00
         vertex 2.379455e+01 0.000000e+00 7.089779e+00
      endloop
   endfacet
   facet normal 1.950903e-01 0.000000e+00 9.807853e-01
      outer loop
         vertex 2.379455e+01 2.500000e+01 7.089779e+00
         vertex 2.379455e+01 0.000000e+00 7.089779e+00
         vertex 2.500000e+01 2.500000e+01 6.850000e+00
      endloop
   endfacet
   facet normal 1.950903e-01 0.000000e+00 9.807853e-01
      outer loop
         vertex 2.500000e+01 2.500000e+01 6.850000e+00
         vertex 2.379455e+01 0.000000e+00 7.089779e+00
         vertex 2.500000e+01 0.000000e+00 6.850000e+00
      endloop
   endfacet
   facet normal -1.950903e-01 0.000000e+00 9.807853e-01
      outer loop
         vertex 2.500000e+01 2.500000e+01 6.850000e+00
         vertex 2.500000e+01 0.000000e+00 6.850000e+00
         vertex 2.620545e+01 2.500000e+01 7.089779e+00
      endloop
   endfacet
   facet normal -1.950903e-01 0.000000e+00 9.807853e-01
      outer loop
         vertex 2.620545e+01 2.500000e+01 7.089779e+00
         vertex 2.500000e+01 0.000000e+00 6.850000e+00
         vertex 2.620545e+01 0.000000e+00 7.089779e+00
      endloop
   endfacet
   facet normal -5.555701e-01 0.000000e+00 8.314697e-01
      outer loop
         vertex 2.620545e+01 2.500000e+01 7.089779e+00
         vertex 2.620545e+01 0.000000e+00 7.089779e+00
         vertex 2.722739e+01 2.500000e+01 7.772613e+00
      endloop
   endfacet
   facet normal -5.555701e-01 0.000000e+00 8.314697e-01
      outer loop
         vertex 2.722739e+01 2.500000e+01 7.772613e+00
         vertex 2.620545e+01 0.000000e+00 7.089779e+00
         vertex 2.722739e+01 0.000000e+00 7.772613e+00
      endloop
   endfacet
   facet normal -8.314697e-01 0.000000e+00 5.555701e-01
      outer loop
         vertex 2.722739e+01 2.500000e+01 7.772613e+00
         vertex 2.722739e+01 0.000000e+00 7.772613e+00
         vertex 2.791022e+01 2.500000e+01 8.794547e+00
      endloop
   endfacet
   facet normal -8.314697e-01 0.000000e+00 5.555701e-01
      outer loop
         vertex 2.791022e+01 2.500000e+01 8.794547e+00
         vertex 2.722739e+01 0.000000e+00 7.772613e+00
         vertex 2.791022e+01 0.000000e+00 8.794547e+00
      endloop
   endfacet
   facet normal -9.807853e-01 0.000000e+00 1.950903e-01
      outer loop
         vertex 2.791022e+01 2.500000e+01 8.794547e+00
         vertex 2.791022e+01 0.000000e+00 8.794547e+00
         vertex 2.815000e+01 2.500000e+01 1.000000e+01
      endloop
   endfacet
   facet normal -9.807853e-01 0.000000e+00 1.950903e-01
      outer loop
         vertex 2.815000e+01 2.500000e+01 1.000000e+01
         vertex 2.791022e+01 0.000000e+00 8.794547e+00
         vertex 2.815000e+01 0.000000e+00 1.000000e+01
      endloop
   endfacet
   facet normal 0.000000e+00 1.000000e+00 -0.000000e+00
      outer loop
         vertex 2.791022e+01 2.500000e+01 1.520545e+01
         vertex 2.722739e+01 2.500000e+01 1.622739e+01
         vertex 3.220000e+01 2.500000e+01 1.985000e+01
      endloop
   endfacet
   facet normal 0.000000e+00 1.000000e+00 -0.000000e+00
      outer loop
         vertex 2.722739e+01 2.500000e+01 1.622739e+01
         vertex 2.620545e+01 2.500000e+01 1.691022e+01
         vertex 3.220000e+01 2.500000e+01 1.985000e+01
      endloop
   endfacet
   facet normal 0.000000e+00 1.000000e+00 0.000000e+00
      outer loop
         vertex 3.220000e+01 2.500000e+01 1.985000e+01
         vertex 2.620545e+01 2.500000e+01 1.691022e+01
         vertex 2.500000e+01 2.500000e+01 1.715000e+01
      endloop
   endfacet
   facet normal 0.000000e+00 1.000000e+00 0.000000e+00
      outer loop
         vertex 3.220000e+01 2.500000e+01 1.985000e+01
         vertex 2.500000e+01 2.500000e+01 1.715000e+01
         vertex 1.780000e+01 2.500000e+01 1.985000e+01
      endloop
   endfacet
   facet normal 0.000000e+00 1.000000e+00 0.000000e+00
      outer loop
         vertex 1.780000e+01 2.500000e+01 1.985000e+01
         vertex 2.500000e+01 2.500000e+01 1.715000e+01
         vertex 2.379455e+01 2.500000e+01 1.691022e+01
      endloop
   endfacet
   facet normal 0.000000e+00 1.000000e+00 0.000000e+00
      outer loop
         vertex 1.780000e+01 2.500000e+01 1.985000e+01
         vertex 2.379455e+01 2.500000e+01 1.691022e+01
         vertex 2.277261e+01 2.500000e+01 1.622739e+01
      endloop
   endfacet
   facet normal 0.000000e+00 1.000000e+00 0.000000e+00
      outer loop
         vertex 1.780000e+01 2.500000e+01 4.150000e+00
         vertex 2.208978e+01 2.500000e+01 8.794547e+00
         vertex 2.277261e+01 2.500000e+01 7.772613e+00
      endloop
   endfacet
   facet normal 0.000000e+00 1.000000e+00 0.000000e+00
      outer loop
         vertex 2.277261e+01 2.500000e+01 7.772613e+00
         vertex 2.379455e+01 2.500000e+01 7.089779e+00
         vertex 1.780000e+01 2.500000e+01 4.150000e+00
      endloop
   endfacet
   facet normal 0.000000e+00 1.000000e+00 0.000000e+00
      outer loop
         vertex 1.780000e+01 2.500000e+01 4.150000e+00
         vertex 2.379455e+01 2.500000e+01 7.089779e+00
         vertex 2.500000e+01 2.500000e+01 6.850000e+00
      endloop
   endfacet
   facet normal 0.000000e+00 1.000000e+00 0.000000e+00
      outer loop
         vertex 1.780000e+01 2.500000e+01 4.150000e+00
         vertex 2.500000e+01 2.500000e+01 6.850000e+00
         vertex 3.220000e+01 2.500000e+01 4.150000e+00
      endloop
   endfacet
   facet normal 0.000000e+00 1.000000e+00 0.000000e+00
      outer loop
         vertex 3.220000e+01 2.500000e+01 4.150000e+00
         vertex 2.500000e+01 2.500000e+01 6.850000e+00
         vertex 2.620545e+01 2.500000e+01 7.089779e+00
      endloop
   endfacet
   facet normal 0.000000e+00 1.000000e+00 0.000000e+00
      outer loop
         vertex 3.220000e+01 2.500000e+01 4.150000e+00
         vertex 2.620545e+01 2.500000e+01 7.089779e+00
         vertex 2.722739e+01 2.500000e+01 7.772613e+00
      endloop
   endfacet
   facet normal -0.000000e+00 1.000000e+00 0.000000e+00
      outer loop
         vertex 2.722739e+01 2.500000e+01 7.772613e+00
         vertex 2.791022e+01 2.500000e+01 8.794547e+00
         vertex 3.220000e+01 2.500000e+01 4.150000e+00
      endloop
   endfacet
   facet normal 0.000000e+00 1.000000e+00 0.000000e+00
      outer loop
         vertex 3.220000e+01 2.500000e+01 4.150000e+00
         vertex 2.791022e+01 2.500000e+01 8.794547e+00
         vertex 2.815000e+01 2.500000e+01 1.000000e+01
      endloop
   endfacet
   facet normal 0.000000e+00 1.000000e+00 -0.000000e+00
      outer loop
         vertex 3.220000e+01 2.500000e+01 4.150000e+00
         vertex 2.815000e+01 2.500000e+01 1.000000e+01
         vertex 3.220000e+01 2.500000e+01 1.985000e+01
      endloop
   endfacet
   facet normal 0.000000e+00 1.000000e+00 0.000000e+00
      outer loop
         vertex 3.220000e+01 2.500000e+01 1.985000e+01
         vertex 2.815000e+01 2.500000e+01 1.000000e+01
         vertex 2.815000e+01 2.500000e+01 1.400000e+01
      endloop
   endfacet
   facet normal 0.000000e+00 1.000000e+00 0.000000e+00
      outer loop
         vertex 3.220000e+01 2.500000e+01 1.985000e+01
         vertex 2.815000e+01 2.500000e+01 1.400000e+01
         vertex 2.791022e+01 2.500000e+01 1.520545e+01
      endloop
   endfacet
   facet normal 0.000000e+00 1.000000e+00 0.000000e+00
      outer loop
         vertex 2.277261e+01 2.500000e+01 1.622739e+01
         vertex 2.208978e+01 2.500000e+01 1.520545e+01
         vertex 1.780000e+01 2.500000e+01 1.985000e+01
      endloop
   endfacet
   facet normal 0.000000e+00 1.000000e+00 0.000000e+00
      outer loop
         vertex 1.780000e+01 2.500000e+01 1.985000e+01
         vertex 2.208978e+01 2.500000e+01 1.520545e+01
         vertex 2.185000e+01 2.500000e+01 1.400000e+01
      endloop
   endfacet
   facet normal 0.000000e+00 1.000000e+00 0.000000e+00
      outer loop
         vertex 1.780000e+01 2.500000e+01 1.985000e+01
         vertex 2.185000e+01 2.500000e+01 1.400000e+01
         vertex 1.780000e+01 2.500000e+01 4.150000e+00
      endloop
   endfacet
   facet normal 0.000000e+00 1.000000e+00 0.000000e+00
      outer loop
         vertex 1.780000e+01 2.500000e+01 4.150000e+00
         vertex 2.185000e+01 2.500000e+01 1.400000e+01
         vertex 2.185000e+01 2.500000e+01 1.000000e+01
      endloop
   endfacet
   facet normal 0.000000e+00 1.000000e+00 0.000000e+00
      outer loop
         vertex 1.780000e+01 2.500000e+01 4.150000e+00
         vertex 2.185000e+01 2.500000e+01 1.000000e+01
         vertex 2.208978e+01 2.500000e+01 8.794547e+00
      endloop
   endfacet
   facet normal -0.000000e+00 -1.000000e+00 0.000000e+00
      outer loop
         vertex 2.277261e+01 0.000000e+00 1.622739e+01
         vertex 2.379455e+01 0.000000e+00 1.691022e+01
         vertex 6.472243e+00 0.000000e+00 1.085000e+01
      endloop
   endfacet
   facet normal 0.000000e+00 -1.000000e+00 0.000000e+00
      outer loop
         vertex 2.679490e-01 0.000000e+00 1.000000e+00
         vertex 1.000000e+00 0.000000e+00 2.679490e-01
         vertex 2.000000e+00 0.000000e+00 0.000000e+00
      endloop
   endfacet
   facet normal 0.000000e+00 -1.000000e+00 0.000000e+00
      outer loop
         vertex 4.192776e+01 0.000000e+00 1.085000e+01
         vertex 2.620545e+01 0.000000e+00 1.691022e+01
         vertex 2.722739e+01 0.000000e+00 1.622739e+01
      endloop
   endfacet
   facet normal -0.000000e+00 -1.000000e+00 0.000000e+00
      outer loop
         vertex 5.000001e+00 0.000000e+00 8.300000e+00
         vertex 4.149999e+00 0.000000e+00 8.527757e+00
         vertex 0.000000e+00 0.000000e+00 1.999999e+00
      endloop
   endfacet
   facet normal -0.000000e+00 -1.000000e+00 0.000000e+00
      outer loop
         vertex 4.149999e+00 0.000000e+00 8.527757e+00
         vertex 3.527757e+00 0.000000e+00 9.150000e+00
         vertex 0.000000e+00 0.000000e+00 1.999999e+00
      endloop
   endfacet
   facet normal 0.000000e+00 -1.000000e+00 0.000000e+00
      outer loop
         vertex 0.000000e+00 0.000000e+00 1.999999e+00
         vertex 3.527757e+00 0.000000e+00 9.150000e+00
         vertex 3.300000e+00 0.000000e+00 1.000000e+01
      endloop
   endfacet
   facet normal 0.000000e+00 -1.000000e+00 0.000000e+00
      outer loop
         vertex 0.000000e+00 0.000000e+00 1.999999e+00
         vertex 3.300000e+00 0.000000e+00 1.000000e+01
         vertex 0.000000e+00 0.000000e+00 1.800000e+01
      endloop
   endfacet
   facet normal 0.000000e+00 -1.000000e+00 0.000000e+00
      outer loop
         vertex 4.800000e+01 0.000000e+00 0.000000e+00
         vertex 4.255000e+01 0.000000e+00 8.527757e+00
         vertex 2.500000e+01 0.000000e+00 6.850000e+00
      endloop
   endfacet
   facet normal 0.000000e+00 -1.000000e+00 0.000000e+00
      outer loop
         vertex 2.500000e+01 0.000000e+00 6.850000e+00
         vertex 4.255000e+01 0.000000e+00 8.527757e+00
         vertex 4.192776e+01 0.000000e+00 9.150000e+00
      endloop
   endfacet
   facet normal 0.000000e+00 -1.000000e+00 0.000000e+00
      outer loop
         vertex 2.500000e+01 0.000000e+00 6.850000e+00
         vertex 4.192776e+01 0.000000e+00 9.150000e+00
         vertex 2.620545e+01 0.000000e+00 7.089779e+00
      endloop
   endfacet
   facet normal 0.000000e+00 -1.000000e+00 0.000000e+00
      outer loop
         vertex 2.620545e+01 0.000000e+00 7.089779e+00
         vertex 4.192776e+01 0.000000e+00 9.150000e+00
         vertex 2.722739e+01 0.000000e+00 7.772613e+00
      endloop
   endfacet
   facet normal 0.000000e+00 -1.000000e+00 0.000000e+00
      outer loop
         vertex 2.722739e+01 0.000000e+00 1.622739e+01
         vertex 2.791022e+01 0.000000e+00 1.520545e+01
         vertex 4.192776e+01 0.000000e+00 1.085000e+01
      endloop
   endfacet
   facet normal 0.000000e+00 -1.000000e+00 0.000000e+00
      outer loop
         vertex 4.192776e+01 0.000000e+00 1.085000e+01
         vertex 2.791022e+01 0.000000e+00 1.520545e+01
         vertex 2.815000e+01 0.000000e+00 1.400000e+01
      endloop
   endfacet
   facet normal -0.000000e+00 -1.000000e+00 0.000000e+00
      outer loop
         vertex 4.192776e+01 0.000000e+00 1.085000e+01
         vertex 2.815000e+01 0.000000e+00 1.400000e+01
         vertex 4.170000e+01 0.000000e+00 1.000000e+01
      endloop
   endfacet
   facet normal -0.000000e+00 -1.000000e+00 0.000000e+00
      outer loop
         vertex 4.170000e+01 0.000000e+00 1.000000e+01
         vertex 2.815000e+01 0.000000e+00 1.400000e+01
         vertex 2.815000e+01 0.000000e+00 1.000000e+01
      endloop
   endfacet
   facet normal 0.000000e+00 -1.000000e+00 -0.000000e+00
      outer loop
         vertex 4.170000e+01 0.000000e+00 1.000000e+01
         vertex 2.815000e+01 0.000000e+00 1.000000e+01
         vertex 4.192776e+01 0.000000e+00 9.150000e+00
      endloop
   endfacet
   facet normal -0.000000e+00 -1.000000e+00 0.000000e+00
      outer loop
         vertex 4.192776e+01 0.000000e+00 9.150000e+00
         vertex 2.815000e+01 0.000000e+00 1.000000e+01
         vertex 2.791022e+01 0.000000e+00 8.794547e+00
      endloop
   endfacet
   facet normal 0.000000e+00 -1.000000e+00 0.000000e+00
      outer loop
         vertex 4.192776e+01 0.000000e+00 9.150000e+00
         vertex 2.791022e+01 0.000000e+00 8.794547e+00
         vertex 2.722739e+01 0.000000e+00 7.772613e+00
      endloop
   endfacet
   facet normal 0.000000e+00 -1.000000e+00 0.000000e+00
      outer loop
         vertex 3.300000e+00 0.000000e+00 1.000000e+01
         vertex 3.527757e+00 0.000000e+00 1.085000e+01
         vertex 0.000000e+00 0.000000e+00 1.800000e+01
      endloop
   endfacet
   facet normal 0.000000e+00 -1.000000e+00 0.000000e+00
      outer loop
         vertex 0.000000e+00 0.000000e+00 1.800000e+01
         vertex 3.527757e+00 0.000000e+00 1.085000e+01
         vertex 4.149999e+00 0.000000e+00 1.147224e+01
      endloop
   endfacet
   facet normal 0.000000e+00 -1.000000e+00 0.000000e+00
      outer loop
         vertex 0.000000e+00 0.000000e+00 1.800000e+01
         vertex 4.149999e+00 0.000000e+00 1.147224e+01
         vertex 2.679490e-01 0.000000e+00 1.900000e+01
      endloop
   endfacet
   facet normal 0.000000e+00 -1.000000e+00 0.000000e+00
      outer loop
         vertex 2.679490e-01 0.000000e+00 1.900000e+01
         vertex 4.149999e+00 0.000000e+00 1.147224e+01
         vertex 5.000001e+00 0.000000e+00 1.170000e+01
      endloop
   endfacet
   facet normal 0.000000e+00 -1.000000e+00 0.000000e+00
      outer loop
         vertex 2.277261e+01 0.000000e+00 1.622739e+01
         vertex 6.472243e+00 0.000000e+00 1.085000e+01
         vertex 2.208978e+01 0.000000e+00 1.520545e+01
      endloop
   endfacet
   facet normal 0.000000e+00 -1.000000e+00 0.000000e+00
      outer loop
         vertex 5.850000e+00 0.000000e+00 1.147224e+01
         vertex 2.000000e+00 0.000000e+00 2.000000e+01
         vertex 5.000001e+00 0.000000e+00 1.170000e+01
      endloop
   endfacet
   facet normal 0.000000e+00 -1.000000e+00 0.000000e+00
      outer loop
         vertex 5.000001e+00 0.000000e+00 1.170000e+01
         vertex 2.000000e+00 0.000000e+00 2.000000e+01
         vertex 1.000000e+00 0.000000e+00 1.973205e+01
      endloop
   endfacet
   facet normal 0.000000e+00 -1.000000e+00 0.000000e+00
      outer loop
         vertex 5.000001e+00 0.000000e+00 1.170000e+01
         vertex 1.000000e+00 0.000000e+00 1.973205e+01
         vertex 2.679490e-01 0.000000e+00 1.900000e+01
      endloop
   endfacet
   facet normal 0.000000e+00 -1.000000e+00 0.000000e+00
      outer loop
         vertex 4.573760e+01 0.000000e+00 1.153165e+01
         vertex 4.632911e+01 0.000000e+00 1.105993e+01
         vertex 5.000000e+01 0.000000e+00 1.800000e+01
      endloop
   endfacet
   facet normal 0.000000e+00 -1.000000e+00 0.000000e+00
      outer loop
         vertex 5.000000e+01 0.000000e+00 1.800000e+01
         vertex 4.632911e+01 0.000000e+00 1.105993e+01
         vertex 4.665738e+01 0.000000e+00 1.037829e+01
      endloop
   endfacet
   facet normal 0.000000e+00 -1.000000e+00 -0.000000e+00
      outer loop
         vertex 5.000000e+01 0.000000e+00 1.800000e+01
         vertex 4.665738e+01 0.000000e+00 1.037829e+01
         vertex 5.000000e+01 0.000000e+00 1.999999e+00
      endloop
   endfacet
   facet normal 0.000000e+00 -1.000000e+00 0.000000e+00
      outer loop
         vertex 0.000000e+00 0.000000e+00 1.999999e+00
         vertex 2.679490e-01 0.000000e+00 1.000000e+00
         vertex 5.000001e+00 0.000000e+00 8.300000e+00
      endloop
   endfacet
   facet normal 0.000000e+00 -1.000000e+00 0.000000e+00
      outer loop
         vertex 5.000001e+00 0.000000e+00 8.300000e+00
         vertex 2.679490e-01 0.000000e+00 1.000000e+00
         vertex 2.000000e+00 0.000000e+00 0.000000e+00
      endloop
   endfacet
   facet normal 0.000000e+00 -1.000000e+00 -0.000000e+00
      outer loop
         vertex 5.000001e+00 0.000000e+00 8.300000e+00
         vertex 2.000000e+00 0.000000e+00 0.000000e+00
         vertex 5.850000e+00 0.000000e+00 8.527757e+00
      endloop
   endfacet
   facet normal 0.000000e+00 -1.000000e+00 -0.000000e+00
      outer loop
         vertex 5.850000e+00 0.000000e+00 8.527757e+00
         vertex 2.000000e+00 0.000000e+00 0.000000e+00
         vertex 4.800000e+01 0.000000e+00 0.000000e+00
      endloop
   endfacet
   facet normal 0.000000e+00 -1.000000e+00 0.000000e+00
      outer loop
         vertex 5.850000e+00 0.000000e+00 8.527757e+00
         vertex 4.800000e+01 0.000000e+00 0.000000e+00
         vertex 6.472243e+00 0.000000e+00 9.150000e+00
      endloop
   endfacet
   facet normal 0.000000e+00 -1.000000e+00 0.000000e+00
      outer loop
         vertex 6.472243e+00 0.000000e+00 9.150000e+00
         vertex 4.800000e+01 0.000000e+00 0.000000e+00
         vertex 2.500000e+01 0.000000e+00 6.850000e+00
      endloop
   endfacet
   facet normal 0.000000e+00 -1.000000e+00 0.000000e+00
      outer loop
         vertex 6.472243e+00 0.000000e+00 9.150000e+00
         vertex 2.500000e+01 0.000000e+00 6.850000e+00
         vertex 6.700000e+00 0.000000e+00 1.000000e+01
      endloop
   endfacet
   facet normal 0.000000e+00 -1.000000e+00 0.000000e+00
      outer loop
         vertex 6.700000e+00 0.000000e+00 1.000000e+01
         vertex 2.500000e+01 0.000000e+00 6.850000e+00
         vertex 2.379455e+01 0.000000e+00 7.089779e+00
      endloop
   endfacet
   facet normal 0.000000e+00 -1.000000e+00 0.000000e+00
      outer loop
         vertex 6.700000e+00 0.000000e+00 1.000000e+01
         vertex 2.379455e+01 0.000000e+00 7.089779e+00
         vertex 6.472243e+00 0.000000e+00 1.085000e+01
      endloop
   endfacet
   facet normal 0.000000e+00 -1.000000e+00 0.000000e+00
      outer loop
         vertex 6.472243e+00 0.000000e+00 1.085000e+01
         vertex 2.379455e+01 0.000000e+00 7.089779e+00
         vertex 2.277261e+01 0.000000e+00 7.772613e+00
      endloop
   endfacet
   facet normal 0.000000e+00 -1.000000e+00 0.000000e+00
      outer loop
         vertex 6.472243e+00 0.000000e+00 1.085000e+01
         vertex 2.277261e+01 0.000000e+00 7.772613e+00
         vertex 2.208978e+01 0.000000e+00 8.794547e+00
      endloop
   endfacet
   facet normal 0.000000e+00 -1.000000e+00 0.000000e+00
      outer loop
         vertex 2.620545e+01 0.000000e+00 1.691022e+01
         vertex 4.800000e+01 0.000000e+00 2.000000e+01
         vertex 2.500000e+01 0.000000e+00 1.715000e+01
      endloop
   endfacet
   facet normal 0.000000e+00 -1.000000e+00 0.000000e+00
      outer loop
         vertex 2.500000e+01 0.000000e+00 1.715000e+01
         vertex 4.800000e+01 0.000000e+00 2.000000e+01
         vertex 2.000000e+00 0.000000e+00 2.000000e+01
      endloop
   endfacet
   facet normal -0.000000e+00 -1.000000e+00 0.000000e+00
      outer loop
         vertex 2.500000e+01 0.000000e+00 1.715000e+01
         vertex 2.000000e+00 0.000000e+00 2.000000e+01
         vertex 2.379455e+01 0.000000e+00 1.691022e+01
      endloop
   endfacet
   facet normal -0.000000e+00 -1.000000e+00 0.000000e+00
      outer loop
         vertex 2.379455e+01 0.000000e+00 1.691022e+01
         vertex 2.000000e+00 0.000000e+00 2.000000e+01
         vertex 5.850000e+00 0.000000e+00 1.147224e+01
      endloop
   endfacet
   facet normal 0.000000e+00 -1.000000e+00 0.000000e+00
      outer loop
         vertex 2.379455e+01 0.000000e+00 1.691022e+01
         vertex 5.850000e+00 0.000000e+00 1.147224e+01
         vertex 6.472243e+00 0.000000e+00 1.085000e+01
      endloop
   endfacet
   facet normal 0.000000e+00 -1.000000e+00 0.000000e+00
      outer loop
         vertex 4.192776e+01 0.000000e+00 1.085000e+01
         vertex 4.255000e+01 0.000000e+00 1.147224e+01
         vertex 2.620545e+01 0.000000e+00 1.691022e+01
      endloop
   endfacet
   facet normal 0.000000e+00 -1.000000e+00 0.000000e+00
      outer loop
         vertex 2.620545e+01 0.000000e+00 1.691022e+01
         vertex 4.255000e+01 0.000000e+00 1.147224e+01
         vertex 4.340000e+01 0.000000e+00 1.170000e+01
      endloop
   endfacet
   facet normal 0.000000e+00 -1.000000e+00 0.000000e+00
      outer loop
         vertex 2.620545e+01 0.000000e+00 1.691022e+01
         vertex 4.340000e+01 0.000000e+00 1.170000e+01
         vertex 4.800000e+01 0.000000e+00 2.000000e+01
      endloop
   endfacet
   facet normal 0.000000e+00 -1.000000e+00 0.000000e+00
      outer loop
         vertex 4.800000e+01 0.000000e+00 2.000000e+01
         vertex 4.340000e+01 0.000000e+00 1.170000e+01
         vertex 4.500000e+01 0.000000e+00 1.170000e+01
      endloop
   endfacet
   facet normal 0.000000e+00 -1.000000e+00 -0.000000e+00
      outer loop
         vertex 4.800000e+01 0.000000e+00 2.000000e+01
         vertex 4.500000e+01 0.000000e+00 1.170000e+01
         vertex 4.900000e+01 0.000000e+00 1.973205e+01
      endloop
   endfacet
   facet normal 0.000000e+00 -1.000000e+00 0.000000e+00
      outer loop
         vertex 4.900000e+01 0.000000e+00 1.973205e+01
         vertex 4.500000e+01 0.000000e+00 1.170000e+01
         vertex 4.573760e+01 0.000000e+00 1.153165e+01
      endloop
   endfacet
   facet normal 0.000000e+00 -1.000000e+00 -0.000000e+00
      outer loop
         vertex 4.900000e+01 0.000000e+00 1.973205e+01
         vertex 4.573760e+01 0.000000e+00 1.153165e+01
         vertex 4.973205e+01 0.000000e+00 1.900000e+01
      endloop
   endfacet
   facet normal 0.000000e+00 -1.000000e+00 -0.000000e+00
      outer loop
         vertex 4.973205e+01 0.000000e+00 1.900000e+01
         vertex 4.573760e+01 0.000000e+00 1.153165e+01
         vertex 5.000000e+01 0.000000e+00 1.800000e+01
      endloop
   endfacet
   facet normal 0.000000e+00 -1.000000e+00 0.000000e+00
      outer loop
         vertex 4.665738e+01 0.000000e+00 1.037829e+01
         vertex 4.665738e+01 0.000000e+00 9.621714e+00
         vertex 5.000000e+01 0.000000e+00 1.999999e+00
      endloop
   endfacet
   facet normal 0.000000e+00 -1.000000e+00 0.000000e+00
      outer loop
         vertex 5.000000e+01 0.000000e+00 1.999999e+00
         vertex 4.665738e+01 0.000000e+00 9.621714e+00
         vertex 4.632911e+01 0.000000e+00 8.940067e+00
      endloop
   endfacet
   facet normal -0.000000e+00 -1.000000e+00 0.000000e+00
      outer loop
         vertex 5.000000e+01 0.000000e+00 1.999999e+00
         vertex 4.632911e+01 0.000000e+00 8.940067e+00
         vertex 4.973205e+01 0.000000e+00 1.000000e+00
      endloop
   endfacet
   facet normal 0.000000e+00 -1.000000e+00 0.000000e+00
      outer loop
         vertex 4.973205e+01 0.000000e+00 1.000000e+00
         vertex 4.632911e+01 0.000000e+00 8.940067e+00
         vertex 4.573760e+01 0.000000e+00 8.468353e+00
      endloop
   endfacet
   facet normal -0.000000e+00 -1.000000e+00 0.000000e+00
      outer loop
         vertex 4.973205e+01 0.000000e+00 1.000000e+00
         vertex 4.573760e+01 0.000000e+00 8.468353e+00
         vertex 4.900000e+01 0.000000e+00 2.679490e-01
      endloop
   endfacet
   facet normal 0.000000e+00 -1.000000e+00 0.000000e+00
      outer loop
         vertex 4.900000e+01 0.000000e+00 2.679490e-01
         vertex 4.573760e+01 0.000000e+00 8.468353e+00
         vertex 4.500000e+01 0.000000e+00 8.300000e+00
      endloop
   endfacet
   facet normal -0.000000e+00 -1.000000e+00 0.000000e+00
      outer loop
         vertex 4.900000e+01 0.000000e+00 2.679490e-01
         vertex 4.500000e+01 0.000000e+00 8.300000e+00
         vertex 4.800000e+01 0.000000e+00 0.000000e+00
      endloop
   endfacet
   facet normal 0.000000e+00 -1.000000e+00 0.000000e+00
      outer loop
         vertex 4.800000e+01 0.000000e+00 0.000000e+00
         vertex 4.500000e+01 0.000000e+00 8.300000e+00
         vertex 4.340000e+01 0.000000e+00 8.300000e+00
      endloop
   endfacet
   facet normal 0.000000e+00 -1.000000e+00 0.000000e+00
      outer loop
         vertex 4.800000e+01 0.000000e+00 0.000000e+00
         vertex 4.340000e+01 0.000000e+00 8.300000e+00
         vertex 4.255000e+01 0.000000e+00 8.527757e+00
      endloop
   endfacet
   facet normal 0.000000e+00 -1.000000e+00 0.000000e+00
      outer loop
         vertex 2.208978e+01 0.000000e+00 8.794547e+00
         vertex 2.185000e+01 0.000000e+00 1.000000e+01
         vertex 6.472243e+00 0.000000e+00 1.085000e+01
      endloop
   endfacet
   facet normal 0.000000e+00 -1.000000e+00 0.000000e+00
      outer loop
         vertex 6.472243e+00 0.000000e+00 1.085000e+01
         vertex 2.185000e+01 0.000000e+00 1.000000e+01
         vertex 2.185000e+01 0.000000e+00 1.400000e+01
      endloop
   endfacet
   facet normal 0.000000e+00 -1.000000e+00 0.000000e+00
      outer loop
         vertex 6.472243e+00 0.000000e+00 1.085000e+01
         vertex 2.185000e+01 0.000000e+00 1.400000e+01
         vertex 2.208978e+01 0.000000e+00 1.520545e+01
      endloop
   endfacet
   facet normal -1.000000e+00 0.000000e+00 0.000000e+00
      outer loop
         vertex 3.220000e+01 2.500000e+01 1.985000e+01
         vertex 3.220000e+01 3.000000e+01 1.985000e+01
         vertex 3.220000e+01 2.500000e+01 4.150000e+00
      endloop
   endfacet
   facet normal -1.000000e+00 0.000000e+00 0.000000e+00
      outer loop
         vertex 3.220000e+01 2.500000e+01 4.150000e+00
         vertex 3.220000e+01 3.000000e+01 1.985000e+01
         vertex 3.220000e+01 3.000000e+01 4.150000e+00
      endloop
   endfacet
   facet normal 1.000000e+00 0.000000e+00 -0.000000e+00
      outer loop
         vertex 1.780000e+01 3.000000e+01 4.150000e+00
         vertex 1.780000e+01 3.000000e+01 1.985000e+01
         vertex 1.780000e+01 2.500000e+01 4.150000e+00
      endloop
   endfacet
   facet normal 1.000000e+00 0.000000e+00 0.000000e+00
      outer loop
         vertex 1.780000e+01 2.500000e+01 4.150000e+00
         vertex 1.780000e+01 3.000000e+01 1.985000e+01
         vertex 1.780000e+01 2.500000e+01 1.985000e+01
      endloop
   endfacet
   facet normal 0.000000e+00 0.000000e+00 1.000000e+00
      outer loop
         vertex 3.220000e+01 3.000000e+01 4.150000e+00
         vertex 1.780000e+01 3.000000e+01 4.150000e+00
         vertex 3.220000e+01 2.500000e+01 4.150000e+00
      endloop
   endfacet
   facet normal 0.000000e+00 0.000000e+00 1.000000e+00
      outer loop
         vertex 3.220000e+01 2.500000e+01 4.150000e+00
         vertex 1.780000e+01 3.000000e+01 4.150000e+00
         vertex 1.780000e+01 2.500000e+01 4.150000e+00
      endloop
   endfacet
   facet normal 0.000000e+00 0.000000e+00 -1.000000e+00
      outer loop
         vertex 1.480000e+01 2.026783e+01 2.650000e+00
         vertex 1.480000e+01 3.000000e+01 2.650000e+00
         vertex 3.520000e+01 2.026783e+01 2.650000e+00
      endloop
   endfacet
   facet normal 0.000000e+00 0.000000e+00 -1.000000e+00
      outer loop
         vertex 3.520000e+01 2.026783e+01 2.650000e+00
         vertex 1.480000e+01 3.000000e+01 2.650000e+00
         vertex 3.520000e+01 3.000000e+01 2.650000e+00
      endloop
   endfacet
   facet normal 0.000000e+00 4.460458e-01 -8.950101e-01
      outer loop
         vertex 3.520000e+01 1.500000e+01 1.150000e+00
         vertex 1.480000e+01 1.500000e+01 1.150000e+00
         vertex 3.520000e+01 1.665285e+01 1.973729e+00
      endloop
   endfacet
   facet normal 0.000000e+00 4.460458e-01 -8.950101e-01
      outer loop
         vertex 3.520000e+01 1.665285e+01 1.973729e+00
         vertex 1.480000e+01 1.500000e+01 1.150000e+00
         vertex 1.480000e+01 1.665285e+01 1.973729e+00
      endloop
   endfacet
   facet normal 0.000000e+00 2.738612e-01 -9.617692e-01
      outer loop
         vertex 3.520000e+01 1.665285e+01 1.973729e+00
         vertex 1.480000e+01 1.665285e+01 1.973729e+00
         vertex 3.520000e+01 1.842898e+01 2.479478e+00
      endloop
   endfacet
   facet normal 0.000000e+00 2.738612e-01 -9.617692e-01
      outer loop
         vertex 3.520000e+01 1.842898e+01 2.479478e+00
         vertex 1.480000e+01 1.665285e+01 1.973729e+00
         vertex 1.480000e+01 1.842898e+01 2.479478e+00
      endloop
   endfacet
   facet normal 0.000000e+00 9.233668e-02 -9.957278e-01
      outer loop
         vertex 3.520000e+01 1.842898e+01 2.479478e+00
         vertex 1.480000e+01 1.842898e+01 2.479478e+00
         vertex 3.520000e+01 2.026783e+01 2.650000e+00
      endloop
   endfacet
   facet normal 0.000000e+00 9.233668e-02 -9.957278e-01
      outer loop
         vertex 3.520000e+01 2.026783e+01 2.650000e+00
         vertex 1.480000e+01 1.842898e+01 2.479478e+00
         vertex 1.480000e+01 2.026783e+01 2.650000e+00
      endloop
   endfacet
   facet normal 1.000000e+00 -0.000000e+00 0.000000e+00
      outer loop
         vertex 5.000000e+01 0.000000e+00 1.800000e+01
         vertex 5.000000e+01 0.000000e+00 1.999999e+00
         vertex 5.000000e+01 3.000000e+00 1.800000e+01
      endloop
   endfacet
   facet normal 1.000000e+00 0.000000e+00 0.000000e+00
      outer loop
         vertex 5.000000e+01 3.000000e+00 1.800000e+01
         vertex 5.000000e+01 0.000000e+00 1.999999e+00
         vertex 5.000000e+01 3.000000e+00 1.999999e+00
      endloop
   endfacet
   facet normal 0.000000e+00 0.000000e+00 -1.000000e+00
      outer loop
         vertex 2.000000e+00 3.000000e+00 0.000000e+00
         vertex 4.800000e+01 3.000000e+00 0.000000e+00
         vertex 2.000000e+00 0.000000e+00 0.000000e+00
      endloop
   endfacet
   facet normal 0.000000e+00 0.000000e+00 -1.000000e+00
      outer loop
         vertex 2.000000e+00 0.000000e+00 0.000000e+00
         vertex 4.800000e+01 3.000000e+00 0.000000e+00
         vertex 4.800000e+01 0.000000e+00 0.000000e+00
      endloop
   endfacet
   facet normal -1.000000e+00 -0.000000e+00 -0.000000e+00
      outer loop
         vertex 0.000000e+00 3.000000e+00 1.800000e+01
         vertex 0.000000e+00 3.000000e+00 1.999999e+00
         vertex 0.000000e+00 0.000000e+00 1.800000e+01
      endloop
   endfacet
   facet normal -1.000000e+00 0.000000e+00 0.000000e+00
      outer loop
         vertex 0.000000e+00 0.000000e+00 1.800000e+01
         vertex 0.000000e+00 3.000000e+00 1.999999e+00
         vertex 0.000000e+00 0.000000e+00 1.999999e+00
      endloop
   endfacet
   facet normal 0.000000e+00 0.000000e+00 1.000000e+00
      outer loop
         vertex 2.000000e+00 0.000000e+00 2.000000e+01
         vertex 4.800000e+01 0.000000e+00 2.000000e+01
         vertex 2.000000e+00 3.000000e+00 2.000000e+01
      endloop
   endfacet
   facet normal -0.000000e+00 0.000000e+00 1.000000e+00
      outer loop
         vertex 2.000000e+00 3.000000e+00 2.000000e+01
         vertex 4.800000e+01 0.000000e+00 2.000000e+01
         vertex 4.800000e+01 3.000000e+00 2.000000e+01
      endloop
   endfacet
   facet normal 2.588192e-01 -0.000000e+00 9.659258e-01
      outer loop
         vertex 4.340000e+01 0.000000e+00 8.300000e+00
         vertex 4.340000e+01 3.000000e+00 8.300000e+00
         vertex 4.255000e+01 0.000000e+00 8.527757e+00
      endloop
   endfacet
   facet normal 2.588192e-01 -0.000000e+00 9.659258e-01
      outer loop
         vertex 4.255000e+01 0.000000e+00 8.527757e+00
         vertex 4.340000e+01 3.000000e+00 8.300000e+00
         vertex 4.255000e+01 3.000000e+00 8.527757e+00
      endloop
   endfacet
   facet normal 7.071060e-01 -0.000000e+00 7.071075e-01
      outer loop
         vertex 4.255000e+01 0.000000e+00 8.527757e+00
         vertex 4.255000e+01 3.000000e+00 8.527757e+00
         vertex 4.192776e+01 0.000000e+00 9.150000e+00
      endloop
   endfacet
   facet normal 7.071060e-01 -0.000000e+00 7.071075e-01
      outer loop
         vertex 4.192776e+01 0.000000e+00 9.150000e+00
         vertex 4.255000e+01 3.000000e+00 8.527757e+00
         vertex 4.192776e+01 3.000000e+00 9.150000e+00
      endloop
   endfacet
   facet normal 9.659258e-01 -0.000000e+00 2.588190e-01
      outer loop
         vertex 4.192776e+01 0.000000e+00 9.150000e+00
         vertex 4.192776e+01 3.000000e+00 9.150000e+00
         vertex 4.170000e+01 0.000000e+00 1.000000e+01
      endloop
   endfacet
   facet normal 9.659258e-01 -0.000000e+00 2.588190e-01
      outer loop
         vertex 4.170000e+01 0.000000e+00 1.000000e+01
         vertex 4.192776e+01 3.000000e+00 9.150000e+00
         vertex 4.170000e+01 3.000000e+00 1.000000e+01
      endloop
   endfacet
   facet normal 9.659258e-01 0.000000e+00 -2.588190e-01
      outer loop
         vertex 4.170000e+01 0.000000e+00 1.000000e+01
         vertex 4.170000e+01 3.000000e+00 1.000000e+01
         vertex 4.192776e+01 0.000000e+00 1.085000e+01
      endloop
   endfacet
   facet normal 9.659258e-01 0.000000e+00 -2.588190e-01
      outer loop
         vertex 4.192776e+01 0.000000e+00 1.085000e+01
         vertex 4.170000e+01 3.000000e+00 1.000000e+01
         vertex 4.192776e+01 3.000000e+00 1.085000e+01
      endloop
   endfacet
   facet normal 7.071060e-01 0.000000e+00 -7.071075e-01
      outer loop
         vertex 4.192776e+01 0.000000e+00 1.085000e+01
         vertex 4.192776e+01 3.000000e+00 1.085000e+01
         vertex 4.255000e+01 0.000000e+00 1.147224e+01
      endloop
   endfacet
   facet normal 7.071060e-01 0.000000e+00 -7.071075e-01
      outer loop
         vertex 4.255000e+01 0.000000e+00 1.147224e+01
         vertex 4.192776e+01 3.000000e+00 1.085000e+01
         vertex 4.255000e+01 3.000000e+00 1.147224e+01
      endloop
   endfacet
   facet normal 2.588192e-01 0.000000e+00 -9.659258e-01
      outer loop
         vertex 4.255000e+01 0.000000e+00 1.147224e+01
         vertex 4.255000e+01 3.000000e+00 1.147224e+01
         vertex 4.340000e+01 0.000000e+00 1.170000e+01
      endloop
   endfacet
   facet normal 2.588192e-01 0.000000e+00 -9.659258e-01
      outer loop
         vertex 4.340000e+01 0.000000e+00 1.170000e+01
         vertex 4.255000e+01 3.000000e+00 1.147224e+01
         vertex 4.340000e+01 3.000000e+00 1.170000e+01
      endloop
   endfacet
   facet normal 0.000000e+00 0.000000e+00 1.000000e+00
      outer loop
         vertex 4.340000e+01 0.000000e+00 8.300000e+00
         vertex 4.500000e+01 0.000000e+00 8.300000e+00
         vertex 4.340000e+01 3.000000e+00 8.300000e+00
      endloop
   endfacet
   facet normal -0.000000e+00 0.000000e+00 1.000000e+00
      outer loop
         vertex 4.340000e+01 3.000000e+00 8.300000e+00
         vertex 4.500000e+01 0.000000e+00 8.300000e+00
         vertex 4.500000e+01 3.000000e+00 8.300000e+00
      endloop
   endfacet
   facet normal -2.225211e-01 0.000000e+00 -9.749279e-01
      outer loop
         vertex 4.500000e+01 0.000000e+00 1.170000e+01
         vertex 4.500000e+01 3.000000e+00 1.170000e+01
         vertex 4.573760e+01 0.000000e+00 1.153165e+01
      endloop
   endfacet
   facet normal -2.225211e-01 0.000000e+00 -9.749279e-01
      outer loop
         vertex 4.573760e+01 0.000000e+00 1.153165e+01
         vertex 4.500000e+01 3.000000e+00 1.170000e+01
         vertex 4.573760e+01 3.000000e+00 1.153165e+01
      endloop
   endfacet
   facet normal -6.234888e-01 0.000000e+00 -7.818323e-01
      outer loop
         vertex 4.573760e+01 0.000000e+00 1.153165e+01
         vertex 4.573760e+01 3.000000e+00 1.153165e+01
         vertex 4.632911e+01 0.000000e+00 1.105993e+01
      endloop
   endfacet
   facet normal -6.234888e-01 0.000000e+00 -7.818323e-01
      outer loop
         vertex 4.632911e+01 0.000000e+00 1.105993e+01
         vertex 4.573760e+01 3.000000e+00 1.153165e+01
         vertex 4.632911e+01 3.000000e+00 1.105993e+01
      endloop
   endfacet
   facet normal -9.009692e-01 0.000000e+00 -4.338830e-01
      outer loop
         vertex 4.632911e+01 0.000000e+00 1.105993e+01
         vertex 4.632911e+01 3.000000e+00 1.105993e+01
         vertex 4.665738e+01 0.000000e+00 1.037829e+01
      endloop
   endfacet
   facet normal -9.009692e-01 0.000000e+00 -4.338830e-01
      outer loop
         vertex 4.665738e+01 0.000000e+00 1.037829e+01
         vertex 4.632911e+01 3.000000e+00 1.105993e+01
         vertex 4.665738e+01 3.000000e+00 1.037829e+01
      endloop
   endfacet
   facet normal -1.000000e+00 0.000000e+00 0.000000e+00
      outer loop
         vertex 4.665738e+01 0.000000e+00 1.037829e+01
         vertex 4.665738e+01 3.000000e+00 1.037829e+01
         vertex 4.665738e+01 0.000000e+00 9.621714e+00
      endloop
   endfacet
   facet normal -1.000000e+00 0.000000e+00 0.000000e+00
      outer loop
         vertex 4.665738e+01 0.000000e+00 9.621714e+00
         vertex 4.665738e+01 3.000000e+00 1.037829e+01
         vertex 4.665738e+01 3.000000e+00 9.621714e+00
      endloop
   endfacet
   facet normal -9.009692e-01 0.000000e+00 4.338830e-01
      outer loop
         vertex 4.665738e+01 0.000000e+00 9.621714e+00
         vertex 4.665738e+01 3.000000e+00 9.621714e+00
         vertex 4.632911e+01 0.000000e+00 8.940067e+00
      endloop
   endfacet
   facet normal -9.009692e-01 0.000000e+00 4.338830e-01
      outer loop
         vertex 4.632911e+01 0.000000e+00 8.940067e+00
         vertex 4.665738e+01 3.000000e+00 9.621714e+00
         vertex 4.632911e+01 3.000000e+00 8.940067e+00
      endloop
   endfacet
   facet normal -6.234888e-01 0.000000e+00 7.818323e-01
      outer loop
         vertex 4.632911e+01 0.000000e+00 8.940067e+00
         vertex 4.632911e+01 3.000000e+00 8.940067e+00
         vertex 4.573760e+01 0.000000e+00 8.468353e+00
      endloop
   endfacet
   facet normal -6.234888e-01 0.000000e+00 7.818323e-01
      outer loop
         vertex 4.573760e+01 0.000000e+00 8.468353e+00
         vertex 4.632911e+01 3.000000e+00 8.940067e+00
         vertex 4.573760e+01 3.000000e+00 8.468353e+00
      endloop
   endfacet
   facet normal -2.225211e-01 0.000000e+00 9.749279e-01
      outer loop
         vertex 4.573760e+01 0.000000e+00 8.468353e+00
         vertex 4.573760e+01 3.000000e+00 8.468353e+00
         vertex 4.500000e+01 0.000000e+00 8.300000e+00
      endloop
   endfacet
   facet normal -2.225211e-01 0.000000e+00 9.749279e-01
      outer loop
         vertex 4.500000e+01 0.000000e+00 8.300000e+00
         vertex 4.573760e+01 3.000000e+00 8.468353e+00
         vertex 4.500000e+01 3.000000e+00 8.300000e+00
      endloop
   endfacet
   facet normal 0.000000e+00 0.000000e+00 -1.000000e+00
      outer loop
         vertex 4.500000e+01 0.000000e+00 1.170000e+01
         vertex 4.340000e+01 0.000000e+00 1.170000e+01
         vertex 4.500000e+01 3.000000e+00 1.170000e+01
      endloop
   endfacet
   facet normal -0.000000e+00 0.000000e+00 -1.000000e+00
      outer loop
         vertex 4.500000e+01 3.000000e+00 1.170000e+01
         vertex 4.340000e+01 0.000000e+00 1.170000e+01
         vertex 4.340000e+01 3.000000e+00 1.170000e+01
      endloop
   endfacet
   facet normal -2.588192e-01 0.000000e+00 -9.659258e-01
      outer loop
         vertex 5.000001e+00 0.000000e+00 1.170000e+01
         vertex 5.000001e+00 3.000000e+00 1.170000e+01
         vertex 5.850000e+00 0.000000e+00 1.147224e+01
      endloop
   endfacet
   facet normal -2.588192e-01 0.000000e+00 -9.659258e-01
      outer loop
         vertex 5.850000e+00 0.000000e+00 1.147224e+01
         vertex 5.000001e+00 3.000000e+00 1.170000e+01
         vertex 5.850000e+00 3.000000e+00 1.147224e+01
      endloop
   endfacet
   facet normal -7.071071e-01 0.000000e+00 -7.071065e-01
      outer loop
         vertex 5.850000e+00 0.000000e+00 1.147224e+01
         vertex 5.850000e+00 3.000000e+00 1.147224e+01
         vertex 6.472243e+00 0.000000e+00 1.085000e+01
      endloop
   endfacet
   facet normal -7.071071e-01 0.000000e+00 -7.071065e-01
      outer loop
         vertex 6.472243e+00 0.000000e+00 1.085000e+01
         vertex 5.850000e+00 3.000000e+00 1.147224e+01
         vertex 6.472243e+00 3.000000e+00 1.085000e+01
      endloop
   endfacet
   facet normal -9.659258e-01 0.000000e+00 -2.588190e-01
      outer loop
         vertex 6.472243e+00 0.000000e+00 1.085000e+01
         vertex 6.472243e+00 3.000000e+00 1.085000e+01
         vertex 6.700000e+00 0.000000e+00 1.000000e+01
      endloop
   endfacet
   facet normal -9.659258e-01 0.000000e+00 -2.588190e-01
      outer loop
         vertex 6.700000e+00 0.000000e+00 1.000000e+01
         vertex 6.472243e+00 3.000000e+00 1.085000e+01
         vertex 6.700000e+00 3.000000e+00 1.000000e+01
      endloop
   endfacet
   facet normal -9.659258e-01 0.000000e+00 2.588190e-01
      outer loop
         vertex 6.700000e+00 0.000000e+00 1.000000e+01
         vertex 6.700000e+00 3.000000e+00 1.000000e+01
         vertex 6.472243e+00 0.000000e+00 9.150000e+00
      endloop
   endfacet
   facet normal -9.659258e-01 0.000000e+00 2.588190e-01
      outer loop
         vertex 6.472243e+00 0.000000e+00 9.150000e+00
         vertex 6.700000e+00 3.000000e+00 1.000000e+01
         vertex 6.472243e+00 3.000000e+00 9.150000e+00
      endloop
   endfacet
   facet normal -7.071071e-01 0.000000e+00 7.071065e-01
      outer loop
         vertex 6.472243e+00 0.000000e+00 9.150000e+00
         vertex 6.472243e+00 3.000000e+00 9.150000e+00
         vertex 5.850000e+00 0.000000e+00 8.527757e+00
      endloop
   endfacet
   facet normal -7.071071e-01 0.000000e+00 7.071065e-01
      outer loop
         vertex 5.850000e+00 0.000000e+00 8.527757e+00
         vertex 6.472243e+00 3.000000e+00 9.150000e+00
         vertex 5.850000e+00 3.000000e+00 8.527757e+00
      endloop
   endfacet
   facet normal -2.588192e-01 0.000000e+00 9.659258e-01
      outer loop
         vertex 5.850000e+00 0.000000e+00 8.527757e+00
         vertex 5.850000e+00 3.000000e+00 8.527757e+00
         vertex 5.000001e+00 0.000000e+00 8.300000e+00
      endloop
   endfacet
   facet normal -2.588192e-01 0.000000e+00 9.659258e-01
      outer loop
         vertex 5.000001e+00 0.000000e+00 8.300000e+00
         vertex 5.850000e+00 3.000000e+00 8.527757e+00
         vertex 5.000001e+00 3.000000e+00 8.300000e+00
      endloop
   endfacet
   facet normal 2.588186e-01 -0.000000e+00 9.659259e-01
      outer loop
         vertex 5.000001e+00 0.000000e+00 8.300000e+00
         vertex 5.000001e+00 3.000000e+00 8.300000e+00
         vertex 4.149999e+00 0.000000e+00 8.527757e+00
      endloop
   endfacet
   facet normal 2.588186e-01 -0.000000e+00 9.659259e-01
      outer loop
         vertex 4.149999e+00 0.000000e+00 8.527757e+00
         vertex 5.000001e+00 3.000000e+00 8.300000e+00
         vertex 4.149999e+00 3.000000e+00 8.527757e+00
      endloop
   endfacet
   facet normal 7.071071e-01 -0.000000e+00 7.071065e-01
      outer loop
         vertex 4.149999e+00 0.000000e+00 8.527757e+00
         vertex 4.149999e+00 3.000000e+00 8.527757e+00
         vertex 3.527757e+00 0.000000e+00 9.150000e+00
      endloop
   endfacet
   facet normal 7.071071e-01 -0.000000e+00 7.071065e-01
      outer loop
         vertex 3.527757e+00 0.000000e+00 9.150000e+00
         vertex 4.149999e+00 3.000000e+00 8.527757e+00
         vertex 3.527757e+00 3.000000e+00 9.150000e+00
      endloop
   endfacet
   facet normal 9.659258e-01 -0.000000e+00 2.588190e-01
      outer loop
         vertex 3.527757e+00 0.000000e+00 9.150000e+00
         vertex 3.527757e+00 3.000000e+00 9.150000e+00
         vertex 3.300000e+00 0.000000e+00 1.000000e+01
      endloop
   endfacet
   facet normal 9.659258e-01 -0.000000e+00 2.588190e-01
      outer loop
         vertex 3.300000e+00 0.000000e+00 1.000000e+01
         vertex 3.527757e+00 3.000000e+00 9.150000e+00
         vertex 3.300000e+00 3.000000e+00 1.000000e+01
      endloop
   endfacet
   facet normal 9.659258e-01 0.000000e+00 -2.588190e-01
      outer loop
         vertex 3.300000e+00 0.000000e+00 1.000000e+01
         vertex 3.300000e+00 3.000000e+00 1.000000e+01
         vertex 3.527757e+00 0.000000e+00 1.085000e+01
      endloop
   endfacet
   facet normal 9.659258e-01 0.000000e+00 -2.588190e-01
      outer loop
         vertex 3.527757e+00 0.000000e+00 1.085000e+01
         vertex 3.300000e+00 3.000000e+00 1.000000e+01
         vertex 3.527757e+00 3.000000e+00 1.085000e+01
      endloop
   endfacet
   facet normal 7.071071e-01 0.000000e+00 -7.071065e-01
      outer loop
         vertex 3.527757e+00 0.000000e+00 1.085000e+01
         vertex 3.527757e+00 3.000000e+00 1.085000e+01
         vertex 4.149999e+00 0.000000e+00 1.147224e+01
      endloop
   endfacet
   facet normal 7.071071e-01 0.000000e+00 -7.071065e-01
      outer loop
         vertex 4.149999e+00 0.000000e+00 1.147224e+01
         vertex 3.527757e+00 3.000000e+00 1.085000e+01
         vertex 4.149999e+00 3.000000e+00 1.147224e+01
      endloop
   endfacet
   facet normal 2.588186e-01 0.000000e+00 -9.659259e-01
      outer loop
         vertex 4.149999e+00 0.000000e+00 1.147224e+01
         vertex 4.149999e+00 3.000000e+00 1.147224e+01
         vertex 5.000001e+00 0.000000e+00 1.170000e+01
      endloop
   endfacet
   facet normal 2.588186e-01 0.000000e+00 -9.659259e-01
      outer loop
         vertex 5.000001e+00 0.000000e+00 1.170000e+01
         vertex 4.149999e+00 3.000000e+00 1.147224e+01
         vertex 5.000001e+00 3.000000e+00 1.170000e+01
      endloop
   endfacet
   facet normal 7.071067e-01 7.071069e-01 -0.000000e+00
      outer loop
         vertex 3.720000e+01 9.000000e+00 1.150000e+00
         vertex 3.720000e+01 9.000000e+00 4.150000e+00
         vertex 4.220000e+01 4.000000e+00 1.150000e+00
      endloop
   endfacet
   facet normal 7.071067e-01 7.071069e-01 5.487871e-08
      outer loop
         vertex 4.220000e+01 4.000000e+00 1.150000e+00
         vertex 3.720000e+01 9.000000e+00 4.150000e+00
         vertex 4.320000e+01 3.000000e+00 4.150000e+00
      endloop
   endfacet
   facet normal 7.071068e-01 7.071068e-01 0.000000e+00
      outer loop
         vertex 4.220000e+01 4.000000e+00 1.150000e+00
         vertex 4.320000e+01 3.000000e+00 4.150000e+00
         vertex 4.320000e+01 3.000000e+00 1.499997e-01
      endloop
   endfacet
   facet normal -0.000000e+00 1.000000e+00 0.000000e+00
      outer loop
         vertex 3.520000e+01 9.000000e+00 4.150000e+00
         vertex 3.720000e+01 9.000000e+00 4.150000e+00
         vertex 3.520000e+01 9.000000e+00 1.150000e+00
      endloop
   endfacet
   facet normal 0.000000e+00 1.000000e+00 0.000000e+00
      outer loop
         vertex 3.520000e+01 9.000000e+00 1.150000e+00
         vertex 3.720000e+01 9.000000e+00 4.150000e+00
         vertex 3.720000e+01 9.000000e+00 1.150000e+00
      endloop
   endfacet
   facet normal 0.000000e+00 -0.000000e+00 1.000000e+00
      outer loop
         vertex 3.820000e+01 3.000000e+00 4.150000e+00
         vertex 4.320000e+01 3.000000e+00 4.150000e+00
         vertex 3.520000e+01 6.000000e+00 4.150000e+00
      endloop
   endfacet
   facet normal -0.000000e+00 0.000000e+00 1.000000e+00
      outer loop
         vertex 3.520000e+01 6.000000e+00 4.150000e+00
         vertex 4.320000e+01 3.000000e+00 4.150000e+00
         vertex 3.720000e+01 9.000000e+00 4.150000e+00
      endloop
   endfacet
   facet normal 0.000000e+00 0.000000e+00 1.000000e+00
      outer loop
         vertex 3.520000e+01 6.000000e+00 4.150000e+00
         vertex 3.720000e+01 9.000000e+00 4.150000e+00
         vertex 3.520000e+01 9.000000e+00 4.150000e+00
      endloop
   endfacet
   facet normal -7.071067e-01 7.071069e-01 0.000000e+00
      outer loop
         vertex 1.280000e+01 9.000000e+00 4.150000e+00
         vertex 1.280000e+01 9.000000e+00 1.150000e+00
         vertex 6.800000e+00 3.000000e+00 4.150000e+00
      endloop
   endfacet
   facet normal -7.071067e-01 7.071069e-01 6.585446e-08
      outer loop
         vertex 6.800000e+00 3.000000e+00 4.150000e+00
         vertex 1.280000e+01 9.000000e+00 1.150000e+00
         vertex 7.800000e+00 4.000000e+00 1.150000e+00
      endloop
   endfacet
   facet normal -7.071068e-01 7.071068e-01 0.000000e+00
      outer loop
         vertex 6.800000e+00 3.000000e+00 4.150000e+00
         vertex 7.800000e+00 4.000000e+00 1.150000e+00
         vertex 6.800000e+00 3.000000e+00 1.499997e-01
      endloop
   endfacet
   facet normal -0.000000e+00 1.000000e+00 0.000000e+00
      outer loop
         vertex 1.280000e+01 9.000000e+00 4.150000e+00
         vertex 1.480000e+01 9.000000e+00 4.150000e+00
         vertex 1.280000e+01 9.000000e+00 1.150000e+00
      endloop
   endfacet
   facet normal 0.000000e+00 1.000000e+00 0.000000e+00
      outer loop
         vertex 1.280000e+01 9.000000e+00 1.150000e+00
         vertex 1.480000e+01 9.000000e+00 4.150000e+00
         vertex 1.480000e+01 9.000000e+00 1.150000e+00
      endloop
   endfacet
   facet normal 0.000000e+00 -0.000000e+00 1.000000e+00
      outer loop
         vertex 1.480000e+01 6.000000e+00 4.150000e+00
         vertex 1.480000e+01 9.000000e+00 4.150000e+00
         vertex 1.180000e+01 3.000000e+00 4.150000e+00
      endloop
   endfacet
   facet normal 0.000000e+00 0.000000e+00 1.000000e+00
      outer loop
         vertex 1.180000e+01 3.000000e+00 4.150000e+00
         vertex 1.480000e+01 9.000000e+00 4.150000e+00
         vertex 1.280000e+01 9.000000e+00 4.150000e+00
      endloop
   endfacet
   facet normal 0.000000e+00 -0.000000e+00 1.000000e+00
      outer loop
         vertex 1.180000e+01 3.000000e+00 4.150000e+00
         vertex 1.280000e+01 9.000000e+00 4.150000e+00
         vertex 6.800000e+00 3.000000e+00 4.150000e+00
      endloop
   endfacet
   facet normal -7.071067e-01 7.071069e-01 0.000000e+00
      outer loop
         vertex 1.280000e+01 9.000000e+00 1.885000e+01
         vertex 1.280000e+01 9.000000e+00 1.585000e+01
         vertex 7.800000e+00 4.000000e+00 1.885000e+01
      endloop
   endfacet
   facet normal -7.071067e-01 7.071069e-01 -5.487871e-08
      outer loop
         vertex 7.800000e+00 4.000000e+00 1.885000e+01
         vertex 1.280000e+01 9.000000e+00 1.585000e+01
         vertex 6.800000e+00 3.000000e+00 1.585000e+01
      endloop
   endfacet
   facet normal -7.071068e-01 7.071068e-01 0.000000e+00
      outer loop
         vertex 7.800000e+00 4.000000e+00 1.885000e+01
         vertex 6.800000e+00 3.000000e+00 1.585000e+01
         vertex 6.800000e+00 3.000000e+00 1.985000e+01
      endloop
   endfacet
   facet normal 0.000000e+00 1.000000e+00 -0.000000e+00
      outer loop
         vertex 1.480000e+01 9.000000e+00 1.585000e+01
         vertex 1.280000e+01 9.000000e+00 1.585000e+01
         vertex 1.480000e+01 9.000000e+00 1.885000e+01
      endloop
   endfacet
   facet normal 0.000000e+00 1.000000e+00 0.000000e+00
      outer loop
         vertex 1.480000e+01 9.000000e+00 1.885000e+01
         vertex 1.280000e+01 9.000000e+00 1.585000e+01
         vertex 1.280000e+01 9.000000e+00 1.885000e+01
      endloop
   endfacet
   facet normal -0.000000e+00 -0.000000e+00 -1.000000e+00
      outer loop
         vertex 1.480000e+01 9.000000e+00 1.585000e+01
         vertex 1.480000e+01 6.000000e+00 1.585000e+01
         vertex 1.280000e+01 9.000000e+00 1.585000e+01
      endloop
   endfacet
   facet normal 0.000000e+00 -0.000000e+00 -1.000000e+00
      outer loop
         vertex 1.280000e+01 9.000000e+00 1.585000e+01
         vertex 1.480000e+01 6.000000e+00 1.585000e+01
         vertex 1.180000e+01 3.000000e+00 1.585000e+01
      endloop
   endfacet
   facet normal 0.000000e+00 0.000000e+00 -1.000000e+00
      outer loop
         vertex 1.280000e+01 9.000000e+00 1.585000e+01
         vertex 1.180000e+01 3.000000e+00 1.585000e+01
         vertex 6.800000e+00 3.000000e+00 1.585000e+01
      endloop
   endfacet
   facet normal 0.000000e+00 1.000000e+00 -0.000000e+00
      outer loop
         vertex 3.720000e+01 9.000000e+00 1.585000e+01
         vertex 3.520000e+01 9.000000e+00 1.585000e+01
         vertex 3.720000e+01 9.000000e+00 1.885000e+01
      endloop
   endfacet
   facet normal 0.000000e+00 1.000000e+00 0.000000e+00
      outer loop
         vertex 3.720000e+01 9.000000e+00 1.885000e+01
         vertex 3.520000e+01 9.000000e+00 1.585000e+01
         vertex 3.520000e+01 9.000000e+00 1.885000e+01
      endloop
   endfacet
   facet normal 7.071067e-01 7.071069e-01 -0.000000e+00
      outer loop
         vertex 3.720000e+01 9.000000e+00 1.585000e+01
         vertex 3.720000e+01 9.000000e+00 1.885000e+01
         vertex 4.320000e+01 3.000000e+00 1.585000e+01
      endloop
   endfacet
   facet normal 7.071067e-01 7.071069e-01 -6.585446e-08
      outer loop
         vertex 4.320000e+01 3.000000e+00 1.585000e+01
         vertex 3.720000e+01 9.000000e+00 1.885000e+01
         vertex 4.220000e+01 4.000000e+00 1.885000e+01
      endloop
   endfacet
   facet normal 7.071068e-01 7.071068e-01 -0.000000e+00
      outer loop
         vertex 4.320000e+01 3.000000e+00 1.585000e+01
         vertex 4.220000e+01 4.000000e+00 1.885000e+01
         vertex 4.320000e+01 3.000000e+00 1.985000e+01
      endloop
   endfacet
   facet normal 0.000000e+00 0.000000e+00 -1.000000e+00
      outer loop
         vertex 4.320000e+01 3.000000e+00 1.585000e+01
         vertex 3.820000e+01 3.000000e+00 1.585000e+01
         vertex 3.720000e+01 9.000000e+00 1.585000e+01
      endloop
   endfacet
   facet normal 0.000000e+00 -0.000000e+00 -1.000000e+00
      outer loop
         vertex 3.720000e+01 9.000000e+00 1.585000e+01
         vertex 3.820000e+01 3.000000e+00 1.585000e+01
         vertex 3.520000e+01 6.000000e+00 1.585000e+01
      endloop
   endfacet
   facet normal -0.000000e+00 0.000000e+00 -1.000000e+00
      outer loop
         vertex 3.720000e+01 9.000000e+00 1.585000e+01
         vertex 3.520000e+01 6.000000e+00 1.585000e+01
         vertex 3.520000e+01 9.000000e+00 1.585000e+01
      endloop
   endfacet
   facet normal -7.071068e-01 7.071067e-01 0.000000e+00
      outer loop
         vertex 1.480000e+01 6.000000e+00 4.150000e+00
         vertex 1.180000e+01 3.000000e+00 4.150000e+00
         vertex 1.480000e+01 6.000000e+00 1.585000e+01
      endloop
   endfacet
   facet normal -7.071068e-01 7.071067e-01 0.000000e+00
      outer loop
         vertex 1.480000e+01 6.000000e+00 1.585000e+01
         vertex 1.180000e+01 3.000000e+00 4.150000e+00
         vertex 1.180000e+01 3.000000e+00 1.585000e+01
      endloop
   endfacet
   facet normal 7.071068e-01 7.071067e-01 -0.000000e+00
      outer loop
         vertex 3.820000e+01 3.000000e+00 4.150000e+00
         vertex 3.520000e+01 6.000000e+00 4.150000e+00
         vertex 3.820000e+01 3.000000e+00 1.585000e+01
      endloop
   endfacet
   facet normal 7.071068e-01 7.071067e-01 0.000000e+00
      outer loop
         vertex 3.820000e+01 3.000000e+00 1.585000e+01
         vertex 3.520000e+01 6.000000e+00 4.150000e+00
         vertex 3.520000e+01 6.000000e+00 1.585000e+01
      endloop
   endfacet
   facet normal 0.000000e+00 7.071068e-01 7.071068e-01
      outer loop
         vertex 4.320000e+01 3.000000e+00 1.985000e+01
         vertex 4.220000e+01 4.000000e+00 1.885000e+01
         vertex 6.800000e+00 3.000000e+00 1.985000e+01
      endloop
   endfacet
   facet normal 0.000000e+00 7.071068e-01 7.071068e-01
      outer loop
         vertex 6.800000e+00 3.000000e+00 1.985000e+01
         vertex 4.220000e+01 4.000000e+00 1.885000e+01
         vertex 7.800000e+00 4.000000e+00 1.885000e+01
      endloop
   endfacet
   facet normal 0.000000e+00 7.071068e-01 -7.071068e-01
      outer loop
         vertex 4.220000e+01 4.000000e+00 1.150000e+00
         vertex 4.320000e+01 3.000000e+00 1.499997e-01
         vertex 7.800000e+00 4.000000e+00 1.150000e+00
      endloop
   endfacet
   facet normal 0.000000e+00 7.071068e-01 -7.071068e-01
      outer loop
         vertex 7.800000e+00 4.000000e+00 1.150000e+00
         vertex 4.320000e+01 3.000000e+00 1.499997e-01
         vertex 6.800000e+00 3.000000e+00 1.499997e-01
      endloop
   endfacet
   facet normal -9.659258e-01 0.000000e+00 2.588190e-01
      outer loop
         vertex 0.000000e+00 3.000000e+00 1.800000e+01
         vertex 0.000000e+00 0.000000e+00 1.800000e+01
         vertex 2.679490e-01 0.000000e+00 1.900000e+01
      endloop
   endfacet
   facet normal -9.659258e-01 0.000000e+00 2.588190e-01
      outer loop
         vertex 0.000000e+00 3.000000e+00 1.800000e+01
         vertex 2.679490e-01 0.000000e+00 1.900000e+01
         vertex 2.679490e-01 3.000000e+00 1.900000e+01
      endloop
   endfacet
   facet normal -7.071068e-01 0.000000e+00 7.071068e-01
      outer loop
         vertex 2.679490e-01 3.000000e+00 1.900000e+01
         vertex 2.679490e-01 0.000000e+00 1.900000e+01
         vertex 1.000000e+00 0.000000e+00 1.973205e+01
      endloop
   endfacet
   facet normal -7.071068e-01 0.000000e+00 7.071068e-01
      outer loop
         vertex 2.679490e-01 3.000000e+00 1.900000e+01
         vertex 1.000000e+00 0.000000e+00 1.973205e+01
         vertex 1.000000e+00 3.000000e+00 1.973205e+01
      endloop
   endfacet
   facet normal -2.588188e-01 0.000000e+00 9.659259e-01
      outer loop
         vertex 1.000000e+00 3.000000e+00 1.973205e+01
         vertex 1.000000e+00 0.000000e+00 1.973205e+01
         vertex 2.000000e+00 0.000000e+00 2.000000e+01
      endloop
   endfacet
   facet normal -2.588188e-01 0.000000e+00 9.659259e-01
      outer loop
         vertex 1.000000e+00 3.000000e+00 1.973205e+01
         vertex 2.000000e+00 0.000000e+00 2.000000e+01
         vertex 2.000000e+00 3.000000e+00 2.000000e+01
      endloop
   endfacet
   facet normal -2.588188e-01 -0.000000e+00 -9.659259e-01
      outer loop
         vertex 2.000000e+00 3.000000e+00 0.000000e+00
         vertex 2.000000e+00 0.000000e+00 0.000000e+00
         vertex 1.000000e+00 0.000000e+00 2.679490e-01
      endloop
   endfacet
   facet normal -2.588188e-01 0.000000e+00 -9.659259e-01
      outer loop
         vertex 2.000000e+00 3.000000e+00 0.000000e+00
         vertex 1.000000e+00 0.000000e+00 2.679490e-01
         vertex 1.000000e+00 3.000000e+00 2.679490e-01
      endloop
   endfacet
   facet normal -7.071068e-01 -0.000000e+00 -7.071068e-01
      outer loop
         vertex 1.000000e+00 3.000000e+00 2.679490e-01
         vertex 1.000000e+00 0.000000e+00 2.679490e-01
         vertex 2.679490e-01 0.000000e+00 1.000000e+00
      endloop
   endfacet
   facet normal -7.071068e-01 0.000000e+00 -7.071068e-01
      outer loop
         vertex 1.000000e+00 3.000000e+00 2.679490e-01
         vertex 2.679490e-01 0.000000e+00 1.000000e+00
         vertex 2.679490e-01 3.000000e+00 1.000000e+00
      endloop
   endfacet
   facet normal -9.659258e-01 -0.000000e+00 -2.588190e-01
      outer loop
         vertex 2.679490e-01 3.000000e+00 1.000000e+00
         vertex 2.679490e-01 0.000000e+00 1.000000e+00
         vertex 0.000000e+00 0.000000e+00 1.999999e+00
      endloop
   endfacet
   facet normal -9.659258e-01 0.000000e+00 -2.588190e-01
      outer loop
         vertex 2.679490e-01 3.000000e+00 1.000000e+00
         vertex 0.000000e+00 0.000000e+00 1.999999e+00
         vertex 0.000000e+00 3.000000e+00 1.999999e+00
      endloop
   endfacet
   facet normal 2.588188e-01 0.000000e+00 9.659259e-01
      outer loop
         vertex 4.800000e+01 3.000000e+00 2.000000e+01
         vertex 4.800000e+01 0.000000e+00 2.000000e+01
         vertex 4.900000e+01 0.000000e+00 1.973205e+01
      endloop
   endfacet
   facet normal 2.588188e-01 0.000000e+00 9.659259e-01
      outer loop
         vertex 4.800000e+01 3.000000e+00 2.000000e+01
         vertex 4.900000e+01 0.000000e+00 1.973205e+01
         vertex 4.900000e+01 3.000000e+00 1.973205e+01
      endloop
   endfacet
   facet normal 7.071068e-01 0.000000e+00 7.071068e-01
      outer loop
         vertex 4.900000e+01 3.000000e+00 1.973205e+01
         vertex 4.900000e+01 0.000000e+00 1.973205e+01
         vertex 4.973205e+01 0.000000e+00 1.900000e+01
      endloop
   endfacet
   facet normal 7.071068e-01 0.000000e+00 7.071068e-01
      outer loop
         vertex 4.900000e+01 3.000000e+00 1.973205e+01
         vertex 4.973205e+01 0.000000e+00 1.900000e+01
         vertex 4.973205e+01 3.000000e+00 1.900000e+01
      endloop
   endfacet
   facet normal 9.659258e-01 0.000000e+00 2.588190e-01
      outer loop
         vertex 4.973205e+01 3.000000e+00 1.900000e+01
         vertex 4.973205e+01 0.000000e+00 1.900000e+01
         vertex 5.000000e+01 0.000000e+00 1.800000e+01
      endloop
   endfacet
   facet normal 9.659258e-01 0.000000e+00 2.588190e-01
      outer loop
         vertex 4.973205e+01 3.000000e+00 1.900000e+01
         vertex 5.000000e+01 0.000000e+00 1.800000e+01
         vertex 5.000000e+01 3.000000e+00 1.800000e+01
      endloop
   endfacet
   facet normal 9.659258e-01 0.000000e+00 -2.588190e-01
      outer loop
         vertex 5.000000e+01 3.000000e+00 1.999999e+00
         vertex 5.000000e+01 0.000000e+00 1.999999e+00
         vertex 4.973205e+01 0.000000e+00 1.000000e+00
      endloop
   endfacet
   facet normal 9.659258e-01 0.000000e+00 -2.588190e-01
      outer loop
         vertex 5.000000e+01 3.000000e+00 1.999999e+00
         vertex 4.973205e+01 0.000000e+00 1.000000e+00
         vertex 4.973205e+01 3.000000e+00 1.000000e+00
      endloop
   endfacet
   facet normal 7.071068e-01 0.000000e+00 -7.071068e-01
      outer loop
         vertex 4.973205e+01 3.000000e+00 1.000000e+00
         vertex 4.973205e+01 0.000000e+00 1.000000e+00
         vertex 4.900000e+01 0.000000e+00 2.679490e-01
      endloop
   endfacet
   facet normal 7.071068e-01 0.000000e+00 -7.071068e-01
      outer loop
         vertex 4.973205e+01 3.000000e+00 1.000000e+00
         vertex 4.900000e+01 0.000000e+00 2.679490e-01
         vertex 4.900000e+01 3.000000e+00 2.679490e-01
      endloop
   endfacet
   facet normal 2.588188e-01 0.000000e+00 -9.659259e-01
      outer loop
         vertex 4.900000e+01 3.000000e+00 2.679490e-01
         vertex 4.900000e+01 0.000000e+00 2.679490e-01
         vertex 4.800000e+01 0.000000e+00 0.000000e+00
      endloop
   endfacet
   facet normal 2.588188e-01 0.000000e+00 -9.659259e-01
      outer loop
         vertex 4.900000e+01 3.000000e+00 2.679490e-01
         vertex 4.800000e+01 0.000000e+00 0.000000e+00
         vertex 4.800000e+01 3.000000e+00 0.000000e+00
      endloop
   endfacet
   facet normal 0.000000e+00 0.000000e+00 1.000000e+00
      outer loop
         vertex 3.520000e+01 3.000000e+01 2.135000e+01
         vertex 1.480000e+01 3.000000e+01 2.135000e+01
         vertex 3.520000e+01 2.500000e+01 2.135000e+01
      endloop
   endfacet
   facet normal 0.000000e+00 0.000000e+00 1.000000e+00
      outer loop
         vertex 3.520000e+01 2.500000e+01 2.135000e+01
         vertex 1.480000e+01 3.000000e+01 2.135000e+01
         vertex 1.480000e+01 2.500000e+01 2.135000e+01
      endloop
   endfacet
   facet normal 0.000000e+00 0.000000e+00 -1.000000e+00
      outer loop
         vertex 1.780000e+01 2.500000e+01 1.985000e+01
         vertex 1.780000e+01 3.000000e+01 1.985000e+01
         vertex 3.220000e+01 2.500000e+01 1.985000e+01
      endloop
   endfacet
   facet normal 0.000000e+00 0.000000e+00 -1.000000e+00
      outer loop
         vertex 3.220000e+01 2.500000e+01 1.985000e+01
         vertex 1.780000e+01 3.000000e+01 1.985000e+01
         vertex 3.220000e+01 3.000000e+01 1.985000e+01
      endloop
   endfacet
   facet normal -1.000000e+00 0.000000e+00 0.000000e+00
      outer loop
         vertex 2.815000e+01 0.000000e+00 1.000000e+01
         vertex 2.815000e+01 0.000000e+00 1.400000e+01
         vertex 2.815000e+01 2.500000e+01 1.000000e+01
      endloop
   endfacet
   facet normal -1.000000e+00 0.000000e+00 0.000000e+00
      outer loop
         vertex 2.815000e+01 2.500000e+01 1.000000e+01
         vertex 2.815000e+01 0.000000e+00 1.400000e+01
         vertex 2.815000e+01 2.500000e+01 1.400000e+01
      endloop
   endfacet
   facet normal 9.807853e-01 0.000000e+00 -1.950903e-01
      outer loop
         vertex 2.185000e+01 0.000000e+00 1.400000e+01
         vertex 2.185000e+01 2.500000e+01 1.400000e+01
         vertex 2.208978e+01 0.000000e+00 1.520545e+01
      endloop
   endfacet
   facet normal 9.807853e-01 0.000000e+00 -1.950903e-01
      outer loop
         vertex 2.208978e+01 0.000000e+00 1.520545e+01
         vertex 2.185000e+01 2.500000e+01 1.400000e+01
         vertex 2.208978e+01 2.500000e+01 1.520545e+01
      endloop
   endfacet
   facet normal 8.314696e-01 0.000000e+00 -5.555703e-01
      outer loop
         vertex 2.208978e+01 0.000000e+00 1.520545e+01
         vertex 2.208978e+01 2.500000e+01 1.520545e+01
         vertex 2.277261e+01 0.000000e+00 1.622739e+01
      endloop
   endfacet
   facet normal 8.314696e-01 0.000000e+00 -5.555703e-01
      outer loop
         vertex 2.277261e+01 0.000000e+00 1.622739e+01
         vertex 2.208978e+01 2.500000e+01 1.520545e+01
         vertex 2.277261e+01 2.500000e+01 1.622739e+01
      endloop
   endfacet
   facet normal 5.555704e-01 0.000000e+00 -8.314695e-01
      outer loop
         vertex 2.277261e+01 0.000000e+00 1.622739e+01
         vertex 2.277261e+01 2.500000e+01 1.622739e+01
         vertex 2.379455e+01 0.000000e+00 1.691022e+01
      endloop
   endfacet
   facet normal 5.555704e-01 0.000000e+00 -8.314695e-01
      outer loop
         vertex 2.379455e+01 0.000000e+00 1.691022e+01
         vertex 2.277261e+01 2.500000e+01 1.622739e+01
         vertex 2.379455e+01 2.500000e+01 1.691022e+01
      endloop
   endfacet
   facet normal 1.950901e-01 0.000000e+00 -9.807853e-01
      outer loop
         vertex 2.379455e+01 0.000000e+00 1.691022e+01
         vertex 2.379455e+01 2.500000e+01 1.691022e+01
         vertex 2.500000e+01 0.000000e+00 1.715000e+01
      endloop
   endfacet
   facet normal 1.950901e-01 0.000000e+00 -9.807853e-01
      outer loop
         vertex 2.500000e+01 0.000000e+00 1.715000e+01
         vertex 2.379455e+01 2.500000e+01 1.691022e+01
         vertex 2.500000e+01 2.500000e+01 1.715000e+01
      endloop
   endfacet
   facet normal -1.950901e-01 0.000000e+00 -9.807853e-01
      outer loop
         vertex 2.500000e+01 0.000000e+00 1.715000e+01
         vertex 2.500000e+01 2.500000e+01 1.715000e+01
         vertex 2.620545e+01 0.000000e+00 1.691022e+01
      endloop
   endfacet
   facet normal -1.950901e-01 0.000000e+00 -9.807853e-01
      outer loop
         vertex 2.620545e+01 0.000000e+00 1.691022e+01
         vertex 2.500000e+01 2.500000e+01 1.715000e+01
         vertex 2.620545e+01 2.500000e+01 1.691022e+01
      endloop
   endfacet
   facet normal -5.555704e-01 0.000000e+00 -8.314695e-01
      outer loop
         vertex 2.620545e+01 0.000000e+00 1.691022e+01
         vertex 2.620545e+01 2.500000e+01 1.691022e+01
         vertex 2.722739e+01 0.000000e+00 1.622739e+01
      endloop
   endfacet
   facet normal -5.555704e-01 0.000000e+00 -8.314695e-01
      outer loop
         vertex 2.722739e+01 0.000000e+00 1.622739e+01
         vertex 2.620545e+01 2.500000e+01 1.691022e+01
         vertex 2.722739e+01 2.500000e+01 1.622739e+01
      endloop
   endfacet
   facet normal -8.314696e-01 0.000000e+00 -5.555703e-01
      outer loop
         vertex 2.722739e+01 0.000000e+00 1.622739e+01
         vertex 2.722739e+01 2.500000e+01 1.622739e+01
         vertex 2.791022e+01 0.000000e+00 1.520545e+01
      endloop
   endfacet
   facet normal -8.314696e-01 0.000000e+00 -5.555703e-01
      outer loop
         vertex 2.791022e+01 0.000000e+00 1.520545e+01
         vertex 2.722739e+01 2.500000e+01 1.622739e+01
         vertex 2.791022e+01 2.500000e+01 1.520545e+01
      endloop
   endfacet
   facet normal -9.807853e-01 0.000000e+00 -1.950903e-01
      outer loop
         vertex 2.791022e+01 0.000000e+00 1.520545e+01
         vertex 2.791022e+01 2.500000e+01 1.520545e+01
         vertex 2.815000e+01 0.000000e+00 1.400000e+01
      endloop
   endfacet
   facet normal -9.807853e-01 0.000000e+00 -1.950903e-01
      outer loop
         vertex 2.815000e+01 0.000000e+00 1.400000e+01
         vertex 2.791022e+01 2.500000e+01 1.520545e+01
         vertex 2.815000e+01 2.500000e+01 1.400000e+01
      endloop
   endfacet
   facet normal 1.000000e+00 -0.000000e+00 0.000000e+00
      outer loop
         vertex 2.185000e+01 0.000000e+00 1.400000e+01
         vertex 2.185000e+01 0.000000e+00 1.000000e+01
         vertex 2.185000e+01 2.500000e+01 1.400000e+01
      endloop
   endfacet
   facet normal 1.000000e+00 0.000000e+00 0.000000e+00
      outer loop
         vertex 2.185000e+01 2.500000e+01 1.400000e+01
         vertex 2.185000e+01 0.000000e+00 1.000000e+01
         vertex 2.185000e+01 2.500000e+01 1.000000e+01
      endloop
   endfacet
   facet normal 0.000000e+00 -2.425356e-01 9.701425e-01
      outer loop
         vertex 1.480000e+01 2.500000e+01 2.135000e+01
         vertex 1.480000e+01 1.500000e+01 1.885000e+01
         vertex 3.520000e+01 2.500000e+01 2.135000e+01
      endloop
   endfacet
   facet normal 0.000000e+00 -2.425356e-01 9.701425e-01
      outer loop
         vertex 3.520000e+01 2.500000e+01 2.135000e+01
         vertex 1.480000e+01 1.500000e+01 1.885000e+01
         vertex 3.520000e+01 1.500000e+01 1.885000e+01
      endloop
   endfacet
endsolid