solid rpi holder p1
   facet normal 0.000000e+00 0.000000e+00 -1.000000e+00
      outer loop
         vertex 9.250000e+00 5.485000e+01 3.390000e+01
         vertex 1.160000e+01 5.400000e+01 3.390000e+01
         vertex 9.250000e+00 5.315000e+01 3.390000e+01
      endloop
   endfacet
   facet normal 0.000000e+00 0.000000e+00 -1.000000e+00
      outer loop
         vertex 9.250000e+00 5.315000e+01 3.390000e+01
         vertex 1.160000e+01 5.400000e+01 3.390000e+01
         vertex 1.129552e+01 5.246926e+01 3.390000e+01
      endloop
   endfacet
   facet normal 0.000000e+00 -0.000000e+00 -1.000000e+00
      outer loop
         vertex 9.250000e+00 5.315000e+01 3.390000e+01
         vertex 1.129552e+01 5.246926e+01 3.390000e+01
         vertex 9.028941e+00 5.232500e+01 3.390000e+01
      endloop
   endfacet
   facet normal 0.000000e+00 0.000000e+00 -1.000000e+00
      outer loop
         vertex 9.028941e+00 5.232500e+01 3.390000e+01
         vertex 1.129552e+01 5.246926e+01 3.390000e+01
         vertex 1.042843e+01 5.117157e+01 3.390000e+01
      endloop
   endfacet
   facet normal 0.000000e+00 -0.000000e+00 -1.000000e+00
      outer loop
         vertex 9.028941e+00 5.232500e+01 3.390000e+01
         vertex 1.042843e+01 5.117157e+01 3.390000e+01
         vertex 8.424999e+00 5.172106e+01 3.390000e+01
      endloop
   endfacet
   facet normal 0.000000e+00 0.000000e+00 -1.000000e+00
      outer loop
         vertex 8.424999e+00 5.172106e+01 3.390000e+01
         vertex 1.042843e+01 5.117157e+01 3.390000e+01
         vertex 9.130733e+00 5.030448e+01 3.390000e+01
      endloop
   endfacet
   facet normal 0.000000e+00 -0.000000e+00 -1.000000e+00
      outer loop
         vertex 8.424999e+00 5.172106e+01 3.390000e+01
         vertex 9.130733e+00 5.030448e+01 3.390000e+01
         vertex 7.600000e+00 5.150000e+01 3.390000e+01
      endloop
   endfacet
   facet normal 0.000000e+00 0.000000e+00 -1.000000e+00
      outer loop
         vertex 7.600000e+00 5.150000e+01 3.390000e+01
         vertex 9.130733e+00 5.030448e+01 3.390000e+01
         vertex 7.600000e+00 5.000000e+01 3.390000e+01
      endloop
   endfacet
   facet normal -0.000000e+00 -0.000000e+00 -1.000000e+00
      outer loop
         vertex 7.600000e+00 5.150000e+01 3.390000e+01
         vertex 7.600000e+00 5.000000e+01 3.390000e+01
         vertex 6.774999e+00 5.172106e+01 3.390000e+01
      endloop
   endfacet
   facet normal 0.000000e+00 -0.000000e+00 -1.000000e+00
      outer loop
         vertex 6.774999e+00 5.172106e+01 3.390000e+01
         vertex 7.600000e+00 5.000000e+01 3.390000e+01
         vertex 6.069265e+00 5.030448e+01 3.390000e+01
      endloop
   endfacet
   facet normal -0.000000e+00 0.000000e+00 -1.000000e+00
      outer loop
         vertex 6.774999e+00 5.172106e+01 3.390000e+01
         vertex 6.069265e+00 5.030448e+01 3.390000e+01
         vertex 6.171057e+00 5.232500e+01 3.390000e+01
      endloop
   endfacet
   facet normal 0.000000e+00 0.000000e+00 -1.000000e+00
      outer loop
         vertex 6.171057e+00 5.232500e+01 3.390000e+01
         vertex 6.069265e+00 5.030448e+01 3.390000e+01
         vertex 4.771573e+00 5.117157e+01 3.390000e+01
      endloop
   endfacet
   facet normal -0.000000e+00 0.000000e+00 -1.000000e+00
      outer loop
         vertex 6.171057e+00 5.232500e+01 3.390000e+01
         vertex 4.771573e+00 5.117157e+01 3.390000e+01
         vertex 5.950000e+00 5.315000e+01 3.390000e+01
      endloop
   endfacet
   facet normal 0.000000e+00 0.000000e+00 -1.000000e+00
      outer loop
         vertex 4.771573e+00 5.117157e+01 3.390000e+01
         vertex 3.904482e+00 5.246926e+01 3.390000e+01
         vertex 5.950000e+00 5.315000e+01 3.390000e+01
      endloop
   endfacet
   facet normal -0.000000e+00 0.000000e+00 -1.000000e+00
      outer loop
         vertex 5.950000e+00 5.315000e+01 3.390000e+01
         vertex 3.904482e+00 5.246926e+01 3.390000e+01
         vertex 3.599999e+00 5.400000e+01 3.390000e+01
      endloop
   endfacet
   facet normal 0.000000e+00 0.000000e+00 -1.000000e+00
      outer loop
         vertex 5.950000e+00 5.315000e+01 3.390000e+01
         vertex 3.599999e+00 5.400000e+01 3.390000e+01
         vertex 5.950000e+00 5.485000e+01 3.390000e+01
      endloop
   endfacet
   facet normal -0.000000e+00 0.000000e+00 -1.000000e+00
      outer loop
         vertex 5.950000e+00 5.485000e+01 3.390000e+01
         vertex 3.599999e+00 5.400000e+01 3.390000e+01
         vertex 3.904482e+00 5.553073e+01 3.390000e+01
      endloop
   endfacet
   facet normal 0.000000e+00 0.000000e+00 -1.000000e+00
      outer loop
         vertex 5.950000e+00 5.485000e+01 3.390000e+01
         vertex 3.904482e+00 5.553073e+01 3.390000e+01
         vertex 6.171057e+00 5.567500e+01 3.390000e+01
      endloop
   endfacet
   facet normal -0.000000e+00 0.000000e+00 -1.000000e+00
      outer loop
         vertex 6.171057e+00 5.567500e+01 3.390000e+01
         vertex 3.904482e+00 5.553073e+01 3.390000e+01
         vertex 4.771573e+00 5.682843e+01 3.390000e+01
      endloop
   endfacet
   facet normal 0.000000e+00 0.000000e+00 -1.000000e+00
      outer loop
         vertex 6.171057e+00 5.567500e+01 3.390000e+01
         vertex 4.771573e+00 5.682843e+01 3.390000e+01
         vertex 6.774999e+00 5.627894e+01 3.390000e+01
      endloop
   endfacet
   facet normal 0.000000e+00 0.000000e+00 -1.000000e+00
      outer loop
         vertex 6.774999e+00 5.627894e+01 3.390000e+01
         vertex 4.771573e+00 5.682843e+01 3.390000e+01
         vertex 6.069265e+00 5.769552e+01 3.390000e+01
      endloop
   endfacet
   facet normal 0.000000e+00 0.000000e+00 -1.000000e+00
      outer loop
         vertex 6.774999e+00 5.627894e+01 3.390000e+01
         vertex 6.069265e+00 5.769552e+01 3.390000e+01
         vertex 7.600000e+00 5.650000e+01 3.390000e+01
      endloop
   endfacet
   facet normal 0.000000e+00 0.000000e+00 -1.000000e+00
      outer loop
         vertex 7.600000e+00 5.650000e+01 3.390000e+01
         vertex 6.069265e+00 5.769552e+01 3.390000e+01
         vertex 7.600000e+00 5.800000e+01 3.390000e+01
      endloop
   endfacet
   facet normal 0.000000e+00 0.000000e+00 -1.000000e+00
      outer loop
         vertex 7.600000e+00 5.650000e+01 3.390000e+01
         vertex 7.600000e+00 5.800000e+01 3.390000e+01
         vertex 8.424999e+00 5.627894e+01 3.390000e+01
      endloop
   endfacet
   facet normal 0.000000e+00 0.000000e+00 -1.000000e+00
      outer loop
         vertex 8.424999e+00 5.627894e+01 3.390000e+01
         vertex 7.600000e+00 5.800000e+01 3.390000e+01
         vertex 9.130733e+00 5.769552e+01 3.390000e+01
      endloop
   endfacet
   facet normal 0.000000e+00 0.000000e+00 -1.000000e+00
      outer loop
         vertex 8.424999e+00 5.627894e+01 3.390000e+01
         vertex 9.130733e+00 5.769552e+01 3.390000e+01
         vertex 9.028941e+00 5.567500e+01 3.390000e+01
      endloop
   endfacet
   facet normal 0.000000e+00 0.000000e+00 -1.000000e+00
      outer loop
         vertex 9.028941e+00 5.567500e+01 3.390000e+01
         vertex 9.130733e+00 5.769552e+01 3.390000e+01
         vertex 1.042843e+01 5.682843e+01 3.390000e+01
      endloop
   endfacet
   facet normal 0.000000e+00 0.000000e+00 -1.000000e+00
      outer loop
         vertex 9.028941e+00 5.567500e+01 3.390000e+01
         vertex 1.042843e+01 5.682843e+01 3.390000e+01
         vertex 9.250000e+00 5.485000e+01 3.390000e+01
      endloop
   endfacet
   facet normal 0.000000e+00 0.000000e+00 -1.000000e+00
      outer loop
         vertex 9.250000e+00 5.485000e+01 3.390000e+01
         vertex 1.042843e+01 5.682843e+01 3.390000e+01
         vertex 1.129552e+01 5.553073e+01 3.390000e+01
      endloop
   endfacet
   facet normal 0.000000e+00 0.000000e+00 -1.000000e+00
      outer loop
         vertex 9.250000e+00 5.485000e+01 3.390000e+01
         vertex 1.129552e+01 5.553073e+01 3.390000e+01
         vertex 1.160000e+01 5.400000e+01 3.390000e+01
      endloop
   endfacet
   facet normal -9.807851e-01 1.950910e-01 0.000000e+00
      outer loop
         vertex 3.599999e+00 5.400000e+01 3.390000e+01
         vertex 3.904482e+00 5.553073e+01 3.500000e+01
         vertex 3.904482e+00 5.553073e+01 3.390000e+01
      endloop
   endfacet
   facet normal -8.314696e-01 5.555702e-01 0.000000e+00
      outer loop
         vertex 3.904482e+00 5.553073e+01 3.390000e+01
         vertex 3.904482e+00 5.553073e+01 3.500000e+01
         vertex 4.771573e+00 5.682843e+01 3.500000e+01
      endloop
   endfacet
   facet normal -8.314696e-01 5.555702e-01 0.000000e+00
      outer loop
         vertex 3.904482e+00 5.553073e+01 3.390000e+01
         vertex 4.771573e+00 5.682843e+01 3.500000e+01
         vertex 4.771573e+00 5.682843e+01 3.390000e+01
      endloop
   endfacet
   facet normal -5.555707e-01 8.314693e-01 0.000000e+00
      outer loop
         vertex 4.771573e+00 5.682843e+01 3.390000e+01
         vertex 4.771573e+00 5.682843e+01 3.500000e+01
         vertex 6.069265e+00 5.769552e+01 3.500000e+01
      endloop
   endfacet
   facet normal -5.555707e-01 8.314693e-01 0.000000e+00
      outer loop
         vertex 4.771573e+00 5.682843e+01 3.390000e+01
         vertex 6.069265e+00 5.769552e+01 3.500000e+01
         vertex 6.069265e+00 5.769552e+01 3.390000e+01
      endloop
   endfacet
   facet normal -1.950897e-01 9.807854e-01 0.000000e+00
      outer loop
         vertex 6.069265e+00 5.769552e+01 3.390000e+01
         vertex 6.069265e+00 5.769552e+01 3.500000e+01
         vertex 7.600000e+00 5.800000e+01 3.500000e+01
      endloop
   endfacet
   facet normal -1.950897e-01 9.807854e-01 0.000000e+00
      outer loop
         vertex 6.069265e+00 5.769552e+01 3.390000e+01
         vertex 7.600000e+00 5.800000e+01 3.500000e+01
         vertex 7.600000e+00 5.800000e+01 3.390000e+01
      endloop
   endfacet
   facet normal 1.950899e-01 9.807854e-01 -0.000000e+00
      outer loop
         vertex 7.600000e+00 5.800000e+01 3.390000e+01
         vertex 7.600000e+00 5.800000e+01 3.500000e+01
         vertex 9.130733e+00 5.769552e+01 3.500000e+01
      endloop
   endfacet
   facet normal 1.950899e-01 9.807854e-01 0.000000e+00
      outer loop
         vertex 7.600000e+00 5.800000e+01 3.390000e+01
         vertex 9.130733e+00 5.769552e+01 3.500000e+01
         vertex 9.130733e+00 5.769552e+01 3.390000e+01
      endloop
   endfacet
   facet normal 5.555702e-01 8.314696e-01 -0.000000e+00
      outer loop
         vertex 9.130733e+00 5.769552e+01 3.390000e+01
         vertex 9.130733e+00 5.769552e+01 3.500000e+01
         vertex 1.042843e+01 5.682843e+01 3.500000e+01
      endloop
   endfacet
   facet normal 5.555702e-01 8.314696e-01 0.000000e+00
      outer loop
         vertex 9.130733e+00 5.769552e+01 3.390000e+01
         vertex 1.042843e+01 5.682843e+01 3.500000e+01
         vertex 1.042843e+01 5.682843e+01 3.390000e+01
      endloop
   endfacet
   facet normal 8.314696e-01 5.555702e-01 -0.000000e+00
      outer loop
         vertex 1.042843e+01 5.682843e+01 3.390000e+01
         vertex 1.042843e+01 5.682843e+01 3.500000e+01
         vertex 1.129552e+01 5.553073e+01 3.500000e+01
      endloop
   endfacet
   facet normal 8.314696e-01 5.555702e-01 0.000000e+00
      outer loop
         vertex 1.042843e+01 5.682843e+01 3.390000e+01
         vertex 1.129552e+01 5.553073e+01 3.500000e+01
         vertex 1.129552e+01 5.553073e+01 3.390000e+01
      endloop
   endfacet
   facet normal 9.807854e-01 1.950899e-01 -0.000000e+00
      outer loop
         vertex 1.129552e+01 5.553073e+01 3.390000e+01
         vertex 1.129552e+01 5.553073e+01 3.500000e+01
         vertex 1.160000e+01 5.400000e+01 3.500000e+01
      endloop
   endfacet
   facet normal 9.807854e-01 1.950899e-01 0.000000e+00
      outer loop
         vertex 1.129552e+01 5.553073e+01 3.390000e+01
         vertex 1.160000e+01 5.400000e+01 3.500000e+01
         vertex 1.160000e+01 5.400000e+01 3.390000e+01
      endloop
   endfacet
   facet normal 9.807854e-01 -1.950897e-01 0.000000e+00
      outer loop
         vertex 1.160000e+01 5.400000e+01 3.390000e+01
         vertex 1.160000e+01 5.400000e+01 3.500000e+01
         vertex 1.129552e+01 5.246926e+01 3.500000e+01
      endloop
   endfacet
   facet normal 9.807854e-01 -1.950897e-01 0.000000e+00
      outer loop
         vertex 1.160000e+01 5.400000e+01 3.390000e+01
         vertex 1.129552e+01 5.246926e+01 3.500000e+01
         vertex 1.129552e+01 5.246926e+01 3.390000e+01
      endloop
   endfacet
   facet normal 8.314693e-01 -5.555707e-01 0.000000e+00
      outer loop
         vertex 1.129552e+01 5.246926e+01 3.390000e+01
         vertex 1.129552e+01 5.246926e+01 3.500000e+01
         vertex 1.042843e+01 5.117157e+01 3.500000e+01
      endloop
   endfacet
   facet normal 8.314693e-01 -5.555707e-01 0.000000e+00
      outer loop
         vertex 1.129552e+01 5.246926e+01 3.390000e+01
         vertex 1.042843e+01 5.117157e+01 3.500000e+01
         vertex 1.042843e+01 5.117157e+01 3.390000e+01
      endloop
   endfacet
   facet normal 5.555702e-01 -8.314696e-01 0.000000e+00
      outer loop
         vertex 1.042843e+01 5.117157e+01 3.390000e+01
         vertex 1.042843e+01 5.117157e+01 3.500000e+01
         vertex 9.130733e+00 5.030448e+01 3.500000e+01
      endloop
   endfacet
   facet normal 5.555702e-01 -8.314696e-01 0.000000e+00
      outer loop
         vertex 1.042843e+01 5.117157e+01 3.390000e+01
         vertex 9.130733e+00 5.030448e+01 3.500000e+01
         vertex 9.130733e+00 5.030448e+01 3.390000e+01
      endloop
   endfacet
   facet normal 1.950910e-01 -9.807851e-01 0.000000e+00
      outer loop
         vertex 9.130733e+00 5.030448e+01 3.390000e+01
         vertex 9.130733e+00 5.030448e+01 3.500000e+01
         vertex 7.600000e+00 5.000000e+01 3.500000e+01
      endloop
   endfacet
   facet normal 1.950910e-01 -9.807851e-01 0.000000e+00
      outer loop
         vertex 9.130733e+00 5.030448e+01 3.390000e+01
         vertex 7.600000e+00 5.000000e+01 3.500000e+01
         vertex 7.600000e+00 5.000000e+01 3.390000e+01
      endloop
   endfacet
   facet normal -1.950908e-01 -9.807852e-01 0.000000e+00
      outer loop
         vertex 7.600000e+00 5.000000e+01 3.390000e+01
         vertex 7.600000e+00 5.000000e+01 3.500000e+01
         vertex 6.069265e+00 5.030448e+01 3.500000e+01
      endloop
   endfacet
   facet normal -1.950908e-01 -9.807852e-01 0.000000e+00
      outer loop
         vertex 7.600000e+00 5.000000e+01 3.390000e+01
         vertex 6.069265e+00 5.030448e+01 3.500000e+01
         vertex 6.069265e+00 5.030448e+01 3.390000e+01
      endloop
   endfacet
   facet normal -5.555707e-01 -8.314693e-01 0.000000e+00
      outer loop
         vertex 6.069265e+00 5.030448e+01 3.390000e+01
         vertex 6.069265e+00 5.030448e+01 3.500000e+01
         vertex 4.771573e+00 5.117157e+01 3.500000e+01
      endloop
   endfacet
   facet normal -5.555707e-01 -8.314693e-01 0.000000e+00
      outer loop
         vertex 6.069265e+00 5.030448e+01 3.390000e+01
         vertex 4.771573e+00 5.117157e+01 3.500000e+01
         vertex 4.771573e+00 5.117157e+01 3.390000e+01
      endloop
   endfacet
   facet normal -8.314693e-01 -5.555707e-01 0.000000e+00
      outer loop
         vertex 4.771573e+00 5.117157e+01 3.390000e+01
         vertex 4.771573e+00 5.117157e+01 3.500000e+01
         vertex 3.904482e+00 5.246926e+01 3.500000e+01
      endloop
   endfacet
   facet normal -8.314693e-01 -5.555707e-01 0.000000e+00
      outer loop
         vertex 4.771573e+00 5.117157e+01 3.390000e+01
         vertex 3.904482e+00 5.246926e+01 3.500000e+01
         vertex 3.904482e+00 5.246926e+01 3.390000e+01
      endloop
   endfacet
   facet normal -9.807852e-01 -1.950908e-01 0.000000e+00
      outer loop
         vertex 3.904482e+00 5.246926e+01 3.390000e+01
         vertex 3.904482e+00 5.246926e+01 3.500000e+01
         vertex 3.599999e+00 5.400000e+01 3.500000e+01
      endloop
   endfacet
   facet normal -9.807852e-01 -1.950908e-01 0.000000e+00
      outer loop
         vertex 3.904482e+00 5.246926e+01 3.390000e+01
         vertex 3.599999e+00 5.400000e+01 3.500000e+01
         vertex 3.599999e+00 5.400000e+01 3.390000e+01
      endloop
   endfacet
   facet normal -9.807851e-01 1.950910e-01 0.000000e+00
      outer loop
         vertex 3.599999e+00 5.400000e+01 3.390000e+01
         vertex 3.599999e+00 5.400000e+01 3.500000e+01
         vertex 3.904482e+00 5.553073e+01 3.500000e+01
      endloop
   endfacet
   facet normal 0.000000e+00 -0.000000e+00 1.000000e+00
      outer loop
         vertex 8.399999e+00 6.988564e+01 3.750000e+01
         vertex 1.260000e+01 7.150000e+01 3.750000e+01
         vertex 7.600000e+00 7.010000e+01 3.750000e+01
      endloop
   endfacet
   facet normal 0.000000e+00 -0.000000e+00 1.000000e+00
      outer loop
         vertex 7.600000e+00 7.010000e+01 3.750000e+01
         vertex 1.260000e+01 7.150000e+01 3.750000e+01
         vertex 2.599999e+00 7.150000e+01 3.750000e+01
      endloop
   endfacet
   facet normal 0.000000e+00 0.000000e+00 1.000000e+00
      outer loop
         vertex 7.600000e+00 7.010000e+01 3.750000e+01
         vertex 2.599999e+00 7.150000e+01 3.750000e+01
         vertex 6.800000e+00 6.988564e+01 3.750000e+01
      endloop
   endfacet
   facet normal 0.000000e+00 0.000000e+00 1.000000e+00
      outer loop
         vertex 6.800000e+00 6.988564e+01 3.750000e+01
         vertex 2.599999e+00 7.150000e+01 3.750000e+01
         vertex 6.214360e+00 6.930000e+01 3.750000e+01
      endloop
   endfacet
   facet normal 0.000000e+00 0.000000e+00 1.000000e+00
      outer loop
         vertex 1.260000e+01 4.999999e+00 3.750000e+01
         vertex 9.250000e+00 4.999999e+00 3.750000e+01
         vertex 1.229846e+01 3.289899e+00 3.750000e+01
      endloop
   endfacet
   facet normal 0.000000e+00 0.000000e+00 1.000000e+00
      outer loop
         vertex 1.229846e+01 3.289899e+00 3.750000e+01
         vertex 9.250000e+00 4.999999e+00 3.750000e+01
         vertex 9.028941e+00 4.175000e+00 3.750000e+01
      endloop
   endfacet
   facet normal -0.000000e+00 0.000000e+00 1.000000e+00
      outer loop
         vertex 7.600000e+00 3.349999e+00 3.750000e+01
         vertex 8.468240e+00 7.596053e-02 3.750000e+01
         vertex 8.424999e+00 3.571058e+00 3.750000e+01
      endloop
   endfacet
   facet normal 0.000000e+00 0.000000e+00 1.000000e+00
      outer loop
         vertex 8.424999e+00 3.571058e+00 3.750000e+01
         vertex 8.468240e+00 7.596053e-02 3.750000e+01
         vertex 1.010000e+01 6.698724e-01 3.750000e+01
      endloop
   endfacet
   facet normal -0.000000e+00 0.000000e+00 1.000000e+00
      outer loop
         vertex 8.424999e+00 3.571058e+00 3.750000e+01
         vertex 1.010000e+01 6.698724e-01 3.750000e+01
         vertex 9.028941e+00 4.175000e+00 3.750000e+01
      endloop
   endfacet
   facet normal 0.000000e+00 0.000000e+00 1.000000e+00
      outer loop
         vertex 9.028941e+00 4.175000e+00 3.750000e+01
         vertex 1.010000e+01 6.698724e-01 3.750000e+01
         vertex 1.143022e+01 1.786061e+00 3.750000e+01
      endloop
   endfacet
   facet normal 0.000000e+00 0.000000e+00 1.000000e+00
      outer loop
         vertex 9.028941e+00 4.175000e+00 3.750000e+01
         vertex 1.143022e+01 1.786061e+00 3.750000e+01
         vertex 1.229846e+01 3.289899e+00 3.750000e+01
      endloop
   endfacet
   facet normal -0.000000e+00 -0.000000e+00 1.000000e+00
      outer loop
         vertex 8.424999e+00 5.627894e+01 3.750000e+01
         vertex 9.028941e+00 5.567500e+01 3.750000e+01
         vertex 8.399999e+00 6.711436e+01 3.750000e+01
      endloop
   endfacet
   facet normal 0.000000e+00 0.000000e+00 1.000000e+00
      outer loop
         vertex 6.171057e+00 4.175000e+00 3.750000e+01
         vertex 3.769778e+00 1.786061e+00 3.750000e+01
         vertex 6.774999e+00 3.571058e+00 3.750000e+01
      endloop
   endfacet
   facet normal 0.000000e+00 0.000000e+00 1.000000e+00
      outer loop
         vertex 6.774999e+00 3.571058e+00 3.750000e+01
         vertex 3.769778e+00 1.786061e+00 3.750000e+01
         vertex 5.099999e+00 6.698724e-01 3.750000e+01
      endloop
   endfacet
   facet normal 0.000000e+00 0.000000e+00 1.000000e+00
      outer loop
         vertex 6.774999e+00 3.571058e+00 3.750000e+01
         vertex 5.099999e+00 6.698724e-01 3.750000e+01
         vertex 7.600000e+00 3.349999e+00 3.750000e+01
      endloop
   endfacet
   facet normal 0.000000e+00 0.000000e+00 1.000000e+00
      outer loop
         vertex 7.600000e+00 3.349999e+00 3.750000e+01
         vertex 5.099999e+00 6.698724e-01 3.750000e+01
         vertex 6.731758e+00 7.596053e-02 3.750000e+01
      endloop
   endfacet
   facet normal 0.000000e+00 0.000000e+00 1.000000e+00
      outer loop
         vertex 7.600000e+00 3.349999e+00 3.750000e+01
         vertex 6.731758e+00 7.596053e-02 3.750000e+01
         vertex 8.468240e+00 7.596053e-02 3.750000e+01
      endloop
   endfacet
   facet normal 0.000000e+00 0.000000e+00 1.000000e+00
      outer loop
         vertex 6.171057e+00 5.825000e+00 3.750000e+01
         vertex 6.774999e+00 6.428940e+00 3.750000e+01
         vertex 9.250000e+00 5.315000e+01 3.750000e+01
      endloop
   endfacet
   facet normal 0.000000e+00 0.000000e+00 1.000000e+00
      outer loop
         vertex 9.250000e+00 5.315000e+01 3.750000e+01
         vertex 6.774999e+00 6.428940e+00 3.750000e+01
         vertex 7.600000e+00 6.649999e+00 3.750000e+01
      endloop
   endfacet
   facet normal 0.000000e+00 0.000000e+00 1.000000e+00
      outer loop
         vertex 9.250000e+00 5.315000e+01 3.750000e+01
         vertex 7.600000e+00 6.649999e+00 3.750000e+01
         vertex 8.424999e+00 6.428940e+00 3.750000e+01
      endloop
   endfacet
   facet normal 0.000000e+00 0.000000e+00 1.000000e+00
      outer loop
         vertex 5.950000e+00 4.999999e+00 3.750000e+01
         vertex 2.599999e+00 4.999999e+00 3.750000e+01
         vertex 6.171057e+00 4.175000e+00 3.750000e+01
      endloop
   endfacet
   facet normal 0.000000e+00 0.000000e+00 1.000000e+00
      outer loop
         vertex 6.171057e+00 4.175000e+00 3.750000e+01
         vertex 2.599999e+00 4.999999e+00 3.750000e+01
         vertex 2.901537e+00 3.289899e+00 3.750000e+01
      endloop
   endfacet
   facet normal 0.000000e+00 0.000000e+00 1.000000e+00
      outer loop
         vertex 6.171057e+00 4.175000e+00 3.750000e+01
         vertex 2.901537e+00 3.289899e+00 3.750000e+01
         vertex 3.769778e+00 1.786061e+00 3.750000e+01
      endloop
   endfacet
   facet normal -0.000000e+00 0.000000e+00 1.000000e+00
      outer loop
         vertex 8.399999e+00 6.988564e+01 3.750000e+01
         vertex 8.985640e+00 6.930000e+01 3.750000e+01
         vertex 1.260000e+01 7.150000e+01 3.750000e+01
      endloop
   endfacet
   facet normal 0.000000e+00 0.000000e+00 1.000000e+00
      outer loop
         vertex 1.260000e+01 7.150000e+01 3.750000e+01
         vertex 8.985640e+00 6.930000e+01 3.750000e+01
         vertex 9.199999e+00 6.850000e+01 3.750000e+01
      endloop
   endfacet
   facet normal 0.000000e+00 0.000000e+00 1.000000e+00
      outer loop
         vertex 1.260000e+01 7.150000e+01 3.750000e+01
         vertex 9.199999e+00 6.850000e+01 3.750000e+01
         vertex 8.985640e+00 6.770000e+01 3.750000e+01
      endloop
   endfacet
   facet normal 0.000000e+00 -0.000000e+00 1.000000e+00
      outer loop
         vertex 9.250000e+00 5.485000e+01 3.750000e+01
         vertex 1.260000e+01 7.150000e+01 3.750000e+01
         vertex 9.028941e+00 5.567500e+01 3.750000e+01
      endloop
   endfacet
   facet normal 0.000000e+00 -0.000000e+00 1.000000e+00
      outer loop
         vertex 9.028941e+00 5.567500e+01 3.750000e+01
         vertex 1.260000e+01 7.150000e+01 3.750000e+01
         vertex 8.985640e+00 6.770000e+01 3.750000e+01
      endloop
   endfacet
   facet normal 0.000000e+00 0.000000e+00 1.000000e+00
      outer loop
         vertex 9.028941e+00 5.567500e+01 3.750000e+01
         vertex 8.985640e+00 6.770000e+01 3.750000e+01
         vertex 8.399999e+00 6.711436e+01 3.750000e+01
      endloop
   endfacet
   facet normal 0.000000e+00 -0.000000e+00 1.000000e+00
      outer loop
         vertex 6.171057e+00 5.825000e+00 3.750000e+01
         vertex 9.250000e+00 5.315000e+01 3.750000e+01
         vertex 5.950000e+00 4.999999e+00 3.750000e+01
      endloop
   endfacet
   facet normal 0.000000e+00 0.000000e+00 1.000000e+00
      outer loop
         vertex 5.950000e+00 4.999999e+00 3.750000e+01
         vertex 9.250000e+00 5.315000e+01 3.750000e+01
         vertex 9.028941e+00 5.232500e+01 3.750000e+01
      endloop
   endfacet
   facet normal 0.000000e+00 -0.000000e+00 1.000000e+00
      outer loop
         vertex 5.950000e+00 4.999999e+00 3.750000e+01
         vertex 9.028941e+00 5.232500e+01 3.750000e+01
         vertex 2.599999e+00 4.999999e+00 3.750000e+01
      endloop
   endfacet
   facet normal 0.000000e+00 0.000000e+00 1.000000e+00
      outer loop
         vertex 2.599999e+00 4.999999e+00 3.750000e+01
         vertex 9.028941e+00 5.232500e+01 3.750000e+01
         vertex 8.424999e+00 5.172106e+01 3.750000e+01
      endloop
   endfacet
   facet normal 0.000000e+00 0.000000e+00 1.000000e+00
      outer loop
         vertex 2.599999e+00 4.999999e+00 3.750000e+01
         vertex 8.424999e+00 5.172106e+01 3.750000e+01
         vertex 7.600000e+00 5.150000e+01 3.750000e+01
      endloop
   endfacet
   facet normal 0.000000e+00 0.000000e+00 1.000000e+00
      outer loop
         vertex 7.600000e+00 5.150000e+01 3.750000e+01
         vertex 6.774999e+00 5.172106e+01 3.750000e+01
         vertex 2.599999e+00 4.999999e+00 3.750000e+01
      endloop
   endfacet
   facet normal 0.000000e+00 0.000000e+00 1.000000e+00
      outer loop
         vertex 2.599999e+00 4.999999e+00 3.750000e+01
         vertex 6.774999e+00 5.172106e+01 3.750000e+01
         vertex 6.171057e+00 5.232500e+01 3.750000e+01
      endloop
   endfacet
   facet normal 0.000000e+00 0.000000e+00 1.000000e+00
      outer loop
         vertex 2.599999e+00 4.999999e+00 3.750000e+01
         vertex 6.171057e+00 5.232500e+01 3.750000e+01
         vertex 5.950000e+00 5.315000e+01 3.750000e+01
      endloop
   endfacet
   facet normal 0.000000e+00 0.000000e+00 1.000000e+00
      outer loop
         vertex 5.950000e+00 5.485000e+01 3.750000e+01
         vertex 6.171057e+00 5.567500e+01 3.750000e+01
         vertex 6.214360e+00 6.770000e+01 3.750000e+01
      endloop
   endfacet
   facet normal 0.000000e+00 0.000000e+00 1.000000e+00
      outer loop
         vertex 6.214360e+00 6.770000e+01 3.750000e+01
         vertex 6.171057e+00 5.567500e+01 3.750000e+01
         vertex 6.774999e+00 5.627894e+01 3.750000e+01
      endloop
   endfacet
   facet normal -0.000000e+00 0.000000e+00 1.000000e+00
      outer loop
         vertex 9.250000e+00 5.485000e+01 3.750000e+01
         vertex 9.250000e+00 5.315000e+01 3.750000e+01
         vertex 1.260000e+01 7.150000e+01 3.750000e+01
      endloop
   endfacet
   facet normal 0.000000e+00 0.000000e+00 1.000000e+00
      outer loop
         vertex 1.260000e+01 7.150000e+01 3.750000e+01
         vertex 9.250000e+00 5.315000e+01 3.750000e+01
         vertex 8.424999e+00 6.428940e+00 3.750000e+01
      endloop
   endfacet
   facet normal 0.000000e+00 0.000000e+00 1.000000e+00
      outer loop
         vertex 1.260000e+01 7.150000e+01 3.750000e+01
         vertex 8.424999e+00 6.428940e+00 3.750000e+01
         vertex 1.260000e+01 4.999999e+00 3.750000e+01
      endloop
   endfacet
   facet normal 0.000000e+00 0.000000e+00 1.000000e+00
      outer loop
         vertex 1.260000e+01 4.999999e+00 3.750000e+01
         vertex 8.424999e+00 6.428940e+00 3.750000e+01
         vertex 9.028941e+00 5.825000e+00 3.750000e+01
      endloop
   endfacet
   facet normal 0.000000e+00 0.000000e+00 1.000000e+00
      outer loop
         vertex 1.260000e+01 4.999999e+00 3.750000e+01
         vertex 9.028941e+00 5.825000e+00 3.750000e+01
         vertex 9.250000e+00 4.999999e+00 3.750000e+01
      endloop
   endfacet
   facet normal 0.000000e+00 -0.000000e+00 1.000000e+00
      outer loop
         vertex 5.950000e+00 5.315000e+01 3.750000e+01
         vertex 5.950000e+00 5.485000e+01 3.750000e+01
         vertex 2.599999e+00 4.999999e+00 3.750000e+01
      endloop
   endfacet
   facet normal 0.000000e+00 0.000000e+00 1.000000e+00
      outer loop
         vertex 2.599999e+00 4.999999e+00 3.750000e+01
         vertex 5.950000e+00 5.485000e+01 3.750000e+01
         vertex 6.214360e+00 6.770000e+01 3.750000e+01
      endloop
   endfacet
   facet normal 0.000000e+00 0.000000e+00 1.000000e+00
      outer loop
         vertex 2.599999e+00 4.999999e+00 3.750000e+01
         vertex 6.214360e+00 6.770000e+01 3.750000e+01
         vertex 2.599999e+00 7.150000e+01 3.750000e+01
      endloop
   endfacet
   facet normal 0.000000e+00 0.000000e+00 1.000000e+00
      outer loop
         vertex 2.599999e+00 7.150000e+01 3.750000e+01
         vertex 6.214360e+00 6.770000e+01 3.750000e+01
         vertex 5.999999e+00 6.850000e+01 3.750000e+01
      endloop
   endfacet
   facet normal 0.000000e+00 0.000000e+00 1.000000e+00
      outer loop
         vertex 2.599999e+00 7.150000e+01 3.750000e+01
         vertex 5.999999e+00 6.850000e+01 3.750000e+01
         vertex 6.214360e+00 6.930000e+01 3.750000e+01
      endloop
   endfacet
   facet normal 0.000000e+00 0.000000e+00 1.000000e+00
      outer loop
         vertex 8.424999e+00 5.627894e+01 3.750000e+01
         vertex 8.399999e+00 6.711436e+01 3.750000e+01
         vertex 7.600000e+00 5.650000e+01 3.750000e+01
      endloop
   endfacet
   facet normal 0.000000e+00 0.000000e+00 1.000000e+00
      outer loop
         vertex 7.600000e+00 5.650000e+01 3.750000e+01
         vertex 8.399999e+00 6.711436e+01 3.750000e+01
         vertex 7.600000e+00 6.690000e+01 3.750000e+01
      endloop
   endfacet
   facet normal 0.000000e+00 -0.000000e+00 1.000000e+00
      outer loop
         vertex 7.600000e+00 5.650000e+01 3.750000e+01
         vertex 7.600000e+00 6.690000e+01 3.750000e+01
         vertex 6.774999e+00 5.627894e+01 3.750000e+01
      endloop
   endfacet
   facet normal 0.000000e+00 0.000000e+00 1.000000e+00
      outer loop
         vertex 6.774999e+00 5.627894e+01 3.750000e+01
         vertex 7.600000e+00 6.690000e+01 3.750000e+01
         vertex 6.800000e+00 6.711436e+01 3.750000e+01
      endloop
   endfacet
   facet normal 0.000000e+00 -0.000000e+00 1.000000e+00
      outer loop
         vertex 6.774999e+00 5.627894e+01 3.750000e+01
         vertex 6.800000e+00 6.711436e+01 3.750000e+01
         vertex 6.214360e+00 6.770000e+01 3.750000e+01
      endloop
   endfacet
   facet normal -0.000000e+00 0.000000e+00 -1.000000e+00
      outer loop
         vertex 3.904482e+00 5.553073e+01 3.500000e+01
         vertex 3.599999e+00 5.400000e+01 3.500000e+01
         vertex 2.599999e+00 7.150000e+01 3.500000e+01
      endloop
   endfacet
   facet normal 0.000000e+00 0.000000e+00 -1.000000e+00
      outer loop
         vertex 6.800000e+00 6.988564e+01 3.500000e+01
         vertex 2.599999e+00 7.150000e+01 3.500000e+01
         vertex 7.600000e+00 7.010000e+01 3.500000e+01
      endloop
   endfacet
   facet normal 0.000000e+00 0.000000e+00 -1.000000e+00
      outer loop
         vertex 7.600000e+00 7.010000e+01 3.500000e+01
         vertex 2.599999e+00 7.150000e+01 3.500000e+01
         vertex 1.260000e+01 7.150000e+01 3.500000e+01
      endloop
   endfacet
   facet normal 0.000000e+00 0.000000e+00 -1.000000e+00
      outer loop
         vertex 7.600000e+00 7.010000e+01 3.500000e+01
         vertex 1.260000e+01 7.150000e+01 3.500000e+01
         vertex 8.399999e+00 6.988564e+01 3.500000e+01
      endloop
   endfacet
   facet normal 0.000000e+00 0.000000e+00 -1.000000e+00
      outer loop
         vertex 1.129552e+01 5.553073e+01 3.500000e+01
         vertex 6.800000e+00 6.711436e+01 3.500000e+01
         vertex 7.600000e+00 6.690000e+01 3.500000e+01
      endloop
   endfacet
   facet normal -0.000000e+00 -0.000000e+00 -1.000000e+00
      outer loop
         vertex 6.800000e+00 6.711436e+01 3.500000e+01
         vertex 1.129552e+01 5.553073e+01 3.500000e+01
         vertex 6.214360e+00 6.770000e+01 3.500000e+01
      endloop
   endfacet
   facet normal 0.000000e+00 0.000000e+00 -1.000000e+00
      outer loop
         vertex 6.214360e+00 6.770000e+01 3.500000e+01
         vertex 1.129552e+01 5.553073e+01 3.500000e+01
         vertex 1.042843e+01 5.682843e+01 3.500000e+01
      endloop
   endfacet
   facet normal 0.000000e+00 0.000000e+00 -1.000000e+00
      outer loop
         vertex 6.214360e+00 6.770000e+01 3.500000e+01
         vertex 1.042843e+01 5.682843e+01 3.500000e+01
         vertex 9.130733e+00 5.769552e+01 3.500000e+01
      endloop
   endfacet
   facet normal -0.000000e+00 0.000000e+00 -1.000000e+00
      outer loop
         vertex 6.800000e+00 6.988564e+01 3.500000e+01
         vertex 6.214360e+00 6.930000e+01 3.500000e+01
         vertex 2.599999e+00 7.150000e+01 3.500000e+01
      endloop
   endfacet
   facet normal 0.000000e+00 0.000000e+00 -1.000000e+00
      outer loop
         vertex 2.599999e+00 7.150000e+01 3.500000e+01
         vertex 6.214360e+00 6.930000e+01 3.500000e+01
         vertex 5.999999e+00 6.850000e+01 3.500000e+01
      endloop
   endfacet
   facet normal 0.000000e+00 0.000000e+00 -1.000000e+00
      outer loop
         vertex 2.599999e+00 7.150000e+01 3.500000e+01
         vertex 5.999999e+00 6.850000e+01 3.500000e+01
         vertex 6.214360e+00 6.770000e+01 3.500000e+01
      endloop
   endfacet
   facet normal 0.000000e+00 0.000000e+00 -1.000000e+00
      outer loop
         vertex 9.130733e+00 5.769552e+01 3.500000e+01
         vertex 7.600000e+00 5.800000e+01 3.500000e+01
         vertex 6.214360e+00 6.770000e+01 3.500000e+01
      endloop
   endfacet
   facet normal 0.000000e+00 -0.000000e+00 -1.000000e+00
      outer loop
         vertex 6.214360e+00 6.770000e+01 3.500000e+01
         vertex 7.600000e+00 5.800000e+01 3.500000e+01
         vertex 6.069265e+00 5.769552e+01 3.500000e+01
      endloop
   endfacet
   facet normal -0.000000e+00 0.000000e+00 -1.000000e+00
      outer loop
         vertex 6.214360e+00 6.770000e+01 3.500000e+01
         vertex 6.069265e+00 5.769552e+01 3.500000e+01
         vertex 2.599999e+00 7.150000e+01 3.500000e+01
      endloop
   endfacet
   facet normal 0.000000e+00 0.000000e+00 -1.000000e+00
      outer loop
         vertex 2.599999e+00 7.150000e+01 3.500000e+01
         vertex 6.069265e+00 5.769552e+01 3.500000e+01
         vertex 4.771573e+00 5.682843e+01 3.500000e+01
      endloop
   endfacet
   facet normal 0.000000e+00 0.000000e+00 -1.000000e+00
      outer loop
         vertex 2.599999e+00 7.150000e+01 3.500000e+01
         vertex 4.771573e+00 5.682843e+01 3.500000e+01
         vertex 3.904482e+00 5.553073e+01 3.500000e+01
      endloop
   endfacet
   facet normal 0.000000e+00 0.000000e+00 -1.000000e+00
      outer loop
         vertex 7.600000e+00 9.999983e-01 3.500000e+01
         vertex 9.130733e+00 1.304481e+00 3.500000e+01
         vertex 1.010000e+01 6.698724e-01 3.500000e+01
      endloop
   endfacet
   facet normal 0.000000e+00 0.000000e+00 -1.000000e+00
      outer loop
         vertex 1.010000e+01 6.698724e-01 3.500000e+01
         vertex 9.130733e+00 1.304481e+00 3.500000e+01
         vertex 1.143022e+01 1.786061e+00 3.500000e+01
      endloop
   endfacet
   facet normal -0.000000e+00 0.000000e+00 -1.000000e+00
      outer loop
         vertex 1.143022e+01 1.786061e+00 3.500000e+01
         vertex 9.130733e+00 1.304481e+00 3.500000e+01
         vertex 1.042843e+01 2.171572e+00 3.500000e+01
      endloop
   endfacet
   facet normal 0.000000e+00 0.000000e+00 -1.000000e+00
      outer loop
         vertex 1.143022e+01 1.786061e+00 3.500000e+01
         vertex 1.042843e+01 2.171572e+00 3.500000e+01
         vertex 1.229846e+01 3.289899e+00 3.500000e+01
      endloop
   endfacet
   facet normal -0.000000e+00 0.000000e+00 -1.000000e+00
      outer loop
         vertex 1.229846e+01 3.289899e+00 3.500000e+01
         vertex 1.042843e+01 2.171572e+00 3.500000e+01
         vertex 1.129552e+01 3.469266e+00 3.500000e+01
      endloop
   endfacet
   facet normal 0.000000e+00 0.000000e+00 -1.000000e+00
      outer loop
         vertex 1.229846e+01 3.289899e+00 3.500000e+01
         vertex 1.129552e+01 3.469266e+00 3.500000e+01
         vertex 1.260000e+01 4.999999e+00 3.500000e+01
      endloop
   endfacet
   facet normal 0.000000e+00 0.000000e+00 -1.000000e+00
      outer loop
         vertex 3.904482e+00 5.246926e+01 3.500000e+01
         vertex 4.771573e+00 5.117157e+01 3.500000e+01
         vertex 4.771573e+00 7.828426e+00 3.500000e+01
      endloop
   endfacet
   facet normal 0.000000e+00 0.000000e+00 -1.000000e+00
      outer loop
         vertex 4.771573e+00 7.828426e+00 3.500000e+01
         vertex 4.771573e+00 5.117157e+01 3.500000e+01
         vertex 6.069265e+00 5.030448e+01 3.500000e+01
      endloop
   endfacet
   facet normal 0.000000e+00 0.000000e+00 -1.000000e+00
      outer loop
         vertex 4.771573e+00 7.828426e+00 3.500000e+01
         vertex 6.069265e+00 5.030448e+01 3.500000e+01
         vertex 6.069265e+00 8.695517e+00 3.500000e+01
      endloop
   endfacet
   facet normal 0.000000e+00 0.000000e+00 -1.000000e+00
      outer loop
         vertex 1.129552e+01 5.246926e+01 3.500000e+01
         vertex 1.042843e+01 7.828426e+00 3.500000e+01
         vertex 1.042843e+01 5.117157e+01 3.500000e+01
      endloop
   endfacet
   facet normal 0.000000e+00 -0.000000e+00 -1.000000e+00
      outer loop
         vertex 1.042843e+01 5.117157e+01 3.500000e+01
         vertex 1.042843e+01 7.828426e+00 3.500000e+01
         vertex 9.130733e+00 8.695517e+00 3.500000e+01
      endloop
   endfacet
   facet normal 0.000000e+00 0.000000e+00 -1.000000e+00
      outer loop
         vertex 1.129552e+01 3.469266e+00 3.500000e+01
         vertex 1.160000e+01 4.999999e+00 3.500000e+01
         vertex 1.260000e+01 4.999999e+00 3.500000e+01
      endloop
   endfacet
   facet normal 0.000000e+00 0.000000e+00 -1.000000e+00
      outer loop
         vertex 1.260000e+01 4.999999e+00 3.500000e+01
         vertex 1.160000e+01 4.999999e+00 3.500000e+01
         vertex 1.129552e+01 6.530734e+00 3.500000e+01
      endloop
   endfacet
   facet normal 0.000000e+00 0.000000e+00 -1.000000e+00
      outer loop
         vertex 1.260000e+01 4.999999e+00 3.500000e+01
         vertex 1.129552e+01 6.530734e+00 3.500000e+01
         vertex 1.260000e+01 7.150000e+01 3.500000e+01
      endloop
   endfacet
   facet normal 0.000000e+00 0.000000e+00 -1.000000e+00
      outer loop
         vertex 1.260000e+01 7.150000e+01 3.500000e+01
         vertex 1.129552e+01 6.530734e+00 3.500000e+01
         vertex 1.042843e+01 7.828426e+00 3.500000e+01
      endloop
   endfacet
   facet normal 0.000000e+00 0.000000e+00 -1.000000e+00
      outer loop
         vertex 1.260000e+01 7.150000e+01 3.500000e+01
         vertex 1.042843e+01 7.828426e+00 3.500000e+01
         vertex 1.160000e+01 5.400000e+01 3.500000e+01
      endloop
   endfacet
   facet normal 0.000000e+00 0.000000e+00 -1.000000e+00
      outer loop
         vertex 1.160000e+01 5.400000e+01 3.500000e+01
         vertex 1.042843e+01 7.828426e+00 3.500000e+01
         vertex 1.129552e+01 5.246926e+01 3.500000e+01
      endloop
   endfacet
   facet normal 0.000000e+00 0.000000e+00 -1.000000e+00
      outer loop
         vertex 7.600000e+00 6.690000e+01 3.500000e+01
         vertex 8.399999e+00 6.711436e+01 3.500000e+01
         vertex 1.129552e+01 5.553073e+01 3.500000e+01
      endloop
   endfacet
   facet normal 0.000000e+00 0.000000e+00 -1.000000e+00
      outer loop
         vertex 1.129552e+01 5.553073e+01 3.500000e+01
         vertex 8.399999e+00 6.711436e+01 3.500000e+01
         vertex 8.985640e+00 6.770000e+01 3.500000e+01
      endloop
   endfacet
   facet normal 0.000000e+00 0.000000e+00 -1.000000e+00
      outer loop
         vertex 1.129552e+01 5.553073e+01 3.500000e+01
         vertex 8.985640e+00 6.770000e+01 3.500000e+01
         vertex 1.160000e+01 5.400000e+01 3.500000e+01
      endloop
   endfacet
   facet normal 0.000000e+00 0.000000e+00 -1.000000e+00
      outer loop
         vertex 1.160000e+01 5.400000e+01 3.500000e+01
         vertex 8.985640e+00 6.770000e+01 3.500000e+01
         vertex 9.199999e+00 6.850000e+01 3.500000e+01
      endloop
   endfacet
   facet normal 0.000000e+00 0.000000e+00 -1.000000e+00
      outer loop
         vertex 1.160000e+01 5.400000e+01 3.500000e+01
         vertex 9.199999e+00 6.850000e+01 3.500000e+01
         vertex 1.260000e+01 7.150000e+01 3.500000e+01
      endloop
   endfacet
   facet normal 0.000000e+00 0.000000e+00 -1.000000e+00
      outer loop
         vertex 1.260000e+01 7.150000e+01 3.500000e+01
         vertex 9.199999e+00 6.850000e+01 3.500000e+01
         vertex 8.985640e+00 6.930000e+01 3.500000e+01
      endloop
   endfacet
   facet normal 0.000000e+00 0.000000e+00 -1.000000e+00
      outer loop
         vertex 1.260000e+01 7.150000e+01 3.500000e+01
         vertex 8.985640e+00 6.930000e+01 3.500000e+01
         vertex 8.399999e+00 6.988564e+01 3.500000e+01
      endloop
   endfacet
   facet normal -0.000000e+00 0.000000e+00 -1.000000e+00
      outer loop
         vertex 1.010000e+01 6.698724e-01 3.500000e+01
         vertex 8.468240e+00 7.596053e-02 3.500000e+01
         vertex 7.600000e+00 9.999983e-01 3.500000e+01
      endloop
   endfacet
   facet normal 0.000000e+00 -0.000000e+00 -1.000000e+00
      outer loop
         vertex 7.600000e+00 9.999983e-01 3.500000e+01
         vertex 8.468240e+00 7.596053e-02 3.500000e+01
         vertex 6.731758e+00 7.596053e-02 3.500000e+01
      endloop
   endfacet
   facet normal -0.000000e+00 0.000000e+00 -1.000000e+00
      outer loop
         vertex 7.600000e+00 9.999983e-01 3.500000e+01
         vertex 6.731758e+00 7.596053e-02 3.500000e+01
         vertex 6.069265e+00 1.304481e+00 3.500000e+01
      endloop
   endfacet
   facet normal 0.000000e+00 -0.000000e+00 -1.000000e+00
      outer loop
         vertex 6.069265e+00 1.304481e+00 3.500000e+01
         vertex 6.731758e+00 7.596053e-02 3.500000e+01
         vertex 5.099999e+00 6.698724e-01 3.500000e+01
      endloop
   endfacet
   facet normal -0.000000e+00 0.000000e+00 -1.000000e+00
      outer loop
         vertex 6.069265e+00 1.304481e+00 3.500000e+01
         vertex 5.099999e+00 6.698724e-01 3.500000e+01
         vertex 4.771573e+00 2.171572e+00 3.500000e+01
      endloop
   endfacet
   facet normal 0.000000e+00 -0.000000e+00 -1.000000e+00
      outer loop
         vertex 4.771573e+00 2.171572e+00 3.500000e+01
         vertex 5.099999e+00 6.698724e-01 3.500000e+01
         vertex 3.769778e+00 1.786061e+00 3.500000e+01
      endloop
   endfacet
   facet normal -0.000000e+00 0.000000e+00 -1.000000e+00
      outer loop
         vertex 4.771573e+00 2.171572e+00 3.500000e+01
         vertex 3.769778e+00 1.786061e+00 3.500000e+01
         vertex 3.904482e+00 3.469266e+00 3.500000e+01
      endloop
   endfacet
   facet normal 0.000000e+00 0.000000e+00 -1.000000e+00
      outer loop
         vertex 3.904482e+00 3.469266e+00 3.500000e+01
         vertex 3.769778e+00 1.786061e+00 3.500000e+01
         vertex 2.901537e+00 3.289899e+00 3.500000e+01
      endloop
   endfacet
   facet normal -0.000000e+00 0.000000e+00 -1.000000e+00
      outer loop
         vertex 3.904482e+00 3.469266e+00 3.500000e+01
         vertex 2.901537e+00 3.289899e+00 3.500000e+01
         vertex 3.599999e+00 4.999999e+00 3.500000e+01
      endloop
   endfacet
   facet normal -0.000000e+00 0.000000e+00 -1.000000e+00
      outer loop
         vertex 3.599999e+00 4.999999e+00 3.500000e+01
         vertex 2.901537e+00 3.289899e+00 3.500000e+01
         vertex 2.599999e+00 4.999999e+00 3.500000e+01
      endloop
   endfacet
   facet normal 0.000000e+00 0.000000e+00 -1.000000e+00
      outer loop
         vertex 3.599999e+00 4.999999e+00 3.500000e+01
         vertex 2.599999e+00 4.999999e+00 3.500000e+01
         vertex 3.904482e+00 6.530734e+00 3.500000e+01
      endloop
   endfacet
   facet normal -0.000000e+00 0.000000e+00 -1.000000e+00
      outer loop
         vertex 3.904482e+00 6.530734e+00 3.500000e+01
         vertex 2.599999e+00 4.999999e+00 3.500000e+01
         vertex 2.599999e+00 7.150000e+01 3.500000e+01
      endloop
   endfacet
   facet normal 0.000000e+00 0.000000e+00 -1.000000e+00
      outer loop
         vertex 3.904482e+00 6.530734e+00 3.500000e+01
         vertex 2.599999e+00 7.150000e+01 3.500000e+01
         vertex 4.771573e+00 7.828426e+00 3.500000e+01
      endloop
   endfacet
   facet normal 0.000000e+00 0.000000e+00 -1.000000e+00
      outer loop
         vertex 4.771573e+00 7.828426e+00 3.500000e+01
         vertex 2.599999e+00 7.150000e+01 3.500000e+01
         vertex 3.599999e+00 5.400000e+01 3.500000e+01
      endloop
   endfacet
   facet normal 0.000000e+00 0.000000e+00 -1.000000e+00
      outer loop
         vertex 4.771573e+00 7.828426e+00 3.500000e+01
         vertex 3.599999e+00 5.400000e+01 3.500000e+01
         vertex 3.904482e+00 5.246926e+01 3.500000e+01
      endloop
   endfacet
   facet normal 0.000000e+00 0.000000e+00 -1.000000e+00
      outer loop
         vertex 6.069265e+00 8.695517e+00 3.500000e+01
         vertex 6.069265e+00 5.030448e+01 3.500000e+01
         vertex 7.600000e+00 9.000000e+00 3.500000e+01
      endloop
   endfacet
   facet normal 0.000000e+00 0.000000e+00 -1.000000e+00
      outer loop
         vertex 7.600000e+00 9.000000e+00 3.500000e+01
         vertex 6.069265e+00 5.030448e+01 3.500000e+01
         vertex 7.600000e+00 5.000000e+01 3.500000e+01
      endloop
   endfacet
   facet normal 0.000000e+00 0.000000e+00 -1.000000e+00
      outer loop
         vertex 7.600000e+00 9.000000e+00 3.500000e+01
         vertex 7.600000e+00 5.000000e+01 3.500000e+01
         vertex 9.130733e+00 8.695517e+00 3.500000e+01
      endloop
   endfacet
   facet normal 0.000000e+00 0.000000e+00 -1.000000e+00
      outer loop
         vertex 9.130733e+00 8.695517e+00 3.500000e+01
         vertex 7.600000e+00 5.000000e+01 3.500000e+01
         vertex 9.130733e+00 5.030448e+01 3.500000e+01
      endloop
   endfacet
   facet normal 0.000000e+00 0.000000e+00 -1.000000e+00
      outer loop
         vertex 9.130733e+00 8.695517e+00 3.500000e+01
         vertex 9.130733e+00 5.030448e+01 3.500000e+01
         vertex 1.042843e+01 5.117157e+01 3.500000e+01
      endloop
   endfacet
   facet normal 1.000000e+00 0.000000e+00 0.000000e+00
      outer loop
         vertex 1.260000e+01 4.999999e+00 3.500000e+01
         vertex 1.260000e+01 7.150000e+01 3.500000e+01
         vertex 1.260000e+01 4.999999e+00 3.750000e+01
      endloop
   endfacet
   facet normal 1.000000e+00 -0.000000e+00 0.000000e+00
      outer loop
         vertex 1.260000e+01 4.999999e+00 3.750000e+01
         vertex 1.260000e+01 7.150000e+01 3.500000e+01
         vertex 1.260000e+01 7.150000e+01 3.750000e+01
      endloop
   endfacet
   facet normal -1.000000e+00 0.000000e+00 0.000000e+00
      outer loop
         vertex 2.599999e+00 7.150000e+01 3.500000e+01
         vertex 2.599999e+00 4.999999e+00 3.500000e+01
         vertex 2.599999e+00 7.150000e+01 3.750000e+01
      endloop
   endfacet
   facet normal -1.000000e+00 -0.000000e+00 0.000000e+00
      outer loop
         vertex 2.599999e+00 7.150000e+01 3.750000e+01
         vertex 2.599999e+00 4.999999e+00 3.500000e+01
         vertex 2.599999e+00 4.999999e+00 3.750000e+01
      endloop
   endfacet
   facet normal -9.848076e-01 -1.736489e-01 -0.000000e+00
      outer loop
         vertex 2.599999e+00 4.999999e+00 3.750000e+01
         vertex 2.599999e+00 4.999999e+00 3.500000e+01
         vertex 2.901537e+00 3.289899e+00 3.500000e+01
      endloop
   endfacet
   facet normal -9.848076e-01 -1.736489e-01 0.000000e+00
      outer loop
         vertex 2.599999e+00 4.999999e+00 3.750000e+01
         vertex 2.901537e+00 3.289899e+00 3.500000e+01
         vertex 2.901537e+00 3.289899e+00 3.750000e+01
      endloop
   endfacet
   facet normal -8.660257e-01 -4.999996e-01 -0.000000e+00
      outer loop
         vertex 2.901537e+00 3.289899e+00 3.750000e+01
         vertex 2.901537e+00 3.289899e+00 3.500000e+01
         vertex 3.769778e+00 1.786061e+00 3.500000e+01
      endloop
   endfacet
   facet normal -8.660257e-01 -4.999996e-01 0.000000e+00
      outer loop
         vertex 2.901537e+00 3.289899e+00 3.750000e+01
         vertex 3.769778e+00 1.786061e+00 3.500000e+01
         vertex 3.769778e+00 1.786061e+00 3.750000e+01
      endloop
   endfacet
   facet normal -6.427877e-01 -7.660444e-01 -0.000000e+00
      outer loop
         vertex 3.769778e+00 1.786061e+00 3.750000e+01
         vertex 3.769778e+00 1.786061e+00 3.500000e+01
         vertex 5.099999e+00 6.698724e-01 3.500000e+01
      endloop
   endfacet
   facet normal -6.427877e-01 -7.660444e-01 0.000000e+00
      outer loop
         vertex 3.769778e+00 1.786061e+00 3.750000e+01
         vertex 5.099999e+00 6.698724e-01 3.500000e+01
         vertex 5.099999e+00 6.698724e-01 3.750000e+01
      endloop
   endfacet
   facet normal -3.420202e-01 -9.396926e-01 -0.000000e+00
      outer loop
         vertex 5.099999e+00 6.698724e-01 3.750000e+01
         vertex 5.099999e+00 6.698724e-01 3.500000e+01
         vertex 6.731758e+00 7.596053e-02 3.500000e+01
      endloop
   endfacet
   facet normal -3.420202e-01 -9.396926e-01 0.000000e+00
      outer loop
         vertex 5.099999e+00 6.698724e-01 3.750000e+01
         vertex 6.731758e+00 7.596053e-02 3.500000e+01
         vertex 6.731758e+00 7.596053e-02 3.750000e+01
      endloop
   endfacet
   facet normal 0.000000e+00 -1.000000e+00 0.000000e+00
      outer loop
         vertex 6.731758e+00 7.596053e-02 3.750000e+01
         vertex 6.731758e+00 7.596053e-02 3.500000e+01
         vertex 8.468240e+00 7.596053e-02 3.500000e+01
      endloop
   endfacet
   facet normal 0.000000e+00 -1.000000e+00 0.000000e+00
      outer loop
         vertex 6.731758e+00 7.596053e-02 3.750000e+01
         vertex 8.468240e+00 7.596053e-02 3.500000e+01
         vertex 8.468240e+00 7.596053e-02 3.750000e+01
      endloop
   endfacet
   facet normal 3.420202e-01 -9.396926e-01 0.000000e+00
      outer loop
         vertex 8.468240e+00 7.596053e-02 3.750000e+01
         vertex 8.468240e+00 7.596053e-02 3.500000e+01
         vertex 1.010000e+01 6.698724e-01 3.500000e+01
      endloop
   endfacet
   facet normal 3.420202e-01 -9.396926e-01 0.000000e+00
      outer loop
         vertex 8.468240e+00 7.596053e-02 3.750000e+01
         vertex 1.010000e+01 6.698724e-01 3.500000e+01
         vertex 1.010000e+01 6.698724e-01 3.750000e+01
      endloop
   endfacet
   facet normal 6.427872e-01 -7.660448e-01 0.000000e+00
      outer loop
         vertex 1.010000e+01 6.698724e-01 3.750000e+01
         vertex 1.010000e+01 6.698724e-01 3.500000e+01
         vertex 1.143022e+01 1.786061e+00 3.500000e+01
      endloop
   endfacet
   facet normal 6.427872e-01 -7.660448e-01 0.000000e+00
      outer loop
         vertex 1.010000e+01 6.698724e-01 3.750000e+01
         vertex 1.143022e+01 1.786061e+00 3.500000e+01
         vertex 1.143022e+01 1.786061e+00 3.750000e+01
      endloop
   endfacet
   facet normal 8.660257e-01 -4.999996e-01 0.000000e+00
      outer loop
         vertex 1.143022e+01 1.786061e+00 3.750000e+01
         vertex 1.143022e+01 1.786061e+00 3.500000e+01
         vertex 1.229846e+01 3.289899e+00 3.500000e+01
      endloop
   endfacet
   facet normal 8.660257e-01 -4.999996e-01 0.000000e+00
      outer loop
         vertex 1.143022e+01 1.786061e+00 3.750000e+01
         vertex 1.229846e+01 3.289899e+00 3.500000e+01
         vertex 1.229846e+01 3.289899e+00 3.750000e+01
      endloop
   endfacet
   facet normal 9.848077e-01 -1.736484e-01 0.000000e+00
      outer loop
         vertex 1.229846e+01 3.289899e+00 3.750000e+01
         vertex 1.229846e+01 3.289899e+00 3.500000e+01
         vertex 1.260000e+01 4.999999e+00 3.500000e+01
      endloop
   endfacet
   facet normal 9.848077e-01 -1.736484e-01 0.000000e+00
      outer loop
         vertex 1.229846e+01 3.289899e+00 3.750000e+01
         vertex 1.260000e+01 4.999999e+00 3.500000e+01
         vertex 1.260000e+01 4.999999e+00 3.750000e+01
      endloop
   endfacet
   facet normal -0.000000e+00 0.000000e+00 -1.000000e+00
      outer loop
         vertex 6.774999e+00 3.571058e+00 3.390000e+01
         vertex 4.771573e+00 2.171572e+00 3.390000e+01
         vertex 6.171057e+00 4.175000e+00 3.390000e+01
      endloop
   endfacet
   facet normal 0.000000e+00 0.000000e+00 -1.000000e+00
      outer loop
         vertex 6.171057e+00 4.175000e+00 3.390000e+01
         vertex 4.771573e+00 2.171572e+00 3.390000e+01
         vertex 3.904482e+00 3.469266e+00 3.390000e+01
      endloop
   endfacet
   facet normal -0.000000e+00 0.000000e+00 -1.000000e+00
      outer loop
         vertex 6.171057e+00 4.175000e+00 3.390000e+01
         vertex 3.904482e+00 3.469266e+00 3.390000e+01
         vertex 5.950000e+00 4.999999e+00 3.390000e+01
      endloop
   endfacet
   facet normal -0.000000e+00 0.000000e+00 -1.000000e+00
      outer loop
         vertex 5.950000e+00 4.999999e+00 3.390000e+01
         vertex 3.904482e+00 3.469266e+00 3.390000e+01
         vertex 3.599999e+00 4.999999e+00 3.390000e+01
      endloop
   endfacet
   facet normal 0.000000e+00 0.000000e+00 -1.000000e+00
      outer loop
         vertex 5.950000e+00 4.999999e+00 3.390000e+01
         vertex 3.599999e+00 4.999999e+00 3.390000e+01
         vertex 6.171057e+00 5.825000e+00 3.390000e+01
      endloop
   endfacet
   facet normal 0.000000e+00 -0.000000e+00 -1.000000e+00
      outer loop
         vertex 9.028941e+00 4.175000e+00 3.390000e+01
         vertex 1.042843e+01 2.171572e+00 3.390000e+01
         vertex 8.424999e+00 3.571058e+00 3.390000e+01
      endloop
   endfacet
   facet normal 0.000000e+00 0.000000e+00 -1.000000e+00
      outer loop
         vertex 8.424999e+00 3.571058e+00 3.390000e+01
         vertex 1.042843e+01 2.171572e+00 3.390000e+01
         vertex 9.130733e+00 1.304481e+00 3.390000e+01
      endloop
   endfacet
   facet normal 0.000000e+00 -0.000000e+00 -1.000000e+00
      outer loop
         vertex 8.424999e+00 3.571058e+00 3.390000e+01
         vertex 9.130733e+00 1.304481e+00 3.390000e+01
         vertex 7.600000e+00 3.349999e+00 3.390000e+01
      endloop
   endfacet
   facet normal 0.000000e+00 0.000000e+00 -1.000000e+00
      outer loop
         vertex 7.600000e+00 3.349999e+00 3.390000e+01
         vertex 9.130733e+00 1.304481e+00 3.390000e+01
         vertex 7.600000e+00 9.999983e-01 3.390000e+01
      endloop
   endfacet
   facet normal -0.000000e+00 -0.000000e+00 -1.000000e+00
      outer loop
         vertex 7.600000e+00 3.349999e+00 3.390000e+01
         vertex 7.600000e+00 9.999983e-01 3.390000e+01
         vertex 6.774999e+00 3.571058e+00 3.390000e+01
      endloop
   endfacet
   facet normal 0.000000e+00 -0.000000e+00 -1.000000e+00
      outer loop
         vertex 6.774999e+00 3.571058e+00 3.390000e+01
         vertex 7.600000e+00 9.999983e-01 3.390000e+01
         vertex 6.069265e+00 1.304481e+00 3.390000e+01
      endloop
   endfacet
   facet normal 0.000000e+00 0.000000e+00 -1.000000e+00
      outer loop
         vertex 6.774999e+00 3.571058e+00 3.390000e+01
         vertex 6.069265e+00 1.304481e+00 3.390000e+01
         vertex 4.771573e+00 2.171572e+00 3.390000e+01
      endloop
   endfacet
   facet normal 0.000000e+00 0.000000e+00 -1.000000e+00
      outer loop
         vertex 3.599999e+00 4.999999e+00 3.390000e+01
         vertex 3.904482e+00 6.530734e+00 3.390000e+01
         vertex 6.171057e+00 5.825000e+00 3.390000e+01
      endloop
   endfacet
   facet normal 0.000000e+00 0.000000e+00 -1.000000e+00
      outer loop
         vertex 6.171057e+00 5.825000e+00 3.390000e+01
         vertex 3.904482e+00 6.530734e+00 3.390000e+01
         vertex 4.771573e+00 7.828426e+00 3.390000e+01
      endloop
   endfacet
   facet normal 0.000000e+00 0.000000e+00 -1.000000e+00
      outer loop
         vertex 6.171057e+00 5.825000e+00 3.390000e+01
         vertex 4.771573e+00 7.828426e+00 3.390000e+01
         vertex 6.774999e+00 6.428940e+00 3.390000e+01
      endloop
   endfacet
   facet normal 0.000000e+00 0.000000e+00 -1.000000e+00
      outer loop
         vertex 6.774999e+00 6.428940e+00 3.390000e+01
         vertex 4.771573e+00 7.828426e+00 3.390000e+01
         vertex 6.069265e+00 8.695517e+00 3.390000e+01
      endloop
   endfacet
   facet normal 0.000000e+00 0.000000e+00 -1.000000e+00
      outer loop
         vertex 6.774999e+00 6.428940e+00 3.390000e+01
         vertex 6.069265e+00 8.695517e+00 3.390000e+01
         vertex 7.600000e+00 6.649999e+00 3.390000e+01
      endloop
   endfacet
   facet normal 0.000000e+00 0.000000e+00 -1.000000e+00
      outer loop
         vertex 7.600000e+00 6.649999e+00 3.390000e+01
         vertex 6.069265e+00 8.695517e+00 3.390000e+01
         vertex 7.600000e+00 9.000000e+00 3.390000e+01
      endloop
   endfacet
   facet normal 0.000000e+00 0.000000e+00 -1.000000e+00
      outer loop
         vertex 7.600000e+00 6.649999e+00 3.390000e+01
         vertex 7.600000e+00 9.000000e+00 3.390000e+01
         vertex 8.424999e+00 6.428940e+00 3.390000e+01
      endloop
   endfacet
   facet normal 0.000000e+00 0.000000e+00 -1.000000e+00
      outer loop
         vertex 7.600000e+00 9.000000e+00 3.390000e+01
         vertex 9.130733e+00 8.695517e+00 3.390000e+01
         vertex 8.424999e+00 6.428940e+00 3.390000e+01
      endloop
   endfacet
   facet normal 0.000000e+00 0.000000e+00 -1.000000e+00
      outer loop
         vertex 8.424999e+00 6.428940e+00 3.390000e+01
         vertex 9.130733e+00 8.695517e+00 3.390000e+01
         vertex 1.042843e+01 7.828426e+00 3.390000e+01
      endloop
   endfacet
   facet normal 0.000000e+00 0.000000e+00 -1.000000e+00
      outer loop
         vertex 8.424999e+00 6.428940e+00 3.390000e+01
         vertex 1.042843e+01 7.828426e+00 3.390000e+01
         vertex 9.028941e+00 5.825000e+00 3.390000e+01
      endloop
   endfacet
   facet normal 0.000000e+00 0.000000e+00 -1.000000e+00
      outer loop
         vertex 9.028941e+00 5.825000e+00 3.390000e+01
         vertex 1.042843e+01 7.828426e+00 3.390000e+01
         vertex 1.129552e+01 6.530734e+00 3.390000e+01
      endloop
   endfacet
   facet normal 0.000000e+00 0.000000e+00 -1.000000e+00
      outer loop
         vertex 9.028941e+00 5.825000e+00 3.390000e+01
         vertex 1.129552e+01 6.530734e+00 3.390000e+01
         vertex 9.250000e+00 4.999999e+00 3.390000e+01
      endloop
   endfacet
   facet normal 0.000000e+00 0.000000e+00 -1.000000e+00
      outer loop
         vertex 9.250000e+00 4.999999e+00 3.390000e+01
         vertex 1.129552e+01 6.530734e+00 3.390000e+01
         vertex 1.160000e+01 4.999999e+00 3.390000e+01
      endloop
   endfacet
   facet normal 0.000000e+00 -0.000000e+00 -1.000000e+00
      outer loop
         vertex 9.250000e+00 4.999999e+00 3.390000e+01
         vertex 1.160000e+01 4.999999e+00 3.390000e+01
         vertex 9.028941e+00 4.175000e+00 3.390000e+01
      endloop
   endfacet
   facet normal 0.000000e+00 0.000000e+00 -1.000000e+00
      outer loop
         vertex 9.028941e+00 4.175000e+00 3.390000e+01
         vertex 1.160000e+01 4.999999e+00 3.390000e+01
         vertex 1.129552e+01 3.469266e+00 3.390000e+01
      endloop
   endfacet
   facet normal 0.000000e+00 0.000000e+00 -1.000000e+00
      outer loop
         vertex 9.028941e+00 4.175000e+00 3.390000e+01
         vertex 1.129552e+01 3.469266e+00 3.390000e+01
         vertex 1.042843e+01 2.171572e+00 3.390000e+01
      endloop
   endfacet
   facet normal -9.807852e-01 1.950908e-01 0.000000e+00
      outer loop
         vertex 3.599999e+00 4.999999e+00 3.390000e+01
         vertex 3.904482e+00 6.530734e+00 3.500000e+01
         vertex 3.904482e+00 6.530734e+00 3.390000e+01
      endloop
   endfacet
   facet normal -8.314693e-01 5.555707e-01 0.000000e+00
      outer loop
         vertex 3.904482e+00 6.530734e+00 3.390000e+01
         vertex 3.904482e+00 6.530734e+00 3.500000e+01
         vertex 4.771573e+00 7.828426e+00 3.500000e+01
      endloop
   endfacet
   facet normal -8.314693e-01 5.555707e-01 0.000000e+00
      outer loop
         vertex 3.904482e+00 6.530734e+00 3.390000e+01
         vertex 4.771573e+00 7.828426e+00 3.500000e+01
         vertex 4.771573e+00 7.828426e+00 3.390000e+01
      endloop
   endfacet
   facet normal -5.555707e-01 8.314693e-01 0.000000e+00
      outer loop
         vertex 4.771573e+00 7.828426e+00 3.390000e+01
         vertex 4.771573e+00 7.828426e+00 3.500000e+01
         vertex 6.069265e+00 8.695517e+00 3.500000e+01
      endloop
   endfacet
   facet normal -5.555707e-01 8.314693e-01 0.000000e+00
      outer loop
         vertex 4.771573e+00 7.828426e+00 3.390000e+01
         vertex 6.069265e+00 8.695517e+00 3.500000e+01
         vertex 6.069265e+00 8.695517e+00 3.390000e+01
      endloop
   endfacet
   facet normal -1.950908e-01 9.807852e-01 0.000000e+00
      outer loop
         vertex 6.069265e+00 8.695517e+00 3.390000e+01
         vertex 6.069265e+00 8.695517e+00 3.500000e+01
         vertex 7.600000e+00 9.000000e+00 3.500000e+01
      endloop
   endfacet
   facet normal -1.950908e-01 9.807852e-01 0.000000e+00
      outer loop
         vertex 6.069265e+00 8.695517e+00 3.390000e+01
         vertex 7.600000e+00 9.000000e+00 3.500000e+01
         vertex 7.600000e+00 9.000000e+00 3.390000e+01
      endloop
   endfacet
   facet normal 1.950910e-01 9.807851e-01 -0.000000e+00
      outer loop
         vertex 7.600000e+00 9.000000e+00 3.390000e+01
         vertex 7.600000e+00 9.000000e+00 3.500000e+01
         vertex 9.130733e+00 8.695517e+00 3.500000e+01
      endloop
   endfacet
   facet normal 1.950910e-01 9.807851e-01 0.000000e+00
      outer loop
         vertex 7.600000e+00 9.000000e+00 3.390000e+01
         vertex 9.130733e+00 8.695517e+00 3.500000e+01
         vertex 9.130733e+00 8.695517e+00 3.390000e+01
      endloop
   endfacet
   facet normal 5.555702e-01 8.314696e-01 -0.000000e+00
      outer loop
         vertex 9.130733e+00 8.695517e+00 3.390000e+01
         vertex 9.130733e+00 8.695517e+00 3.500000e+01
         vertex 1.042843e+01 7.828426e+00 3.500000e+01
      endloop
   endfacet
   facet normal 5.555702e-01 8.314696e-01 0.000000e+00
      outer loop
         vertex 9.130733e+00 8.695517e+00 3.390000e+01
         vertex 1.042843e+01 7.828426e+00 3.500000e+01
         vertex 1.042843e+01 7.828426e+00 3.390000e+01
      endloop
   endfacet
   facet normal 8.314693e-01 5.555707e-01 -0.000000e+00
      outer loop
         vertex 1.042843e+01 7.828426e+00 3.390000e+01
         vertex 1.042843e+01 7.828426e+00 3.500000e+01
         vertex 1.129552e+01 6.530734e+00 3.500000e+01
      endloop
   endfacet
   facet normal 8.314693e-01 5.555707e-01 0.000000e+00
      outer loop
         vertex 1.042843e+01 7.828426e+00 3.390000e+01
         vertex 1.129552e+01 6.530734e+00 3.500000e+01
         vertex 1.129552e+01 6.530734e+00 3.390000e+01
      endloop
   endfacet
   facet normal 9.807854e-01 1.950897e-01 -0.000000e+00
      outer loop
         vertex 1.129552e+01 6.530734e+00 3.390000e+01
         vertex 1.129552e+01 6.530734e+00 3.500000e+01
         vertex 1.160000e+01 4.999999e+00 3.500000e+01
      endloop
   endfacet
   facet normal 9.807854e-01 1.950897e-01 0.000000e+00
      outer loop
         vertex 1.129552e+01 6.530734e+00 3.390000e+01
         vertex 1.160000e+01 4.999999e+00 3.500000e+01
         vertex 1.160000e+01 4.999999e+00 3.390000e+01
      endloop
   endfacet
   facet normal 9.807854e-01 -1.950899e-01 0.000000e+00
      outer loop
         vertex 1.160000e+01 4.999999e+00 3.390000e+01
         vertex 1.160000e+01 4.999999e+00 3.500000e+01
         vertex 1.129552e+01 3.469266e+00 3.500000e+01
      endloop
   endfacet
   facet normal 9.807854e-01 -1.950899e-01 0.000000e+00
      outer loop
         vertex 1.160000e+01 4.999999e+00 3.390000e+01
         vertex 1.129552e+01 3.469266e+00 3.500000e+01
         vertex 1.129552e+01 3.469266e+00 3.390000e+01
      endloop
   endfacet
   facet normal 8.314696e-01 -5.555702e-01 0.000000e+00
      outer loop
         vertex 1.129552e+01 3.469266e+00 3.390000e+01
         vertex 1.129552e+01 3.469266e+00 3.500000e+01
         vertex 1.042843e+01 2.171572e+00 3.500000e+01
      endloop
   endfacet
   facet normal 8.314696e-01 -5.555702e-01 0.000000e+00
      outer loop
         vertex 1.129552e+01 3.469266e+00 3.390000e+01
         vertex 1.042843e+01 2.171572e+00 3.500000e+01
         vertex 1.042843e+01 2.171572e+00 3.390000e+01
      endloop
   endfacet
   facet normal 5.555702e-01 -8.314696e-01 0.000000e+00
      outer loop
         vertex 1.042843e+01 2.171572e+00 3.390000e+01
         vertex 1.042843e+01 2.171572e+00 3.500000e+01
         vertex 9.130733e+00 1.304481e+00 3.500000e+01
      endloop
   endfacet
   facet normal 5.555702e-01 -8.314696e-01 0.000000e+00
      outer loop
         vertex 1.042843e+01 2.171572e+00 3.390000e+01
         vertex 9.130733e+00 1.304481e+00 3.500000e+01
         vertex 9.130733e+00 1.304481e+00 3.390000e+01
      endloop
   endfacet
   facet normal 1.950910e-01 -9.807851e-01 0.000000e+00
      outer loop
         vertex 9.130733e+00 1.304481e+00 3.390000e+01
         vertex 9.130733e+00 1.304481e+00 3.500000e+01
         vertex 7.600000e+00 9.999983e-01 3.500000e+01
      endloop
   endfacet
   facet normal 1.950910e-01 -9.807851e-01 0.000000e+00
      outer loop
         vertex 9.130733e+00 1.304481e+00 3.390000e+01
         vertex 7.600000e+00 9.999983e-01 3.500000e+01
         vertex 7.600000e+00 9.999983e-01 3.390000e+01
      endloop
   endfacet
   facet normal -1.950908e-01 -9.807852e-01 0.000000e+00
      outer loop
         vertex 7.600000e+00 9.999983e-01 3.390000e+01
         vertex 7.600000e+00 9.999983e-01 3.500000e+01
         vertex 6.069265e+00 1.304481e+00 3.500000e+01
      endloop
   endfacet
   facet normal -1.950908e-01 -9.807852e-01 0.000000e+00
      outer loop
         vertex 7.600000e+00 9.999983e-01 3.390000e+01
         vertex 6.069265e+00 1.304481e+00 3.500000e+01
         vertex 6.069265e+00 1.304481e+00 3.390000e+01
      endloop
   endfacet
   facet normal -5.555707e-01 -8.314693e-01 0.000000e+00
      outer loop
         vertex 6.069265e+00 1.304481e+00 3.390000e+01
         vertex 6.069265e+00 1.304481e+00 3.500000e+01
         vertex 4.771573e+00 2.171572e+00 3.500000e+01
      endloop
   endfacet
   facet normal -5.555707e-01 -8.314693e-01 0.000000e+00
      outer loop
         vertex 6.069265e+00 1.304481e+00 3.390000e+01
         vertex 4.771573e+00 2.171572e+00 3.500000e+01
         vertex 4.771573e+00 2.171572e+00 3.390000e+01
      endloop
   endfacet
   facet normal -8.314696e-01 -5.555702e-01 0.000000e+00
      outer loop
         vertex 4.771573e+00 2.171572e+00 3.390000e+01
         vertex 4.771573e+00 2.171572e+00 3.500000e+01
         vertex 3.904482e+00 3.469266e+00 3.500000e+01
      endloop
   endfacet
   facet normal -8.314696e-01 -5.555702e-01 0.000000e+00
      outer loop
         vertex 4.771573e+00 2.171572e+00 3.390000e+01
         vertex 3.904482e+00 3.469266e+00 3.500000e+01
         vertex 3.904482e+00 3.469266e+00 3.390000e+01
      endloop
   endfacet
   facet normal -9.807851e-01 -1.950910e-01 0.000000e+00
      outer loop
         vertex 3.904482e+00 3.469266e+00 3.390000e+01
         vertex 3.904482e+00 3.469266e+00 3.500000e+01
         vertex 3.599999e+00 4.999999e+00 3.500000e+01
      endloop
   endfacet
   facet normal -9.807851e-01 -1.950910e-01 0.000000e+00
      outer loop
         vertex 3.904482e+00 3.469266e+00 3.390000e+01
         vertex 3.599999e+00 4.999999e+00 3.500000e+01
         vertex 3.599999e+00 4.999999e+00 3.390000e+01
      endloop
   endfacet
   facet normal -9.807852e-01 1.950908e-01 0.000000e+00
      outer loop
         vertex 3.599999e+00 4.999999e+00 3.390000e+01
         vertex 3.599999e+00 4.999999e+00 3.500000e+01
         vertex 3.904482e+00 6.530734e+00 3.500000e+01
      endloop
   endfacet
   facet normal 9.659263e-01 -2.588174e-01 0.000000e+00
      outer loop
         vertex 5.950000e+00 4.999999e+00 3.750000e+01
         vertex 5.950000e+00 4.999999e+00 3.390000e+01
         vertex 6.171057e+00 5.825000e+00 3.750000e+01
      endloop
   endfacet
   facet normal 9.659263e-01 -2.588174e-01 0.000000e+00
      outer loop
         vertex 6.171057e+00 5.825000e+00 3.750000e+01
         vertex 5.950000e+00 4.999999e+00 3.390000e+01
         vertex 6.171057e+00 5.825000e+00 3.390000e+01
      endloop
   endfacet
   facet normal 7.071057e-01 -7.071079e-01 0.000000e+00
      outer loop
         vertex 6.171057e+00 5.825000e+00 3.750000e+01
         vertex 6.171057e+00 5.825000e+00 3.390000e+01
         vertex 6.774999e+00 6.428940e+00 3.750000e+01
      endloop
   endfacet
   facet normal 7.071057e-01 -7.071079e-01 0.000000e+00
      outer loop
         vertex 6.774999e+00 6.428940e+00 3.750000e+01
         vertex 6.171057e+00 5.825000e+00 3.390000e+01
         vertex 6.774999e+00 6.428940e+00 3.390000e+01
      endloop
   endfacet
   facet normal 2.588195e-01 -9.659257e-01 0.000000e+00
      outer loop
         vertex 6.774999e+00 6.428940e+00 3.750000e+01
         vertex 6.774999e+00 6.428940e+00 3.390000e+01
         vertex 7.600000e+00 6.649999e+00 3.750000e+01
      endloop
   endfacet
   facet normal 2.588195e-01 -9.659257e-01 0.000000e+00
      outer loop
         vertex 7.600000e+00 6.649999e+00 3.750000e+01
         vertex 6.774999e+00 6.428940e+00 3.390000e+01
         vertex 7.600000e+00 6.649999e+00 3.390000e+01
      endloop
   endfacet
   facet normal -2.588200e-01 -9.659256e-01 -0.000000e+00
      outer loop
         vertex 7.600000e+00 6.649999e+00 3.750000e+01
         vertex 7.600000e+00 6.649999e+00 3.390000e+01
         vertex 8.424999e+00 6.428940e+00 3.750000e+01
      endloop
   endfacet
   facet normal -2.588200e-01 -9.659256e-01 -0.000000e+00
      outer loop
         vertex 8.424999e+00 6.428940e+00 3.750000e+01
         vertex 7.600000e+00 6.649999e+00 3.390000e+01
         vertex 8.424999e+00 6.428940e+00 3.390000e+01
      endloop
   endfacet
   facet normal -7.071057e-01 -7.071079e-01 -0.000000e+00
      outer loop
         vertex 8.424999e+00 6.428940e+00 3.750000e+01
         vertex 8.424999e+00 6.428940e+00 3.390000e+01
         vertex 9.028941e+00 5.825000e+00 3.750000e+01
      endloop
   endfacet
   facet normal -7.071057e-01 -7.071079e-01 -0.000000e+00
      outer loop
         vertex 9.028941e+00 5.825000e+00 3.750000e+01
         vertex 8.424999e+00 6.428940e+00 3.390000e+01
         vertex 9.028941e+00 5.825000e+00 3.390000e+01
      endloop
   endfacet
   facet normal -9.659257e-01 -2.588195e-01 -0.000000e+00
      outer loop
         vertex 9.028941e+00 5.825000e+00 3.750000e+01
         vertex 9.028941e+00 5.825000e+00 3.390000e+01
         vertex 9.250000e+00 4.999999e+00 3.750000e+01
      endloop
   endfacet
   facet normal -9.659257e-01 -2.588195e-01 -0.000000e+00
      outer loop
         vertex 9.250000e+00 4.999999e+00 3.750000e+01
         vertex 9.028941e+00 5.825000e+00 3.390000e+01
         vertex 9.250000e+00 4.999999e+00 3.390000e+01
      endloop
   endfacet
   facet normal -9.659256e-01 2.588200e-01 0.000000e+00
      outer loop
         vertex 9.250000e+00 4.999999e+00 3.750000e+01
         vertex 9.250000e+00 4.999999e+00 3.390000e+01
         vertex 9.028941e+00 4.175000e+00 3.750000e+01
      endloop
   endfacet
   facet normal -9.659256e-01 2.588200e-01 0.000000e+00
      outer loop
         vertex 9.028941e+00 4.175000e+00 3.750000e+01
         vertex 9.250000e+00 4.999999e+00 3.390000e+01
         vertex 9.028941e+00 4.175000e+00 3.390000e+01
      endloop
   endfacet
   facet normal -7.071068e-01 7.071068e-01 0.000000e+00
      outer loop
         vertex 9.028941e+00 4.175000e+00 3.750000e+01
         vertex 9.028941e+00 4.175000e+00 3.390000e+01
         vertex 8.424999e+00 3.571058e+00 3.750000e+01
      endloop
   endfacet
   facet normal -7.071068e-01 7.071068e-01 0.000000e+00
      outer loop
         vertex 8.424999e+00 3.571058e+00 3.750000e+01
         vertex 9.028941e+00 4.175000e+00 3.390000e+01
         vertex 8.424999e+00 3.571058e+00 3.390000e+01
      endloop
   endfacet
   facet normal -2.588200e-01 9.659256e-01 0.000000e+00
      outer loop
         vertex 8.424999e+00 3.571058e+00 3.750000e+01
         vertex 8.424999e+00 3.571058e+00 3.390000e+01
         vertex 7.600000e+00 3.349999e+00 3.750000e+01
      endloop
   endfacet
   facet normal -2.588200e-01 9.659256e-01 0.000000e+00
      outer loop
         vertex 7.600000e+00 3.349999e+00 3.750000e+01
         vertex 8.424999e+00 3.571058e+00 3.390000e+01
         vertex 7.600000e+00 3.349999e+00 3.390000e+01
      endloop
   endfacet
   facet normal 2.588195e-01 9.659257e-01 0.000000e+00
      outer loop
         vertex 7.600000e+00 3.349999e+00 3.750000e+01
         vertex 7.600000e+00 3.349999e+00 3.390000e+01
         vertex 6.774999e+00 3.571058e+00 3.750000e+01
      endloop
   endfacet
   facet normal 2.588195e-01 9.659257e-01 0.000000e+00
      outer loop
         vertex 6.774999e+00 3.571058e+00 3.750000e+01
         vertex 7.600000e+00 3.349999e+00 3.390000e+01
         vertex 6.774999e+00 3.571058e+00 3.390000e+01
      endloop
   endfacet
   facet normal 7.071068e-01 7.071068e-01 0.000000e+00
      outer loop
         vertex 6.774999e+00 3.571058e+00 3.750000e+01
         vertex 6.774999e+00 3.571058e+00 3.390000e+01
         vertex 6.171057e+00 4.175000e+00 3.750000e+01
      endloop
   endfacet
   facet normal 7.071068e-01 7.071068e-01 0.000000e+00
      outer loop
         vertex 6.171057e+00 4.175000e+00 3.750000e+01
         vertex 6.774999e+00 3.571058e+00 3.390000e+01
         vertex 6.171057e+00 4.175000e+00 3.390000e+01
      endloop
   endfacet
   facet normal 9.659261e-01 2.588180e-01 0.000000e+00
      outer loop
         vertex 6.171057e+00 4.175000e+00 3.750000e+01
         vertex 6.171057e+00 4.175000e+00 3.390000e+01
         vertex 5.950000e+00 4.999999e+00 3.750000e+01
      endloop
   endfacet
   facet normal 9.659261e-01 2.588180e-01 0.000000e+00
      outer loop
         vertex 5.950000e+00 4.999999e+00 3.750000e+01
         vertex 6.171057e+00 4.175000e+00 3.390000e+01
         vertex 5.950000e+00 4.999999e+00 3.390000e+01
      endloop
   endfacet
   facet normal 0.000000e+00 1.000000e+00 -0.000000e+00
      outer loop
         vertex 1.260000e+01 7.150000e+01 3.500000e+01
         vertex 2.599999e+00 7.150000e+01 3.500000e+01
         vertex 1.260000e+01 7.150000e+01 3.750000e+01
      endloop
   endfacet
   facet normal 0.000000e+00 1.000000e+00 0.000000e+00
      outer loop
         vertex 1.260000e+01 7.150000e+01 3.750000e+01
         vertex 2.599999e+00 7.150000e+01 3.500000e+01
         vertex 2.599999e+00 7.150000e+01 3.750000e+01
      endloop
   endfacet
   facet normal -9.659257e-01 -2.588195e-01 0.000000e+00
      outer loop
         vertex 9.250000e+00 5.485000e+01 3.390000e+01
         vertex 9.250000e+00 5.485000e+01 3.750000e+01
         vertex 9.028941e+00 5.567500e+01 3.390000e+01
      endloop
   endfacet
   facet normal -9.659257e-01 -2.588195e-01 0.000000e+00
      outer loop
         vertex 9.028941e+00 5.567500e+01 3.390000e+01
         vertex 9.250000e+00 5.485000e+01 3.750000e+01
         vertex 9.028941e+00 5.567500e+01 3.750000e+01
      endloop
   endfacet
   facet normal -7.071057e-01 -7.071079e-01 0.000000e+00
      outer loop
         vertex 9.028941e+00 5.567500e+01 3.390000e+01
         vertex 9.028941e+00 5.567500e+01 3.750000e+01
         vertex 8.424999e+00 5.627894e+01 3.390000e+01
      endloop
   endfacet
   facet normal -7.071057e-01 -7.071079e-01 0.000000e+00
      outer loop
         vertex 8.424999e+00 5.627894e+01 3.390000e+01
         vertex 9.028941e+00 5.567500e+01 3.750000e+01
         vertex 8.424999e+00 5.627894e+01 3.750000e+01
      endloop
   endfacet
   facet normal -2.588200e-01 -9.659256e-01 0.000000e+00
      outer loop
         vertex 8.424999e+00 5.627894e+01 3.390000e+01
         vertex 8.424999e+00 5.627894e+01 3.750000e+01
         vertex 7.600000e+00 5.650000e+01 3.390000e+01
      endloop
   endfacet
   facet normal -2.588200e-01 -9.659256e-01 0.000000e+00
      outer loop
         vertex 7.600000e+00 5.650000e+01 3.390000e+01
         vertex 8.424999e+00 5.627894e+01 3.750000e+01
         vertex 7.600000e+00 5.650000e+01 3.750000e+01
      endloop
   endfacet
   facet normal 2.588195e-01 -9.659257e-01 0.000000e+00
      outer loop
         vertex 7.600000e+00 5.650000e+01 3.390000e+01
         vertex 7.600000e+00 5.650000e+01 3.750000e+01
         vertex 6.774999e+00 5.627894e+01 3.390000e+01
      endloop
   endfacet
   facet normal 2.588195e-01 -9.659257e-01 0.000000e+00
      outer loop
         vertex 6.774999e+00 5.627894e+01 3.390000e+01
         vertex 7.600000e+00 5.650000e+01 3.750000e+01
         vertex 6.774999e+00 5.627894e+01 3.750000e+01
      endloop
   endfacet
   facet normal 7.071057e-01 -7.071079e-01 0.000000e+00
      outer loop
         vertex 6.774999e+00 5.627894e+01 3.390000e+01
         vertex 6.774999e+00 5.627894e+01 3.750000e+01
         vertex 6.171057e+00 5.567500e+01 3.390000e+01
      endloop
   endfacet
   facet normal 7.071057e-01 -7.071079e-01 0.000000e+00
      outer loop
         vertex 6.171057e+00 5.567500e+01 3.390000e+01
         vertex 6.774999e+00 5.627894e+01 3.750000e+01
         vertex 6.171057e+00 5.567500e+01 3.750000e+01
      endloop
   endfacet
   facet normal 9.659263e-01 -2.588174e-01 0.000000e+00
      outer loop
         vertex 6.171057e+00 5.567500e+01 3.390000e+01
         vertex 6.171057e+00 5.567500e+01 3.750000e+01
         vertex 5.950000e+00 5.485000e+01 3.390000e+01
      endloop
   endfacet
   facet normal 9.659263e-01 -2.588174e-01 0.000000e+00
      outer loop
         vertex 5.950000e+00 5.485000e+01 3.390000e+01
         vertex 6.171057e+00 5.567500e+01 3.750000e+01
         vertex 5.950000e+00 5.485000e+01 3.750000e+01
      endloop
   endfacet
   facet normal -1.000000e+00 -0.000000e+00 -0.000000e+00
      outer loop
         vertex 9.250000e+00 5.485000e+01 3.750000e+01
         vertex 9.250000e+00 5.485000e+01 3.390000e+01
         vertex 9.250000e+00 5.315000e+01 3.750000e+01
      endloop
   endfacet
   facet normal -1.000000e+00 0.000000e+00 0.000000e+00
      outer loop
         vertex 9.250000e+00 5.315000e+01 3.750000e+01
         vertex 9.250000e+00 5.485000e+01 3.390000e+01
         vertex 9.250000e+00 5.315000e+01 3.390000e+01
      endloop
   endfacet
   facet normal 9.659263e-01 2.588174e-01 -0.000000e+00
      outer loop
         vertex 5.950000e+00 5.315000e+01 3.390000e+01
         vertex 5.950000e+00 5.315000e+01 3.750000e+01
         vertex 6.171057e+00 5.232500e+01 3.390000e+01
      endloop
   endfacet
   facet normal 9.659263e-01 2.588174e-01 -0.000000e+00
      outer loop
         vertex 6.171057e+00 5.232500e+01 3.390000e+01
         vertex 5.950000e+00 5.315000e+01 3.750000e+01
         vertex 6.171057e+00 5.232500e+01 3.750000e+01
      endloop
   endfacet
   facet normal 7.071068e-01 7.071068e-01 -0.000000e+00
      outer loop
         vertex 6.171057e+00 5.232500e+01 3.390000e+01
         vertex 6.171057e+00 5.232500e+01 3.750000e+01
         vertex 6.774999e+00 5.172106e+01 3.390000e+01
      endloop
   endfacet
   facet normal 7.071068e-01 7.071068e-01 -0.000000e+00
      outer loop
         vertex 6.774999e+00 5.172106e+01 3.390000e+01
         vertex 6.171057e+00 5.232500e+01 3.750000e+01
         vertex 6.774999e+00 5.172106e+01 3.750000e+01
      endloop
   endfacet
   facet normal 2.588174e-01 9.659263e-01 -0.000000e+00
      outer loop
         vertex 6.774999e+00 5.172106e+01 3.390000e+01
         vertex 6.774999e+00 5.172106e+01 3.750000e+01
         vertex 7.600000e+00 5.150000e+01 3.390000e+01
      endloop
   endfacet
   facet normal 2.588174e-01 9.659263e-01 -0.000000e+00
      outer loop
         vertex 7.600000e+00 5.150000e+01 3.390000e+01
         vertex 6.774999e+00 5.172106e+01 3.750000e+01
         vertex 7.600000e+00 5.150000e+01 3.750000e+01
      endloop
   endfacet
   facet normal -2.588180e-01 9.659261e-01 0.000000e+00
      outer loop
         vertex 7.600000e+00 5.150000e+01 3.390000e+01
         vertex 7.600000e+00 5.150000e+01 3.750000e+01
         vertex 8.424999e+00 5.172106e+01 3.390000e+01
      endloop
   endfacet
   facet normal -2.588180e-01 9.659261e-01 0.000000e+00
      outer loop
         vertex 8.424999e+00 5.172106e+01 3.390000e+01
         vertex 7.600000e+00 5.150000e+01 3.750000e+01
         vertex 8.424999e+00 5.172106e+01 3.750000e+01
      endloop
   endfacet
   facet normal -7.071068e-01 7.071068e-01 0.000000e+00
      outer loop
         vertex 8.424999e+00 5.172106e+01 3.390000e+01
         vertex 8.424999e+00 5.172106e+01 3.750000e+01
         vertex 9.028941e+00 5.232500e+01 3.390000e+01
      endloop
   endfacet
   facet normal -7.071068e-01 7.071068e-01 0.000000e+00
      outer loop
         vertex 9.028941e+00 5.232500e+01 3.390000e+01
         vertex 8.424999e+00 5.172106e+01 3.750000e+01
         vertex 9.028941e+00 5.232500e+01 3.750000e+01
      endloop
   endfacet
   facet normal -9.659257e-01 2.588195e-01 0.000000e+00
      outer loop
         vertex 9.028941e+00 5.232500e+01 3.390000e+01
         vertex 9.028941e+00 5.232500e+01 3.750000e+01
         vertex 9.250000e+00 5.315000e+01 3.390000e+01
      endloop
   endfacet
   facet normal -9.659257e-01 2.588195e-01 0.000000e+00
      outer loop
         vertex 9.250000e+00 5.315000e+01 3.390000e+01
         vertex 9.028941e+00 5.232500e+01 3.750000e+01
         vertex 9.250000e+00 5.315000e+01 3.750000e+01
      endloop
   endfacet
   facet normal 1.000000e+00 -0.000000e+00 0.000000e+00
      outer loop
         vertex 5.950000e+00 5.315000e+01 3.750000e+01
         vertex 5.950000e+00 5.315000e+01 3.390000e+01
         vertex 5.950000e+00 5.485000e+01 3.750000e+01
      endloop
   endfacet
   facet normal 1.000000e+00 0.000000e+00 0.000000e+00
      outer loop
         vertex 5.950000e+00 5.485000e+01 3.750000e+01
         vertex 5.950000e+00 5.315000e+01 3.390000e+01
         vertex 5.950000e+00 5.485000e+01 3.390000e+01
      endloop
   endfacet
   facet normal -9.659259e-01 -2.588188e-01 0.000000e+00
      outer loop
         vertex 9.199999e+00 6.850000e+01 3.500000e+01
         vertex 9.199999e+00 6.850000e+01 3.750000e+01
         vertex 8.985640e+00 6.930000e+01 3.500000e+01
      endloop
   endfacet
   facet normal -9.659259e-01 -2.588188e-01 0.000000e+00
      outer loop
         vertex 8.985640e+00 6.930000e+01 3.500000e+01
         vertex 9.199999e+00 6.850000e+01 3.750000e+01
         vertex 8.985640e+00 6.930000e+01 3.750000e+01
      endloop
   endfacet
   facet normal -7.071068e-01 -7.071068e-01 0.000000e+00
      outer loop
         vertex 8.985640e+00 6.930000e+01 3.500000e+01
         vertex 8.985640e+00 6.930000e+01 3.750000e+01
         vertex 8.399999e+00 6.988564e+01 3.500000e+01
      endloop
   endfacet
   facet normal -7.071068e-01 -7.071068e-01 0.000000e+00
      outer loop
         vertex 8.399999e+00 6.988564e+01 3.500000e+01
         vertex 8.985640e+00 6.930000e+01 3.750000e+01
         vertex 8.399999e+00 6.988564e+01 3.750000e+01
      endloop
   endfacet
   facet normal -2.588167e-01 -9.659264e-01 0.000000e+00
      outer loop
         vertex 8.399999e+00 6.988564e+01 3.500000e+01
         vertex 8.399999e+00 6.988564e+01 3.750000e+01
         vertex 7.600000e+00 7.010000e+01 3.500000e+01
      endloop
   endfacet
   facet normal -2.588167e-01 -9.659264e-01 0.000000e+00
      outer loop
         vertex 7.600000e+00 7.010000e+01 3.500000e+01
         vertex 8.399999e+00 6.988564e+01 3.750000e+01
         vertex 7.600000e+00 7.010000e+01 3.750000e+01
      endloop
   endfacet
   facet normal 2.588162e-01 -9.659266e-01 0.000000e+00
      outer loop
         vertex 7.600000e+00 7.010000e+01 3.500000e+01
         vertex 7.600000e+00 7.010000e+01 3.750000e+01
         vertex 6.800000e+00 6.988564e+01 3.500000e+01
      endloop
   endfacet
   facet normal 2.588162e-01 -9.659266e-01 0.000000e+00
      outer loop
         vertex 6.800000e+00 6.988564e+01 3.500000e+01
         vertex 7.600000e+00 7.010000e+01 3.750000e+01
         vertex 6.800000e+00 6.988564e+01 3.750000e+01
      endloop
   endfacet
   facet normal 7.071079e-01 -7.071057e-01 0.000000e+00
      outer loop
         vertex 6.800000e+00 6.988564e+01 3.500000e+01
         vertex 6.800000e+00 6.988564e+01 3.750000e+01
         vertex 6.214360e+00 6.930000e+01 3.500000e+01
      endloop
   endfacet
   facet normal 7.071079e-01 -7.071057e-01 0.000000e+00
      outer loop
         vertex 6.214360e+00 6.930000e+01 3.500000e+01
         vertex 6.800000e+00 6.988564e+01 3.750000e+01
         vertex 6.214360e+00 6.930000e+01 3.750000e+01
      endloop
   endfacet
   facet normal 9.659253e-01 -2.588209e-01 0.000000e+00
      outer loop
         vertex 6.214360e+00 6.930000e+01 3.500000e+01
         vertex 6.214360e+00 6.930000e+01 3.750000e+01
         vertex 5.999999e+00 6.850000e+01 3.500000e+01
      endloop
   endfacet
   facet normal 9.659253e-01 -2.588209e-01 0.000000e+00
      outer loop
         vertex 5.999999e+00 6.850000e+01 3.500000e+01
         vertex 6.214360e+00 6.930000e+01 3.750000e+01
         vertex 5.999999e+00 6.850000e+01 3.750000e+01
      endloop
   endfacet
   facet normal 9.659256e-01 2.588198e-01 -0.000000e+00
      outer loop
         vertex 5.999999e+00 6.850000e+01 3.500000e+01
         vertex 5.999999e+00 6.850000e+01 3.750000e+01
         vertex 6.214360e+00 6.770000e+01 3.500000e+01
      endloop
   endfacet
   facet normal 9.659256e-01 2.588198e-01 -0.000000e+00
      outer loop
         vertex 6.214360e+00 6.770000e+01 3.500000e+01
         vertex 5.999999e+00 6.850000e+01 3.750000e+01
         vertex 6.214360e+00 6.770000e+01 3.750000e+01
      endloop
   endfacet
   facet normal 7.071079e-01 7.071057e-01 -0.000000e+00
      outer loop
         vertex 6.214360e+00 6.770000e+01 3.500000e+01
         vertex 6.214360e+00 6.770000e+01 3.750000e+01
         vertex 6.800000e+00 6.711436e+01 3.500000e+01
      endloop
   endfacet
   facet normal 7.071079e-01 7.071057e-01 -0.000000e+00
      outer loop
         vertex 6.800000e+00 6.711436e+01 3.500000e+01
         vertex 6.214360e+00 6.770000e+01 3.750000e+01
         vertex 6.800000e+00 6.711436e+01 3.750000e+01
      endloop
   endfacet
   facet normal 2.588162e-01 9.659266e-01 -0.000000e+00
      outer loop
         vertex 6.800000e+00 6.711436e+01 3.500000e+01
         vertex 6.800000e+00 6.711436e+01 3.750000e+01
         vertex 7.600000e+00 6.690000e+01 3.500000e+01
      endloop
   endfacet
   facet normal 2.588162e-01 9.659266e-01 -0.000000e+00
      outer loop
         vertex 7.600000e+00 6.690000e+01 3.500000e+01
         vertex 6.800000e+00 6.711436e+01 3.750000e+01
         vertex 7.600000e+00 6.690000e+01 3.750000e+01
      endloop
   endfacet
   facet normal -2.588167e-01 9.659264e-01 0.000000e+00
      outer loop
         vertex 7.600000e+00 6.690000e+01 3.500000e+01
         vertex 7.600000e+00 6.690000e+01 3.750000e+01
         vertex 8.399999e+00 6.711436e+01 3.500000e+01
      endloop
   endfacet
   facet normal -2.588167e-01 9.659264e-01 0.000000e+00
      outer loop
         vertex 8.399999e+00 6.711436e+01 3.500000e+01
         vertex 7.600000e+00 6.690000e+01 3.750000e+01
         vertex 8.399999e+00 6.711436e+01 3.750000e+01
      endloop
   endfacet
   facet normal -7.071068e-01 7.071068e-01 0.000000e+00
      outer loop
         vertex 8.399999e+00 6.711436e+01 3.500000e+01
         vertex 8.399999e+00 6.711436e+01 3.750000e+01
         vertex 8.985640e+00 6.770000e+01 3.500000e+01
      endloop
   endfacet
   facet normal -7.071068e-01 7.071068e-01 0.000000e+00
      outer loop
         vertex 8.985640e+00 6.770000e+01 3.500000e+01
         vertex 8.399999e+00 6.711436e+01 3.750000e+01
         vertex 8.985640e+00 6.770000e+01 3.750000e+01
      endloop
   endfacet
   facet normal -9.659262e-01 2.588177e-01 0.000000e+00
      outer loop
         vertex 8.985640e+00 6.770000e+01 3.500000e+01
         vertex 8.985640e+00 6.770000e+01 3.750000e+01
         vertex 9.199999e+00 6.850000e+01 3.500000e+01
      endloop
   endfacet
   facet normal -9.659262e-01 2.588177e-01 0.000000e+00
      outer loop
         vertex 9.199999e+00 6.850000e+01 3.500000e+01
         vertex 8.985640e+00 6.770000e+01 3.750000e+01
         vertex 9.199999e+00 6.850000e+01 3.750000e+01
      endloop
   endfacet
endsolid