solid tensioner 2
   facet normal -0.000000e+00 -1.000000e+00 -0.000000e+00
      outer loop
         vertex 2.462231e+00 5.410000e+01 6.000000e+00
         vertex 0.000000e+00 5.410000e+01 6.000000e+00
         vertex 2.462231e+00 5.410000e+01 3.500000e+00
      endloop
   endfacet
   facet normal -0.000000e+00 -1.000000e+00 0.000000e+00
      outer loop
         vertex 2.462231e+00 5.410000e+01 3.500000e+00
         vertex 0.000000e+00 5.410000e+01 6.000000e+00
         vertex 0.000000e+00 5.410000e+01 0.000000e+00
      endloop
   endfacet
   facet normal 0.000000e+00 -1.000000e+00 -0.000000e+00
      outer loop
         vertex 2.462231e+00 5.410000e+01 3.500000e+00
         vertex 0.000000e+00 5.410000e+01 0.000000e+00
         vertex 6.537768e+00 5.410000e+01 3.500000e+00
      endloop
   endfacet
   facet normal -0.000000e+00 -1.000000e+00 -0.000000e+00
      outer loop
         vertex 4.000000e+01 5.410000e+01 6.000000e+00
         vertex 3.753777e+01 5.410000e+01 6.000000e+00
         vertex 4.000000e+01 5.410000e+01 0.000000e+00
      endloop
   endfacet
   facet normal 0.000000e+00 -1.000000e+00 0.000000e+00
      outer loop
         vertex 4.000000e+01 5.410000e+01 0.000000e+00
         vertex 3.753777e+01 5.410000e+01 6.000000e+00
         vertex 3.753777e+01 5.410000e+01 3.500000e+00
      endloop
   endfacet
   facet normal 0.000000e+00 -1.000000e+00 0.000000e+00
      outer loop
         vertex 4.000000e+01 5.410000e+01 0.000000e+00
         vertex 3.753777e+01 5.410000e+01 3.500000e+00
         vertex 3.346223e+01 5.410000e+01 3.500000e+00
      endloop
   endfacet
   facet normal -0.000000e+00 -1.000000e+00 -0.000000e+00
      outer loop
         vertex 3.346223e+01 5.410000e+01 6.000000e+00
         vertex 6.537768e+00 5.410000e+01 6.000000e+00
         vertex 3.346223e+01 5.410000e+01 3.500000e+00
      endloop
   endfacet
   facet normal 0.000000e+00 -1.000000e+00 0.000000e+00
      outer loop
         vertex 3.346223e+01 5.410000e+01 3.500000e+00
         vertex 6.537768e+00 5.410000e+01 6.000000e+00
         vertex 6.537768e+00 5.410000e+01 3.500000e+00
      endloop
   endfacet
   facet normal -0.000000e+00 -1.000000e+00 -0.000000e+00
      outer loop
         vertex 3.346223e+01 5.410000e+01 3.500000e+00
         vertex 6.537768e+00 5.410000e+01 3.500000e+00
         vertex 4.000000e+01 5.410000e+01 0.000000e+00
      endloop
   endfacet
   facet normal 0.000000e+00 -1.000000e+00 0.000000e+00
      outer loop
         vertex 4.000000e+01 5.410000e+01 0.000000e+00
         vertex 6.537768e+00 5.410000e+01 3.500000e+00
         vertex 0.000000e+00 5.410000e+01 0.000000e+00
      endloop
   endfacet
   facet normal 0.000000e+00 1.000000e+00 0.000000e+00
      outer loop
         vertex 6.537768e+00 6.110000e+01 3.500000e+00
         vertex 6.537768e+00 6.110000e+01 6.000000e+00
         vertex 2.500000e+01 6.110000e+01 6.000000e+00
      endloop
   endfacet
   facet normal 0.000000e+00 1.000000e+00 0.000000e+00
      outer loop
         vertex 0.000000e+00 6.110000e+01 0.000000e+00
         vertex 0.000000e+00 6.110000e+01 6.000000e+00
         vertex 2.462231e+00 6.110000e+01 6.000000e+00
      endloop
   endfacet
   facet normal 0.000000e+00 1.000000e+00 0.000000e+00
      outer loop
         vertex 2.462231e+00 6.110000e+01 6.000000e+00
         vertex 2.462231e+00 6.110000e+01 3.500000e+00
         vertex 0.000000e+00 6.110000e+01 0.000000e+00
      endloop
   endfacet
   facet normal 0.000000e+00 1.000000e+00 0.000000e+00
      outer loop
         vertex 0.000000e+00 6.110000e+01 0.000000e+00
         vertex 2.462231e+00 6.110000e+01 3.500000e+00
         vertex 6.537768e+00 6.110000e+01 3.500000e+00
      endloop
   endfacet
   facet normal 0.000000e+00 1.000000e+00 0.000000e+00
      outer loop
         vertex 0.000000e+00 6.110000e+01 0.000000e+00
         vertex 6.537768e+00 6.110000e+01 3.500000e+00
         vertex 2.500000e+01 6.110000e+01 0.000000e+00
      endloop
   endfacet
   facet normal 0.000000e+00 1.000000e+00 -0.000000e+00
      outer loop
         vertex 2.500000e+01 6.110000e+01 0.000000e+00
         vertex 6.537768e+00 6.110000e+01 3.500000e+00
         vertex 2.500000e+01 6.110000e+01 6.000000e+00
      endloop
   endfacet
   facet normal 9.659253e-01 -2.588209e-01 0.000000e+00
      outer loop
         vertex 2.899999e+00 5.760000e+01 3.500000e+00
         vertex 2.899999e+00 5.760000e+01 0.000000e+00
         vertex 3.114359e+00 5.840000e+01 3.500000e+00
      endloop
   endfacet
   facet normal 9.659253e-01 -2.588209e-01 0.000000e+00
      outer loop
         vertex 3.114359e+00 5.840000e+01 3.500000e+00
         vertex 2.899999e+00 5.760000e+01 0.000000e+00
         vertex 3.114359e+00 5.840000e+01 0.000000e+00
      endloop
   endfacet
   facet normal 7.071079e-01 -7.071057e-01 0.000000e+00
      outer loop
         vertex 3.114359e+00 5.840000e+01 3.500000e+00
         vertex 3.114359e+00 5.840000e+01 0.000000e+00
         vertex 3.699999e+00 5.898564e+01 3.500000e+00
      endloop
   endfacet
   facet normal 7.071079e-01 -7.071057e-01 0.000000e+00
      outer loop
         vertex 3.699999e+00 5.898564e+01 3.500000e+00
         vertex 3.114359e+00 5.840000e+01 0.000000e+00
         vertex 3.699999e+00 5.898564e+01 0.000000e+00
      endloop
   endfacet
   facet normal 2.588183e-01 -9.659260e-01 0.000000e+00
      outer loop
         vertex 3.699999e+00 5.898564e+01 3.500000e+00
         vertex 3.699999e+00 5.898564e+01 0.000000e+00
         vertex 4.500000e+00 5.920000e+01 3.500000e+00
      endloop
   endfacet
   facet normal 2.588183e-01 -9.659260e-01 0.000000e+00
      outer loop
         vertex 4.500000e+00 5.920000e+01 3.500000e+00
         vertex 3.699999e+00 5.898564e+01 0.000000e+00
         vertex 4.500000e+00 5.920000e+01 0.000000e+00
      endloop
   endfacet
   facet normal -2.588185e-01 -9.659260e-01 -0.000000e+00
      outer loop
         vertex 4.500000e+00 5.920000e+01 3.500000e+00
         vertex 4.500000e+00 5.920000e+01 0.000000e+00
         vertex 5.299999e+00 5.898564e+01 3.500000e+00
      endloop
   endfacet
   facet normal -2.588185e-01 -9.659260e-01 -0.000000e+00
      outer loop
         vertex 5.299999e+00 5.898564e+01 3.500000e+00
         vertex 4.500000e+00 5.920000e+01 0.000000e+00
         vertex 5.299999e+00 5.898564e+01 0.000000e+00
      endloop
   endfacet
   facet normal -7.071073e-01 -7.071062e-01 -0.000000e+00
      outer loop
         vertex 5.299999e+00 5.898564e+01 3.500000e+00
         vertex 5.299999e+00 5.898564e+01 0.000000e+00
         vertex 5.885640e+00 5.840000e+01 3.500000e+00
      endloop
   endfacet
   facet normal -7.071073e-01 -7.071062e-01 -0.000000e+00
      outer loop
         vertex 5.885640e+00 5.840000e+01 3.500000e+00
         vertex 5.299999e+00 5.898564e+01 0.000000e+00
         vertex 5.885640e+00 5.840000e+01 0.000000e+00
      endloop
   endfacet
   facet normal -9.659256e-01 -2.588199e-01 -0.000000e+00
      outer loop
         vertex 5.885640e+00 5.840000e+01 3.500000e+00
         vertex 5.885640e+00 5.840000e+01 0.000000e+00
         vertex 6.100000e+00 5.760000e+01 3.500000e+00
      endloop
   endfacet
   facet normal -9.659256e-01 -2.588199e-01 -0.000000e+00
      outer loop
         vertex 6.100000e+00 5.760000e+01 3.500000e+00
         vertex 5.885640e+00 5.840000e+01 0.000000e+00
         vertex 6.100000e+00 5.760000e+01 0.000000e+00
      endloop
   endfacet
   facet normal -9.659258e-01 2.588193e-01 0.000000e+00
      outer loop
         vertex 6.100000e+00 5.760000e+01 3.500000e+00
         vertex 6.100000e+00 5.760000e+01 0.000000e+00
         vertex 5.885640e+00 5.680000e+01 3.500000e+00
      endloop
   endfacet
   facet normal -9.659258e-01 2.588193e-01 0.000000e+00
      outer loop
         vertex 5.885640e+00 5.680000e+01 3.500000e+00
         vertex 6.100000e+00 5.760000e+01 0.000000e+00
         vertex 5.885640e+00 5.680000e+01 0.000000e+00
      endloop
   endfacet
   facet normal -7.071062e-01 7.071073e-01 0.000000e+00
      outer loop
         vertex 5.885640e+00 5.680000e+01 3.500000e+00
         vertex 5.885640e+00 5.680000e+01 0.000000e+00
         vertex 5.299999e+00 5.621436e+01 3.500000e+00
      endloop
   endfacet
   facet normal -7.071062e-01 7.071073e-01 0.000000e+00
      outer loop
         vertex 5.299999e+00 5.621436e+01 3.500000e+00
         vertex 5.885640e+00 5.680000e+01 0.000000e+00
         vertex 5.299999e+00 5.621436e+01 0.000000e+00
      endloop
   endfacet
   facet normal -2.588206e-01 9.659254e-01 0.000000e+00
      outer loop
         vertex 5.299999e+00 5.621436e+01 3.500000e+00
         vertex 5.299999e+00 5.621436e+01 0.000000e+00
         vertex 4.500000e+00 5.600000e+01 3.500000e+00
      endloop
   endfacet
   facet normal -2.588206e-01 9.659254e-01 0.000000e+00
      outer loop
         vertex 4.500000e+00 5.600000e+01 3.500000e+00
         vertex 5.299999e+00 5.621436e+01 0.000000e+00
         vertex 4.500000e+00 5.600000e+01 0.000000e+00
      endloop
   endfacet
   facet normal 2.588204e-01 9.659255e-01 0.000000e+00
      outer loop
         vertex 4.500000e+00 5.600000e+01 3.500000e+00
         vertex 4.500000e+00 5.600000e+01 0.000000e+00
         vertex 3.699999e+00 5.621436e+01 3.500000e+00
      endloop
   endfacet
   facet normal 2.588204e-01 9.659255e-01 0.000000e+00
      outer loop
         vertex 3.699999e+00 5.621436e+01 3.500000e+00
         vertex 4.500000e+00 5.600000e+01 0.000000e+00
         vertex 3.699999e+00 5.621436e+01 0.000000e+00
      endloop
   endfacet
   facet normal 7.071068e-01 7.071068e-01 0.000000e+00
      outer loop
         vertex 3.699999e+00 5.621436e+01 3.500000e+00
         vertex 3.699999e+00 5.621436e+01 0.000000e+00
         vertex 3.114359e+00 5.680000e+01 3.500000e+00
      endloop
   endfacet
   facet normal 7.071068e-01 7.071068e-01 0.000000e+00
      outer loop
         vertex 3.114359e+00 5.680000e+01 3.500000e+00
         vertex 3.699999e+00 5.621436e+01 0.000000e+00
         vertex 3.114359e+00 5.680000e+01 0.000000e+00
      endloop
   endfacet
   facet normal 9.659255e-01 2.588204e-01 0.000000e+00
      outer loop
         vertex 3.114359e+00 5.680000e+01 3.500000e+00
         vertex 3.114359e+00 5.680000e+01 0.000000e+00
         vertex 2.899999e+00 5.760000e+01 3.500000e+00
      endloop
   endfacet
   facet normal 9.659255e-01 2.588204e-01 0.000000e+00
      outer loop
         vertex 2.899999e+00 5.760000e+01 3.500000e+00
         vertex 3.114359e+00 5.680000e+01 0.000000e+00
         vertex 2.899999e+00 5.760000e+01 0.000000e+00
      endloop
   endfacet
   facet normal 9.659256e-01 -2.588199e-01 0.000000e+00
      outer loop
         vertex 3.390000e+01 5.760000e+01 3.500000e+00
         vertex 3.390000e+01 5.760000e+01 0.000000e+00
         vertex 3.411436e+01 5.840000e+01 3.500000e+00
      endloop
   endfacet
   facet normal 9.659256e-01 -2.588199e-01 0.000000e+00
      outer loop
         vertex 3.411436e+01 5.840000e+01 3.500000e+00
         vertex 3.390000e+01 5.760000e+01 0.000000e+00
         vertex 3.411436e+01 5.840000e+01 0.000000e+00
      endloop
   endfacet
   facet normal 7.071073e-01 -7.071062e-01 0.000000e+00
      outer loop
         vertex 3.411436e+01 5.840000e+01 3.500000e+00
         vertex 3.411436e+01 5.840000e+01 0.000000e+00
         vertex 3.470000e+01 5.898564e+01 3.500000e+00
      endloop
   endfacet
   facet normal 7.071073e-01 -7.071062e-01 0.000000e+00
      outer loop
         vertex 3.470000e+01 5.898564e+01 3.500000e+00
         vertex 3.411436e+01 5.840000e+01 0.000000e+00
         vertex 3.470000e+01 5.898564e+01 0.000000e+00
      endloop
   endfacet
   facet normal 2.588185e-01 -9.659260e-01 0.000000e+00
      outer loop
         vertex 3.470000e+01 5.898564e+01 3.500000e+00
         vertex 3.470000e+01 5.898564e+01 0.000000e+00
         vertex 3.550000e+01 5.920000e+01 3.500000e+00
      endloop
   endfacet
   facet normal 2.588185e-01 -9.659260e-01 0.000000e+00
      outer loop
         vertex 3.550000e+01 5.920000e+01 3.500000e+00
         vertex 3.470000e+01 5.898564e+01 0.000000e+00
         vertex 3.550000e+01 5.920000e+01 0.000000e+00
      endloop
   endfacet
   facet normal -2.588183e-01 -9.659260e-01 -0.000000e+00
      outer loop
         vertex 3.550000e+01 5.920000e+01 3.500000e+00
         vertex 3.550000e+01 5.920000e+01 0.000000e+00
         vertex 3.630000e+01 5.898564e+01 3.500000e+00
      endloop
   endfacet
   facet normal -2.588183e-01 -9.659260e-01 -0.000000e+00
      outer loop
         vertex 3.630000e+01 5.898564e+01 3.500000e+00
         vertex 3.550000e+01 5.920000e+01 0.000000e+00
         vertex 3.630000e+01 5.898564e+01 0.000000e+00
      endloop
   endfacet
   facet normal -7.071079e-01 -7.071057e-01 -0.000000e+00
      outer loop
         vertex 3.630000e+01 5.898564e+01 3.500000e+00
         vertex 3.630000e+01 5.898564e+01 0.000000e+00
         vertex 3.688564e+01 5.840000e+01 3.500000e+00
      endloop
   endfacet
   facet normal -7.071079e-01 -7.071057e-01 -0.000000e+00
      outer loop
         vertex 3.688564e+01 5.840000e+01 3.500000e+00
         vertex 3.630000e+01 5.898564e+01 0.000000e+00
         vertex 3.688564e+01 5.840000e+01 0.000000e+00
      endloop
   endfacet
   facet normal -9.659253e-01 -2.588209e-01 -0.000000e+00
      outer loop
         vertex 3.688564e+01 5.840000e+01 3.500000e+00
         vertex 3.688564e+01 5.840000e+01 0.000000e+00
         vertex 3.710000e+01 5.760000e+01 3.500000e+00
      endloop
   endfacet
   facet normal -9.659253e-01 -2.588209e-01 -0.000000e+00
      outer loop
         vertex 3.710000e+01 5.760000e+01 3.500000e+00
         vertex 3.688564e+01 5.840000e+01 0.000000e+00
         vertex 3.710000e+01 5.760000e+01 0.000000e+00
      endloop
   endfacet
   facet normal -9.659255e-01 2.588204e-01 0.000000e+00
      outer loop
         vertex 3.710000e+01 5.760000e+01 3.500000e+00
         vertex 3.710000e+01 5.760000e+01 0.000000e+00
         vertex 3.688564e+01 5.680000e+01 3.500000e+00
      endloop
   endfacet
   facet normal -9.659255e-01 2.588204e-01 0.000000e+00
      outer loop
         vertex 3.688564e+01 5.680000e+01 3.500000e+00
         vertex 3.710000e+01 5.760000e+01 0.000000e+00
         vertex 3.688564e+01 5.680000e+01 0.000000e+00
      endloop
   endfacet
   facet normal -7.071068e-01 7.071068e-01 0.000000e+00
      outer loop
         vertex 3.688564e+01 5.680000e+01 3.500000e+00
         vertex 3.688564e+01 5.680000e+01 0.000000e+00
         vertex 3.630000e+01 5.621436e+01 3.500000e+00
      endloop
   endfacet
   facet normal -7.071068e-01 7.071068e-01 0.000000e+00
      outer loop
         vertex 3.630000e+01 5.621436e+01 3.500000e+00
         vertex 3.688564e+01 5.680000e+01 0.000000e+00
         vertex 3.630000e+01 5.621436e+01 0.000000e+00
      endloop
   endfacet
   facet normal -2.588204e-01 9.659255e-01 0.000000e+00
      outer loop
         vertex 3.630000e+01 5.621436e+01 3.500000e+00
         vertex 3.630000e+01 5.621436e+01 0.000000e+00
         vertex 3.550000e+01 5.600000e+01 3.500000e+00
      endloop
   endfacet
   facet normal -2.588204e-01 9.659255e-01 0.000000e+00
      outer loop
         vertex 3.550000e+01 5.600000e+01 3.500000e+00
         vertex 3.630000e+01 5.621436e+01 0.000000e+00
         vertex 3.550000e+01 5.600000e+01 0.000000e+00
      endloop
   endfacet
   facet normal 2.588206e-01 9.659254e-01 0.000000e+00
      outer loop
         vertex 3.550000e+01 5.600000e+01 3.500000e+00
         vertex 3.550000e+01 5.600000e+01 0.000000e+00
         vertex 3.470000e+01 5.621436e+01 3.500000e+00
      endloop
   endfacet
   facet normal 2.588206e-01 9.659254e-01 0.000000e+00
      outer loop
         vertex 3.470000e+01 5.621436e+01 3.500000e+00
         vertex 3.550000e+01 5.600000e+01 0.000000e+00
         vertex 3.470000e+01 5.621436e+01 0.000000e+00
      endloop
   endfacet
   facet normal 7.071062e-01 7.071073e-01 0.000000e+00
      outer loop
         vertex 3.470000e+01 5.621436e+01 3.500000e+00
         vertex 3.470000e+01 5.621436e+01 0.000000e+00
         vertex 3.411436e+01 5.680000e+01 3.500000e+00
      endloop
   endfacet
   facet normal 7.071062e-01 7.071073e-01 0.000000e+00
      outer loop
         vertex 3.411436e+01 5.680000e+01 3.500000e+00
         vertex 3.470000e+01 5.621436e+01 0.000000e+00
         vertex 3.411436e+01 5.680000e+01 0.000000e+00
      endloop
   endfacet
   facet normal 9.659258e-01 2.588193e-01 0.000000e+00
      outer loop
         vertex 3.411436e+01 5.680000e+01 3.500000e+00
         vertex 3.411436e+01 5.680000e+01 0.000000e+00
         vertex 3.390000e+01 5.760000e+01 3.500000e+00
      endloop
   endfacet
   facet normal 9.659258e-01 2.588193e-01 0.000000e+00
      outer loop
         vertex 3.390000e+01 5.760000e+01 3.500000e+00
         vertex 3.411436e+01 5.680000e+01 0.000000e+00
         vertex 3.390000e+01 5.760000e+01 0.000000e+00
      endloop
   endfacet
   facet normal 0.000000e+00 0.000000e+00 1.000000e+00
      outer loop
         vertex 0.000000e+00 5.410000e+01 6.000000e+00
         vertex 2.462231e+00 5.410000e+01 6.000000e+00
         vertex 2.462231e+00 5.506820e+01 6.000000e+00
      endloop
   endfacet
   facet normal 0.000000e+00 -0.000000e+00 1.000000e+00
      outer loop
         vertex 2.462231e+00 6.013180e+01 6.000000e+00
         vertex 2.462231e+00 6.110000e+01 6.000000e+00
         vertex 1.705546e+00 5.925937e+01 6.000000e+00
      endloop
   endfacet
   facet normal 0.000000e+00 -0.000000e+00 1.000000e+00
      outer loop
         vertex 1.705546e+00 5.925937e+01 6.000000e+00
         vertex 2.462231e+00 6.110000e+01 6.000000e+00
         vertex 0.000000e+00 6.110000e+01 6.000000e+00
      endloop
   endfacet
   facet normal 0.000000e+00 0.000000e+00 1.000000e+00
      outer loop
         vertex 2.462231e+00 5.506820e+01 6.000000e+00
         vertex 1.705546e+00 5.594062e+01 6.000000e+00
         vertex 0.000000e+00 5.410000e+01 6.000000e+00
      endloop
   endfacet
   facet normal 0.000000e+00 0.000000e+00 1.000000e+00
      outer loop
         vertex 0.000000e+00 5.410000e+01 6.000000e+00
         vertex 1.705546e+00 5.594062e+01 6.000000e+00
         vertex 1.301708e+00 5.702257e+01 6.000000e+00
      endloop
   endfacet
   facet normal 0.000000e+00 0.000000e+00 1.000000e+00
      outer loop
         vertex 0.000000e+00 5.410000e+01 6.000000e+00
         vertex 1.301708e+00 5.702257e+01 6.000000e+00
         vertex 0.000000e+00 6.110000e+01 6.000000e+00
      endloop
   endfacet
   facet normal 0.000000e+00 0.000000e+00 1.000000e+00
      outer loop
         vertex 0.000000e+00 6.110000e+01 6.000000e+00
         vertex 1.301708e+00 5.702257e+01 6.000000e+00
         vertex 1.301708e+00 5.817743e+01 6.000000e+00
      endloop
   endfacet
   facet normal 0.000000e+00 0.000000e+00 1.000000e+00
      outer loop
         vertex 0.000000e+00 6.110000e+01 6.000000e+00
         vertex 1.301708e+00 5.817743e+01 6.000000e+00
         vertex 1.705546e+00 5.925937e+01 6.000000e+00
      endloop
   endfacet
   facet normal -0.000000e+00 0.000000e+00 1.000000e+00
      outer loop
         vertex 6.537768e+00 6.110000e+01 6.000000e+00
         vertex 6.537768e+00 6.013180e+01 6.000000e+00
         vertex 2.500000e+01 6.110000e+01 6.000000e+00
      endloop
   endfacet
   facet normal 0.000000e+00 0.000000e+00 1.000000e+00
      outer loop
         vertex 2.500000e+01 6.110000e+01 6.000000e+00
         vertex 6.537768e+00 6.013180e+01 6.000000e+00
         vertex 7.294454e+00 5.925937e+01 6.000000e+00
      endloop
   endfacet
   facet normal 0.000000e+00 0.000000e+00 1.000000e+00
      outer loop
         vertex 3.888564e+01 6.380000e+01 6.000000e+00
         vertex 3.830000e+01 6.321436e+01 6.000000e+00
         vertex 4.000000e+01 5.410000e+01 6.000000e+00
      endloop
   endfacet
   facet normal 0.000000e+00 0.000000e+00 1.000000e+00
      outer loop
         vertex 4.000000e+01 5.410000e+01 6.000000e+00
         vertex 3.830000e+01 6.321436e+01 6.000000e+00
         vertex 3.750000e+01 6.300000e+01 6.000000e+00
      endloop
   endfacet
   facet normal -0.000000e+00 0.000000e+00 1.000000e+00
      outer loop
         vertex 6.537768e+00 5.506820e+01 6.000000e+00
         vertex 6.537768e+00 5.410000e+01 6.000000e+00
         vertex 7.294454e+00 5.594062e+01 6.000000e+00
      endloop
   endfacet
   facet normal 0.000000e+00 0.000000e+00 1.000000e+00
      outer loop
         vertex 7.294454e+00 5.594062e+01 6.000000e+00
         vertex 6.537768e+00 5.410000e+01 6.000000e+00
         vertex 3.346223e+01 5.410000e+01 6.000000e+00
      endloop
   endfacet
   facet normal -0.000000e+00 0.000000e+00 1.000000e+00
      outer loop
         vertex 7.294454e+00 5.594062e+01 6.000000e+00
         vertex 3.346223e+01 5.410000e+01 6.000000e+00
         vertex 7.698292e+00 5.702257e+01 6.000000e+00
      endloop
   endfacet
   facet normal -0.000000e+00 0.000000e+00 1.000000e+00
      outer loop
         vertex 7.698292e+00 5.702257e+01 6.000000e+00
         vertex 3.346223e+01 5.410000e+01 6.000000e+00
         vertex 7.698292e+00 5.817743e+01 6.000000e+00
      endloop
   endfacet
   facet normal -0.000000e+00 0.000000e+00 1.000000e+00
      outer loop
         vertex 3.888564e+01 6.380000e+01 6.000000e+00
         vertex 4.000000e+01 5.410000e+01 6.000000e+00
         vertex 3.910000e+01 6.460000e+01 6.000000e+00
      endloop
   endfacet
   facet normal -0.000000e+00 0.000000e+00 1.000000e+00
      outer loop
         vertex 3.910000e+01 6.460000e+01 6.000000e+00
         vertex 4.000000e+01 5.410000e+01 6.000000e+00
         vertex 4.205662e+01 6.896977e+01 6.000000e+00
      endloop
   endfacet
   facet normal 0.000000e+00 0.000000e+00 1.000000e+00
      outer loop
         vertex 3.910000e+01 6.460000e+01 6.000000e+00
         vertex 4.205662e+01 6.896977e+01 6.000000e+00
         vertex 3.910000e+01 6.960000e+01 6.000000e+00
      endloop
   endfacet
   facet normal -0.000000e+00 0.000000e+00 1.000000e+00
      outer loop
         vertex 3.910000e+01 6.960000e+01 6.000000e+00
         vertex 4.205662e+01 6.896977e+01 6.000000e+00
         vertex 4.204621e+01 7.030140e+01 6.000000e+00
      endloop
   endfacet
   facet normal 0.000000e+00 -0.000000e+00 1.000000e+00
      outer loop
         vertex 3.910000e+01 6.960000e+01 6.000000e+00
         vertex 4.204621e+01 7.030140e+01 6.000000e+00
         vertex 3.888564e+01 7.040000e+01 6.000000e+00
      endloop
   endfacet
   facet normal -0.000000e+00 0.000000e+00 1.000000e+00
      outer loop
         vertex 3.753777e+01 5.506820e+01 6.000000e+00
         vertex 3.753777e+01 5.410000e+01 6.000000e+00
         vertex 3.828570e+01 5.592597e+01 6.000000e+00
      endloop
   endfacet
   facet normal 0.000000e+00 0.000000e+00 1.000000e+00
      outer loop
         vertex 3.828570e+01 5.592597e+01 6.000000e+00
         vertex 3.753777e+01 5.410000e+01 6.000000e+00
         vertex 4.000000e+01 5.410000e+01 6.000000e+00
      endloop
   endfacet
   facet normal 0.000000e+00 0.000000e+00 1.000000e+00
      outer loop
         vertex 3.866329e+01 7.405048e+01 6.000000e+00
         vertex 3.750000e+01 7.120000e+01 6.000000e+00
         vertex 3.830000e+01 7.098564e+01 6.000000e+00
      endloop
   endfacet
   facet normal 0.000000e+00 0.000000e+00 1.000000e+00
      outer loop
         vertex 3.230795e+01 5.698900e+01 6.000000e+00
         vertex 3.229300e+01 5.812696e+01 6.000000e+00
         vertex 2.500000e+01 6.110000e+01 6.000000e+00
      endloop
   endfacet
   facet normal 0.000000e+00 0.000000e+00 1.000000e+00
      outer loop
         vertex 4.204621e+01 7.030140e+01 6.000000e+00
         vertex 4.165480e+01 7.157425e+01 6.000000e+00
         vertex 3.888564e+01 7.040000e+01 6.000000e+00
      endloop
   endfacet
   facet normal 0.000000e+00 0.000000e+00 1.000000e+00
      outer loop
         vertex 3.888564e+01 7.040000e+01 6.000000e+00
         vertex 4.165480e+01 7.157425e+01 6.000000e+00
         vertex 4.091518e+01 7.268164e+01 6.000000e+00
      endloop
   endfacet
   facet normal 0.000000e+00 -0.000000e+00 1.000000e+00
      outer loop
         vertex 3.888564e+01 7.040000e+01 6.000000e+00
         vertex 4.091518e+01 7.268164e+01 6.000000e+00
         vertex 3.830000e+01 7.098564e+01 6.000000e+00
      endloop
   endfacet
   facet normal 0.000000e+00 0.000000e+00 1.000000e+00
      outer loop
         vertex 3.830000e+01 7.098564e+01 6.000000e+00
         vertex 4.091518e+01 7.268164e+01 6.000000e+00
         vertex 3.988936e+01 7.353077e+01 6.000000e+00
      endloop
   endfacet
   facet normal 0.000000e+00 0.000000e+00 1.000000e+00
      outer loop
         vertex 3.830000e+01 7.098564e+01 6.000000e+00
         vertex 3.988936e+01 7.353077e+01 6.000000e+00
         vertex 3.866329e+01 7.405048e+01 6.000000e+00
      endloop
   endfacet
   facet normal 0.000000e+00 0.000000e+00 1.000000e+00
      outer loop
         vertex 3.339644e+01 6.007741e+01 6.000000e+00
         vertex 3.437953e+01 6.065074e+01 6.000000e+00
         vertex 3.670000e+01 6.321436e+01 6.000000e+00
      endloop
   endfacet
   facet normal 0.000000e+00 0.000000e+00 1.000000e+00
      outer loop
         vertex 3.670000e+01 6.321436e+01 6.000000e+00
         vertex 3.437953e+01 6.065074e+01 6.000000e+00
         vertex 3.550000e+01 6.085000e+01 6.000000e+00
      endloop
   endfacet
   facet normal 0.000000e+00 0.000000e+00 1.000000e+00
      outer loop
         vertex 3.670000e+01 6.321436e+01 6.000000e+00
         vertex 3.550000e+01 6.085000e+01 6.000000e+00
         vertex 3.750000e+01 6.300000e+01 6.000000e+00
      endloop
   endfacet
   facet normal 0.000000e+00 0.000000e+00 1.000000e+00
      outer loop
         vertex 3.750000e+01 6.300000e+01 6.000000e+00
         vertex 3.550000e+01 6.085000e+01 6.000000e+00
         vertex 3.662047e+01 6.065074e+01 6.000000e+00
      endloop
   endfacet
   facet normal 0.000000e+00 0.000000e+00 1.000000e+00
      outer loop
         vertex 3.750000e+01 6.300000e+01 6.000000e+00
         vertex 3.662047e+01 6.065074e+01 6.000000e+00
         vertex 3.760356e+01 6.007741e+01 6.000000e+00
      endloop
   endfacet
   facet normal -0.000000e+00 -0.000000e+00 1.000000e+00
      outer loop
         vertex 3.760356e+01 6.007741e+01 6.000000e+00
         vertex 3.832870e+01 5.920029e+01 6.000000e+00
         vertex 3.750000e+01 6.300000e+01 6.000000e+00
      endloop
   endfacet
   facet normal 0.000000e+00 0.000000e+00 1.000000e+00
      outer loop
         vertex 3.750000e+01 6.300000e+01 6.000000e+00
         vertex 3.832870e+01 5.920029e+01 6.000000e+00
         vertex 3.870699e+01 5.812696e+01 6.000000e+00
      endloop
   endfacet
   facet normal 0.000000e+00 0.000000e+00 1.000000e+00
      outer loop
         vertex 3.750000e+01 6.300000e+01 6.000000e+00
         vertex 3.870699e+01 5.812696e+01 6.000000e+00
         vertex 4.000000e+01 5.410000e+01 6.000000e+00
      endloop
   endfacet
   facet normal 0.000000e+00 0.000000e+00 1.000000e+00
      outer loop
         vertex 4.000000e+01 5.410000e+01 6.000000e+00
         vertex 3.870699e+01 5.812696e+01 6.000000e+00
         vertex 3.869205e+01 5.698900e+01 6.000000e+00
      endloop
   endfacet
   facet normal 0.000000e+00 0.000000e+00 1.000000e+00
      outer loop
         vertex 4.000000e+01 5.410000e+01 6.000000e+00
         vertex 3.869205e+01 5.698900e+01 6.000000e+00
         vertex 3.828570e+01 5.592597e+01 6.000000e+00
      endloop
   endfacet
   facet normal 0.000000e+00 0.000000e+00 1.000000e+00
      outer loop
         vertex 3.230795e+01 5.698900e+01 6.000000e+00
         vertex 2.500000e+01 6.110000e+01 6.000000e+00
         vertex 3.271430e+01 5.592597e+01 6.000000e+00
      endloop
   endfacet
   facet normal 0.000000e+00 0.000000e+00 1.000000e+00
      outer loop
         vertex 3.670000e+01 6.321436e+01 6.000000e+00
         vertex 3.611436e+01 6.380000e+01 6.000000e+00
         vertex 3.339644e+01 6.007741e+01 6.000000e+00
      endloop
   endfacet
   facet normal 0.000000e+00 -0.000000e+00 1.000000e+00
      outer loop
         vertex 3.339644e+01 6.007741e+01 6.000000e+00
         vertex 3.611436e+01 6.380000e+01 6.000000e+00
         vertex 2.500000e+01 6.110000e+01 6.000000e+00
      endloop
   endfacet
   facet normal 0.000000e+00 0.000000e+00 1.000000e+00
      outer loop
         vertex 3.339644e+01 6.007741e+01 6.000000e+00
         vertex 2.500000e+01 6.110000e+01 6.000000e+00
         vertex 3.267130e+01 5.920029e+01 6.000000e+00
      endloop
   endfacet
   facet normal 0.000000e+00 0.000000e+00 1.000000e+00
      outer loop
         vertex 3.267130e+01 5.920029e+01 6.000000e+00
         vertex 2.500000e+01 6.110000e+01 6.000000e+00
         vertex 3.229300e+01 5.812696e+01 6.000000e+00
      endloop
   endfacet
   facet normal 0.000000e+00 0.000000e+00 1.000000e+00
      outer loop
         vertex 3.866329e+01 7.405048e+01 6.000000e+00
         vertex 3.733973e+01 7.419721e+01 6.000000e+00
         vertex 3.750000e+01 7.120000e+01 6.000000e+00
      endloop
   endfacet
   facet normal 0.000000e+00 0.000000e+00 1.000000e+00
      outer loop
         vertex 3.750000e+01 7.120000e+01 6.000000e+00
         vertex 3.733973e+01 7.419721e+01 6.000000e+00
         vertex 3.602960e+01 7.395866e+01 6.000000e+00
      endloop
   endfacet
   facet normal 0.000000e+00 0.000000e+00 1.000000e+00
      outer loop
         vertex 3.750000e+01 7.120000e+01 6.000000e+00
         vertex 3.602960e+01 7.395866e+01 6.000000e+00
         vertex 3.670000e+01 7.098564e+01 6.000000e+00
      endloop
   endfacet
   facet normal 0.000000e+00 0.000000e+00 1.000000e+00
      outer loop
         vertex 3.670000e+01 7.098564e+01 6.000000e+00
         vertex 3.602960e+01 7.395866e+01 6.000000e+00
         vertex 3.484270e+01 7.335483e+01 6.000000e+00
      endloop
   endfacet
   facet normal 0.000000e+00 0.000000e+00 1.000000e+00
      outer loop
         vertex 3.670000e+01 7.098564e+01 6.000000e+00
         vertex 3.484270e+01 7.335483e+01 6.000000e+00
         vertex 3.611436e+01 7.040000e+01 6.000000e+00
      endloop
   endfacet
   facet normal 0.000000e+00 0.000000e+00 1.000000e+00
      outer loop
         vertex 3.611436e+01 7.040000e+01 6.000000e+00
         vertex 3.484270e+01 7.335483e+01 6.000000e+00
         vertex 3.387850e+01 7.243632e+01 6.000000e+00
      endloop
   endfacet
   facet normal 0.000000e+00 0.000000e+00 1.000000e+00
      outer loop
         vertex 3.611436e+01 7.040000e+01 6.000000e+00
         vertex 3.387850e+01 7.243632e+01 6.000000e+00
         vertex 3.590000e+01 6.960000e+01 6.000000e+00
      endloop
   endfacet
   facet normal 0.000000e+00 0.000000e+00 1.000000e+00
      outer loop
         vertex 3.590000e+01 6.960000e+01 6.000000e+00
         vertex 3.387850e+01 7.243632e+01 6.000000e+00
         vertex 2.500000e+01 6.110000e+01 6.000000e+00
      endloop
   endfacet
   facet normal 0.000000e+00 0.000000e+00 1.000000e+00
      outer loop
         vertex 3.590000e+01 6.960000e+01 6.000000e+00
         vertex 2.500000e+01 6.110000e+01 6.000000e+00
         vertex 3.590000e+01 6.460000e+01 6.000000e+00
      endloop
   endfacet
   facet normal 0.000000e+00 0.000000e+00 1.000000e+00
      outer loop
         vertex 3.590000e+01 6.460000e+01 6.000000e+00
         vertex 2.500000e+01 6.110000e+01 6.000000e+00
         vertex 3.611436e+01 6.380000e+01 6.000000e+00
      endloop
   endfacet
   facet normal -0.000000e+00 0.000000e+00 1.000000e+00
      outer loop
         vertex 7.294454e+00 5.925937e+01 6.000000e+00
         vertex 7.698292e+00 5.817743e+01 6.000000e+00
         vertex 2.500000e+01 6.110000e+01 6.000000e+00
      endloop
   endfacet
   facet normal 0.000000e+00 0.000000e+00 1.000000e+00
      outer loop
         vertex 2.500000e+01 6.110000e+01 6.000000e+00
         vertex 7.698292e+00 5.817743e+01 6.000000e+00
         vertex 3.346223e+01 5.410000e+01 6.000000e+00
      endloop
   endfacet
   facet normal 0.000000e+00 0.000000e+00 1.000000e+00
      outer loop
         vertex 2.500000e+01 6.110000e+01 6.000000e+00
         vertex 3.346223e+01 5.410000e+01 6.000000e+00
         vertex 3.271430e+01 5.592597e+01 6.000000e+00
      endloop
   endfacet
   facet normal 0.000000e+00 0.000000e+00 1.000000e+00
      outer loop
         vertex 3.271430e+01 5.592597e+01 6.000000e+00
         vertex 3.346223e+01 5.410000e+01 6.000000e+00
         vertex 3.346223e+01 5.506820e+01 6.000000e+00
      endloop
   endfacet
   facet normal 9.905704e-01 -1.370049e-01 0.000000e+00
      outer loop
         vertex 4.205662e+01 6.896977e+01 6.000000e+00
         vertex 4.000000e+01 5.410000e+01 6.000000e+00
         vertex 4.205662e+01 6.896977e+01 0.000000e+00
      endloop
   endfacet
   facet normal 9.905704e-01 -1.370049e-01 0.000000e+00
      outer loop
         vertex 4.205662e+01 6.896977e+01 0.000000e+00
         vertex 4.000000e+01 5.410000e+01 6.000000e+00
         vertex 4.000000e+01 5.410000e+01 0.000000e+00
      endloop
   endfacet
   facet normal 9.999694e-01 7.820304e-03 0.000000e+00
      outer loop
         vertex 4.205662e+01 6.896977e+01 6.000000e+00
         vertex 4.205662e+01 6.896977e+01 0.000000e+00
         vertex 4.204621e+01 7.030140e+01 0.000000e+00
      endloop
   endfacet
   facet normal 9.999694e-01 7.820304e-03 0.000000e+00
      outer loop
         vertex 4.205662e+01 6.896977e+01 6.000000e+00
         vertex 4.204621e+01 7.030140e+01 0.000000e+00
         vertex 4.204621e+01 7.030140e+01 6.000000e+00
      endloop
   endfacet
   facet normal 9.558277e-01 2.939277e-01 0.000000e+00
      outer loop
         vertex 4.204621e+01 7.030140e+01 6.000000e+00
         vertex 4.204621e+01 7.030140e+01 0.000000e+00
         vertex 4.165480e+01 7.157425e+01 0.000000e+00
      endloop
   endfacet
   facet normal 9.558277e-01 2.939277e-01 0.000000e+00
      outer loop
         vertex 4.204621e+01 7.030140e+01 6.000000e+00
         vertex 4.165480e+01 7.157425e+01 0.000000e+00
         vertex 4.165480e+01 7.157425e+01 6.000000e+00
      endloop
   endfacet
   facet normal 8.315817e-01 5.554024e-01 0.000000e+00
      outer loop
         vertex 4.165480e+01 7.157425e+01 6.000000e+00
         vertex 4.165480e+01 7.157425e+01 0.000000e+00
         vertex 4.091518e+01 7.268164e+01 0.000000e+00
      endloop
   endfacet
   facet normal 8.315817e-01 5.554024e-01 0.000000e+00
      outer loop
         vertex 4.165480e+01 7.157425e+01 6.000000e+00
         vertex 4.091518e+01 7.268164e+01 0.000000e+00
         vertex 4.091518e+01 7.268164e+01 6.000000e+00
      endloop
   endfacet
   facet normal 6.376445e-01 7.703308e-01 0.000000e+00
      outer loop
         vertex 4.091518e+01 7.268164e+01 6.000000e+00
         vertex 4.091518e+01 7.268164e+01 0.000000e+00
         vertex 3.988936e+01 7.353077e+01 0.000000e+00
      endloop
   endfacet
   facet normal 6.376445e-01 7.703308e-01 0.000000e+00
      outer loop
         vertex 4.091518e+01 7.268164e+01 6.000000e+00
         vertex 3.988936e+01 7.353077e+01 0.000000e+00
         vertex 3.988936e+01 7.353077e+01 6.000000e+00
      endloop
   endfacet
   facet normal 3.902680e-01 9.207013e-01 0.000000e+00
      outer loop
         vertex 3.988936e+01 7.353077e+01 6.000000e+00
         vertex 3.988936e+01 7.353077e+01 0.000000e+00
         vertex 3.866329e+01 7.405048e+01 0.000000e+00
      endloop
   endfacet
   facet normal 3.902680e-01 9.207013e-01 0.000000e+00
      outer loop
         vertex 3.988936e+01 7.353077e+01 6.000000e+00
         vertex 3.866329e+01 7.405048e+01 0.000000e+00
         vertex 3.866329e+01 7.405048e+01 6.000000e+00
      endloop
   endfacet
   facet normal 1.101836e-01 9.939113e-01 0.000000e+00
      outer loop
         vertex 3.866329e+01 7.405048e+01 6.000000e+00
         vertex 3.866329e+01 7.405048e+01 0.000000e+00
         vertex 3.733973e+01 7.419721e+01 0.000000e+00
      endloop
   endfacet
   facet normal 1.101836e-01 9.939113e-01 0.000000e+00
      outer loop
         vertex 3.866329e+01 7.405048e+01 6.000000e+00
         vertex 3.733973e+01 7.419721e+01 0.000000e+00
         vertex 3.733973e+01 7.419721e+01 6.000000e+00
      endloop
   endfacet
   facet normal -1.791353e-01 9.838244e-01 0.000000e+00
      outer loop
         vertex 3.733973e+01 7.419721e+01 6.000000e+00
         vertex 3.733973e+01 7.419721e+01 0.000000e+00
         vertex 3.602960e+01 7.395866e+01 0.000000e+00
      endloop
   endfacet
   facet normal -1.791353e-01 9.838244e-01 0.000000e+00
      outer loop
         vertex 3.733973e+01 7.419721e+01 6.000000e+00
         vertex 3.602960e+01 7.395866e+01 0.000000e+00
         vertex 3.602960e+01 7.395866e+01 6.000000e+00
      endloop
   endfacet
   facet normal -4.534380e-01 8.912878e-01 0.000000e+00
      outer loop
         vertex 3.602960e+01 7.395866e+01 6.000000e+00
         vertex 3.602960e+01 7.395866e+01 0.000000e+00
         vertex 3.484270e+01 7.335483e+01 0.000000e+00
      endloop
   endfacet
   facet normal -4.534380e-01 8.912878e-01 0.000000e+00
      outer loop
         vertex 3.602960e+01 7.395866e+01 6.000000e+00
         vertex 3.484270e+01 7.335483e+01 0.000000e+00
         vertex 3.484270e+01 7.335483e+01 6.000000e+00
      endloop
   endfacet
   facet normal -6.897418e-01 7.240554e-01 0.000000e+00
      outer loop
         vertex 3.484270e+01 7.335483e+01 6.000000e+00
         vertex 3.484270e+01 7.335483e+01 0.000000e+00
         vertex 3.387850e+01 7.243632e+01 0.000000e+00
      endloop
   endfacet
   facet normal -6.897418e-01 7.240554e-01 0.000000e+00
      outer loop
         vertex 3.484270e+01 7.335483e+01 6.000000e+00
         vertex 3.387850e+01 7.243632e+01 0.000000e+00
         vertex 3.387850e+01 7.243632e+01 6.000000e+00
      endloop
   endfacet
   facet normal -7.872827e-01 6.165922e-01 0.000000e+00
      outer loop
         vertex 2.500000e+01 6.110000e+01 6.000000e+00
         vertex 3.387850e+01 7.243632e+01 6.000000e+00
         vertex 2.500000e+01 6.110000e+01 0.000000e+00
      endloop
   endfacet
   facet normal -7.872827e-01 6.165922e-01 0.000000e+00
      outer loop
         vertex 2.500000e+01 6.110000e+01 0.000000e+00
         vertex 3.387850e+01 7.243632e+01 6.000000e+00
         vertex 3.387850e+01 7.243632e+01 0.000000e+00
      endloop
   endfacet
   facet normal 1.000000e+00 0.000000e+00 0.000000e+00
      outer loop
         vertex 3.590000e+01 6.960000e+01 6.000000e+00
         vertex 3.590000e+01 6.460000e+01 6.000000e+00
         vertex 3.590000e+01 6.960000e+01 0.000000e+00
      endloop
   endfacet
   facet normal 1.000000e+00 0.000000e+00 0.000000e+00
      outer loop
         vertex 3.590000e+01 6.960000e+01 0.000000e+00
         vertex 3.590000e+01 6.460000e+01 6.000000e+00
         vertex 3.590000e+01 6.460000e+01 0.000000e+00
      endloop
   endfacet
   facet normal 9.659262e-01 -2.588177e-01 0.000000e+00
      outer loop
         vertex 3.590000e+01 6.960000e+01 6.000000e+00
         vertex 3.590000e+01 6.960000e+01 0.000000e+00
         vertex 3.611436e+01 7.040000e+01 6.000000e+00
      endloop
   endfacet
   facet normal 9.659262e-01 -2.588177e-01 0.000000e+00
      outer loop
         vertex 3.611436e+01 7.040000e+01 6.000000e+00
         vertex 3.590000e+01 6.960000e+01 0.000000e+00
         vertex 3.611436e+01 7.040000e+01 0.000000e+00
      endloop
   endfacet
   facet normal 7.071057e-01 -7.071079e-01 0.000000e+00
      outer loop
         vertex 3.611436e+01 7.040000e+01 6.000000e+00
         vertex 3.611436e+01 7.040000e+01 0.000000e+00
         vertex 3.670000e+01 7.098564e+01 6.000000e+00
      endloop
   endfacet
   facet normal 7.071057e-01 -7.071079e-01 0.000000e+00
      outer loop
         vertex 3.670000e+01 7.098564e+01 6.000000e+00
         vertex 3.611436e+01 7.040000e+01 0.000000e+00
         vertex 3.670000e+01 7.098564e+01 0.000000e+00
      endloop
   endfacet
   facet normal 2.588204e-01 -9.659255e-01 0.000000e+00
      outer loop
         vertex 3.670000e+01 7.098564e+01 6.000000e+00
         vertex 3.670000e+01 7.098564e+01 0.000000e+00
         vertex 3.750000e+01 7.120000e+01 6.000000e+00
      endloop
   endfacet
   facet normal 2.588204e-01 -9.659255e-01 0.000000e+00
      outer loop
         vertex 3.750000e+01 7.120000e+01 6.000000e+00
         vertex 3.670000e+01 7.098564e+01 0.000000e+00
         vertex 3.750000e+01 7.120000e+01 0.000000e+00
      endloop
   endfacet
   facet normal -2.588204e-01 -9.659255e-01 -0.000000e+00
      outer loop
         vertex 3.750000e+01 7.120000e+01 6.000000e+00
         vertex 3.750000e+01 7.120000e+01 0.000000e+00
         vertex 3.830000e+01 7.098564e+01 6.000000e+00
      endloop
   endfacet
   facet normal -2.588204e-01 -9.659255e-01 -0.000000e+00
      outer loop
         vertex 3.830000e+01 7.098564e+01 6.000000e+00
         vertex 3.750000e+01 7.120000e+01 0.000000e+00
         vertex 3.830000e+01 7.098564e+01 0.000000e+00
      endloop
   endfacet
   facet normal -7.071057e-01 -7.071079e-01 -0.000000e+00
      outer loop
         vertex 3.830000e+01 7.098564e+01 6.000000e+00
         vertex 3.830000e+01 7.098564e+01 0.000000e+00
         vertex 3.888564e+01 7.040000e+01 6.000000e+00
      endloop
   endfacet
   facet normal -7.071057e-01 -7.071079e-01 -0.000000e+00
      outer loop
         vertex 3.888564e+01 7.040000e+01 6.000000e+00
         vertex 3.830000e+01 7.098564e+01 0.000000e+00
         vertex 3.888564e+01 7.040000e+01 0.000000e+00
      endloop
   endfacet
   facet normal -9.659262e-01 -2.588177e-01 -0.000000e+00
      outer loop
         vertex 3.888564e+01 7.040000e+01 6.000000e+00
         vertex 3.888564e+01 7.040000e+01 0.000000e+00
         vertex 3.910000e+01 6.960000e+01 6.000000e+00
      endloop
   endfacet
   facet normal -9.659262e-01 -2.588177e-01 -0.000000e+00
      outer loop
         vertex 3.910000e+01 6.960000e+01 6.000000e+00
         vertex 3.888564e+01 7.040000e+01 0.000000e+00
         vertex 3.910000e+01 6.960000e+01 0.000000e+00
      endloop
   endfacet
   facet normal -1.000000e+00 0.000000e+00 0.000000e+00
      outer loop
         vertex 3.910000e+01 6.460000e+01 6.000000e+00
         vertex 3.910000e+01 6.960000e+01 6.000000e+00
         vertex 3.910000e+01 6.460000e+01 0.000000e+00
      endloop
   endfacet
   facet normal -1.000000e+00 0.000000e+00 0.000000e+00
      outer loop
         vertex 3.910000e+01 6.460000e+01 0.000000e+00
         vertex 3.910000e+01 6.960000e+01 6.000000e+00
         vertex 3.910000e+01 6.960000e+01 0.000000e+00
      endloop
   endfacet
   facet normal -9.659260e-01 2.588183e-01 0.000000e+00
      outer loop
         vertex 3.910000e+01 6.460000e+01 6.000000e+00
         vertex 3.910000e+01 6.460000e+01 0.000000e+00
         vertex 3.888564e+01 6.380000e+01 6.000000e+00
      endloop
   endfacet
   facet normal -9.659260e-01 2.588183e-01 0.000000e+00
      outer loop
         vertex 3.888564e+01 6.380000e+01 6.000000e+00
         vertex 3.910000e+01 6.460000e+01 0.000000e+00
         vertex 3.888564e+01 6.380000e+01 0.000000e+00
      endloop
   endfacet
   facet normal -7.071068e-01 7.071068e-01 0.000000e+00
      outer loop
         vertex 3.888564e+01 6.380000e+01 6.000000e+00
         vertex 3.888564e+01 6.380000e+01 0.000000e+00
         vertex 3.830000e+01 6.321436e+01 6.000000e+00
      endloop
   endfacet
   facet normal -7.071068e-01 7.071068e-01 0.000000e+00
      outer loop
         vertex 3.830000e+01 6.321436e+01 6.000000e+00
         vertex 3.888564e+01 6.380000e+01 0.000000e+00
         vertex 3.830000e+01 6.321436e+01 0.000000e+00
      endloop
   endfacet
   facet normal -2.588183e-01 9.659260e-01 0.000000e+00
      outer loop
         vertex 3.830000e+01 6.321436e+01 6.000000e+00
         vertex 3.830000e+01 6.321436e+01 0.000000e+00
         vertex 3.750000e+01 6.300000e+01 6.000000e+00
      endloop
   endfacet
   facet normal -2.588183e-01 9.659260e-01 0.000000e+00
      outer loop
         vertex 3.750000e+01 6.300000e+01 6.000000e+00
         vertex 3.830000e+01 6.321436e+01 0.000000e+00
         vertex 3.750000e+01 6.300000e+01 0.000000e+00
      endloop
   endfacet
   facet normal 2.588183e-01 9.659260e-01 0.000000e+00
      outer loop
         vertex 3.750000e+01 6.300000e+01 6.000000e+00
         vertex 3.750000e+01 6.300000e+01 0.000000e+00
         vertex 3.670000e+01 6.321436e+01 6.000000e+00
      endloop
   endfacet
   facet normal 2.588183e-01 9.659260e-01 0.000000e+00
      outer loop
         vertex 3.670000e+01 6.321436e+01 6.000000e+00
         vertex 3.750000e+01 6.300000e+01 0.000000e+00
         vertex 3.670000e+01 6.321436e+01 0.000000e+00
      endloop
   endfacet
   facet normal 7.071068e-01 7.071068e-01 0.000000e+00
      outer loop
         vertex 3.670000e+01 6.321436e+01 6.000000e+00
         vertex 3.670000e+01 6.321436e+01 0.000000e+00
         vertex 3.611436e+01 6.380000e+01 6.000000e+00
      endloop
   endfacet
   facet normal 7.071068e-01 7.071068e-01 0.000000e+00
      outer loop
         vertex 3.611436e+01 6.380000e+01 6.000000e+00
         vertex 3.670000e+01 6.321436e+01 0.000000e+00
         vertex 3.611436e+01 6.380000e+01 0.000000e+00
      endloop
   endfacet
   facet normal 9.659260e-01 2.588183e-01 0.000000e+00
      outer loop
         vertex 3.611436e+01 6.380000e+01 6.000000e+00
         vertex 3.611436e+01 6.380000e+01 0.000000e+00
         vertex 3.590000e+01 6.460000e+01 6.000000e+00
      endloop
   endfacet
   facet normal 9.659260e-01 2.588183e-01 0.000000e+00
      outer loop
         vertex 3.590000e+01 6.460000e+01 6.000000e+00
         vertex 3.611436e+01 6.380000e+01 0.000000e+00
         vertex 3.590000e+01 6.460000e+01 0.000000e+00
      endloop
   endfacet
   facet normal -1.000000e+00 0.000000e+00 0.000000e+00
      outer loop
         vertex 0.000000e+00 5.410000e+01 6.000000e+00
         vertex 0.000000e+00 6.110000e+01 6.000000e+00
         vertex 0.000000e+00 5.410000e+01 0.000000e+00
      endloop
   endfacet
   facet normal -1.000000e+00 0.000000e+00 0.000000e+00
      outer loop
         vertex 0.000000e+00 5.410000e+01 0.000000e+00
         vertex 0.000000e+00 6.110000e+01 6.000000e+00
         vertex 0.000000e+00 6.110000e+01 0.000000e+00
      endloop
   endfacet
   facet normal 0.000000e+00 0.000000e+00 -1.000000e+00
      outer loop
         vertex 0.000000e+00 5.410000e+01 0.000000e+00
         vertex 0.000000e+00 6.110000e+01 0.000000e+00
         vertex 2.899999e+00 5.760000e+01 0.000000e+00
      endloop
   endfacet
   facet normal 0.000000e+00 0.000000e+00 -1.000000e+00
      outer loop
         vertex 2.899999e+00 5.760000e+01 0.000000e+00
         vertex 0.000000e+00 6.110000e+01 0.000000e+00
         vertex 3.114359e+00 5.840000e+01 0.000000e+00
      endloop
   endfacet
   facet normal 0.000000e+00 -0.000000e+00 -1.000000e+00
      outer loop
         vertex 2.899999e+00 5.760000e+01 0.000000e+00
         vertex 3.114359e+00 5.680000e+01 0.000000e+00
         vertex 0.000000e+00 5.410000e+01 0.000000e+00
      endloop
   endfacet
   facet normal 0.000000e+00 0.000000e+00 -1.000000e+00
      outer loop
         vertex 0.000000e+00 5.410000e+01 0.000000e+00
         vertex 3.114359e+00 5.680000e+01 0.000000e+00
         vertex 3.699999e+00 5.621436e+01 0.000000e+00
      endloop
   endfacet
   facet normal 0.000000e+00 0.000000e+00 -1.000000e+00
      outer loop
         vertex 0.000000e+00 5.410000e+01 0.000000e+00
         vertex 3.699999e+00 5.621436e+01 0.000000e+00
         vertex 4.500000e+00 5.600000e+01 0.000000e+00
      endloop
   endfacet
   facet normal 0.000000e+00 0.000000e+00 -1.000000e+00
      outer loop
         vertex 5.885640e+00 5.680000e+01 0.000000e+00
         vertex 6.100000e+00 5.760000e+01 0.000000e+00
         vertex 3.390000e+01 5.760000e+01 0.000000e+00
      endloop
   endfacet
   facet normal 0.000000e+00 0.000000e+00 -1.000000e+00
      outer loop
         vertex 4.000000e+01 5.410000e+01 0.000000e+00
         vertex 0.000000e+00 5.410000e+01 0.000000e+00
         vertex 3.550000e+01 5.600000e+01 0.000000e+00
      endloop
   endfacet
   facet normal -0.000000e+00 0.000000e+00 -1.000000e+00
      outer loop
         vertex 3.550000e+01 5.600000e+01 0.000000e+00
         vertex 0.000000e+00 5.410000e+01 0.000000e+00
         vertex 3.470000e+01 5.621436e+01 0.000000e+00
      endloop
   endfacet
   facet normal -0.000000e+00 0.000000e+00 -1.000000e+00
      outer loop
         vertex 3.470000e+01 5.621436e+01 0.000000e+00
         vertex 0.000000e+00 5.410000e+01 0.000000e+00
         vertex 3.411436e+01 5.680000e+01 0.000000e+00
      endloop
   endfacet
   facet normal 0.000000e+00 0.000000e+00 -1.000000e+00
      outer loop
         vertex 3.411436e+01 5.680000e+01 0.000000e+00
         vertex 0.000000e+00 5.410000e+01 0.000000e+00
         vertex 4.500000e+00 5.600000e+01 0.000000e+00
      endloop
   endfacet
   facet normal -0.000000e+00 0.000000e+00 -1.000000e+00
      outer loop
         vertex 3.411436e+01 5.680000e+01 0.000000e+00
         vertex 4.500000e+00 5.600000e+01 0.000000e+00
         vertex 3.390000e+01 5.760000e+01 0.000000e+00
      endloop
   endfacet
   facet normal 0.000000e+00 0.000000e+00 -1.000000e+00
      outer loop
         vertex 3.390000e+01 5.760000e+01 0.000000e+00
         vertex 4.500000e+00 5.600000e+01 0.000000e+00
         vertex 5.299999e+00 5.621436e+01 0.000000e+00
      endloop
   endfacet
   facet normal 0.000000e+00 0.000000e+00 -1.000000e+00
      outer loop
         vertex 3.390000e+01 5.760000e+01 0.000000e+00
         vertex 5.299999e+00 5.621436e+01 0.000000e+00
         vertex 5.885640e+00 5.680000e+01 0.000000e+00
      endloop
   endfacet
   facet normal 0.000000e+00 0.000000e+00 -1.000000e+00
      outer loop
         vertex 3.550000e+01 5.600000e+01 0.000000e+00
         vertex 3.630000e+01 5.621436e+01 0.000000e+00
         vertex 4.000000e+01 5.410000e+01 0.000000e+00
      endloop
   endfacet
   facet normal 0.000000e+00 0.000000e+00 -1.000000e+00
      outer loop
         vertex 4.000000e+01 5.410000e+01 0.000000e+00
         vertex 3.630000e+01 5.621436e+01 0.000000e+00
         vertex 3.688564e+01 5.680000e+01 0.000000e+00
      endloop
   endfacet
   facet normal 0.000000e+00 0.000000e+00 -1.000000e+00
      outer loop
         vertex 4.000000e+01 5.410000e+01 0.000000e+00
         vertex 3.688564e+01 5.680000e+01 0.000000e+00
         vertex 3.710000e+01 5.760000e+01 0.000000e+00
      endloop
   endfacet
   facet normal 0.000000e+00 0.000000e+00 -1.000000e+00
      outer loop
         vertex 3.830000e+01 6.321436e+01 0.000000e+00
         vertex 3.688564e+01 5.840000e+01 0.000000e+00
         vertex 3.630000e+01 5.898564e+01 0.000000e+00
      endloop
   endfacet
   facet normal -0.000000e+00 0.000000e+00 -1.000000e+00
      outer loop
         vertex 3.670000e+01 7.098564e+01 0.000000e+00
         vertex 3.611436e+01 7.040000e+01 0.000000e+00
         vertex 3.387850e+01 7.243632e+01 0.000000e+00
      endloop
   endfacet
   facet normal 0.000000e+00 0.000000e+00 -1.000000e+00
      outer loop
         vertex 3.830000e+01 6.321436e+01 0.000000e+00
         vertex 3.630000e+01 5.898564e+01 0.000000e+00
         vertex 3.750000e+01 6.300000e+01 0.000000e+00
      endloop
   endfacet
   facet normal 0.000000e+00 -0.000000e+00 -1.000000e+00
      outer loop
         vertex 3.590000e+01 6.460000e+01 0.000000e+00
         vertex 3.611436e+01 6.380000e+01 0.000000e+00
         vertex 2.500000e+01 6.110000e+01 0.000000e+00
      endloop
   endfacet
   facet normal 0.000000e+00 0.000000e+00 -1.000000e+00
      outer loop
         vertex 2.500000e+01 6.110000e+01 0.000000e+00
         vertex 3.611436e+01 6.380000e+01 0.000000e+00
         vertex 3.670000e+01 6.321436e+01 0.000000e+00
      endloop
   endfacet
   facet normal 0.000000e+00 0.000000e+00 -1.000000e+00
      outer loop
         vertex 5.885640e+00 5.840000e+01 0.000000e+00
         vertex 5.299999e+00 5.898564e+01 0.000000e+00
         vertex 2.500000e+01 6.110000e+01 0.000000e+00
      endloop
   endfacet
   facet normal 0.000000e+00 0.000000e+00 -1.000000e+00
      outer loop
         vertex 2.500000e+01 6.110000e+01 0.000000e+00
         vertex 5.299999e+00 5.898564e+01 0.000000e+00
         vertex 4.500000e+00 5.920000e+01 0.000000e+00
      endloop
   endfacet
   facet normal -0.000000e+00 0.000000e+00 -1.000000e+00
      outer loop
         vertex 2.500000e+01 6.110000e+01 0.000000e+00
         vertex 4.500000e+00 5.920000e+01 0.000000e+00
         vertex 0.000000e+00 6.110000e+01 0.000000e+00
      endloop
   endfacet
   facet normal 0.000000e+00 0.000000e+00 -1.000000e+00
      outer loop
         vertex 0.000000e+00 6.110000e+01 0.000000e+00
         vertex 4.500000e+00 5.920000e+01 0.000000e+00
         vertex 3.699999e+00 5.898564e+01 0.000000e+00
      endloop
   endfacet
   facet normal 0.000000e+00 0.000000e+00 -1.000000e+00
      outer loop
         vertex 0.000000e+00 6.110000e+01 0.000000e+00
         vertex 3.699999e+00 5.898564e+01 0.000000e+00
         vertex 3.114359e+00 5.840000e+01 0.000000e+00
      endloop
   endfacet
   facet normal 0.000000e+00 -0.000000e+00 -1.000000e+00
      outer loop
         vertex 3.387850e+01 7.243632e+01 0.000000e+00
         vertex 3.611436e+01 7.040000e+01 0.000000e+00
         vertex 2.500000e+01 6.110000e+01 0.000000e+00
      endloop
   endfacet
   facet normal 0.000000e+00 0.000000e+00 -1.000000e+00
      outer loop
         vertex 2.500000e+01 6.110000e+01 0.000000e+00
         vertex 3.611436e+01 7.040000e+01 0.000000e+00
         vertex 3.590000e+01 6.960000e+01 0.000000e+00
      endloop
   endfacet
   facet normal 0.000000e+00 0.000000e+00 -1.000000e+00
      outer loop
         vertex 2.500000e+01 6.110000e+01 0.000000e+00
         vertex 3.590000e+01 6.960000e+01 0.000000e+00
         vertex 3.590000e+01 6.460000e+01 0.000000e+00
      endloop
   endfacet
   facet normal 0.000000e+00 0.000000e+00 -1.000000e+00
      outer loop
         vertex 3.830000e+01 7.098564e+01 0.000000e+00
         vertex 3.750000e+01 7.120000e+01 0.000000e+00
         vertex 3.866329e+01 7.405048e+01 0.000000e+00
      endloop
   endfacet
   facet normal 0.000000e+00 0.000000e+00 -1.000000e+00
      outer loop
         vertex 3.387850e+01 7.243632e+01 0.000000e+00
         vertex 3.484270e+01 7.335483e+01 0.000000e+00
         vertex 3.670000e+01 7.098564e+01 0.000000e+00
      endloop
   endfacet
   facet normal 0.000000e+00 0.000000e+00 -1.000000e+00
      outer loop
         vertex 3.670000e+01 7.098564e+01 0.000000e+00
         vertex 3.484270e+01 7.335483e+01 0.000000e+00
         vertex 3.602960e+01 7.395866e+01 0.000000e+00
      endloop
   endfacet
   facet normal 0.000000e+00 0.000000e+00 -1.000000e+00
      outer loop
         vertex 3.670000e+01 7.098564e+01 0.000000e+00
         vertex 3.602960e+01 7.395866e+01 0.000000e+00
         vertex 3.750000e+01 7.120000e+01 0.000000e+00
      endloop
   endfacet
   facet normal 0.000000e+00 0.000000e+00 -1.000000e+00
      outer loop
         vertex 3.750000e+01 7.120000e+01 0.000000e+00
         vertex 3.602960e+01 7.395866e+01 0.000000e+00
         vertex 3.733973e+01 7.419721e+01 0.000000e+00
      endloop
   endfacet
   facet normal 0.000000e+00 0.000000e+00 -1.000000e+00
      outer loop
         vertex 3.750000e+01 7.120000e+01 0.000000e+00
         vertex 3.733973e+01 7.419721e+01 0.000000e+00
         vertex 3.866329e+01 7.405048e+01 0.000000e+00
      endloop
   endfacet
   facet normal 0.000000e+00 0.000000e+00 -1.000000e+00
      outer loop
         vertex 6.100000e+00 5.760000e+01 0.000000e+00
         vertex 5.885640e+00 5.840000e+01 0.000000e+00
         vertex 3.390000e+01 5.760000e+01 0.000000e+00
      endloop
   endfacet
   facet normal 0.000000e+00 0.000000e+00 -1.000000e+00
      outer loop
         vertex 3.390000e+01 5.760000e+01 0.000000e+00
         vertex 5.885640e+00 5.840000e+01 0.000000e+00
         vertex 2.500000e+01 6.110000e+01 0.000000e+00
      endloop
   endfacet
   facet normal 0.000000e+00 0.000000e+00 -1.000000e+00
      outer loop
         vertex 3.390000e+01 5.760000e+01 0.000000e+00
         vertex 2.500000e+01 6.110000e+01 0.000000e+00
         vertex 3.411436e+01 5.840000e+01 0.000000e+00
      endloop
   endfacet
   facet normal 0.000000e+00 0.000000e+00 -1.000000e+00
      outer loop
         vertex 3.411436e+01 5.840000e+01 0.000000e+00
         vertex 2.500000e+01 6.110000e+01 0.000000e+00
         vertex 3.670000e+01 6.321436e+01 0.000000e+00
      endloop
   endfacet
   facet normal 0.000000e+00 0.000000e+00 -1.000000e+00
      outer loop
         vertex 3.411436e+01 5.840000e+01 0.000000e+00
         vertex 3.670000e+01 6.321436e+01 0.000000e+00
         vertex 3.470000e+01 5.898564e+01 0.000000e+00
      endloop
   endfacet
   facet normal -0.000000e+00 0.000000e+00 -1.000000e+00
      outer loop
         vertex 3.750000e+01 6.300000e+01 0.000000e+00
         vertex 3.630000e+01 5.898564e+01 0.000000e+00
         vertex 3.670000e+01 6.321436e+01 0.000000e+00
      endloop
   endfacet
   facet normal 0.000000e+00 0.000000e+00 -1.000000e+00
      outer loop
         vertex 3.670000e+01 6.321436e+01 0.000000e+00
         vertex 3.630000e+01 5.898564e+01 0.000000e+00
         vertex 3.550000e+01 5.920000e+01 0.000000e+00
      endloop
   endfacet
   facet normal 0.000000e+00 0.000000e+00 -1.000000e+00
      outer loop
         vertex 3.670000e+01 6.321436e+01 0.000000e+00
         vertex 3.550000e+01 5.920000e+01 0.000000e+00
         vertex 3.470000e+01 5.898564e+01 0.000000e+00
      endloop
   endfacet
   facet normal 0.000000e+00 -0.000000e+00 -1.000000e+00
      outer loop
         vertex 3.866329e+01 7.405048e+01 0.000000e+00
         vertex 3.988936e+01 7.353077e+01 0.000000e+00
         vertex 3.830000e+01 7.098564e+01 0.000000e+00
      endloop
   endfacet
   facet normal 0.000000e+00 0.000000e+00 -1.000000e+00
      outer loop
         vertex 3.830000e+01 7.098564e+01 0.000000e+00
         vertex 3.988936e+01 7.353077e+01 0.000000e+00
         vertex 4.091518e+01 7.268164e+01 0.000000e+00
      endloop
   endfacet
   facet normal 0.000000e+00 0.000000e+00 -1.000000e+00
      outer loop
         vertex 3.830000e+01 7.098564e+01 0.000000e+00
         vertex 4.091518e+01 7.268164e+01 0.000000e+00
         vertex 3.888564e+01 7.040000e+01 0.000000e+00
      endloop
   endfacet
   facet normal 0.000000e+00 0.000000e+00 -1.000000e+00
      outer loop
         vertex 3.888564e+01 7.040000e+01 0.000000e+00
         vertex 4.091518e+01 7.268164e+01 0.000000e+00
         vertex 4.165480e+01 7.157425e+01 0.000000e+00
      endloop
   endfacet
   facet normal 0.000000e+00 0.000000e+00 -1.000000e+00
      outer loop
         vertex 3.888564e+01 7.040000e+01 0.000000e+00
         vertex 4.165480e+01 7.157425e+01 0.000000e+00
         vertex 3.910000e+01 6.960000e+01 0.000000e+00
      endloop
   endfacet
   facet normal 0.000000e+00 0.000000e+00 -1.000000e+00
      outer loop
         vertex 3.910000e+01 6.960000e+01 0.000000e+00
         vertex 4.165480e+01 7.157425e+01 0.000000e+00
         vertex 4.204621e+01 7.030140e+01 0.000000e+00
      endloop
   endfacet
   facet normal 0.000000e+00 0.000000e+00 -1.000000e+00
      outer loop
         vertex 3.910000e+01 6.960000e+01 0.000000e+00
         vertex 4.204621e+01 7.030140e+01 0.000000e+00
         vertex 3.910000e+01 6.460000e+01 0.000000e+00
      endloop
   endfacet
   facet normal 0.000000e+00 0.000000e+00 -1.000000e+00
      outer loop
         vertex 3.910000e+01 6.460000e+01 0.000000e+00
         vertex 4.204621e+01 7.030140e+01 0.000000e+00
         vertex 4.205662e+01 6.896977e+01 0.000000e+00
      endloop
   endfacet
   facet normal 0.000000e+00 -0.000000e+00 -1.000000e+00
      outer loop
         vertex 3.910000e+01 6.460000e+01 0.000000e+00
         vertex 4.205662e+01 6.896977e+01 0.000000e+00
         vertex 3.888564e+01 6.380000e+01 0.000000e+00
      endloop
   endfacet
   facet normal 0.000000e+00 0.000000e+00 -1.000000e+00
      outer loop
         vertex 3.888564e+01 6.380000e+01 0.000000e+00
         vertex 4.205662e+01 6.896977e+01 0.000000e+00
         vertex 4.000000e+01 5.410000e+01 0.000000e+00
      endloop
   endfacet
   facet normal 0.000000e+00 -0.000000e+00 -1.000000e+00
      outer loop
         vertex 3.888564e+01 6.380000e+01 0.000000e+00
         vertex 4.000000e+01 5.410000e+01 0.000000e+00
         vertex 3.830000e+01 6.321436e+01 0.000000e+00
      endloop
   endfacet
   facet normal 0.000000e+00 -0.000000e+00 -1.000000e+00
      outer loop
         vertex 3.830000e+01 6.321436e+01 0.000000e+00
         vertex 4.000000e+01 5.410000e+01 0.000000e+00
         vertex 3.710000e+01 5.760000e+01 0.000000e+00
      endloop
   endfacet
   facet normal 0.000000e+00 0.000000e+00 -1.000000e+00
      outer loop
         vertex 3.830000e+01 6.321436e+01 0.000000e+00
         vertex 3.710000e+01 5.760000e+01 0.000000e+00
         vertex 3.688564e+01 5.840000e+01 0.000000e+00
      endloop
   endfacet
   facet normal -7.537146e-01 6.572019e-01 0.000000e+00
      outer loop
         vertex 3.753777e+01 5.506820e+01 3.500000e+00
         vertex 3.753777e+01 5.506820e+01 6.000000e+00
         vertex 3.828570e+01 5.592597e+01 3.500000e+00
      endloop
   endfacet
   facet normal -7.537146e-01 6.572019e-01 0.000000e+00
      outer loop
         vertex 3.828570e+01 5.592597e+01 3.500000e+00
         vertex 3.753777e+01 5.506820e+01 6.000000e+00
         vertex 3.828570e+01 5.592597e+01 6.000000e+00
      endloop
   endfacet
   facet normal -9.340821e-01 3.570583e-01 0.000000e+00
      outer loop
         vertex 3.828570e+01 5.592597e+01 3.500000e+00
         vertex 3.828570e+01 5.592597e+01 6.000000e+00
         vertex 3.869205e+01 5.698900e+01 3.500000e+00
      endloop
   endfacet
   facet normal -9.340821e-01 3.570583e-01 0.000000e+00
      outer loop
         vertex 3.869205e+01 5.698900e+01 3.500000e+00
         vertex 3.828570e+01 5.592597e+01 6.000000e+00
         vertex 3.869205e+01 5.698900e+01 6.000000e+00
      endloop
   endfacet
   facet normal -9.999138e-01 1.313120e-02 0.000000e+00
      outer loop
         vertex 3.869205e+01 5.698900e+01 3.500000e+00
         vertex 3.869205e+01 5.698900e+01 6.000000e+00
         vertex 3.870699e+01 5.812696e+01 3.500000e+00
      endloop
   endfacet
   facet normal -9.999138e-01 1.313120e-02 0.000000e+00
      outer loop
         vertex 3.870699e+01 5.812696e+01 3.500000e+00
         vertex 3.869205e+01 5.698900e+01 6.000000e+00
         vertex 3.870699e+01 5.812696e+01 6.000000e+00
      endloop
   endfacet
   facet normal -9.431373e-01 -3.324035e-01 0.000000e+00
      outer loop
         vertex 3.870699e+01 5.812696e+01 3.500000e+00
         vertex 3.870699e+01 5.812696e+01 6.000000e+00
         vertex 3.832870e+01 5.920029e+01 3.500000e+00
      endloop
   endfacet
   facet normal -9.431373e-01 -3.324035e-01 0.000000e+00
      outer loop
         vertex 3.832870e+01 5.920029e+01 3.500000e+00
         vertex 3.870699e+01 5.812696e+01 6.000000e+00
         vertex 3.832870e+01 5.920029e+01 6.000000e+00
      endloop
   endfacet
   facet normal -7.707141e-01 -6.371812e-01 0.000000e+00
      outer loop
         vertex 3.832870e+01 5.920029e+01 3.500000e+00
         vertex 3.832870e+01 5.920029e+01 6.000000e+00
         vertex 3.760356e+01 6.007741e+01 3.500000e+00
      endloop
   endfacet
   facet normal -7.707141e-01 -6.371812e-01 0.000000e+00
      outer loop
         vertex 3.760356e+01 6.007741e+01 3.500000e+00
         vertex 3.832870e+01 5.920029e+01 6.000000e+00
         vertex 3.760356e+01 6.007741e+01 6.000000e+00
      endloop
   endfacet
   facet normal -5.037851e-01 -8.638290e-01 0.000000e+00
      outer loop
         vertex 3.760356e+01 6.007741e+01 3.500000e+00
         vertex 3.760356e+01 6.007741e+01 6.000000e+00
         vertex 3.662047e+01 6.065074e+01 3.500000e+00
      endloop
   endfacet
   facet normal -5.037851e-01 -8.638290e-01 0.000000e+00
      outer loop
         vertex 3.662047e+01 6.065074e+01 3.500000e+00
         vertex 3.760356e+01 6.007741e+01 6.000000e+00
         vertex 3.662047e+01 6.065074e+01 6.000000e+00
      endloop
   endfacet
   facet normal -1.750853e-01 -9.845533e-01 0.000000e+00
      outer loop
         vertex 3.662047e+01 6.065074e+01 3.500000e+00
         vertex 3.662047e+01 6.065074e+01 6.000000e+00
         vertex 3.550000e+01 6.085000e+01 3.500000e+00
      endloop
   endfacet
   facet normal -1.750853e-01 -9.845533e-01 0.000000e+00
      outer loop
         vertex 3.550000e+01 6.085000e+01 3.500000e+00
         vertex 3.662047e+01 6.065074e+01 6.000000e+00
         vertex 3.550000e+01 6.085000e+01 6.000000e+00
      endloop
   endfacet
   facet normal 1.750855e-01 -9.845532e-01 0.000000e+00
      outer loop
         vertex 3.550000e+01 6.085000e+01 3.500000e+00
         vertex 3.550000e+01 6.085000e+01 6.000000e+00
         vertex 3.437953e+01 6.065074e+01 3.500000e+00
      endloop
   endfacet
   facet normal 1.750855e-01 -9.845532e-01 0.000000e+00
      outer loop
         vertex 3.437953e+01 6.065074e+01 3.500000e+00
         vertex 3.550000e+01 6.085000e+01 6.000000e+00
         vertex 3.437953e+01 6.065074e+01 6.000000e+00
      endloop
   endfacet
   facet normal 5.037851e-01 -8.638290e-01 0.000000e+00
      outer loop
         vertex 3.437953e+01 6.065074e+01 3.500000e+00
         vertex 3.437953e+01 6.065074e+01 6.000000e+00
         vertex 3.339644e+01 6.007741e+01 3.500000e+00
      endloop
   endfacet
   facet normal 5.037851e-01 -8.638290e-01 0.000000e+00
      outer loop
         vertex 3.339644e+01 6.007741e+01 3.500000e+00
         vertex 3.437953e+01 6.065074e+01 6.000000e+00
         vertex 3.339644e+01 6.007741e+01 6.000000e+00
      endloop
   endfacet
   facet normal 7.707141e-01 -6.371812e-01 0.000000e+00
      outer loop
         vertex 3.339644e+01 6.007741e+01 3.500000e+00
         vertex 3.339644e+01 6.007741e+01 6.000000e+00
         vertex 3.267130e+01 5.920029e+01 3.500000e+00
      endloop
   endfacet
   facet normal 7.707141e-01 -6.371812e-01 0.000000e+00
      outer loop
         vertex 3.267130e+01 5.920029e+01 3.500000e+00
         vertex 3.339644e+01 6.007741e+01 6.000000e+00
         vertex 3.267130e+01 5.920029e+01 6.000000e+00
      endloop
   endfacet
   facet normal 9.431370e-01 -3.324042e-01 0.000000e+00
      outer loop
         vertex 3.267130e+01 5.920029e+01 3.500000e+00
         vertex 3.267130e+01 5.920029e+01 6.000000e+00
         vertex 3.229300e+01 5.812696e+01 3.500000e+00
      endloop
   endfacet
   facet normal 9.431370e-01 -3.324042e-01 0.000000e+00
      outer loop
         vertex 3.229300e+01 5.812696e+01 3.500000e+00
         vertex 3.267130e+01 5.920029e+01 6.000000e+00
         vertex 3.229300e+01 5.812696e+01 6.000000e+00
      endloop
   endfacet
   facet normal 9.999138e-01 1.313202e-02 -0.000000e+00
      outer loop
         vertex 3.229300e+01 5.812696e+01 3.500000e+00
         vertex 3.229300e+01 5.812696e+01 6.000000e+00
         vertex 3.230795e+01 5.698900e+01 3.500000e+00
      endloop
   endfacet
   facet normal 9.999138e-01 1.313202e-02 -0.000000e+00
      outer loop
         vertex 3.230795e+01 5.698900e+01 3.500000e+00
         vertex 3.229300e+01 5.812696e+01 6.000000e+00
         vertex 3.230795e+01 5.698900e+01 6.000000e+00
      endloop
   endfacet
   facet normal 9.340821e-01 3.570583e-01 -0.000000e+00
      outer loop
         vertex 3.230795e+01 5.698900e+01 3.500000e+00
         vertex 3.230795e+01 5.698900e+01 6.000000e+00
         vertex 3.271430e+01 5.592597e+01 3.500000e+00
      endloop
   endfacet
   facet normal 9.340821e-01 3.570583e-01 -0.000000e+00
      outer loop
         vertex 3.271430e+01 5.592597e+01 3.500000e+00
         vertex 3.230795e+01 5.698900e+01 6.000000e+00
         vertex 3.271430e+01 5.592597e+01 6.000000e+00
      endloop
   endfacet
   facet normal 7.537146e-01 6.572019e-01 -0.000000e+00
      outer loop
         vertex 3.271430e+01 5.592597e+01 3.500000e+00
         vertex 3.271430e+01 5.592597e+01 6.000000e+00
         vertex 3.346223e+01 5.506820e+01 3.500000e+00
      endloop
   endfacet
   facet normal 7.537146e-01 6.572019e-01 -0.000000e+00
      outer loop
         vertex 3.346223e+01 5.506820e+01 3.500000e+00
         vertex 3.271430e+01 5.592597e+01 6.000000e+00
         vertex 3.346223e+01 5.506820e+01 6.000000e+00
      endloop
   endfacet
   facet normal -1.000000e+00 0.000000e+00 0.000000e+00
      outer loop
         vertex 3.753777e+01 5.506820e+01 3.500000e+00
         vertex 3.753777e+01 5.410000e+01 3.500000e+00
         vertex 3.753777e+01 5.506820e+01 6.000000e+00
      endloop
   endfacet
   facet normal -1.000000e+00 -0.000000e+00 0.000000e+00
      outer loop
         vertex 3.753777e+01 5.506820e+01 6.000000e+00
         vertex 3.753777e+01 5.410000e+01 3.500000e+00
         vertex 3.753777e+01 5.410000e+01 6.000000e+00
      endloop
   endfacet
   facet normal 1.000000e+00 0.000000e+00 0.000000e+00
      outer loop
         vertex 3.346223e+01 5.410000e+01 3.500000e+00
         vertex 3.346223e+01 5.506820e+01 3.500000e+00
         vertex 3.346223e+01 5.410000e+01 6.000000e+00
      endloop
   endfacet
   facet normal 1.000000e+00 -0.000000e+00 0.000000e+00
      outer loop
         vertex 3.346223e+01 5.410000e+01 6.000000e+00
         vertex 3.346223e+01 5.506820e+01 3.500000e+00
         vertex 3.346223e+01 5.506820e+01 6.000000e+00
      endloop
   endfacet
   facet normal 0.000000e+00 0.000000e+00 1.000000e+00
      outer loop
         vertex 3.346223e+01 5.410000e+01 3.500000e+00
         vertex 3.753777e+01 5.410000e+01 3.500000e+00
         vertex 3.346223e+01 5.506820e+01 3.500000e+00
      endloop
   endfacet
   facet normal -0.000000e+00 0.000000e+00 1.000000e+00
      outer loop
         vertex 3.346223e+01 5.506820e+01 3.500000e+00
         vertex 3.753777e+01 5.410000e+01 3.500000e+00
         vertex 3.753777e+01 5.506820e+01 3.500000e+00
      endloop
   endfacet
   facet normal 0.000000e+00 -0.000000e+00 1.000000e+00
      outer loop
         vertex 3.346223e+01 5.506820e+01 3.500000e+00
         vertex 3.753777e+01 5.506820e+01 3.500000e+00
         vertex 3.271430e+01 5.592597e+01 3.500000e+00
      endloop
   endfacet
   facet normal -0.000000e+00 -0.000000e+00 1.000000e+00
      outer loop
         vertex 3.271430e+01 5.592597e+01 3.500000e+00
         vertex 3.753777e+01 5.506820e+01 3.500000e+00
         vertex 3.230795e+01 5.698900e+01 3.500000e+00
      endloop
   endfacet
   facet normal 0.000000e+00 0.000000e+00 1.000000e+00
      outer loop
         vertex 3.688564e+01 5.680000e+01 3.500000e+00
         vertex 3.630000e+01 5.621436e+01 3.500000e+00
         vertex 3.753777e+01 5.506820e+01 3.500000e+00
      endloop
   endfacet
   facet normal 0.000000e+00 -0.000000e+00 1.000000e+00
      outer loop
         vertex 3.688564e+01 5.840000e+01 3.500000e+00
         vertex 3.760356e+01 6.007741e+01 3.500000e+00
         vertex 3.630000e+01 5.898564e+01 3.500000e+00
      endloop
   endfacet
   facet normal 0.000000e+00 0.000000e+00 1.000000e+00
      outer loop
         vertex 3.630000e+01 5.898564e+01 3.500000e+00
         vertex 3.760356e+01 6.007741e+01 3.500000e+00
         vertex 3.662047e+01 6.065074e+01 3.500000e+00
      endloop
   endfacet
   facet normal 0.000000e+00 -0.000000e+00 1.000000e+00
      outer loop
         vertex 3.630000e+01 5.898564e+01 3.500000e+00
         vertex 3.662047e+01 6.065074e+01 3.500000e+00
         vertex 3.550000e+01 5.920000e+01 3.500000e+00
      endloop
   endfacet
   facet normal 0.000000e+00 0.000000e+00 1.000000e+00
      outer loop
         vertex 3.550000e+01 5.920000e+01 3.500000e+00
         vertex 3.662047e+01 6.065074e+01 3.500000e+00
         vertex 3.550000e+01 6.085000e+01 3.500000e+00
      endloop
   endfacet
   facet normal 0.000000e+00 -0.000000e+00 1.000000e+00
      outer loop
         vertex 3.550000e+01 5.920000e+01 3.500000e+00
         vertex 3.550000e+01 6.085000e+01 3.500000e+00
         vertex 3.470000e+01 5.898564e+01 3.500000e+00
      endloop
   endfacet
   facet normal 0.000000e+00 -0.000000e+00 1.000000e+00
      outer loop
         vertex 3.753777e+01 5.506820e+01 3.500000e+00
         vertex 3.828570e+01 5.592597e+01 3.500000e+00
         vertex 3.688564e+01 5.680000e+01 3.500000e+00
      endloop
   endfacet
   facet normal -0.000000e+00 0.000000e+00 1.000000e+00
      outer loop
         vertex 3.688564e+01 5.680000e+01 3.500000e+00
         vertex 3.828570e+01 5.592597e+01 3.500000e+00
         vertex 3.869205e+01 5.698900e+01 3.500000e+00
      endloop
   endfacet
   facet normal 0.000000e+00 0.000000e+00 1.000000e+00
      outer loop
         vertex 3.688564e+01 5.680000e+01 3.500000e+00
         vertex 3.869205e+01 5.698900e+01 3.500000e+00
         vertex 3.710000e+01 5.760000e+01 3.500000e+00
      endloop
   endfacet
   facet normal -0.000000e+00 0.000000e+00 1.000000e+00
      outer loop
         vertex 3.710000e+01 5.760000e+01 3.500000e+00
         vertex 3.869205e+01 5.698900e+01 3.500000e+00
         vertex 3.870699e+01 5.812696e+01 3.500000e+00
      endloop
   endfacet
   facet normal 0.000000e+00 -0.000000e+00 1.000000e+00
      outer loop
         vertex 3.710000e+01 5.760000e+01 3.500000e+00
         vertex 3.870699e+01 5.812696e+01 3.500000e+00
         vertex 3.688564e+01 5.840000e+01 3.500000e+00
      endloop
   endfacet
   facet normal -0.000000e+00 0.000000e+00 1.000000e+00
      outer loop
         vertex 3.688564e+01 5.840000e+01 3.500000e+00
         vertex 3.870699e+01 5.812696e+01 3.500000e+00
         vertex 3.832870e+01 5.920029e+01 3.500000e+00
      endloop
   endfacet
   facet normal 0.000000e+00 0.000000e+00 1.000000e+00
      outer loop
         vertex 3.688564e+01 5.840000e+01 3.500000e+00
         vertex 3.832870e+01 5.920029e+01 3.500000e+00
         vertex 3.760356e+01 6.007741e+01 3.500000e+00
      endloop
   endfacet
   facet normal 0.000000e+00 0.000000e+00 1.000000e+00
      outer loop
         vertex 3.630000e+01 5.621436e+01 3.500000e+00
         vertex 3.550000e+01 5.600000e+01 3.500000e+00
         vertex 3.753777e+01 5.506820e+01 3.500000e+00
      endloop
   endfacet
   facet normal 0.000000e+00 0.000000e+00 1.000000e+00
      outer loop
         vertex 3.753777e+01 5.506820e+01 3.500000e+00
         vertex 3.550000e+01 5.600000e+01 3.500000e+00
         vertex 3.470000e+01 5.621436e+01 3.500000e+00
      endloop
   endfacet
   facet normal 0.000000e+00 0.000000e+00 1.000000e+00
      outer loop
         vertex 3.753777e+01 5.506820e+01 3.500000e+00
         vertex 3.470000e+01 5.621436e+01 3.500000e+00
         vertex 3.230795e+01 5.698900e+01 3.500000e+00
      endloop
   endfacet
   facet normal 0.000000e+00 0.000000e+00 1.000000e+00
      outer loop
         vertex 3.230795e+01 5.698900e+01 3.500000e+00
         vertex 3.470000e+01 5.621436e+01 3.500000e+00
         vertex 3.411436e+01 5.680000e+01 3.500000e+00
      endloop
   endfacet
   facet normal -0.000000e+00 -0.000000e+00 1.000000e+00
      outer loop
         vertex 3.230795e+01 5.698900e+01 3.500000e+00
         vertex 3.411436e+01 5.680000e+01 3.500000e+00
         vertex 3.229300e+01 5.812696e+01 3.500000e+00
      endloop
   endfacet
   facet normal 0.000000e+00 0.000000e+00 1.000000e+00
      outer loop
         vertex 3.229300e+01 5.812696e+01 3.500000e+00
         vertex 3.411436e+01 5.680000e+01 3.500000e+00
         vertex 3.390000e+01 5.760000e+01 3.500000e+00
      endloop
   endfacet
   facet normal -0.000000e+00 0.000000e+00 1.000000e+00
      outer loop
         vertex 3.229300e+01 5.812696e+01 3.500000e+00
         vertex 3.390000e+01 5.760000e+01 3.500000e+00
         vertex 3.267130e+01 5.920029e+01 3.500000e+00
      endloop
   endfacet
   facet normal 0.000000e+00 0.000000e+00 1.000000e+00
      outer loop
         vertex 3.267130e+01 5.920029e+01 3.500000e+00
         vertex 3.390000e+01 5.760000e+01 3.500000e+00
         vertex 3.411436e+01 5.840000e+01 3.500000e+00
      endloop
   endfacet
   facet normal -0.000000e+00 0.000000e+00 1.000000e+00
      outer loop
         vertex 3.267130e+01 5.920029e+01 3.500000e+00
         vertex 3.411436e+01 5.840000e+01 3.500000e+00
         vertex 3.339644e+01 6.007741e+01 3.500000e+00
      endloop
   endfacet
   facet normal 0.000000e+00 0.000000e+00 1.000000e+00
      outer loop
         vertex 3.339644e+01 6.007741e+01 3.500000e+00
         vertex 3.411436e+01 5.840000e+01 3.500000e+00
         vertex 3.470000e+01 5.898564e+01 3.500000e+00
      endloop
   endfacet
   facet normal -0.000000e+00 0.000000e+00 1.000000e+00
      outer loop
         vertex 3.339644e+01 6.007741e+01 3.500000e+00
         vertex 3.470000e+01 5.898564e+01 3.500000e+00
         vertex 3.437953e+01 6.065074e+01 3.500000e+00
      endloop
   endfacet
   facet normal -0.000000e+00 0.000000e+00 1.000000e+00
      outer loop
         vertex 3.437953e+01 6.065074e+01 3.500000e+00
         vertex 3.470000e+01 5.898564e+01 3.500000e+00
         vertex 3.550000e+01 6.085000e+01 3.500000e+00
      endloop
   endfacet
   facet normal -7.554377e-01 6.552205e-01 0.000000e+00
      outer loop
         vertex 6.537768e+00 5.506820e+01 3.500000e+00
         vertex 6.537768e+00 5.506820e+01 6.000000e+00
         vertex 7.294454e+00 5.594062e+01 3.500000e+00
      endloop
   endfacet
   facet normal -7.554377e-01 6.552205e-01 0.000000e+00
      outer loop
         vertex 7.294454e+00 5.594062e+01 3.500000e+00
         vertex 6.537768e+00 5.506820e+01 6.000000e+00
         vertex 7.294454e+00 5.594062e+01 6.000000e+00
      endloop
   endfacet
   facet normal -9.368667e-01 3.496867e-01 0.000000e+00
      outer loop
         vertex 7.294454e+00 5.594062e+01 3.500000e+00
         vertex 7.294454e+00 5.594062e+01 6.000000e+00
         vertex 7.698292e+00 5.702257e+01 3.500000e+00
      endloop
   endfacet
   facet normal -9.368667e-01 3.496867e-01 0.000000e+00
      outer loop
         vertex 7.698292e+00 5.702257e+01 3.500000e+00
         vertex 7.294454e+00 5.594062e+01 6.000000e+00
         vertex 7.698292e+00 5.702257e+01 6.000000e+00
      endloop
   endfacet
   facet normal -1.000000e+00 0.000000e+00 0.000000e+00
      outer loop
         vertex 7.698292e+00 5.702257e+01 3.500000e+00
         vertex 7.698292e+00 5.702257e+01 6.000000e+00
         vertex 7.698292e+00 5.817743e+01 3.500000e+00
      endloop
   endfacet
   facet normal -1.000000e+00 0.000000e+00 0.000000e+00
      outer loop
         vertex 7.698292e+00 5.817743e+01 3.500000e+00
         vertex 7.698292e+00 5.702257e+01 6.000000e+00
         vertex 7.698292e+00 5.817743e+01 6.000000e+00
      endloop
   endfacet
   facet normal -9.368667e-01 -3.496867e-01 0.000000e+00
      outer loop
         vertex 7.698292e+00 5.817743e+01 3.500000e+00
         vertex 7.698292e+00 5.817743e+01 6.000000e+00
         vertex 7.294454e+00 5.925937e+01 3.500000e+00
      endloop
   endfacet
   facet normal -9.368667e-01 -3.496867e-01 0.000000e+00
      outer loop
         vertex 7.294454e+00 5.925937e+01 3.500000e+00
         vertex 7.698292e+00 5.817743e+01 6.000000e+00
         vertex 7.294454e+00 5.925937e+01 6.000000e+00
      endloop
   endfacet
   facet normal -7.554377e-01 -6.552205e-01 0.000000e+00
      outer loop
         vertex 7.294454e+00 5.925937e+01 3.500000e+00
         vertex 7.294454e+00 5.925937e+01 6.000000e+00
         vertex 6.537768e+00 6.013180e+01 3.500000e+00
      endloop
   endfacet
   facet normal -7.554377e-01 -6.552205e-01 0.000000e+00
      outer loop
         vertex 6.537768e+00 6.013180e+01 3.500000e+00
         vertex 7.294454e+00 5.925937e+01 6.000000e+00
         vertex 6.537768e+00 6.013180e+01 6.000000e+00
      endloop
   endfacet
   facet normal -1.000000e+00 0.000000e+00 0.000000e+00
      outer loop
         vertex 6.537768e+00 5.506820e+01 3.500000e+00
         vertex 6.537768e+00 5.410000e+01 3.500000e+00
         vertex 6.537768e+00 5.506820e+01 6.000000e+00
      endloop
   endfacet
   facet normal -1.000000e+00 -0.000000e+00 0.000000e+00
      outer loop
         vertex 6.537768e+00 5.506820e+01 6.000000e+00
         vertex 6.537768e+00 5.410000e+01 3.500000e+00
         vertex 6.537768e+00 5.410000e+01 6.000000e+00
      endloop
   endfacet
   facet normal 1.000000e+00 0.000000e+00 0.000000e+00
      outer loop
         vertex 2.462231e+00 5.410000e+01 3.500000e+00
         vertex 2.462231e+00 5.506820e+01 3.500000e+00
         vertex 2.462231e+00 5.410000e+01 6.000000e+00
      endloop
   endfacet
   facet normal 1.000000e+00 -0.000000e+00 0.000000e+00
      outer loop
         vertex 2.462231e+00 5.410000e+01 6.000000e+00
         vertex 2.462231e+00 5.506820e+01 3.500000e+00
         vertex 2.462231e+00 5.506820e+01 6.000000e+00
      endloop
   endfacet
   facet normal 7.554381e-01 -6.552201e-01 0.000000e+00
      outer loop
         vertex 2.462231e+00 6.013180e+01 3.500000e+00
         vertex 2.462231e+00 6.013180e+01 6.000000e+00
         vertex 1.705546e+00 5.925937e+01 3.500000e+00
      endloop
   endfacet
   facet normal 7.554381e-01 -6.552201e-01 0.000000e+00
      outer loop
         vertex 1.705546e+00 5.925937e+01 3.500000e+00
         vertex 2.462231e+00 6.013180e+01 6.000000e+00
         vertex 1.705546e+00 5.925937e+01 6.000000e+00
      endloop
   endfacet
   facet normal 9.368667e-01 -3.496867e-01 0.000000e+00
      outer loop
         vertex 1.705546e+00 5.925937e+01 3.500000e+00
         vertex 1.705546e+00 5.925937e+01 6.000000e+00
         vertex 1.301708e+00 5.817743e+01 3.500000e+00
      endloop
   endfacet
   facet normal 9.368667e-01 -3.496867e-01 0.000000e+00
      outer loop
         vertex 1.301708e+00 5.817743e+01 3.500000e+00
         vertex 1.705546e+00 5.925937e+01 6.000000e+00
         vertex 1.301708e+00 5.817743e+01 6.000000e+00
      endloop
   endfacet
   facet normal 1.000000e+00 0.000000e+00 -0.000000e+00
      outer loop
         vertex 1.301708e+00 5.817743e+01 3.500000e+00
         vertex 1.301708e+00 5.817743e+01 6.000000e+00
         vertex 1.301708e+00 5.702257e+01 3.500000e+00
      endloop
   endfacet
   facet normal 1.000000e+00 0.000000e+00 0.000000e+00
      outer loop
         vertex 1.301708e+00 5.702257e+01 3.500000e+00
         vertex 1.301708e+00 5.817743e+01 6.000000e+00
         vertex 1.301708e+00 5.702257e+01 6.000000e+00
      endloop
   endfacet
   facet normal 9.368667e-01 3.496867e-01 -0.000000e+00
      outer loop
         vertex 1.301708e+00 5.702257e+01 3.500000e+00
         vertex 1.301708e+00 5.702257e+01 6.000000e+00
         vertex 1.705546e+00 5.594062e+01 3.500000e+00
      endloop
   endfacet
   facet normal 9.368667e-01 3.496867e-01 -0.000000e+00
      outer loop
         vertex 1.705546e+00 5.594062e+01 3.500000e+00
         vertex 1.301708e+00 5.702257e+01 6.000000e+00
         vertex 1.705546e+00 5.594062e+01 6.000000e+00
      endloop
   endfacet
   facet normal 7.554381e-01 6.552201e-01 -0.000000e+00
      outer loop
         vertex 1.705546e+00 5.594062e+01 3.500000e+00
         vertex 1.705546e+00 5.594062e+01 6.000000e+00
         vertex 2.462231e+00 5.506820e+01 3.500000e+00
      endloop
   endfacet
   facet normal 7.554381e-01 6.552201e-01 -0.000000e+00
      outer loop
         vertex 2.462231e+00 5.506820e+01 3.500000e+00
         vertex 1.705546e+00 5.594062e+01 6.000000e+00
         vertex 2.462231e+00 5.506820e+01 6.000000e+00
      endloop
   endfacet
   facet normal 1.000000e+00 0.000000e+00 0.000000e+00
      outer loop
         vertex 2.462231e+00 6.013180e+01 3.500000e+00
         vertex 2.462231e+00 6.110000e+01 3.500000e+00
         vertex 2.462231e+00 6.013180e+01 6.000000e+00
      endloop
   endfacet
   facet normal 1.000000e+00 -0.000000e+00 0.000000e+00
      outer loop
         vertex 2.462231e+00 6.013180e+01 6.000000e+00
         vertex 2.462231e+00 6.110000e+01 3.500000e+00
         vertex 2.462231e+00 6.110000e+01 6.000000e+00
      endloop
   endfacet
   facet normal -1.000000e+00 0.000000e+00 0.000000e+00
      outer loop
         vertex 6.537768e+00 6.110000e+01 3.500000e+00
         vertex 6.537768e+00 6.013180e+01 3.500000e+00
         vertex 6.537768e+00 6.110000e+01 6.000000e+00
      endloop
   endfacet
   facet normal -1.000000e+00 -0.000000e+00 0.000000e+00
      outer loop
         vertex 6.537768e+00 6.110000e+01 6.000000e+00
         vertex 6.537768e+00 6.013180e+01 3.500000e+00
         vertex 6.537768e+00 6.013180e+01 6.000000e+00
      endloop
   endfacet
   facet normal 0.000000e+00 0.000000e+00 1.000000e+00
      outer loop
         vertex 2.462231e+00 6.013180e+01 3.500000e+00
         vertex 1.705546e+00 5.925937e+01 3.500000e+00
         vertex 1.301708e+00 5.817743e+01 3.500000e+00
      endloop
   endfacet
   facet normal 0.000000e+00 -0.000000e+00 1.000000e+00
      outer loop
         vertex 6.537768e+00 6.013180e+01 3.500000e+00
         vertex 6.537768e+00 6.110000e+01 3.500000e+00
         vertex 2.462231e+00 6.110000e+01 3.500000e+00
      endloop
   endfacet
   facet normal 0.000000e+00 0.000000e+00 1.000000e+00
      outer loop
         vertex 2.462231e+00 5.410000e+01 3.500000e+00
         vertex 6.537768e+00 5.410000e+01 3.500000e+00
         vertex 2.462231e+00 5.506820e+01 3.500000e+00
      endloop
   endfacet
   facet normal -0.000000e+00 0.000000e+00 1.000000e+00
      outer loop
         vertex 2.462231e+00 5.506820e+01 3.500000e+00
         vertex 6.537768e+00 5.410000e+01 3.500000e+00
         vertex 6.537768e+00 5.506820e+01 3.500000e+00
      endloop
   endfacet
   facet normal -0.000000e+00 0.000000e+00 1.000000e+00
      outer loop
         vertex 5.299999e+00 5.621436e+01 3.500000e+00
         vertex 2.462231e+00 5.506820e+01 3.500000e+00
         vertex 7.698292e+00 5.702257e+01 3.500000e+00
      endloop
   endfacet
   facet normal 0.000000e+00 0.000000e+00 1.000000e+00
      outer loop
         vertex 7.698292e+00 5.702257e+01 3.500000e+00
         vertex 2.462231e+00 5.506820e+01 3.500000e+00
         vertex 6.537768e+00 5.506820e+01 3.500000e+00
      endloop
   endfacet
   facet normal 0.000000e+00 0.000000e+00 1.000000e+00
      outer loop
         vertex 7.698292e+00 5.702257e+01 3.500000e+00
         vertex 6.537768e+00 5.506820e+01 3.500000e+00
         vertex 7.294454e+00 5.594062e+01 3.500000e+00
      endloop
   endfacet
   facet normal 0.000000e+00 0.000000e+00 1.000000e+00
      outer loop
         vertex 3.114359e+00 5.840000e+01 3.500000e+00
         vertex 1.301708e+00 5.817743e+01 3.500000e+00
         vertex 2.899999e+00 5.760000e+01 3.500000e+00
      endloop
   endfacet
   facet normal 0.000000e+00 0.000000e+00 1.000000e+00
      outer loop
         vertex 2.899999e+00 5.760000e+01 3.500000e+00
         vertex 1.301708e+00 5.817743e+01 3.500000e+00
         vertex 1.301708e+00 5.702257e+01 3.500000e+00
      endloop
   endfacet
   facet normal 0.000000e+00 0.000000e+00 1.000000e+00
      outer loop
         vertex 2.899999e+00 5.760000e+01 3.500000e+00
         vertex 1.301708e+00 5.702257e+01 3.500000e+00
         vertex 3.114359e+00 5.680000e+01 3.500000e+00
      endloop
   endfacet
   facet normal 0.000000e+00 0.000000e+00 1.000000e+00
      outer loop
         vertex 3.114359e+00 5.680000e+01 3.500000e+00
         vertex 1.301708e+00 5.702257e+01 3.500000e+00
         vertex 1.705546e+00 5.594062e+01 3.500000e+00
      endloop
   endfacet
   facet normal 0.000000e+00 0.000000e+00 1.000000e+00
      outer loop
         vertex 3.114359e+00 5.680000e+01 3.500000e+00
         vertex 1.705546e+00 5.594062e+01 3.500000e+00
         vertex 3.699999e+00 5.621436e+01 3.500000e+00
      endloop
   endfacet
   facet normal 0.000000e+00 0.000000e+00 1.000000e+00
      outer loop
         vertex 3.699999e+00 5.621436e+01 3.500000e+00
         vertex 1.705546e+00 5.594062e+01 3.500000e+00
         vertex 2.462231e+00 5.506820e+01 3.500000e+00
      endloop
   endfacet
   facet normal 0.000000e+00 0.000000e+00 1.000000e+00
      outer loop
         vertex 3.699999e+00 5.621436e+01 3.500000e+00
         vertex 2.462231e+00 5.506820e+01 3.500000e+00
         vertex 4.500000e+00 5.600000e+01 3.500000e+00
      endloop
   endfacet
   facet normal -0.000000e+00 0.000000e+00 1.000000e+00
      outer loop
         vertex 4.500000e+00 5.600000e+01 3.500000e+00
         vertex 2.462231e+00 5.506820e+01 3.500000e+00
         vertex 5.299999e+00 5.621436e+01 3.500000e+00
      endloop
   endfacet
   facet normal 0.000000e+00 -0.000000e+00 1.000000e+00
      outer loop
         vertex 3.114359e+00 5.840000e+01 3.500000e+00
         vertex 3.699999e+00 5.898564e+01 3.500000e+00
         vertex 1.301708e+00 5.817743e+01 3.500000e+00
      endloop
   endfacet
   facet normal 0.000000e+00 0.000000e+00 1.000000e+00
      outer loop
         vertex 1.301708e+00 5.817743e+01 3.500000e+00
         vertex 3.699999e+00 5.898564e+01 3.500000e+00
         vertex 6.537768e+00 6.013180e+01 3.500000e+00
      endloop
   endfacet
   facet normal 0.000000e+00 0.000000e+00 1.000000e+00
      outer loop
         vertex 1.301708e+00 5.817743e+01 3.500000e+00
         vertex 6.537768e+00 6.013180e+01 3.500000e+00
         vertex 2.462231e+00 6.013180e+01 3.500000e+00
      endloop
   endfacet
   facet normal 0.000000e+00 0.000000e+00 1.000000e+00
      outer loop
         vertex 2.462231e+00 6.013180e+01 3.500000e+00
         vertex 6.537768e+00 6.013180e+01 3.500000e+00
         vertex 2.462231e+00 6.110000e+01 3.500000e+00
      endloop
   endfacet
   facet normal 0.000000e+00 0.000000e+00 1.000000e+00
      outer loop
         vertex 3.699999e+00 5.898564e+01 3.500000e+00
         vertex 4.500000e+00 5.920000e+01 3.500000e+00
         vertex 6.537768e+00 6.013180e+01 3.500000e+00
      endloop
   endfacet
   facet normal 0.000000e+00 0.000000e+00 1.000000e+00
      outer loop
         vertex 6.537768e+00 6.013180e+01 3.500000e+00
         vertex 4.500000e+00 5.920000e+01 3.500000e+00
         vertex 5.299999e+00 5.898564e+01 3.500000e+00
      endloop
   endfacet
   facet normal 0.000000e+00 0.000000e+00 1.000000e+00
      outer loop
         vertex 6.537768e+00 6.013180e+01 3.500000e+00
         vertex 5.299999e+00 5.898564e+01 3.500000e+00
         vertex 7.294454e+00 5.925937e+01 3.500000e+00
      endloop
   endfacet
   facet normal 0.000000e+00 0.000000e+00 1.000000e+00
      outer loop
         vertex 7.294454e+00 5.925937e+01 3.500000e+00
         vertex 5.299999e+00 5.898564e+01 3.500000e+00
         vertex 5.885640e+00 5.840000e+01 3.500000e+00
      endloop
   endfacet
   facet normal 0.000000e+00 0.000000e+00 1.000000e+00
      outer loop
         vertex 7.294454e+00 5.925937e+01 3.500000e+00
         vertex 5.885640e+00 5.840000e+01 3.500000e+00
         vertex 7.698292e+00 5.817743e+01 3.500000e+00
      endloop
   endfacet
   facet normal 0.000000e+00 0.000000e+00 1.000000e+00
      outer loop
         vertex 7.698292e+00 5.817743e+01 3.500000e+00
         vertex 5.885640e+00 5.840000e+01 3.500000e+00
         vertex 6.100000e+00 5.760000e+01 3.500000e+00
      endloop
   endfacet
   facet normal 0.000000e+00 0.000000e+00 1.000000e+00
      outer loop
         vertex 7.698292e+00 5.817743e+01 3.500000e+00
         vertex 6.100000e+00 5.760000e+01 3.500000e+00
         vertex 7.698292e+00 5.702257e+01 3.500000e+00
      endloop
   endfacet
   facet normal 0.000000e+00 0.000000e+00 1.000000e+00
      outer loop
         vertex 7.698292e+00 5.702257e+01 3.500000e+00
         vertex 6.100000e+00 5.760000e+01 3.500000e+00
         vertex 5.885640e+00 5.680000e+01 3.500000e+00
      endloop
   endfacet
   facet normal 0.000000e+00 0.000000e+00 1.000000e+00
      outer loop
         vertex 7.698292e+00 5.702257e+01 3.500000e+00
         vertex 5.885640e+00 5.680000e+01 3.500000e+00
         vertex 5.299999e+00 5.621436e+01 3.500000e+00
      endloop
   endfacet
endsolid