0
SECTION
2
HEADER
9
$INSUNITS
70
4
0
ENDSEC
0
SECTION
2
ENTITIES
0
CIRCLE
8
0
10
40.10704565915763
20
40.10704565915763
40
37
0
ARC
8
0
10
79.81135125663734
20
39.37670518629347
40
0.15
50
0
51
82.5685920288323
0
ARC
8
0
10
79.91962633107318
20
40.521488107058595
40
1
50
-114.37698324006256
51
-95.09884377611891
0
ARC
8
0
10
79.75509131831527
20
40.10704565915763
40
0.555
50
180
51
-116.56505117707799
0
ARC
8
0
10
79.75509131831527
20
40.10704565915763
40
0.555
50
116.56505117707799
51
180
0
ARC
8
0
10
79.91962633107318
20
39.69260321125666
40
1
50
95.09884377611891
51
114.37698324006256
0
ARC
8
0
10
79.81135125663732
20
40.837386132021784
40
0.15
50
-82.5685920288269
51
0
0
ARC
8
0
10
40.11499457724437
20
40.10724389279796
40
39.85304565915763
50
1.049766930211657
51
1.8073759269332694
0
ARC
8
0
10
79.79840014453544
20
41.3567093340876
40
0.15
50
2.857142857142798
51
85.42573488597006
0
ARC
8
0
10
79.84947790594897
20
42.50546626647521
40
1
50
-111.51984038292034
51
-92.24170091897692
0
ARC
8
0
10
79.70580567404517
20
42.083337609754096
40
0.555
50
-177.1428571428572
51
-113.70790831993504
0
ARC
8
0
10
79.70580567404517
20
42.083337609754096
40
0.555
50
119.42219403422126
51
-177.1428571428572
0
ARC
8
0
10
79.89079440769098
20
41.67761173989919
40
1
50
97.95598663326061
51
117.23412609720494
0
ARC
8
0
10
79.72559120912791
20
42.815574538326345
40
0.15
50
-79.71144917168246
51
2.857142857145509
0
ARC
8
0
10
40.11497481498151
20
40.1076398672412
40
39.85304565915763
50
3.906909787352793
51
4.664518784074421
0
ARC
8
0
10
79.68677007132756
20
43.33360662108615
40
0.15
50
5.714285714289341
51
88.28287774311386
0
ARC
8
0
10
79.68052353235596
20
44.48348157436172
40
1
50
-108.66269752577739
51
-89.38455806183366
0
ARC
8
0
10
79.55807127311209
20
44.054716187172566
40
0.555
50
-174.28571428571456
51
-110.85076546279208
0
ARC
8
0
10
79.55807127311209
20
44.054716187172566
40
0.555
50
122.27933689136292
51
-174.28571428571456
0
ARC
8
0
10
79.76305381650677
20
43.65871559380326
40
1
50
100.81312949040569
51
120.09126895434903
0
ARC
8
0
10
79.54133321499785
20
44.78702911507567
40
0.15
50
-76.85430631454254
51
5.71428571428394
0
ARC
8
0
10
40.114935339588044
20
40.10803436438764
40
39.85304565915763
50
6.764052644496633
51
7.521661641218257
0
ARC
8
0
10
79.47673856696433
20
45.30248216914946
40
0.15
50
8.57142857142785
51
91.14002060025511
0
ARC
8
0
10
79.41318325748769
20
46.45061637300236
40
1
50
-105.80555466863366
51
-86.52741520468928
0
ARC
8
0
10
79.31225540651408
20
46.01628023365491
40
0.555
50
-171.42857142857184
51
-107.99362260564904
0
ARC
8
0
10
79.31225540651408
20
46.01628023365492
40
0.555
50
125.13647974850599
51
-171.42857142857113
0
ARC
8
0
10
79.53672214075722
20
45.630989436640995
40
1
50
103.6702723475478
51
122.94841181149098
0
ARC
8
0
10
79.2590353686526
20
46.746848515565276
40
0.15
50
-73.99716345739631
51
8.571428571430534
0
ARC
8
0
10
40.11487624920576
20
40.1084264034583
40
39.85304565915763
50
9.621195501638732
51
10.378804498360358
0
ARC
8
0
10
79.16882780285862
20
47.25844104344474
40
0.15
50
11.428571428571862
51
93.99716345739773
0
ARC
8
0
10
79.04812173139025
20
48.40198005534171
40
1
50
-102.94841181149177
51
-83.67027234754818
0
ARC
8
0
10
78.96896921122682
20
47.96315299191333
40
0.555
50
-168.5714285714285
51
-105.13647974850629
0
ARC
8
0
10
78.96896921122682
20
47.96315299191334
40
0.555
50
127.99362260565002
51
-168.5714285714278
0
ARC
8
0
10
79.21236207664961
20
47.58952988488343
40
1
50
106.52741520468904
51
125.80555466863298
0
ARC
8
0
10
78.87939950701771
20
48.69016031997223
40
0.15
50
-71.14002060025693
51
11.428571428571862
0
ARC
8
0
10
40.11479769074296
20
40.108815009780294
40
39.85304565915763
50
12.478338358781988
51
13.235947355503606
0
ARC
8
0
10
78.7638032936851
20
49.19662042202542
40
0.15
50
14.285714285715867
51
96.85430631453967
0
ARC
8
0
10
78.58624655453735
20
50.3327212238044
40
1
50
-100.09126895434865
51
-80.81312949040452
0
ARC
8
0
10
78.52906615082067
20
49.890494229517316
40
0.555
50
-165.71428571428476
51
-102.2793368913621
0
ARC
8
0
10
78.52906615082068
20
49.89049422951731
40
0.555
50
130.85076546279183
51
-165.71428571428584
0
ARC
8
0
10
78.79078003441022
20
49.52946769838437
40
1
50
109.38455806183231
51
128.66269752577603
0
ARC
8
0
10
78.4033694646614
20
50.612133148958335
40
0.15
50
-68.28287774311512
51
14.285714285713238
0
ARC
8
0
10
40.114699859508434
20
40.10919921721715
40
39.85304565915763
50
15.335481215926277
51
16.09309021264791
0
ARC
8
0
10
78.26267199419009
20
51.11220168557263
40
0.15
50
17.14285714285371
51
99.7114491716839
0
ARC
8
0
10
78.0287060213927
20
52.2380397516339
40
1
50
-97.23412609720533
51
-77.95598663326088
0
ARC
8
0
10
77.9936398936159
20
51.79351227247413
40
0.555
50
-162.85714285714258
51
-99.42219403422233
0
ARC
8
0
10
77.9936398936159
20
51.793512272474146
40
0.555
50
133.70790831993688
51
-162.85714285714116
0
ARC
8
0
10
78.27302413342137
20
51.44597988607869
40
1
50
112.24170091897658
51
131.51984038292025
0
ARC
8
0
10
77.83212872727324
20
52.507988675240576
40
0.15
50
-65.42573488596886
51
17.142857142856304
0
ARC
8
0
10
40.11458299872535
20
40.10957807057098
40
39.85304565915763
50
18.192624073068153
51
18.950233069789782
0
ARC
8
0
10
77.66667979574346
20
53.00042239724205
40
0.15
50
20.00000000000167
51
102.56859202882758
0
ARC
8
0
10
77.37688626556901
20
54.113198716763925
40
1
50
-94.37698324006212
51
-75.0988437761191
0
ARC
8
0
10
77.36402159365082
20
53.66747591808539
40
0.555
50
-159.99999999999946
51
-96.56505117707705
0
ARC
8
0
10
77.36402159365082
20
53.66747591808538
40
0.555
50
136.56505117707832
51
-160.00000000000014
0
ARC
8
0
10
77.66038159643165
20
53.33430169669792
40
1
50
115.09884377611635
51
134.37698324006087
0
ARC
8
0
10
77.1670974893324
20
54.37301350326552
40
0.15
50
-62.56859202882625
51
20.00000000000167
0
ARC
8
0
10
40.114447398929
20
40.109950627949644
40
39.85304565915763
50
21.049766930212126
51
21.807375926933755
0
ARC
8
0
10
76.97730842885638
20
54.85658814283237
40
0.15
50
22.85714285714205
51
105.42573488596882
0
ARC
8
0
10
76.63240781368134
20
55.95353617855308
40
1
50
-91.5198403829182
51
-72.24170091897487
0
ARC
8
0
10
76.64177658122316
20
55.50772619746232
40
0.555
50
-157.1428571428574
51
-93.70790831993504
0
ARC
8
0
10
76.64177658122316
20
55.50772619746232
40
0.555
50
139.42219403422095
51
-157.1428571428574
0
ARC
8
0
10
76.95437554931736
20
55.18973846469291
40
1
50
117.95598663326177
51
137.2341260972055
0
ARC
8
0
10
76.40992912328008
20
56.20257088745338
40
0.15
50
-59.711449171686205
51
22.85714285714205
0
ARC
8
0
10
40.11429339724063
20
40.11031596311995
40
39.85304565915763
50
23.906909787353356
51
24.664518784074968
0
ARC
8
0
10
76.19627177936577
20
56.67608420183858
40
0.15
50
25.714285714283797
51
108.28287774310945
0
ARC
8
0
10
75.79712155646278
20
57.75447676810381
40
1
50
-88.66269752577512
51
-69.3845580618316
0
ARC
8
0
10
75.8287004712323
20
57.30968795845661
40
0.555
50
-154.28571428571496
51
-90.85076546279018
0
ARC
8
0
10
75.82870047123231
20
57.3096879584566
40
0.555
50
142.2793368913632
51
-154.28571428571627
0
ARC
8
0
10
76.15676123435142
20
57.007677281911725
40
1
50
120.81312949040408
51
140.09126895434852
0
ARC
8
0
10
75.56250606897541
20
57.99211225987805
40
0.15
50
-56.85430631453817
51
25.714285714286245
0
ARC
8
0
10
40.11412137653432
20
40.110673167797316
40
39.85304565915763
50
26.764052644497756
51
27.521661641219385
0
ARC
8
0
10
75.32551162744407
20
58.45438702037425
40
0.15
50
28.57142857143154
51
111.1400206002535
0
ARC
8
0
10
74.87310414715824
20
59.51154306335043
40
1
50
-85.80555466863399
51
-66.52741520468976
0
ARC
8
0
10
74.9268146989977
20
59.06888124020945
40
0.555
50
-151.42857142857147
51
-87.99362260564983
0
ARC
8
0
10
74.9268146989977
20
59.06888124020945
40
0.555
50
145.13647974850647
51
-151.42857142857147
0
ARC
8
0
10
75.26952164639465
20
58.783598466016436
40
1
50
123.67027234754758
51
142.94841181149152
0
ARC
8
0
10
74.62693515365316
20
59.73718853872368
40
0.15
50
-53.99716345739806
51
28.57142857143154
0
ARC
8
0
10
40.11393176447881
20
40.111021353918474
40
39.85304565915763
50
29.621195501639196
51
30.37880449836082
0
ARC
8
0
10
74.36719282002781
20
60.1870754574393
40
0.15
50
31.428571428571306
51
113.99716345739832
0
ARC
8
0
10
73.86265283863743
20
61.220366720635795
40
1
50
-82.94841181149111
51
-63.67027234754764
0
ARC
8
0
10
73.93836149465221
20
60.78093241104011
40
0.555
50
-148.57142857142819
51
-85.1364797485064
0
ARC
8
0
10
73.93836149465221
20
60.780932411040105
40
0.555
50
147.99362260564868
51
-148.5714285714288
0
ARC
8
0
10
74.29486260285812
20
60.51308679712538
40
1
50
126.52741520469105
51
145.80555466863458
0
ARC
8
0
10
73.60554235401942
20
61.4334611894031
40
0.15
50
-51.14002060025834
51
31.428571428571306
0
ARC
8
0
10
40.11372503248063
20
40.111359655835656
40
39.85304565915763
50
32.47833835878122
51
33.23594735550285
0
ARC
8
0
10
73.32369788866701
20
61.86984177657305
40
0.15
50
34.28571428571586
51
116.85430631454518
0
ARC
8
0
10
72.76827977206219
20
62.87669933510195
40
1
50
-80.0912689543476
51
-60.813129490403696
0
ARC
8
0
10
72.86579830860462
20
62.441585041983444
40
0.555
50
-145.71428571428518
51
-82.27933689136216
0
ARC
8
0
10
72.86579830860462
20
62.441585041983444
40
0.555
50
150.85076546279126
51
-145.71428571428518
0
ARC
8
0
10
73.2352072596934
20
62.191842494745494
40
1
50
129.38455806183222
51
148.6626975257756
0
ARC
8
0
10
72.5008670135069
20
63.076713010838326
40
0.15
50
-48.282877743114284
51
34.28571428571586
0
ARC
8
0
10
40.11350169450922
20
40.111687232475454
40
39.85304565915763
50
35.33548121592656
51
36.0930902126482
0
ARC
8
0
10
72.1976211261763
20
63.49850235556582
40
0.15
50
37.14285714285944
51
119.71144917168617
0
ARC
8
0
10
71.59270573130783
20
64.47642300289398
40
1
50
-77.23412609720467
51
-57.95598663326153
0
ARC
8
0
10
71.71179170193086
20
64.04671048894289
40
0.555
50
-142.85714285714374
51
-79.42219403422051
0
ARC
8
0
10
71.71179170193086
20
64.04671048894289
40
0.555
50
153.70790831993483
51
-142.85714285714374
0
ARC
8
0
10
72.09319008704522
20
63.815691907704164
40
1
50
132.24170091897523
51
151.51984038291883
0
ARC
8
0
10
71.31565552906717
20
64.66285862008698
40
0.15
50
-45.42573488597468
51
37.14285714285944
0
ARC
8
0
10
40.11326230581506
20
40.11200326943502
40
39.85304565915763
50
38.19262407306775
51
38.950233069789384
0
ARC
8
0
10
70.99176213681437
20
65.06900808760302
40
0.15
50
39.999999999997605
51
122.56859202882997
0
ARC
8
0
10
70.33885337866563
20
66.0155605589179
40
1
50
-74.3769832400612
51
-55.098843776117455
0
ARC
8
0
10
70.47921071688286
20
65.59231815715034
40
0.555
50
-139.99999999999923
51
-76.56505117707923
0
ARC
8
0
10
70.47921071688285
20
65.59231815715034
40
0.555
50
156.56505117707903
51
-139.99999999999827
0
ARC
8
0
10
70.87165031954343
20
65.38059789050354
40
1
50
135.09884377611652
51
154.37698324006027
0
ARC
8
0
10
70.052854523195
20
66.18795460924795
40
0.15
50
-42.56859202882746
51
40.00000000000176
0
ARC
8
0
10
40.113007461559036
20
40.11230698099271
40
39.85304565915763
50
41.04976693021185
51
41.80737592693345
0
ARC
8
0
10
69.70911887602648
20
66.57745444798246
40
0.15
50
42.85714285714354
51
125.42573488596767
0
ARC
8
0
10
69.009839988644
20
67.49028546469955
40
1
50
-71.51984038292014
51
-52.241700918976946
0
ARC
8
0
10
69.17111974399756
20
67.07456542241329
40
0.555
50
-137.1428571428573
51
-73.70790831993655
0
ARC
8
0
10
69.17111974399755
20
67.07456542241329
40
0.555
50
159.42219403422132
51
-137.14285714285631
0
ARC
8
0
10
69.57362489751857
20
66.8826698403005
40
1
50
137.9559866332633
51
157.2341260972072
0
ARC
8
0
10
68.71560351816065
20
67.64820934939478
40
0.15
50
-39.711449171686475
51
42.85714285713956
0
ARC
8
0
10
40.11273779532136
20
40.11259761207704
40
39.85304565915763
50
43.906909787352625
51
44.66451878407423
0
ARC
8
0
10
68.35288019705503
20
68.02009120137826
40
0.15
50
45.714285714284266
51
128.28287774311465
0
ARC
8
0
10
67.60896969793266
20
68.89693132176234
40
1
50
-68.66269752577583
51
-49.38455806183258
0
ARC
8
0
10
67.7907709035392
20
68.48976718448425
40
0.555
50
-134.28571428571524
51
-70.850765462792
0
ARC
8
0
10
67.7907709035392
20
68.48976718448425
40
0.555
50
162.279336891364
51
-134.28571428571524
0
ARC
8
0
10
68.20234091668938
20
68.31817336955797
40
1
50
140.81312949040375
51
160.0912689543473
0
ARC
8
0
10
67.3072271306628
20
69.03999241716255
40
0.15
50
-36.854306314541645
51
45.714285714284266
0
ARC
8
0
10
40.11245397753668
20
40.1128744401311
40
39.85304565915763
50
46.76405264449432
51
47.521661641215964
0
ARC
8
0
10
66.92641792294778
20
69.39333172551649
40
0.15
50
48.571428571427845
51
131.14002060025564
0
ARC
8
0
10
66.13972529079852
20
70.23200098687147
40
1
50
-65.80555466863373
51
-46.52741520468967
0
ARC
8
0
10
66.34159596021588
20
69.83440502880049
40
0.555
50
-131.4285714285721
51
-67.99362260564976
0
ARC
8
0
10
66.34159596021588
20
69.83440502880049
40
0.555
50
165.13647974850718
51
-131.4285714285721
0
ARC
8
0
10
66.7612076050947
20
69.68353959032139
40
1
50
143.67027234754724
51
162.94841181149187
0
ARC
8
0
10
65.83122680630755
20
70.35984362055251
40
0.15
50
-33.99716345739838
51
48.571428571427845
0
ARC
8
0
10
40.1121567138227
20
40.11313677691522
40
39.85304565915763
50
49.62119550164053
51
50.37880449836213
0
ARC
8
0
10
65.43327846367465
20
70.69376192808339
40
0.15
50
51.428571428569555
51
133.99716345740129
0
ARC
8
0
10
64.60575954033501
20
71.492175266483
40
1
50
-62.94841181149111
51
-43.6702723475469
0
ARC
8
0
10
64.82719779127186
20
71.10513597381696
40
0.555
50
-128.5714285714292
51
-65.13647974850636
0
ARC
8
0
10
64.82719779127186
20
71.10513597381696
40
0.555
50
167.9936226056476
51
-128.5714285714292
0
ARC
8
0
10
65.2538078472152
20
70.97537398703574
40
1
50
146.5274152046887
51
165.80555466863245
0
ARC
8
0
10
64.29127211446308
20
71.60448160151435
40
0.15
50
-31.14002060025394
51
51.42857142857293
0
ARC
8
0
10
40.11184674322006
20
40.1133839702222
40
39.85304565915763
50
52.47833835878385
51
53.23594735550548
0
ARC
8
0
10
63.87717399919366
20
71.91814873469679
40
0.15
50
54.28571428571348
51
136.85430631454173
0
ARC
8
0
10
63.01088612709273
20
72.67432116878207
40
1
50
-60.09126895434879
51
-40.813129490404904
0
ARC
8
0
10
63.25134142916694
20
72.29880078218528
40
0.555
50
-125.71428571428675
51
-62.279336891364046
0
ARC
8
0
10
63.251341429166935
20
72.2988007821853
40
0.555
50
170.8507654627935
51
-125.7142857142853
0
ARC
8
0
10
63.68388927635815
20
72.19046485584668
40
1
50
149.3845580618331
51
168.6626975257767
0
ARC
8
0
10
62.69119162513186
20
72.77081199391961
40
0.15
50
-28.28287774311195
51
54.28571428571348
0
ARC
8
0
10
40.11152483636403
20
40.11361540549058
40
39.85304565915763
50
55.33548121592377
51
56.093090212645365
0
ARC
8
0
10
62.2619732503867
20
73.06344812683844
40
0.15
50
57.1428571428562
51
139.7114491716863
0
ARC
8
0
10
61.35907015766871
20
73.7754996927941
40
1
50
-57.23412609720654
51
-37.9559866332632
0
ARC
8
0
10
61.61794470111267
20
73.41243181511544
40
0.555
50
-122.85714285714393
51
-59.422194034220944
0
ARC
8
0
10
61.61794470111266
20
73.41243181511545
40
0.555
50
173.70790831993656
51
-122.85714285714253
0
ARC
8
0
10
62.05535495745045
20
73.32579128940196
40
1
50
152.24170091897514
51
171.51984038291883
0
ARC
8
0
10
61.034963390522535
20
73.85593511664324
40
0.15
50
-25.425734885971664
51
57.1428571428562
0
ARC
8
0
10
40.11119179356986
20
40.1138305073329
40
39.85304565915763
50
58.19262407306745
51
58.950233069789086
0
ARC
8
0
10
60.59169186080979
20
74.12681270976364
40
0.15
50
60.00000000000196
51
142.5685920288329
0
ARC
8
0
10
59.65441830682657
20
74.7929731352043
40
1
50
-54.376983240063296
51
-35.098843776120084
0
ARC
8
0
10
59.93106848873646
20
74.44326041039346
40
0.555
50
-119.99999999999986
51
-56.56505117707815
0
ARC
8
0
10
59.93106848873646
20
74.44326041039346
40
0.555
50
176.56505117707786
51
-119.99999999999986
0
ARC
8
0
10
60.37225368340427
20
74.37853068730332
40
1
50
155.09884377611888
51
174.37698324006246
0
ARC
8
0
10
59.3267050549852
20
74.8571531826278
40
0.15
50
-22.56859202883018
51
59.999999999999595
0
ARC
8
0
10
40.110848442832626
20
40.114028740973495
40
39.85304565915763
50
61.04976693021168
51
61.8073759269333
0
ARC
8
0
10
58.87048241317057
20
75.10559879157321
40
0.15
50
62.85714285713846
51
145.42573488596864
0
ARC
8
0
10
57.90116860765619
20
75.7242118967196
40
1
50
-51.519840382920734
51
-32.241700918977294
0
ARC
8
0
10
58.19490663209017
20
75.38872376571192
40
0.555
50
-117.14285714285674
51
-53.70790831993441
0
ARC
8
0
10
58.19490663209017
20
75.38872376571192
40
0.555
50
179.42219403422072
51
-117.14285714285674
0
ARC
8
0
10
58.638769909179956
20
75.34606577353567
40
1
50
157.95598663326203
51
177.23412609720592
0
ARC
8
0
10
57.570663617898866
20
75.77197700600716
40
0.15
50
-19.7114491716803
51
62.85714285713846
0
ARC
8
0
10
40.11049563777279
20
40.11420961357406
40
39.85304565915763
50
63.906909787350735
51
64.66451878407237
0
ARC
8
0
10
57.102624105353364
20
75.99737295584815
40
0.15
50
65.71428571428956
51
148.28287774311826
0
ARC
8
0
10
56.103679915155475
20
76.56690077105081
40
1
50
-48.66269752577784
51
-29.384558061834607
0
ARC
8
0
10
56.4137755031028
20
76.24647131020022
40
0.555
50
-114.28571428571337
51
-50.85076546278996
0
ARC
8
0
10
56.41377550310281
20
76.24647131020022
40
0.555
50
-177.7206631086378
51
-114.2857142857147
0
ARC
8
0
10
56.85921334857168
20
76.2259911034277
40
1
50
160.81312949040384
51
-179.90873104565145
0
ARC
8
0
10
55.771204874961846
20
76.59813219061483
40
0.15
50
-16.854306314537606
51
65.7142857142871
0
ARC
8
0
10
40.11013425552815
20
40.114372675452536
40
39.85304565915763
50
66.76405264449875
51
67.52166164122036
0
ARC
8
0
10
55.29251211165891
20
76.79991811150617
40
0.15
50
68.57142857142938
51
151.1400206002552
0
ARC
8
0
10
54.266421069430145
20
77.31894470088046
40
1
50
-45.8055546686331
51
-26.52741520468871
0
ARC
8
0
10
54.5921032743999
20
77.01437054831425
40
0.555
50
-111.42857142857257
51
-47.99362260565023
0
ARC
8
0
10
54.592103274399896
20
77.01437054831425
40
0.555
50
-174.86352025149333
51
-111.42857142857189
0
ARC
8
0
10
55.03800825957987
20
77.01611904396637
40
1
50
163.67027234754778
51
-177.0515881885088
0
ARC
8
0
10
53.932802564135635
20
77.33356478449102
40
0.15
50
-13.997163457398402
51
68.57142857142938
0
ARC
8
0
10
40.109765194540124
20
40.11451752121665
40
39.85304565915763
50
69.62119550163709
51
70.37880449835872
0
ARC
8
0
10
53.44464665570872
20
77.51123900483961
40
0.15
50
71.42857142857031
51
153.99716345739674
0
ARC
8
0
10
52.3939597854532
20
77.97847398650545
40
1
50
-42.94841181149087
51
-23.67027234754649
0
ARC
8
0
10
52.734418910168586
20
77.69051236155617
40
0.555
50
-108.57142857142736
51
-45.13647974850544
0
ARC
8
0
10
52.73441891016859
20
77.69051236155617
40
0.555
50
-172.00637739435214
51
-108.57142857142807
0
ARC
8
0
10
53.17968244500875
20
77.71448521259728
40
1
50
166.52741520469016
51
-174.19444533136604
0
ARC
8
0
10
52.06002724322759
20
77.97644638633109
40
0.15
50
-11.140020600258818
51
71.42857142857031
0
ARC
8
0
10
40.10938937236417
20
40.11464379075239
40
39.85304565915763
50
72.47833835878393
51
73.23594735550554
0
ARC
8
0
10
51.563621822179954
20
78.12956718003035
40
0.15
50
74.2857142857143
51
156.85430631454105
0
ARC
8
0
10
50.49095129700561
20
78.54384893420475
40
1
50
-40.09126895434726
51
-20.81312949040365
0
ARC
8
0
10
50.84534090643915
20
78.27321575484393
40
0.555
50
-105.71428571428694
51
-42.27933689136394
0
ARC
8
0
10
50.84534090643914
20
78.27321575484393
40
0.555
50
-169.1492345372075
51
-105.71428571428623
0
ARC
8
0
10
51.288855995635195
20
78.3193533609891
40
1
50
169.38455806183322
51
-171.3373024742228
0
ARC
8
0
10
50.15753492676401
20
78.52517869117898
40
0.15
50
-8.282877743115495
51
74.2857142857117
0
ARC
8
0
10
40.10900772334494
20
40.114751170136834
40
39.85304565915763
50
75.33548121592622
51
76.09309021264785
0
ARC
8
0
10
49.654114135187086
20
78.65336537580976
40
0.15
50
77.1428571428572
51
159.7114491716859
0
ARC
8
0
10
48.562126783031786
20
79.01366393277674
40
1
50
-37.23412609720567
51
-17.95598663326262
0
ARC
8
0
10
48.929565808776005
20
78.7610320357298
40
0.555
50
-102.85714285714356
51
-39.42219403422216
0
ARC
8
0
10
48.929565808776
20
78.7610320357298
40
0.555
50
-166.29209168006315
51
-102.85714285714283
0
ARC
8
0
10
49.37022980393502
20
78.82921969162061
40
1
50
172.24170091897608
51
-168.4801596170796
0
ARC
8
0
10
48.23005551040441
20
78.97839746406542
40
0.15
50
-5.42573488596985
51
77.1428571428572
0
ARC
8
0
10
40.10862119632456
20
40.11483939240694
40
39.85304565915763
50
78.19262407306793
51
78.95023306978958
0
ARC
8
0
10
47.7208709317061
20
79.08133134733238
40
0.15
50
79.99999999999834
51
162.5685920288285
0
ARC
8
0
10
46.612281605183185
20
79.38675094810986
40
1
50
-34.37698324006257
51
-15.098843776118743
0
ARC
8
0
10
46.991856535925606
20
79.15274841607808
40
0.555
50
-99.9999999999997
51
-36.565051177078104
0
ARC
8
0
10
46.991856535925606
20
79.15274841607808
40
0.555
50
-163.43494882292248
51
-99.9999999999997
0
ARC
8
0
10
47.42857387692366
20
79.24281659645823
40
1
50
175.09884377612005
51
-165.62301675993686
0
ARC
8
0
10
46.28238101167566
20
79.3349759317109
40
0.15
50
-2.5685920288288027
51
79.99999999999568
0
ARC
8
0
10
40.108230752271055
20
40.114908238228026
40
39.85304565915763
50
81.04976693021041
51
81.80737592693204
0
ARC
8
0
10
45.76869855894686
20
79.41240110376172
40
0.15
50
82.85714285713877
51
165.4257348859692
0
ARC
8
0
10
44.64626338579378
20
79.66218242709964
40
1
50
-31.51984038291997
51
-12.241700918976246
0
ARC
8
0
10
45.03703053844993
20
79.44739102724759
40
0.555
50
-97.14285714285681
51
-33.70790831993491
0
ARC
8
0
10
45.03703053844993
20
79.44739102724759
40
0.555
50
-160.57780596577862
51
-97.14285714285681
0
ARC
8
0
10
45.46871547716717
20
79.55911580842925
40
1
50
177.95598663326106
51
-162.7658739027953
0
ARC
8
0
10
44.31935365626142
20
79.59402758386157
40
0.15
50
0.2885508283128288
51
82.85714285714414
0
ARC
8
0
10
40.10783736188763
20
40.11495753643886
40
39.85304565915763
50
83.90690978735041
51
84.66451878407203
0
ARC
8
0
10
43.80245042501652
20
79.64575155351929
40
0.15
50
85.71428571428531
51
168.28287774311153
0
ARC
8
0
10
42.668959955927036
20
79.83927360369168
40
1
50
-28.662697525776032
51
-9.384558061831058
0
ARC
8
0
10
43.0699478217853
20
79.64422734128242
40
0.555
50
-94.28571428571345
51
-30.850765462790967
0
ARC
8
0
10
43.06994782178531
20
79.64422734128242
40
0.555
50
-157.72066310863863
51
-94.28571428571492
0
ARC
8
0
10
43.495527121446855
20
79.77733095785605
40
1
50
-179.1868705095955
51
-159.90873104565182
0
ARC
8
0
10
42.345853839466045
20
79.75490837729348
40
0.15
50
3.1456936854549102
51
85.71428571428531
0
ARC
8
0
10
40.10744200321316
20
40.114987164475615
40
39.85304565915763
50
86.76405264450005
51
87.52166164122167
0
ARC
8
0
10
41.827014932582294
20
79.78080255061971
40
0.15
50
88.57142857142748
51
171.14002060025194
0
ARC
8
0
10
40.68528720345778
20
79.91758420131819
40
1
50
-25.80555466863515
51
-6.527415204690998
0
ARC
8
0
10
41.095498863503124
20
79.74276799209193
40
0.555
50
-91.4285714285719
51
-27.993622605649005
0
ARC
8
0
10
41.095498863503124
20
79.74276799209193
40
0.555
50
-154.86352025149336
51
-91.4285714285719
0
ARC
8
0
10
41.51391446691485
20
79.89691952749459
40
1
50
-176.3297276524522
51
-157.05158818850867
0
ARC
8
0
10
40.36678799278298
20
79.81721833700534
40
0.15
50
6.002836542598692
51
88.57142857143019
0
ARC
8
0
10
40.10704565915767
20
40.11499704867932
40
39.85304565915763
50
89.62119550163925
51
90.37880449836088
0
ARC
8
0
10
39.84730332553227
20
79.81721833700534
40
0.15
50
91.42857142856984
51
173.9971634574013
0
ARC
8
0
10
38.70017685140041
20
79.89691952749457
40
1
50
-22.94841181149042
51
-3.6702723475469763
0
ARC
8
0
10
39.11859245481214
20
79.74276799209193
40
0.555
50
-88.57142857142959
51
-25.13647974850664
0
ARC
8
0
10
39.11859245481213
20
79.74276799209193
40
0.555
50
-152.006377394351
51
-88.57142857142887
0
ARC
8
0
10
39.52880411485747
20
79.91758420131819
40
1
50
-173.47258479530902
51
-154.19444533136488
0
ARC
8
0
10
38.38707638573296
20
79.78080255061971
40
0.15
50
8.859979399748063
51
91.42857142857254
0
ARC
8
0
10
40.106649315102196
20
40.11498716447562
40
39.85304565915763
50
92.47833835877849
51
93.23594735550012
0
ARC
8
0
10
37.86823747884921
20
79.75490837729348
40
0.15
50
94.28571428571472
51
176.8543063145451
0
ARC
8
0
10
36.7185641968684
20
79.77733095785605
40
1
50
-20.091268954348173
51
-0.8131294904045016
0
ARC
8
0
10
37.14414349652994
20
79.64422734128242
40
0.555
50
-85.71428571428511
51
-22.279336891361364
0
ARC
8
0
10
37.144143496529956
20
79.64422734128242
40
0.555
50
-149.14923453720903
51
-85.71428571428656
0
ARC
8
0
10
37.54513136238822
20
79.83927360369168
40
1
50
-170.61544193816894
51
-151.33730247422397
0
ARC
8
0
10
36.41164089329874
20
79.64575155351929
40
0.15
50
11.717122256888493
51
94.28571428571472
0
ARC
8
0
10
40.10625395642772
20
40.11495753643887
40
39.85304565915763
50
95.33548121592813
51
96.09309021264976
0
ARC
8
0
10
35.894737662053835
20
79.59402758386157
40
0.15
50
97.14285714285587
51
179.71144917168718
0
ARC
8
0
10
34.74537584114808
20
79.55911580842925
40
1
50
-17.23412609720471
51
2.0440133667389455
0
ARC
8
0
10
35.17706077986532
20
79.44739102724759
40
0.555
50
-82.85714285714248
51
-19.4221940342214
0
ARC
8
0
10
35.17706077986532
20
79.44739102724759
40
0.555
50
-146.2920916800651
51
-82.85714285714248
0
ARC
8
0
10
35.567827932521475
20
79.66218242709964
40
1
50
-167.75829908102375
51
-148.48015961708003
0
ARC
8
0
10
34.445392759368396
20
79.41240110376172
40
0.15
50
14.57426511403078
51
97.14285714286126
0
ARC
8
0
10
40.10586056604431
20
40.11490823822804
40
39.85304565915763
50
98.19262407306815
51
98.95023306978979
0
ARC
8
0
10
33.93171030663959
20
79.3349759317109
40
0.15
50
100.00000000000166
51
-177.43140797117118
0
ARC
8
0
10
32.78551744139159
20
79.24281659645823
40
1
50
-14.37698324006314
51
4.901156223879957
0
ARC
8
0
10
33.22223478238964
20
79.15274841607808
40
0.555
50
-80.00000000000031
51
-16.565051177077553
0
ARC
8
0
10
33.22223478238964
20
79.15274841607808
40
0.555
50
-143.43494882292188
51
-80.00000000000031
0
ARC
8
0
10
33.60180971313206
20
79.38675094810985
40
1
50
-164.90115622388205
51
-145.6230167599381
0
ARC
8
0
10
32.493220386609146
20
79.08133134733238
40
0.15
50
17.431407971171527
51
100.00000000000435
0
ARC
8
0
10
40.105470121991154
20
40.114839392407035
40
39.85304565915763
50
101.04976693021113
51
101.80737592693275
0
ARC
8
0
10
31.984035807910853
20
78.97839746406542
40
0.15
50
102.85714285714282
51
-174.57426511403028
0
ARC
8
0
10
30.843861514380244
20
78.8292196916206
40
1
50
-11.51984038291956
51
7.758299081024723
0
ARC
8
0
10
31.28452550953927
20
78.7610320357298
40
0.555
50
-77.14285714285754
51
-13.707908319936937
0
ARC
8
0
10
31.28452550953926
20
78.7610320357298
40
0.555
50
-140.57780596577786
51
-77.14285714285646
0
ARC
8
0
10
31.651964535283476
20
79.01366393277674
40
1
50
-162.04401336673735
51
-142.7658739027942
0
ARC
8
0
10
30.559977183128183
20
78.65336537580976
40
0.15
50
20.288550828314563
51
102.85714285714282
0
ARC
8
0
10
40.105083594970424
20
40.114751170136856
40
39.85304565915763
50
103.9069097873523
51
104.66451878407392
0
ARC
8
0
10
30.056556391551254
20
78.52517869117898
40
0.15
50
105.7142857142857
51
-171.71712225688432
0
ARC
8
0
10
28.92523532268007
20
78.31935336098908
40
1
50
-8.662697525776355
51
10.615441938167592
0
ARC
8
0
10
29.368750411876132
20
78.27321575484393
40
0.555
50
-74.28571428571449
51
-10.850765462792596
0
ARC
8
0
10
29.36875041187613
20
78.27321575484393
40
0.555
50
-137.7206631086363
51
-74.28571428571414
0
ARC
8
0
10
29.72314002130965
20
78.54384893420476
40
1
50
-159.18687050959545
51
-139.9087310456516
0
ARC
8
0
10
28.65046949613531
20
78.12956718003035
40
0.15
50
23.145693685458962
51
105.71428571428702
0
ARC
8
0
10
40.104701945951106
20
40.114643790752396
40
39.85304565915763
50
106.76405264449448
51
107.52166164121611
0
ARC
8
0
10
28.154064075087668
20
77.97644638633109
40
0.15
50
108.57142857142844
51
-168.85997939974118
0
ARC
8
0
10
27.0344088733065
20
77.71448521259728
40
1
50
-5.805554668633976
51
13.472584795309789
0
ARC
8
0
10
27.479672408146662
20
77.69051236155619
40
0.555
50
-71.42857142857125
51
-7.9936226056493505
0
ARC
8
0
10
27.47967240814666
20
77.69051236155619
40
0.555
50
-134.86352025149276
51
-71.4285714285709
0
ARC
8
0
10
27.82013153286206
20
77.97847398650545
40
1
50
-156.32972765245353
51
-137.05158818850927
0
ARC
8
0
10
26.76944466260654
20
77.51123900483961
40
0.15
50
26.00283654260383
51
108.57142857142972
0
ARC
8
0
10
40.10432612377516
20
40.114517521216655
40
39.85304565915763
50
109.62119550164132
51
110.37880449836297
0
ARC
8
0
10
26.281288754179627
20
77.33356478449102
40
0.15
50
111.4285714285719
51
-166.0028365426016
0
ARC
8
0
10
25.176083058735394
20
77.01611904396636
40
1
50
-2.9484118114904105
51
16.329727652453023
0
ARC
8
0
10
25.621988043915366
20
77.01437054831425
40
0.555
50
-68.57142857142813
51
-5.136479748506631
0
ARC
8
0
10
25.62198804391536
20
77.01437054831425
40
0.555
50
-132.00637739434978
51
-68.57142857142745
0
ARC
8
0
10
25.947670248885125
20
77.31894470088046
40
1
50
-153.4725847953114
51
-134.1944453313672
0
ARC
8
0
10
24.921579206656357
20
76.79991811150617
40
0.15
50
28.859979399744795
51
111.4285714285719
0
ARC
8
0
10
40.1039570627871
20
40.114372675452536
40
39.85304565915763
50
112.47833835877965
51
113.23594735550125
0
ARC
8
0
10
24.442886443353412
20
76.59813219061483
40
0.15
50
114.28571428571291
51
-163.145693685462
0
ARC
8
0
10
23.35487796974358
20
76.2259911034277
40
1
50
-0.09126895434855178
51
19.186870509596105
0
ARC
8
0
10
23.80031581521245
20
76.24647131020022
40
0.555
50
-65.71428571428599
51
-2.2793368913622003
0
ARC
8
0
10
23.80031581521246
20
76.24647131020022
40
0.555
50
-129.14923453720976
51
-65.71428571428697
0
ARC
8
0
10
24.110411403159787
20
76.56690077105081
40
1
50
-150.6154419381654
51
-131.33730247422218
0
ARC
8
0
10
23.1114672129619
20
75.99737295584815
40
0.15
50
31.717122256882448
51
114.28571428571045
0
ARC
8
0
10
40.10359568054224
20
40.114209613573955
40
39.85304565915763
50
115.33548121592727
51
116.09309021264892
0
ARC
8
0
10
22.643427700416385
20
75.77197700600716
40
0.15
50
117.14285714286036
51
-160.28855082831973
0
ARC
8
0
10
21.5753214091353
20
75.34606577353566
40
1
50
2.7658739027949073
51
22.044013366738827
0
ARC
8
0
10
22.01918468622509
20
75.38872376571192
40
0.555
50
-62.85714285714261
51
0.577805965779302
0
ARC
8
0
10
22.019184686225096
20
75.38872376571192
40
0.555
50
-126.29209168006591
51
-62.85714285714325
0
ARC
8
0
10
22.31292271065907
20
75.7242118967196
40
1
50
-147.7582990810227
51
-128.48015961707927
0
ARC
8
0
10
21.343608905144688
20
75.10559879157321
40
0.15
50
34.574265114031355
51
117.14285714285913
0
ARC
8
0
10
40.103242875482486
20
40.11402874097341
40
39.85304565915763
50
118.19262407306647
51
118.95023306978807
0
ARC
8
0
10
20.887386263330054
20
74.8571531826278
40
0.15
50
119.99999999999805
51
-157.43140797117033
0
ARC
8
0
10
19.841837634910984
20
74.37853068730332
40
1
50
5.623016759937596
51
24.901156223881223
0
ARC
8
0
10
20.28302282957879
20
74.44326041039345
40
0.555
50
-59.99999999999983
51
3.434948822923631
0
ARC
8
0
10
20.283022829578798
20
74.44326041039346
40
0.555
50
-123.43494882292279
51
-60.00000000000119
0
ARC
8
0
10
20.55967301148867
20
74.7929731352043
40
1
50
-144.90115622387992
51
-125.62301675993653
0
ARC
8
0
10
19.62239945750546
20
74.12681270976363
40
0.15
50
37.43140797117306
51
119.99999999999923
0
ARC
8
0
10
40.10289952474529
20
40.11383050733283
40
39.85304565915763
50
121.04976693021078
51
121.80737592693238
0
ARC
8
0
10
19.17912792779273
20
73.85593511664324
40
0.15
50
122.85714285714494
51
-154.57426511402832
0
ARC
8
0
10
18.158736360864808
20
73.32579128940198
40
1
50
8.480159617080307
51
27.758299081023868
0
ARC
8
0
10
18.5961466172026
20
73.41243181511544
40
0.555
50
-57.14285714285669
51
6.2920916800649165
0
ARC
8
0
10
18.596146617202596
20
73.41243181511544
40
0.555
50
-120.57780596577906
51
-57.142857142856386
0
ARC
8
0
10
18.855021160646555
20
73.7754996927941
40
1
50
-142.04401336673678
51
-122.76587390279346
0
ARC
8
0
10
17.952118067928563
20
73.06344812683844
40
0.15
50
40.28855082831372
51
122.8571428571438
0
ARC
8
0
10
40.102566481949886
20
40.113615405489675
40
39.85304565915763
50
123.9069097873523
51
124.66451878407395
0
ARC
8
0
10
17.52289969318337
20
72.77081199391961
40
0.15
50
125.7142857142865
51
-151.71712225688265
0
ARC
8
0
10
16.530202041957086
20
72.19046485584667
40
1
50
11.337302474223318
51
30.615441938167084
0
ARC
8
0
10
16.9627498891483
20
72.29880078218528
40
0.555
50
-54.28571428571472
51
9.14923453720651
0
ARC
8
0
10
16.96274988914829
20
72.29880078218527
40
0.555
50
-117.72066310863596
51
-54.28571428571326
0
ARC
8
0
10
17.20320519122251
20
72.67432116878206
40
1
50
-139.18687050959522
51
-119.90873104565156
0
ARC
8
0
10
16.336917319121586
20
71.91814873469676
40
0.15
50
43.14569368546412
51
125.71428571428982
0
ARC
8
0
10
40.10224457509497
20
40.11338397022203
40
39.85304565915763
50
126.76405264449419
51
127.52166164121574
0
ARC
8
0
10
15.92281920385218
20
71.60448160151437
40
0.15
50
128.57142857143046
51
-148.8599793997407
0
ARC
8
0
10
14.960283471100057
20
70.97537398703575
40
1
50
14.194445331366751
51
33.4725847953103
0
ARC
8
0
10
15.386893527043409
20
71.10513597381696
40
0.555
50
-51.428571428571374
51
12.006377394352581
0
ARC
8
0
10
15.386893527043409
20
71.10513597381696
40
0.555
50
-114.86352025149415
51
-51.428571428571374
0
ARC
8
0
10
15.608331777980252
20
71.492175266483
40
1
50
-136.32972765245316
51
-117.05158818850926
0
ARC
8
0
10
14.780812854640612
20
70.69376192808338
40
0.15
50
46.00283654260251
51
128.57142857142654
0
ARC
8
0
10
40.101934604492826
20
40.11313677691543
40
39.85304565915763
50
129.62119550163837
51
130.37880449835998
0
ARC
8
0
10
14.382864512007691
20
70.3598436205525
40
0.15
50
131.4285714285696
51
-146.0028365426005
0
ARC
8
0
10
13.45288371322055
20
69.68353959032139
40
1
50
17.051588188507345
51
36.32972765245192
0
ARC
8
0
10
13.872495358099366
20
69.83440502880048
40
0.555
50
-48.571428571428584
51
14.863520251492949
0
ARC
8
0
10
13.872495358099362
20
69.83440502880048
40
0.555
50
-112.0063773943501
51
-48.571428571428314
0
ARC
8
0
10
14.074366027516726
20
70.23200098687145
40
1
50
-133.47258479531027
51
-114.19444533136637
0
ARC
8
0
10
13.287673395367472
20
69.39333172551648
40
0.15
50
48.85997939974384
51
131.4285714285696
0
ARC
8
0
10
40.101637340778126
20
40.11287444013068
40
39.85304565915763
50
132.4783383587832
51
133.23594735550483
0
ARC
8
0
10
12.906864187652445
20
69.03999241716254
40
0.15
50
134.28571428571476
51
-143.14569368545756
0
ARC
8
0
10
12.011750401625859
20
68.31817336955797
40
1
50
19.90873104565192
51
39.18687050959543
0
ARC
8
0
10
12.423320414776045
20
68.48976718448424
40
0.555
50
-45.71428571428518
51
17.720663108636064
0
ARC
8
0
10
12.423320414776045
20
68.48976718448424
40
0.555
50
-109.14923453720768
51
-45.71428571428518
0
ARC
8
0
10
12.605121620382564
20
68.89693132176232
40
1
50
-130.61544193816707
51
-111.33730247422324
0
ARC
8
0
10
11.861211121260217
20
68.02009120137825
40
0.15
50
51.71712225688801
51
134.28571428571524
0
ARC
8
0
10
40.101353522994046
20
40.11259761207719
40
39.85304565915763
50
135.3354812159261
51
136.09309021264772
0
ARC
8
0
10
11.498487800154587
20
67.64820934939475
40
0.15
50
137.14285714285998
51
-140.28855082831657
0
ARC
8
0
10
10.640466420796661
20
66.88266984030044
40
1
50
22.765873902794294
51
42.044013366738255
0
ARC
8
0
10
11.04297157431768
20
67.07456542241326
40
0.555
50
-42.85714285714163
51
20.577805965778648
0
ARC
8
0
10
11.04297157431767
20
67.07456542241326
40
0.555
50
-106.29209168006365
51
-42.857142857141
0
ARC
8
0
10
11.20425132967122
20
67.49028546469953
40
1
50
-127.75829908102288
51
-108.48015961707932
0
ARC
8
0
10
10.504972442288741
20
66.57745444798243
40
0.15
50
54.57426511403069
51
137.14285714285464
0
ARC
8
0
10
40.101083856755906
20
40.11230698099237
40
39.85304565915763
50
138.19262407306593
51
138.95023306978754
0
ARC
8
0
10
10.16123679512024
20
66.18795460924795
40
0.15
50
140.00000000000327
51
-137.43140797117164
0
ARC
8
0
10
9.34244099877177
20
65.38059789050357
40
1
50
25.623016759936924
51
44.901156223880875
0
ARC
8
0
10
9.73488060143239
20
65.5923181571503
40
0.555
50
-39.99999999999966
51
23.43494882292403
0
ARC
8
0
10
9.7348806014324
20
65.59231815715032
40
0.555
50
-103.43494882292345
51
-40.00000000000138
0
ARC
8
0
10
9.875237939649592
20
66.01556055891788
40
1
50
-124.90115622388213
51
-105.62301675993814
0
ARC
8
0
10
9.222329181500868
20
65.06900808760301
40
0.15
50
57.43140797117233
51
140.00000000000327
0
ARC
8
0
10
40.10082901250013
20
40.11200326943495
40
39.85304565915763
50
141.0497669302105
51
141.80737592693217
0
ARC
8
0
10
8.898435789248063
20
64.66285862008696
40
0.15
50
142.85714285714099
51
-134.57426511402582
0
ARC
8
0
10
8.120901231270015
20
63.81569190770415
40
1
50
28.48015961708103
51
47.7582990810246
0
ARC
8
0
10
8.502299616384374
20
64.04671048894288
40
0.555
50
-37.142857142857075
51
26.29209168006527
0
ARC
8
0
10
8.502299616384375
20
64.04671048894288
40
0.555
50
-100.57780596577949
51
-37.14285714285719
0
ARC
8
0
10
8.62138558700739
20
64.47642300289398
40
1
50
-122.04401336673781
51
-102.76587390279416
0
ARC
8
0
10
8.016470192138923
20
63.498502355565805
40
0.15
50
60.28855082831322
51
142.85714285714118
0
ARC
8
0
10
40.10058962380707
20
40.11168723247691
40
39.85304565915763
50
143.90690978735444
51
144.66451878407608
0
ARC
8
0
10
7.713224304808336
20
63.0767130108383
40
0.15
50
145.71428571428794
51
-131.717122256887
0
ARC
8
0
10
6.978884058621834
20
62.19184249474548
40
1
50
31.337302474223236
51
50.615441938167
0
ARC
8
0
10
7.348293009710604
20
62.44158504198341
40
0.555
50
-34.28571428571453
51
29.149234537208322
0
ARC
8
0
10
7.348293009710604
20
62.44158504198341
40
0.555
50
-97.72066310863666
51
-34.28571428571453
0
ARC
8
0
10
7.4458115462530525
20
62.87669933510191
40
1
50
-119.1868705095962
51
-99.90873104565237
0
ARC
8
0
10
6.890393429648236
20
61.86984177657301
40
0.15
50
63.14569368545756
51
145.7142857142847
0
ARC
8
0
10
40.10036628583441
20
40.1113596558353
40
39.85304565915763
50
146.76405264449662
51
147.52166164121826
0
ARC
8
0
10
6.608548964295813
20
61.433461189403054
40
0.15
50
148.57142857142853
51
-128.859979399743
0
ARC
8
0
10
5.919228715457123
20
60.513086797125325
40
1
50
34.19444533136623
51
53.47258479531001
0
ARC
8
0
10
6.275729823663018
20
60.78093241104007
40
0.555
50
-31.428571428571072
51
32.00637739435041
0
ARC
8
0
10
6.275729823663018
20
60.78093241104007
40
0.555
50
-94.86352025149327
51
-31.428571428571072
0
ARC
8
0
10
6.351438479677801
20
61.22036672063575
40
1
50
-116.32972765245248
51
-97.05158818850875
0
ARC
8
0
10
5.846898498287415
20
60.187075457439256
40
0.15
50
66.00283654260016
51
148.57142857142833
0
ARC
8
0
10
40.100159553836704
20
40.11102135391893
40
39.85304565915763
50
149.62119550164002
51
150.37880449836163
0
ARC
8
0
10
5.587156164662077
20
59.73718853872365
40
0.15
50
151.42857142857133
51
-126.00283654259955
0
ARC
8
0
10
4.9445696719206005
20
58.78359846601639
40
1
50
37.051588188509406
51
56.32972765245299
0
ARC
8
0
10
5.287276619317537
20
59.06888124020942
40
0.555
50
-28.57142857142978
51
34.863520251493334
0
ARC
8
0
10
5.287276619317535
20
59.068881240209414
40
0.555
50
-92.00637739435045
51
-28.571428571429045
0
ARC
8
0
10
5.340987171157003
20
59.511543063350395
40
1
50
-113.47258479531051
51
-94.19444533136674
0
ARC
8
0
10
4.888579690871166
20
58.45438702037422
40
0.15
50
68.85997939974364
51
151.4285714285715
0
ARC
8
0
10
40.09996994178127
20
40.11067316779797
40
39.85304565915763
50
152.47833835878174
51
153.23594735550338
0
ARC
8
0
10
4.651585249339822
20
57.992112259878
40
0.15
50
154.28571428571288
51
-123.14569368545756
0
ARC
8
0
10
4.057330083963818
20
57.007677281911675
40
1
50
39.9087310456518
51
59.186870509595614
0
ARC
8
0
10
4.385390847082928
20
57.309687958456564
40
0.555
50
-25.71428571428491
51
37.72066310863621
0
ARC
8
0
10
4.385390847082926
20
57.309687958456564
40
0.555
50
-89.14923453720725
51
-25.714285714284788
0
ARC
8
0
10
4.416969761852432
20
57.754476768103764
40
1
50
-110.61544193816697
51
-91.33730247422316
0
ARC
8
0
10
4.017819538949454
20
56.67608420183853
40
0.15
50
71.71712225688606
51
154.28571428571288
0
ARC
8
0
10
40.09979792107464
20
40.110315963119994
40
39.85304565915763
50
155.33548121592517
51
156.0930902126468
0
ARC
8
0
10
3.8041621950351425
20
56.20257088745333
40
0.15
50
157.1428571428573
51
-120.28855082831438
0
ARC
8
0
10
3.2597157689978595
20
55.18973846469285
40
1
50
42.76587390279448
51
62.044013366738305
0
ARC
8
0
10
3.572314737092071
20
55.50772619746226
40
0.555
50
-22.85714285714261
51
40.57780596577926
0
ARC
8
0
10
3.5723147370920705
20
55.50772619746226
40
0.555
50
-86.29209168006493
51
-22.857142857142595
0
ARC
8
0
10
3.5816835046338733
20
55.95353617855302
40
1
50
-107.75829908102483
51
-88.48015961708107
0
ARC
8
0
10
3.236782889458842
20
54.856588142832315
40
0.15
50
74.57426511403054
51
157.14285714285762
0
ARC
8
0
10
40.099643919386565
20
40.109950627950454
40
39.85304565915763
50
158.1926240730676
51
158.95023306978922
0
ARC
8
0
10
3.0469938289828264
20
54.373013503265454
40
0.15
50
159.99999999999886
51
-117.43140797117226
0
ARC
8
0
10
2.5537097218835547
20
53.33430169669787
40
1
50
45.62301675993781
51
64.90115622388154
0
ARC
8
0
10
2.850069724664409
20
53.66747591808531
40
0.555
50
-19.999999999999208
51
43.43494882292266
0
ARC
8
0
10
2.850069724664411
20
53.667475918085316
40
0.555
50
-83.43494882292241
51
-19.999999999999975
0
ARC
8
0
10
2.8372050527462083
20
54.11319871676386
40
1
50
-104.9011562238809
51
-85.62301675993717
0
ARC
8
0
10
2.5474115225717586
20
53.000422397241984
40
0.15
50
77.43140797117228
51
159.99999999999886
0
ARC
8
0
10
40.09950831959008
20
40.109578070571544
40
39.85304565915763
50
161.04976693021118
51
161.80737592693276
0
ARC
8
0
10
2.3819625910419795
20
52.50798867524052
40
0.15
50
162.8571428571432
51
-114.57426511403037
0
ARC
8
0
10
1.9410671848938623
20
51.44597988607863
40
1
50
48.48015961708009
51
67.75829908102399
0
ARC
8
0
10
2.220451424699337
20
51.793512272474075
40
0.555
50
-17.142857142856624
51
46.292091680065376
0
ARC
8
0
10
2.2204514246993377
20
51.793512272474075
40
0.555
50
-80.57780596577962
51
-17.142857142856634
0
ARC
8
0
10
2.1853852969225214
20
52.23803975163384
40
1
50
-102.04401336673786
51
-82.7658739027941
0
ARC
8
0
10
1.951419324125147
20
51.11220168557256
40
0.15
50
80.28855082831532
51
162.8571428571404
0
ARC
8
0
10
40.09939145880725
20
40.10919921721862
40
39.85304565915763
50
163.90690978735435
51
164.664518784076
0
ARC
8
0
10
1.8107218536538598
20
50.61213314895827
40
0.15
50
165.71428571428655
51
-111.71712225688661
0
ARC
8
0
10
1.423311283905031
20
49.529467698384316
40
1
50
51.337302474223826
51
70.61544193816754
0
ARC
8
0
10
1.6850251674945653
20
49.890494229517245
40
0.555
50
-14.285714285714345
51
49.14923453720823
0
ARC
8
0
10
1.685025167494565
20
49.890494229517245
40
0.555
50
-77.7206631086363
51
-14.285714285714338
0
ARC
8
0
10
1.6278447637778948
20
50.332721223804334
40
1
50
-99.18687050959527
51
-79.90873104565142
0
ARC
8
0
10
1.4502880246301468
20
49.196620422025354
40
0.15
50
83.14569368545843
51
165.71428571428385
0
ARC
8
0
10
40.09929362757222
20
40.10881500977997
40
39.85304565915763
50
166.764052644496
51
167.52166164121766
0
ARC
8
0
10
1.3346918112975306
20
48.69016031997216
40
0.15
50
168.57142857142787
51
-108.85997939974332
0
ARC
8
0
10
1.0017292416656174
20
47.58952988488337
40
1
50
54.19444533136658
51
73.47258479531031
0
ARC
8
0
10
1.2451221070884173
20
47.96315299191327
40
0.555
50
-11.428571428572168
51
52.006377394350345
0
ARC
8
0
10
1.2451221070884162
20
47.96315299191326
40
0.555
50
-74.86352025149316
51
-11.428571428571423
0
ARC
8
0
10
1.1659695869249873
20
48.40198005534164
40
1
50
-96.32972765245192
51
-77.05158818850813
0
ARC
8
0
10
1.0452635154566203
20
47.25844104344467
40
0.15
50
86.002836542601
51
168.5714285714279
0
ARC
8
0
10
40.09921506910944
20
40.10842640345801
40
39.85304565915763
50
169.62119550163933
51
170.37880449836095
0
ARC
8
0
10
0.9550559496626257
20
46.74684851556521
40
0.15
50
171.42857142856917
51
-106.00283654260105
0
ARC
8
0
10
0.6773691775580334
20
45.63098943664093
40
1
50
57.05158818850936
51
76.32972765245313
0
ARC
8
0
10
0.901835911801157
20
46.016280233654854
40
0.555
50
-8.571428571428054
51
54.86352025149349
0
ARC
8
0
10
0.9018359118011582
20
46.01628023365486
40
0.555
50
-72.00637739435086
51
-8.5714285714288
0
ARC
8
0
10
0.8009080608275343
20
46.4506163730023
40
1
50
-93.47258479530885
51
-74.194445331365
0
ARC
8
0
10
0.7373527513509238
20
45.30248216914939
40
0.15
50
88.8599793997439
51
171.42857142857184
0
ARC
8
0
10
40.09915597872724
20
40.10803436438782
40
39.85304565915763
50
172.47833835878208
51
173.23594735550373
0
ARC
8
0
10
0.6727581033174029
20
44.78702911507558
40
0.15
50
174.28571428571587
51
-103.14569368545801
0
ARC
8
0
10
0.45103750180849944
20
43.658715593803166
40
1
50
59.908731045651656
51
79.18687050959544
0
ARC
8
0
10
0.6560200452031602
20
44.05471618717249
40
0.555
50
-5.71428571428621
51
57.72066310863602
0
ARC
8
0
10
0.6560200452031593
20
44.05471618717248
40
0.555
50
-69.14923453720742
51
-5.71428571428547
0
ARC
8
0
10
0.5335677859592937
20
44.48348157436163
40
1
50
-90.61544193816654
51
-71.33730247422267
0
ARC
8
0
10
0.527321246987696
20
43.33360662108606
40
0.15
50
91.71712225688658
51
174.28571428571044
0
ARC
8
0
10
40.09911650333372
20
40.10763986724074
40
39.85304565915763
50
175.33548121592506
51
176.09309021264667
0
ARC
8
0
10
0.48850010918734066
20
42.815574538326274
40
0.15
50
177.14285714285447
51
-100.28855082831524
0
ARC
8
0
10
0.3232969106242731
20
41.67761173989913
40
1
50
62.765873902794894
51
82.04401336673874
0
ARC
8
0
10
0.5082856442700852
20
42.083337609754025
40
0.555
50
-2.8571428571428386
51
60.57780596577895
0
ARC
8
0
10
0.5082856442700852
20
42.083337609754025
40
0.555
50
-66.29209168006462
51
-2.8571428571428386
0
ARC
8
0
10
0.3646134123662777
20
42.50546626647514
40
1
50
-87.7582990810233
51
-68.48015961707945
0
ARC
8
0
10
0.4156911737798121
20
41.356709334087526
40
0.15
50
94.5742651140298
51
177.14285714285714
0
ARC
8
0
10
40.0990967410709
20
40.10724389279866
40
39.85304565915763
50
178.19262407306783
51
178.95023306978945
0
ARC
8
0
10
0.40274006167793
20
40.83738613202171
40
0.15
50
180
51
-97.43140797117238
0
ARC
8
0
10
0.2944649872420999
20
39.69260321125658
40
1
50
65.62301675993865
51
84.90115622388227
0
ARC
8
0
10
0.45899999999999563
20
40.10704565915756
40
0.555
50
0
51
63.434948822922266
0
ARC
8
0
10
0.45899999999999574
20
40.10704565915756
40
0.555
50
-63.43494882292208
51
0
0
ARC
8
0
10
0.29446498724208237
20
40.52148810705853
40
1
50
-84.9011562238811
51
-65.62301675993729
0
ARC
8
0
10
0.4027400616779327
20
39.37670518629341
40
0.15
50
97.43140797117259
51
180
0
ARC
8
0
10
40.09909674107091
20
40.10684742551667
40
39.85304565915763
50
-178.95023306978914
51
-178.19262407306755
0
ARC
8
0
10
0.4156911737798169
20
38.85738198422758
40
0.15
50
-177.14285714285714
51
-94.5742651140296
0
ARC
8
0
10
0.36461341236628314
20
37.70862505183997
40
1
50
68.48015961707945
51
87.7582990810233
0
ARC
8
0
10
0.5082856442700994
20
38.13075370856108
40
0.555
50
2.8571428571428386
51
66.29209168006545
0
ARC
8
0
10
0.5082856442700991
20
38.13075370856109
40
0.555
50
-60.577805965779746
51
2.857142857142105
0
ARC
8
0
10
0.32329691062428173
20
38.53647957841598
40
1
50
-82.04401336673867
51
-62.765873902794866
0
ARC
8
0
10
0.4885001091873513
20
37.39851677998883
40
0.15
50
100.28855082831551
51
-177.14285714285447
0
ARC
8
0
10
40.099116503333725
20
40.1064514510745
40
39.85304565915763
50
-176.09309021264647
51
-175.33548121592486
0
ARC
8
0
10
0.5273212469877075
20
36.88048469722904
40
0.15
50
-174.28571428571044
51
-91.71712225688637
0
ARC
8
0
10
0.533567785959305
20
35.73060974395347
40
1
50
71.33730247422264
51
90.61544193816648
0
ARC
8
0
10
0.6560200452031736
20
36.159375131142625
40
0.555
50
5.714285714285471
51
69.14923453720763
0
ARC
8
0
10
0.6560200452031744
20
36.15937513114262
40
0.555
50
-57.720663108635854
51
5.71428571428621
0
ARC
8
0
10
0.4510375018085152
20
36.55537572451194
40
1
50
-79.1868705095954
51
-59.90873104565164
0
ARC
8
0
10
0.6727581033174201
20
35.42706220323952
40
0.15
50
103.14569368545823
51
-174.28571428571587
0
ARC
8
0
10
40.09915597872723
20
40.10605695392751
40
39.85304565915763
50
-173.23594735550344
51
-172.4783383587818
0
ARC
8
0
10
0.7373527513509422
20
34.91160914916571
40
0.15
50
-171.42857142857184
51
-88.85997939974375
0
ARC
8
0
10
0.8009080608275742
20
33.76347494531281
40
1
50
74.19444533136625
51
93.47258479531004
0
ARC
8
0
10
0.9018359118011796
20
34.19781108466025
40
0.555
50
8.571428571428802
51
72.00637739435108
0
ARC
8
0
10
0.9018359118011796
20
34.19781108466025
40
0.555
50
-54.86352025149345
51
8.571428571428802
0
ARC
8
0
10
0.6773691775580385
20
34.58310188167417
40
1
50
-76.32972765245208
51
-57.05158818850828
0
ARC
8
0
10
0.9550559496626505
20
33.46724280274989
40
0.15
50
106.00283654260133
51
-171.42857142856917
0
ARC
8
0
10
40.09921506910943
20
40.10566491485732
40
39.85304565915763
50
-170.37880449836058
51
-169.62119550163897
0
ARC
8
0
10
1.045263515456646
20
32.955650274870436
40
0.15
50
-168.5714285714279
51
-86.00283654260085
0
ARC
8
0
10
1.165969586925035
20
31.81211126297347
40
1
50
77.05158818850938
51
96.32972765245317
0
ARC
8
0
10
1.2451221070884446
20
32.25093832640185
40
0.555
50
11.428571428571423
51
74.86352025149337
0
ARC
8
0
10
1.2451221070884455
20
32.25093832640185
40
0.555
50
-52.00637739435041
51
11.428571428571441
0
ARC
8
0
10
1.001729241665631
20
32.62456143343174
40
1
50
-73.47258479530929
51
-54.194445331365436
0
ARC
8
0
10
1.3346918112975628
20
31.523930998342955
40
0.15
50
108.85997939974415
51
-168.5714285714279
0
ARC
8
0
10
40.09929362757223
20
40.105276308535295
40
39.85304565915763
50
-167.5216616412174
51
-166.7640526444958
0
ARC
8
0
10
1.4502880246301797
20
31.01747089628975
40
0.15
50
-165.71428571428515
51
-83.14569368545801
0
ARC
8
0
10
1.627844763777928
20
29.88137009451077
40
1
50
79.90873104565142
51
99.18687050959522
0
ARC
8
0
10
1.6850251674946009
20
30.32359708879786
40
0.555
50
14.2857142857147
51
77.72066310863659
0
ARC
8
0
10
1.685025167494601
20
30.32359708879786
40
0.555
50
-49.14923453720787
51
14.285714285714704
0
ARC
8
0
10
1.4233112839050595
20
30.68462361993079
40
1
50
-70.61544193816702
51
-51.3373024742233
0
ARC
8
0
10
1.8107218536538974
20
29.601958169356834
40
0.15
50
111.71712225688654
51
-165.71428571428515
0
ARC
8
0
10
40.09939145880709
20
40.1048921010972
40
39.85304565915763
50
-164.66451878407491
51
-163.90690978735336
0
ARC
8
0
10
1.9514193241251883
20
29.101889632742562
40
0.15
50
-162.85714285714312
51
-80.28855082831535
0
ARC
8
0
10
2.1853852969225724
20
27.976051566681285
40
1
50
82.76587390279471
51
102.04401336673848
0
ARC
8
0
10
2.2204514246993754
20
28.420579045841052
40
0.555
50
17.1428571428574
51
80.57780596577936
0
ARC
8
0
10
2.2204514246993763
20
28.42057904584105
40
0.555
50
-46.29209168006476
51
17.142857142857782
0
ARC
8
0
10
1.941067184893913
20
28.768111432236505
40
1
50
-67.75829908102446
51
-48.48015961708078
0
ARC
8
0
10
2.381962591042024
20
27.70610264307461
40
0.15
50
114.57426511402966
51
-162.8571428571431
0
ARC
8
0
10
40.0995083195901
20
40.10451324774366
40
39.85304565915763
50
-161.80737592693268
51
-161.049766930211
0
ARC
8
0
10
2.5474115225718146
20
27.21366892107311
40
0.15
50
-160.0000000000003
51
-77.43140797117277
0
ARC
8
0
10
2.837205052746283
20
26.10089260155124
40
1
50
85.62301675993831
51
104.9011562238821
0
ARC
8
0
10
2.850069724664467
20
26.546615400229783
40
0.555
50
19.999999999999943
51
83.43494882292259
0
ARC
8
0
10
2.850069724664466
20
26.546615400229786
40
0.555
50
-43.43494882292229
51
19.999999999999567
0
ARC
8
0
10
2.553709721883606
20
26.87978962161722
40
1
50
-64.90115622388105
51
-45.623016759937215
0
ARC
8
0
10
3.0469938289828873
20
25.84107781504964
40
0.15
50
117.43140797117287
51
-160.00000000000026
0
ARC
8
0
10
40.099643919386565
20
40.10414069036479
40
39.85304565915763
50
-158.95023306978902
51
-158.19262407306738
0
ARC
8
0
10
3.2367828894588957
20
25.357503175482798
40
0.15
50
-157.14285714285742
51
-74.57426511402967
0
ARC
8
0
10
3.5816835046339293
20
24.260555139762097
40
1
50
88.48015961708111
51
107.75829908102494
0
ARC
8
0
10
3.572314737092129
20
24.706365120852855
40
0.555
50
22.857142857143003
51
86.29209168006528
0
ARC
8
0
10
3.572314737092129
20
24.706365120852855
40
0.555
50
-40.57780596577926
51
22.857142857143003
0
ARC
8
0
10
3.259715768997917
20
25.024352853622265
40
1
50
-62.04401336673821
51
-42.76587390279443
0
ARC
8
0
10
3.8041621950352034
20
24.011520430861793
40
0.15
50
120.28855082831566
51
-157.14285714285748
0
ARC
8
0
10
40.09979792107457
20
40.10377535519541
40
39.85304565915763
50
-156.09309021264636
51
-155.33548121592474
0
ARC
8
0
10
4.017819538949518
20
23.53800711647659
40
0.15
50
-154.28571428571433
51
-71.71712225688671
0
ARC
8
0
10
4.416969761852494
20
22.459614550211352
40
1
50
91.33730247422316
51
110.61544193816697
0
ARC
8
0
10
4.385390847082995
20
22.904403359858556
40
0.555
50
25.714285714285687
51
89.14923453720799
0
ARC
8
0
10
4.385390847082995
20
22.904403359858556
40
0.555
50
-37.72066310863631
51
25.714285714285687
0
ARC
8
0
10
4.057330083963881
20
23.206414036403444
40
1
50
-59.186870509595444
51
-39.908731045651734
0
ARC
8
0
10
4.651585249339891
20
22.22197905843712
40
0.15
50
123.14569368545814
51
-154.2857142857144
0
ARC
8
0
10
40.09996994178135
20
40.103418150517115
40
39.85304565915763
50
-153.23594735550344
51
-152.47833835878183
0
ARC
8
0
10
4.888579690871221
20
21.75970429794092
40
0.15
50
-151.4285714285715
51
-68.85997939974395
0
ARC
8
0
10
5.340987171157057
20
20.702548254964746
40
1
50
94.19444533136664
51
113.47258479531045
0
ARC
8
0
10
5.287276619317597
20
21.145210078105727
40
0.555
50
28.571428571428594
51
92.0063773943511
0
ARC
8
0
10
5.287276619317597
20
21.145210078105727
40
0.555
50
-34.86352025149368
51
28.571428571428594
0
ARC
8
0
10
4.944569671920655
20
21.430492852298748
40
1
50
-56.32972765245278
51
-37.05158818850908
0
ARC
8
0
10
5.587156164662138
20
20.476902779591494
40
0.15
50
126.00283654260114
51
-151.4285714285715
0
ARC
8
0
10
40.10015955383651
20
40.10306996439666
40
39.85304565915763
50
-150.37880449836086
51
-149.62119550163922
0
ARC
8
0
10
5.8468984982875005
20
20.02701586087586
40
0.15
50
-148.5714285714287
51
-66.00283654260163
0
ARC
8
0
10
6.351438479677894
20
18.993724597679368
40
1
50
97.05158818850933
51
116.32972765245314
0
ARC
8
0
10
6.275729823663112
20
19.433158907275047
40
0.555
50
31.428571428571477
51
94.86352025149444
0
ARC
8
0
10
6.275729823663109
20
19.43315890727505
40
0.555
50
-32.00637739435132
51
31.42857142857101
0
ARC
8
0
10
5.919228715457209
20
19.701004521189784
40
1
50
-53.47258479530985
51
-34.19444533136607
0
ARC
8
0
10
6.6085489642959026
20
18.780630128912062
40
0.15
50
128.85997939974462
51
-148.5714285714287
0
ARC
8
0
10
40.1003662858341
20
40.102731662480444
40
39.85304565915763
50
-147.52166164121718
51
-146.76405264449556
0
ARC
8
0
10
6.890393429648318
20
18.34424954174213
40
0.15
50
-145.7142857142847
51
-63.14569368545725
0
ARC
8
0
10
7.445811546253126
20
17.337391983213223
40
1
50
99.90873104565179
51
119.18687050959556
0
ARC
8
0
10
7.34829300971068
20
17.77250627633173
40
0.555
50
34.28571428571412
51
97.72066310863593
0
ARC
8
0
10
7.348293009710685
20
17.772506276331722
40
0.555
50
-29.149234537207096
51
34.28571428571499
0
ARC
8
0
10
6.97888405862192
20
18.02224882356966
40
1
50
-50.61544193816692
51
-31.337302474223215
0
ARC
8
0
10
7.713224304808421
20
17.137378307476844
40
0.15
50
131.71712225688626
51
-145.71428571428493
0
ARC
8
0
10
40.10058962380667
20
40.10240408583891
40
39.85304565915763
50
-144.66451878407486
51
-143.90690978735324
0
ARC
8
0
10
8.01647019213902
20
16.715588962749337
40
0.15
50
-142.85714285714306
51
-60.288550828315664
0
ARC
8
0
10
8.621385587007492
20
15.73766831542117
40
1
50
102.76587390279488
51
122.0440133667387
0
ARC
8
0
10
8.502299616384464
20
16.167380829372263
40
0.555
50
37.14285714285719
51
100.57780596577933
0
ARC
8
0
10
8.502299616384464
20
16.16738082937226
40
0.555
50
-26.292091680064452
51
37.14285714285747
0
ARC
8
0
10
8.120901231270103
20
16.398399410610985
40
1
50
-47.758299081024035
51
-28.480159617080346
0
ARC
8
0
10
8.898435789248165
20
15.551232698228183
40
0.15
50
134.57426511402917
51
-142.85714285714326
0
ARC
8
0
10
40.10082901250023
20
40.10208804888019
40
39.85304565915763
50
-141.80737592693217
51
-141.04976693021055
0
ARC
8
0
10
9.22232918150095
20
15.145083230712162
40
0.15
50
-139.9999999999998
51
-57.4314079711725
0
ARC
8
0
10
9.875237939649669
20
14.198530759397276
40
1
50
105.62301675993776
51
124.90115622388151
0
ARC
8
0
10
9.73488060143247
20
14.621773161164842
40
0.555
50
39.99999999999982
51
103.43494882292224
0
ARC
8
0
10
9.734880601432472
20
14.62177316116484
40
0.555
50
-23.434948822921793
51
40.00000000000008
0
ARC
8
0
10
9.34244099877186
20
14.833493427811604
40
1
50
-44.90115622388109
51
-25.623016759937286
0
ARC
8
0
10
10.161236795120326
20
14.026136709067218
40
0.15
50
137.43140797117215
51
-139.9999999999998
0
ARC
8
0
10
40.101083856756794
20
40.10178433732189
40
39.85304565915763
50
-138.95023306978928
51
-138.1926240730676
0
ARC
8
0
10
10.504972442288851
20
13.636636870332675
40
0.15
50
-137.14285714285708
51
-54.57426511403006
0
ARC
8
0
10
11.204251329671349
20
12.723805853615605
40
1
50
108.48015961708062
51
127.75829908102449
0
ARC
8
0
10
11.042971574317793
20
13.139525895901869
40
0.555
50
42.857142857143195
51
106.2920916800652
0
ARC
8
0
10
11.042971574317793
20
13.139525895901869
40
0.555
50
-20.577805965779117
51
42.857142857143195
0
ARC
8
0
10
10.640466420796775
20
13.331421478014688
40
1
50
-42.04401336673831
51
-22.765873902794464
0
ARC
8
0
10
11.498487800154694
20
12.56588196892038
40
0.15
50
140.2885508283157
51
-137.14285714285612
0
ARC
8
0
10
40.101353522993385
20
40.10149370623874
40
39.85304565915763
50
-136.09309021264613
51
-135.33548121592452
0
ARC
8
0
10
11.861211121260324
20
12.194000116936893
40
0.15
50
-134.2857142857143
51
-51.717122256887066
0
ARC
8
0
10
12.605121620382675
20
11.317159996552821
40
1
50
111.3373024742234
51
130.6154419381672
0
ARC
8
0
10
12.423320414776159
20
11.724324133830912
40
0.555
50
45.71428571428622
51
109.14923453720827
0
ARC
8
0
10
12.423320414776157
20
11.724324133830914
40
0.555
50
-17.720663108636415
51
45.71428571428596
0
ARC
8
0
10
12.011750401625969
20
11.895917948757178
40
1
50
-39.18687050959568
51
-19.908731045651887
0
ARC
8
0
10
12.906864187652555
20
11.174098901152606
40
0.15
50
143.14569368545807
51
-134.2857142857143
0
ARC
8
0
10
40.10163734077743
20
40.10121687818522
40
39.85304565915763
50
-133.23594735550324
51
-132.4783383587816
0
ARC
8
0
10
13.287673395367584
20
10.820759592798678
40
0.15
50
-131.4285714285715
51
-48.859979399743466
0
ARC
8
0
10
14.074366027516831
20
9.982090331443697
40
1
50
114.19444533136615
51
133.47258479530984
0
ARC
8
0
10
13.872495358099476
20
10.379686289514684
40
0.555
50
48.571428571428584
51
112.00637739435079
0
ARC
8
0
10
13.872495358099478
20
10.379686289514682
40
0.555
50
-14.863520251493302
51
48.57142857142884
0
ARC
8
0
10
13.452883713220666
20
10.53055172799379
40
1
50
-36.32972765245254
51
-17.051588188508795
0
ARC
8
0
10
14.382864512007808
20
9.854247697762673
40
0.15
50
146.0028365426018
51
-131.42857142857198
0
ARC
8
0
10
40.101934604493245
20
40.10095454139949
40
39.85304565915763
50
-130.37880449836055
51
-129.62119550163897
0
ARC
8
0
10
14.780812854640702
20
9.520329390231804
40
0.15
50
-128.57142857142875
51
-46.002836542601585
0
ARC
8
0
10
15.608331777980341
20
8.721916051832185
40
1
50
117.05158818850951
51
136.32972765245324
0
ARC
8
0
10
15.386893527043494
20
9.10895534449822
40
0.555
50
51.428571428571836
51
114.86352025149385
0
ARC
8
0
10
15.386893527043494
20
9.10895534449822
40
0.555
50
-12.006377394350531
51
51.428571428571836
0
ARC
8
0
10
14.960283471100142
20
9.238717331279426
40
1
50
-33.47258479530954
51
-14.194445331365714
0
ARC
8
0
10
15.922819203852272
20
8.609609716800836
40
0.15
50
148.85997939974456
51
-128.57142857142875
0
ARC
8
0
10
40.10224457509627
20
40.100707348092236
40
39.85304565915763
50
-127.52166164121793
51
-126.76405264449625
0
ARC
8
0
10
16.336917319121724
20
8.295942583618372
40
0.15
50
-125.71428571428574
51
-43.14569368545787
0
ARC
8
0
10
17.203205191222665
20
7.539770149533098
40
1
50
119.90873104565249
51
139.1868705095961
0
ARC
8
0
10
16.962749889148448
20
7.915290536129875
40
0.555
50
54.285714285714604
51
117.72066310863691
0
ARC
8
0
10
16.962749889148448
20
7.915290536129875
40
0.555
50
-9.149234537207867
51
54.285714285714604
0
ARC
8
0
10
16.530202041957235
20
8.023626462468476
40
1
50
-30.615441938167265
51
-11.337302474223467
0
ARC
8
0
10
17.522899693183522
20
7.443279324395547
40
0.15
50
151.71712225688745
51
-125.71428571428554
0
ARC
8
0
10
40.10256648195034
20
40.10047591282526
40
39.85304565915763
50
-124.6645187840745
51
-123.90690978735287
0
ARC
8
0
10
17.9521180679287
20
7.150643191476721
40
0.15
50
-122.85714285714253
51
-40.28855082831527
0
ARC
8
0
10
18.85502116064671
20
6.438591625521083
40
1
50
122.76587390279487
51
142.0440133667387
0
ARC
8
0
10
18.59614661720274
20
6.801659503199723
40
0.555
50
57.142857142857395
51
120.57780596577962
0
ARC
8
0
10
18.59614661720274
20
6.801659503199722
40
0.555
50
-6.292091680064734
51
57.142857142857444
0
ARC
8
0
10
18.15873636086495
20
6.888300028913181
40
1
50
-27.758299081023733
51
-8.480159617080005
0
ARC
8
0
10
19.179127927792873
20
6.358156201671928
40
0.15
50
154.5742651140302
51
-122.85714285714232
0
ARC
8
0
10
40.1028995247453
20
40.100260810982405
40
39.85304565915763
50
-121.80737592693214
51
-121.04976693021055
0
ARC
8
0
10
19.622399457505587
20
6.087278608551542
40
0.15
50
-119.99999999999974
51
-37.43140797117225
0
ARC
8
0
10
20.55967301148881
20
5.421118183110884
40
1
50
125.62301675993749
51
144.90115622388126
0
ARC
8
0
10
20.283022829578922
20
5.77083090792172
40
0.555
50
60.00000000000082
51
123.43494882292256
0
ARC
8
0
10
20.28302282957892
20
5.770830907921722
40
0.555
50
-3.434948822922167
51
60.00000000000041
0
ARC
8
0
10
19.84183763491111
20
5.8355606310118455
40
1
50
-24.901156223880403
51
-5.623016759936715
0
ARC
8
0
10
20.887386263330185
20
5.356938135687391
40
0.15
50
157.4314079711722
51
-119.99999999999991
0
ARC
8
0
10
40.10324287548356
20
40.100062577341255
40
39.85304565915763
50
-118.95023306978962
51
-118.19262407306799
0
ARC
8
0
10
21.343608905144816
20
5.108492526741964
40
0.15
50
-117.14285714285685
51
-34.57426511402926
0
ARC
8
0
10
22.31292271065922
20
4.489879421595614
40
1
50
128.48015961708077
51
147.75829908102452
0
ARC
8
0
10
22.01918468622522
20
4.825367552603267
40
0.555
50
62.857142857142975
51
126.29209168006493
0
ARC
8
0
10
22.019184686225223
20
4.825367552603265
40
0.555
50
-0.5778059657788436
51
62.85714285714338
0
ARC
8
0
10
21.575321409135437
20
4.868025544779526
40
1
50
-22.044013366738568
51
-2.7658739027947137
0
ARC
8
0
10
22.643427700416513
20
4.442114312308016
40
0.15
50
160.2885508283153
51
-117.142857142857
0
ARC
8
0
10
40.10359568054038
20
40.09988170474219
40
39.85304565915763
50
-116.09309021264573
51
-115.33548121592409
0
ARC
8
0
10
23.111467212962054
20
4.216718362467044
40
0.15
50
-114.28571428571377
51
-31.71712225688676
0
ARC
8
0
10
24.110411403159947
20
3.6471905472644
40
1
50
131.33730247422335
51
150.61544193816712
0
ARC
8
0
10
23.800315815212596
20
3.9676200081149635
40
0.555
50
65.71428571428596
51
129.14923453720812
0
ARC
8
0
10
23.800315815212596
20
3.967620008114965
40
0.555
50
2.279336891363543
51
65.71428571428591
0
ARC
8
0
10
23.354877969743722
20
3.98810021488749
40
1
50
-19.186870509594797
51
0.091268954348908
0
ARC
8
0
10
24.44288644335356
20
3.615959127700371
40
0.15
50
163.14569368545858
51
-114.28571428571384
0
ARC
8
0
10
40.103957062789135
20
40.099718642861866
40
39.85304565915763
50
-113.23594735550421
51
-112.47833835878258
0
ARC
8
0
10
24.921579206656503
20
3.414173206809009
40
0.15
50
-111.42857142857177
51
-28.8599793997436
0
ARC
8
0
10
25.947670248885256
20
2.8951466174346976
40
1
50
134.19444533136596
51
153.47258479530984
0
ARC
8
0
10
25.62198804391552
20
3.199720770000939
40
0.555
50
68.57142857142934
51
132.00637739435135
0
ARC
8
0
10
25.621988043915515
20
3.1997207700009405
40
0.555
50
5.13647974850622
51
68.57142857142894
0
ARC
8
0
10
25.176083058735543
20
3.1979722743488237
40
1
50
-16.32972765245314
51
2.9484118114906397
0
ARC
8
0
10
26.281288754179776
20
2.8805265338241584
40
0.15
50
166.00283654260093
51
-111.42857142857184
0
ARC
8
0
10
40.104326123773546
20
40.099573797099175
40
39.85304565915763
50
-110.37880449836025
51
-109.62119550163862
0
ARC
8
0
10
26.769444662606688
20
2.7028523134755895
40
0.15
50
-108.57142857142837
51
-26.002836542600956
0
ARC
8
0
10
27.820131532862206
20
2.2356173318097428
40
1
50
137.05158818850876
51
156.32972765245265
0
ARC
8
0
10
27.47967240814682
20
2.5235789567590183
40
0.555
50
71.42857142857123
51
134.86352025149395
0
ARC
8
0
10
27.47967240814682
20
2.5235789567590183
40
0.555
50
7.9936226056493505
51
71.42857142857123
0
ARC
8
0
10
27.034408873306656
20
2.4996061057179197
40
1
50
-13.472584795309542
51
5.8055546686342305
0
ARC
8
0
10
28.154064075087824
20
2.2376449319841236
40
0.15
50
168.85997939974436
51
-108.57142857142696
0
ARC
8
0
10
40.104701945952
20
40.09944752756258
40
39.85304565915763
50
-107.52166164121722
51
-106.76405264449565
0
ARC
8
0
10
28.65046949613544
20
2.0845241382848654
40
0.15
50
-105.7142857142852
51
-23.14569368545865
0
ARC
8
0
10
29.72314002130978
20
1.6702423841104606
40
1
50
139.90873104565205
51
159.1868705095958
0
ARC
8
0
10
29.368750411876253
20
1.9408755634712842
40
0.555
50
74.28571428571422
51
137.72066310863624
0
ARC
8
0
10
29.36875041187626
20
1.9408755634712826
40
0.555
50
10.850765462792868
51
74.28571428571497
0
ARC
8
0
10
28.925235322680194
20
1.8947379573261307
40
1
50
-10.615441938167267
51
8.662697525776489
0
ARC
8
0
10
30.056556391551386
20
1.6889126271362478
40
0.15
50
171.71712225688742
51
-105.71428571428523
0
ARC
8
0
10
40.10508359497148
20
40.09934014817812
40
39.85304565915763
50
-104.66451878407528
51
-103.90690978735368
0
ARC
8
0
10
30.559977183128318
20
1.5607259425054523
40
0.15
50
-102.85714285714276
51
-20.288550828315362
0
ARC
8
0
10
31.651964535283614
20
1.2004273855384824
40
1
50
142.76587390279423
51
162.0440133667381
0
ARC
8
0
10
31.284525509539403
20
1.453059282585432
40
0.555
50
77.14285714285745
51
140.57780596577894
0
ARC
8
0
10
31.284525509539407
20
1.4530592825854316
40
0.555
50
13.70790831993558
51
77.14285714285782
0
ARC
8
0
10
30.843861514380382
20
1.384871626694614
40
1
50
-7.758299081023686
51
11.519840382920071
0
ARC
8
0
10
31.984035807910992
20
1.2356938542498013
40
0.15
50
174.5742651140299
51
-102.85714285714144
0
ARC
8
0
10
40.10547012199109
20
40.099251925908234
40
39.85304565915763
50
-101.80737592693244
51
-101.04976693021086
0
ARC
8
0
10
32.493220386609266
20
1.1327599709828549
40
0.15
50
-100.00000000000126
51
-17.43140797117258
0
ARC
8
0
10
33.60180971313219
20
0.8273403702053908
40
1
50
145.62301675993902
51
164.9011562238826
0
ARC
8
0
10
33.22223478238976
20
1.0613429022371519
40
0.555
50
80.00000000000041
51
143.43494882292268
0
ARC
8
0
10
33.22223478238976
20
1.0613429022371514
40
0.555
50
16.565051177077883
51
80.00000000000041
0
ARC
8
0
10
32.78551744139171
20
0.971274721857013
40
1
50
-4.901156223880699
51
14.376983240063053
0
ARC
8
0
10
33.93171030663971
20
0.8791153866043308
40
0.15
50
177.43140797117306
51
-99.99999999999852
0
ARC
8
0
10
40.10586056604395
20
40.099183080087265
40
39.85304565915763
50
-98.95023306978906
51
-98.19262407306745
0
ARC
8
0
10
34.4453927593685
20
0.8016902145535125
40
0.15
50
-97.14285714285835
51
-14.574265114028865
0
ARC
8
0
10
35.56782793252159
20
0.5519088912156069
40
1
50
148.48015961708026
51
167.758299081024
0
ARC
8
0
10
35.177060779865435
20
0.7667002910676483
40
0.555
50
82.85714285714249
51
146.292091680065
0
ARC
8
0
10
35.177060779865435
20
0.7667002910676484
40
0.555
50
19.422194034221057
51
82.85714285714249
0
ARC
8
0
10
34.745375841148196
20
0.6549755098859775
40
1
50
-2.0440133667388056
51
17.2341260972049
0
ARC
8
0
10
35.89473766205395
20
0.620063734453667
40
0.15
50
-179.7114491716844
51
-97.14285714285562
0
ARC
8
0
10
40.10625395642563
20
40.099133781876596
40
39.85304565915763
50
-96.09309021264657
51
-95.33548121592497
0
ARC
8
0
10
36.41164089329883
20
0.5683397647959718
40
0.15
50
-94.28571428571486
51
-11.71712225688654
0
ARC
8
0
10
37.54513136238831
20
0.3748177146235522
40
1
50
151.3373024742232
51
170.615441938167
0
ARC
8
0
10
37.14414349653004
20
0.5698639770328261
40
0.555
50
85.71428571428581
51
149.14923453720823
0
ARC
8
0
10
37.14414349653004
20
0.5698639770328259
40
0.555
50
22.279336891363446
51
85.71428571428584
0
ARC
8
0
10
36.71856419686849
20
0.4367603604592042
40
1
50
0.8131294904046414
51
20.09126895434847
0
ARC
8
0
10
37.8682374788493
20
0.45918294102179197
40
0.15
50
-176.85430631454167
51
-94.28571428571486
0
ARC
8
0
10
40.106649315104576
20
40.09910415383952
40
39.85304565915763
50
-93.23594735550341
51
-92.47833835878183
0
ARC
8
0
10
38.38707638573302
20
0.43328876769553226
40
0.15
50
-91.42857142857254
51
-8.859979399744022
0
ARC
8
0
10
39.52880411485753
20
0.2965071169970565
40
1
50
154.19444533136476
51
173.47258479530868
0
ARC
8
0
10
39.11859245481219
20
0.4713233262233139
40
0.555
50
88.57142857142814
51
152.00637739435018
0
ARC
8
0
10
39.11859245481219
20
0.47132332622331374
40
0.555
50
25.136479748507224
51
88.57142857142814
0
ARC
8
0
10
38.700176851400464
20
0.3171717908206542
40
1
50
3.670272347547729
51
22.948411811491557
0
ARC
8
0
10
39.84730332553233
20
0.3968729813099058
40
0.15
50
-173.9971634573987
51
-91.42857142856982
0
ARC
8
0
10
40.107045659157855
20
40.09909426963592
40
39.85304565915763
50
-90.37880449836106
51
-89.62119550163946
0
ARC
8
0
10
40.36678799278302
20
0.39687298130990317
40
0.15
50
-88.57142857143019
51
-6.002836542601116
0
ARC
8
0
10
41.51391446691488
20
0.3171717908206731
40
1
50
157.0515881885097
51
176.3297276524535
0
ARC
8
0
10
41.09549886350316
20
0.47132332622332085
40
0.555
50
91.42857142857189
51
154.8635202514939
0
ARC
8
0
10
41.09549886350316
20
0.47132332622332085
40
0.555
50
27.993622605649303
51
91.42857142857189
0
ARC
8
0
10
40.68528720345782
20
0.29650711699705784
40
1
50
6.527415204691332
51
25.805554668635235
0
ARC
8
0
10
41.82701493258233
20
0.43328876769553437
40
0.15
50
-171.1400206002558
51
-88.57142857142748
0
ARC
8
0
10
40.107442003210565
20
40.09910415383952
40
39.85304565915763
50
-87.5216616412179
51
-86.76405264449633
0
ARC
8
0
10
42.345853839466045
20
0.4591829410217967
40
0.15
50
-85.71428571428514
51
-3.145693685458129
0
ARC
8
0
10
43.495527121446855
20
0.43676036045920974
40
1
50
159.90873104565154
51
179.18687050959537
0
ARC
8
0
10
43.069947821785306
20
0.5698639770328331
40
0.555
50
94.2857142857142
51
157.72066310863673
0
ARC
8
0
10
43.069947821785306
20
0.5698639770328331
40
0.555
50
30.850765462791895
51
94.2857142857142
0
ARC
8
0
10
42.668959955927036
20
0.3748177146235604
40
1
50
9.384558061833053
51
28.662697525776796
0
ARC
8
0
10
43.80245042501652
20
0.5683397647959815
40
0.15
50
-168.28287774311326
51
-85.71428571428514
0
ARC
8
0
10
40.107837361889736
20
40.09913378187661
40
39.85304565915763
50
-84.66451878407507
51
-83.90690978735344
0
ARC
8
0
10
44.31935365626143
20
0.6200637344536782
40
0.15
50
-82.85714285714168
51
-0.2885508283152036
0
ARC
8
0
10
45.46871547716718
20
0.6549755098859908
40
1
50
162.76587390279514
51
-177.95598663326112
0
ARC
8
0
10
45.03703053844994
20
0.7667002910676617
40
0.555
50
97.14285714285677
51
160.577805965779
0
ARC
8
0
10
45.03703053844994
20
0.7667002910676617
40
0.555
50
33.70790831993518
51
97.14285714285677
0
ARC
8
0
10
44.64626338579379
20
0.5519088912156223
40
1
50
12.241700918976008
51
31.51984038291977
0
ARC
8
0
10
45.76869855894687
20
0.8016902145535286
40
0.15
50
-165.4257348859709
51
-82.85714285714165
0
ARC
8
0
10
40.10823075227139
20
40.09918308008727
40
39.85304565915763
50
-81.80737592693251
51
-81.04976693021092
0
ARC
8
0
10
46.28238101167564
20
0.8791153866043417
40
0.15
50
-79.99999999999872
51
2.5685920288275748
0
ARC
8
0
10
47.428573876923636
20
0.9712747218570269
40
1
50
165.623016759937
51
-175.09884377611922
0
ARC
8
0
10
46.991856535925585
20
1.0613429022371672
40
0.555
50
100.00000000000033
51
163.4349488229224
0
ARC
8
0
10
46.99185653592558
20
1.061342902237166
40
0.555
50
36.56505117707744
51
99.99999999999959
0
ARC
8
0
10
46.61228160518316
20
0.8273403702053885
40
1
50
15.098843776118525
51
34.376983240062295
0
ARC
8
0
10
47.72087093170608
20
1.1327599709828702
40
0.15
50
-162.56859202882768
51
-79.99999999999599
0
ARC
8
0
10
40.10862119632395
20
40.09925192590819
40
39.85304565915763
50
-78.9502330697887
51
-78.19262407306707
0
ARC
8
0
10
48.23005551040439
20
1.2356938542498273
40
0.15
50
-77.1428571428572
51
5.425734885970525
0
ARC
8
0
10
49.370229803935
20
1.3848716266946413
40
1
50
168.48015961707992
51
-172.24170091897625
0
ARC
8
0
10
48.929565808775976
20
1.4530592825854618
40
0.555
50
102.85714285714295
51
166.29209168006477
0
ARC
8
0
10
48.929565808775976
20
1.4530592825854618
40
0.555
50
39.42219403422081
51
102.85714285714295
0
ARC
8
0
10
48.56212678303176
20
1.2004273855385201
40
1
50
17.955986633261343
51
37.23412609720505
0
ARC
8
0
10
49.654114135187065
20
1.560725942505482
40
0.15
50
-159.71144917168527
51
-77.14285714285717
0
ARC
8
0
10
40.1090077233441
20
40.09934014817821
40
39.85304565915763
50
-76.09309021264666
51
-75.33548121592506
0
ARC
8
0
10
50.15753492676396
20
1.6889126271362644
40
0.15
50
-74.28571428571198
51
8.282877743113483
0
ARC
8
0
10
51.288855995635146
20
1.8947379573261396
40
1
50
171.3373024742228
51
-169.38455806183327
0
ARC
8
0
10
50.84534090643909
20
1.9408755634713062
40
0.555
50
105.71428571428616
51
169.1492345372076
0
ARC
8
0
10
50.84534090643909
20
1.9408755634713075
40
0.555
50
42.27933689136346
51
105.71428571428619
0
ARC
8
0
10
50.49095129700556
20
1.6702423841104905
40
1
50
20.813129490403774
51
40.09126895434738
0
ARC
8
0
10
51.563621822179904
20
2.084524138284889
40
0.15
50
-156.8543063145412
51
-74.2857142857148
0
ARC
8
0
10
40.1093893723632
20
40.09944752756257
40
39.85304565915763
50
-73.23594735550417
51
-72.47833835878257
0
ARC
8
0
10
52.060027243227516
20
2.2376449319841476
40
0.15
50
-71.4285714285702
51
11.14002060025649
0
ARC
8
0
10
53.17968244500868
20
2.499606105717957
40
1
50
174.19444533136635
51
-166.5274152046898
0
ARC
8
0
10
52.73441891016852
20
2.5235789567590454
40
0.555
50
108.57142857142874
51
172.0063773943507
0
ARC
8
0
10
52.73441891016852
20
2.523578956759046
40
0.555
50
45.136479748506446
51
108.57142857142877
0
ARC
8
0
10
52.393959785453134
20
2.235617331809765
40
1
50
23.670272347547748
51
42.94841181149166
0
ARC
8
0
10
53.44464665570865
20
2.702852313475618
40
0.15
50
-153.99716345739935
51
-71.42857142857025
0
ARC
8
0
10
40.109765194541254
20
40.099573797099005
40
39.85304565915763
50
-70.37880449836057
51
-69.62119550163898
0
ARC
8
0
10
53.93280256413553
20
2.8805265338241806
40
0.15
50
-68.57142857142962
51
13.997163457398567
0
ARC
8
0
10
55.03800825957976
20
3.197972274348834
40
1
50
177.0515881885088
51
-163.67027234754744
0
ARC
8
0
10
54.59210327439979
20
3.1997207700009556
40
0.555
50
111.42857142857109
51
174.8635202514932
0
ARC
8
0
10
54.59210327439979
20
3.1997207700009556
40
0.555
50
47.99362260564932
51
111.42857142857109
0
ARC
8
0
10
54.26642106943004
20
2.8951466174347322
40
1
50
26.527415204689465
51
45.8055546686331
0
ARC
8
0
10
55.292512111658795
20
3.4141732068090334
40
0.15
50
-151.1400206002558
51
-68.57142857142962
0
ARC
8
0
10
40.110134255526646
20
40.099718642862086
40
39.85304565915763
50
-67.5216616412182
51
-66.76405264449654
0
ARC
8
0
10
55.77120487496175
20
3.6159591277003926
40
0.15
50
-65.71428571428639
51
16.85430631454069
0
ARC
8
0
10
56.85921334857158
20
3.988100214887531
40
1
50
179.90873104565227
51
-160.8131294904039
0
ARC
8
0
10
56.41377550310271
20
3.9676200081149844
40
0.555
50
114.28571428571404
51
177.72066310863642
0
ARC
8
0
10
56.41377550310271
20
3.967620008114985
40
0.555
50
50.850765462791934
51
114.28571428571405
0
ARC
8
0
10
56.10367991515536
20
3.6471905472644224
40
1
50
29.384558061832877
51
48.66269752577665
0
ARC
8
0
10
57.10262410535325
20
4.216718362467068
40
0.15
50
-148.28287774311198
51
-65.71428571428639
0
ARC
8
0
10
40.110495637774584
20
40.09988170474205
40
39.85304565915763
50
-64.66451878407538
51
-63.9069097873538
0
ARC
8
0
10
57.57066361789876
20
4.442114312308028
40
0.15
50
-62.8571428571415
51
19.71144917168569
0
ARC
8
0
10
58.63876990917984
20
4.868025544779529
40
1
50
-177.23412609720586
51
-157.95598663326217
0
ARC
8
0
10
58.19490663209005
20
4.825367552603283
40
0.555
50
117.14285714285745
51
-179.42219403422072
0
ARC
8
0
10
58.19490663209005
20
4.825367552603283
40
0.555
50
53.70790831993468
51
117.14285714285745
0
ARC
8
0
10
57.901168607656054
20
4.489879421595633
40
1
50
32.24170091897527
51
51.519840382918886
0
ARC
8
0
10
58.87048241317046
20
5.108492526741977
40
0.15
50
-145.4257348859713
51
-62.85714285714165
0
ARC
8
0
10
40.11084844283236
20
40.10006257734162
40
39.85304565915763
50
-61.80737592693307
51
-61.04976693021147
0
ARC
8
0
10
59.32670505498506
20
5.356938135687381
40
0.15
50
-59.99999999999607
51
22.5685920288282
0
ARC
8
0
10
60.37225368340414
20
5.835560631011849
40
1
50
-174.37698324006263
51
-155.09884377611897
0
ARC
8
0
10
59.93106848873633
20
5.770830907921712
40
0.555
50
120.00000000000048
51
-176.56505117707803
0
ARC
8
0
10
59.93106848873633
20
5.770830907921713
40
0.555
50
56.56505117707743
51
120.0000000000005
0
ARC
8
0
10
59.654418306826436
20
5.421118183110882
40
1
50
35.09884377611845
51
54.376983240062195
0
ARC
8
0
10
60.59169186080966
20
6.087278608551532
40
0.15
50
-142.5685920288283
51
-59.999999999998764
0
ARC
8
0
10
40.111191793570086
20
40.10026081098248
40
39.85304565915763
50
-58.95023306978966
51
-58.192624073068046
0
ARC
8
0
10
61.0349633905224
20
6.358156201671931
40
0.15
50
-57.14285714285465
51
25.425734885970744
0
ARC
8
0
10
62.05535495745032
20
6.888300028913186
40
1
50
-171.51984038292014
51
-152.24170091897625
0
ARC
8
0
10
61.617944701112535
20
6.801659503199736
40
0.555
50
122.85714285714288
51
-173.70790831993457
0
ARC
8
0
10
61.61794470111253
20
6.801659503199734
40
0.555
50
59.42219403421953
51
122.85714285714215
0
ARC
8
0
10
61.359070157668555
20
6.438591625521098
40
1
50
37.95598663326085
51
57.234126097204374
0
ARC
8
0
10
62.26197325038657
20
7.150643191476728
40
0.15
50
-139.711449171685
51
-57.14285714285749
0
ARC
8
0
10
40.11152483636451
20
40.100475912825
40
39.85304565915763
50
-56.09309021264642
51
-55.33548121592486
0
ARC
8
0
10
62.691191625131715
20
7.443279324395539
40
0.15
50
-54.28571428571447
51
28.282877743112547
0
ARC
8
0
10
63.68388927635801
20
8.023626462468458
40
1
50
-168.6626975257772
51
-149.38455806183342
0
ARC
8
0
10
63.25134142916679
20
7.9152905361298656
40
0.555
50
125.71428571428544
51
-170.85076546279242
0
ARC
8
0
10
63.25134142916679
20
7.9152905361298656
40
0.555
50
62.279336891363535
51
125.71428571428544
0
ARC
8
0
10
63.01088612709258
20
7.539770149533083
40
1
50
40.81312949040437
51
60.091268954348315
0
ARC
8
0
10
63.877173999193516
20
8.295942583618366
40
0.15
50
-136.8543063145407
51
-54.28571428571467
0
ARC
8
0
10
40.11184674321951
20
40.10070734809263
40
39.85304565915763
50
-53.23594735550473
51
-52.47833835878313
0
ARC
8
0
10
64.29127211446293
20
8.609609716800785
40
0.15
50
-51.428571428571246
51
31.140020600255106
0
ARC
8
0
10
65.25380784721504
20
9.238717331279402
40
1
50
-165.80555466863262
51
-146.5274152046887
0
ARC
8
0
10
64.8271977912717
20
9.108955344498169
40
0.555
50
128.57142857142887
51
-167.99362260564936
0
ARC
8
0
10
64.8271977912717
20
9.108955344498169
40
0.555
50
65.13647974850659
51
128.57142857142887
0
ARC
8
0
10
64.60575954033487
20
8.721916051832123
40
1
50
43.67027234754776
51
62.948411811491994
0
ARC
8
0
10
65.4332784636745
20
9.52032939023175
40
0.15
50
-133.9971634573994
51
-51.428571428571246
0
ARC
8
0
10
40.11215671382132
20
40.100954541398906
40
39.85304565915763
50
-50.37880449835985
51
-49.621195501638276
0
ARC
8
0
10
65.83122680630738
20
9.854247697762624
40
0.15
50
-48.571428571431916
51
33.99716345739669
0
ARC
8
0
10
66.76120760509451
20
10.530551727993753
40
1
50
-162.94841181149027
51
-143.6702723475462
0
ARC
8
0
10
66.34159596021571
20
10.379686289514623
40
0.555
50
131.42857142857054
51
-165.1364797485075
0
ARC
8
0
10
66.34159596021571
20
10.379686289514627
40
0.555
50
67.99362260564969
51
131.4285714285708
0
ARC
8
0
10
66.13972529079837
20
9.98209033144364
40
1
50
46.527415204690534
51
65.8055546686346
0
ARC
8
0
10
66.9264179229476
20
10.820759592798627
40
0.15
50
-131.14002060025564
51
-48.57142857143146
0
ARC
8
0
10
40.11245397753827
20
40.10121687818564
40
39.85304565915763
50
-47.52166164121941
51
-46.764052644497774
0
ARC
8
0
10
67.30722713066264
20
11.174098901152549
40
0.15
50
-45.714285714284735
51
36.85430631454111
0
ARC
8
0
10
68.20234091668922
20
11.895917948757127
40
1
50
-160.09126895434775
51
-140.8131294904039
0
ARC
8
0
10
67.79077090353904
20
11.724324133830851
40
0.555
50
134.2857142857134
51
-162.27933689136415
0
ARC
8
0
10
67.79077090353904
20
11.724324133830855
40
0.555
50
70.85076546279194
51
134.28571428571365
0
ARC
8
0
10
67.60896969793254
20
11.31715999655276
40
1
50
49.38455806183333
51
68.66269752577743
0
ARC
8
0
10
68.35288019705487
20
12.194000116936836
40
0.15
50
-128.28287774311082
51
-45.71428571428522
0
ARC
8
0
10
40.11273779532195
20
40.10149370623881
40
39.85304565915763
50
-44.66451878407575
51
-43.90690978735417
0
ARC
8
0
10
68.71560351816049
20
12.565881968920298
40
0.15
50
-42.85714285713906
51
39.71144917168908
0
ARC
8
0
10
69.57362489751841
20
13.331421478014597
40
1
50
-157.23412609720654
51
-137.9559866332629
0
ARC
8
0
10
69.1711197439974
20
13.139525895901798
40
0.555
50
137.14285714285757
51
-159.42219403422078
0
ARC
8
0
10
69.1711197439974
20
13.139525895901796
40
0.555
50
73.70790831993493
51
137.14285714285742
0
ARC
8
0
10
69.00983998864382
20
12.723805853615536
40
1
50
52.241700918974786
51
71.51984038291833
0
ARC
8
0
10
69.70911887602634
20
13.636636870332591
40
0.15
50
-125.42573488597485
51
-42.85714285713956
0
ARC
8
0
10
40.11300746155818
20
40.10178433732156
40
39.85304565915763
50
-41.807375926931925
51
-41.049766930210296
0
ARC
8
0
10
70.05285452319485
20
14.02613670906713
40
0.15
50
-40.00000000000072
51
42.568592028825464
0
ARC
8
0
10
70.8716503195433
20
14.833493427811531
40
1
50
-154.3769832400616
51
-135.0988437761174
0
ARC
8
0
10
70.4792107168827
20
14.621773161164748
40
0.555
50
139.99999999999963
51
-156.56505117707852
0
ARC
8
0
10
70.4792107168827
20
14.62177316116475
40
0.555
50
76.56505117707754
51
139.9999999999998
0
ARC
8
0
10
70.3388533786655
20
14.198530759397181
40
1
50
55.098843776118414
51
74.37698324006206
0
ARC
8
0
10
70.99176213681423
20
15.145083230712066
40
0.15
50
-122.56859202882961
51
-39.99999999999968
0
ARC
8
0
10
40.11326230581464
20
40.10208804887971
40
39.85304565915763
50
-38.95023306978873
51
-38.19262407306715
0
ARC
8
0
10
71.315655529067
20
15.55123269822808
40
0.15
50
-37.14285714286107
51
45.425734885966534
0
ARC
8
0
10
72.09319008704507
20
16.39839941061087
40
1
50
-151.51984038292002
51
-132.24170091897616
0
ARC
8
0
10
71.71179170193071
20
16.16738082937216
40
0.555
50
142.85714285714346
51
-153.70790831993463
0
ARC
8
0
10
71.71179170193071
20
16.167380829372153
40
0.555
50
79.42219403422051
51
142.85714285714286
0
ARC
8
0
10
71.59270573130769
20
15.73766831542106
40
1
50
57.955986633261574
51
77.23412609720553
0
ARC
8
0
10
72.19762112617616
20
16.71558896274923
40
0.15
50
-119.71144917168485
51
-37.14285714285944
0
ARC
8
0
10
40.11350169450854
20
40.102404085838856
40
39.85304565915763
50
-36.09309021264688
51
-35.335481215925306
0
ARC
8
0
10
72.50086701350673
20
17.137378307476702
40
0.15
50
-34.28571428571586
51
48.282877743113374
0
ARC
8
0
10
73.23520725969324
20
18.022248823569516
40
1
50
-148.66269752577722
51
-129.38455806183336
0
ARC
8
0
10
72.86579830860447
20
17.772506276331576
40
0.555
50
145.71428571428456
51
-150.85076546279328
0
ARC
8
0
10
72.86579830860447
20
17.772506276331583
40
0.555
50
82.27933689136361
51
145.71428571428518
0
ARC
8
0
10
72.76827977206203
20
17.337391983213077
40
1
50
60.81312949040462
51
80.09126895434842
0
ARC
8
0
10
73.32369788866683
20
18.344249541741988
40
0.15
50
-116.85430631453973
51
-34.285714285716985
0
ARC
8
0
10
40.113725032481184
20
40.10273166248051
40
39.85304565915763
50
-33.2359473555048
51
-32.478338358783205
0
ARC
8
0
10
73.60554235401924
20
18.780630128911902
40
0.15
50
-31.428571428572464
51
51.14002060025241
0
ARC
8
0
10
74.29486260285795
20
19.70100452118961
40
1
50
-145.80555466863458
51
-126.52741520469105
0
ARC
8
0
10
73.93836149465204
20
19.433158907274883
40
0.555
50
148.5714285714285
51
-147.99362260564902
0
ARC
8
0
10
73.93836149465204
20
19.43315890727488
40
0.555
50
85.1364797485064
51
148.57142857142819
0
ARC
8
0
10
73.86265283863726
20
18.9937245976792
40
1
50
63.670272347547545
51
82.9484118114911
0
ARC
8
0
10
74.36719282002765
20
20.02701586087569
40
0.15
50
-113.99716345740381
51
-31.428571428570148
0
ARC
8
0
10
40.113931764478615
20
40.10306996439645
40
39.85304565915763
50
-30.378804498360704
51
-29.62119550163913
0
ARC
8
0
10
74.626935153653
20
20.476902779591285
40
0.15
50
-28.571428571430346
51
53.99716345739806
0
ARC
8
0
10
75.26952164639451
20
21.430492852298514
40
1
50
-142.94841181149252
51
-123.6702723475494
0
ARC
8
0
10
74.92681469899755
20
21.145210078105524
40
0.555
50
151.4285714285728
51
-145.13647974850525
0
ARC
8
0
10
74.92681469899753
20
21.145210078105514
40
0.555
50
87.99362260564689
51
151.42857142857116
0
ARC
8
0
10
74.87310414715809
20
20.702548254964533
40
1
50
66.52741520468966
51
85.80555466863315
0
ARC
8
0
10
75.32551162744393
20
21.759704297940704
40
0.15
50
-111.14002060025953
51
-28.571428571429152
0
ARC
8
0
10
40.11412137653365
20
40.10341815051663
40
39.85304565915763
50
-27.521661641217744
51
-26.764052644496168
0
ARC
8
0
10
75.56250606897524
20
22.22197905843688
40
0.15
50
-25.714285714283797
51
56.854306314543464
0
ARC
8
0
10
76.15676123435126
20
23.206414036403196
40
1
50
-140.09126895434937
51
-120.8131294904058
0
ARC
8
0
10
75.82870047123215
20
22.90440335985831
40
0.555
50
154.285714285713
51
-142.27933689136552
0
ARC
8
0
10
75.82870047123215
20
22.904403359858318
40
0.555
50
90.85076546279313
51
154.28571428571365
0
ARC
8
0
10
75.79712155646263
20
22.459614550211114
40
1
50
69.38455806183245
51
88.66269752577594
0
ARC
8
0
10
76.19627177936562
20
23.538007116476347
40
0.15
50
-108.28287774311458
51
-25.714285714285023
0
ARC
8
0
10
40.114293397240644
20
40.103775355195324
40
39.85304565915763
50
-24.664518784075536
51
-23.906909787353843
0
ARC
8
0
10
76.40992912327995
20
24.01152043086159
40
0.15
50
-22.85714285714455
51
59.71144917168015
0
ARC
8
0
10
76.95437554931725
20
25.02435285362206
40
1
50
-137.2341260972055
51
-117.95598663326177
0
ARC
8
0
10
76.64177658122304
20
24.70636512085265
40
0.555
50
157.14285714285705
51
-139.42219403422095
0
ARC
8
0
10
76.64177658122304
20
24.706365120852645
40
0.555
50
93.70790831993504
51
157.14285714285668
0
ARC
8
0
10
76.63240781368124
20
24.260555139761887
40
1
50
72.24170091897481
51
91.51984038291903
0
ARC
8
0
10
76.97730842885628
20
25.357503175482588
40
0.15
50
-105.42573488596919
51
-22.8571428571433
0
ARC
8
0
10
40.11444739892841
20
40.104140690364076
40
39.85304565915763
50
-21.807375926931847
51
-21.049766930210268
0
ARC
8
0
10
77.16709748933228
20
25.841077815049413
40
0.15
50
-20.000000000002945
51
62.56859202882561
0
ARC
8
0
10
77.66038159643156
20
26.87978962161699
40
1
50
-134.3769832400629
51
-115.09884377611901
0
ARC
8
0
10
77.3640215936507
20
26.546615400229552
40
0.555
50
159.9999999999998
51
-136.56505117707832
0
ARC
8
0
10
77.3640215936507
20
26.546615400229552
40
0.555
50
96.56505117707708
51
159.9999999999998
0
ARC
8
0
10
77.3768862655689
20
26.10089260155101
40
1
50
75.0988437761182
51
94.37698324006212
0
ARC
8
0
10
77.66667979574336
20
27.21366892107288
40
0.15
50
-102.56859202882758
51
-20.00000000000167
0
ARC
8
0
10
40.114582998725474
20
40.10451324774459
40
39.85304565915763
50
-18.950233069790762
51
-18.19262407306918
0
ARC
8
0
10
77.83212872727314
20
27.706102643074317
40
0.15
50
-17.14285714285501
51
65.4257348859755
0
ARC
8
0
10
78.27302413342127
20
28.768111432236203
40
1
50
-131.51984038292065
51
-112.24170091897754
0
ARC
8
0
10
77.99363989361579
20
28.42057904584077
40
0.555
50
162.8571428571422
51
-133.7079083199348
0
ARC
8
0
10
77.99363989361579
20
28.420579045840764
40
0.555
50
99.42219403421937
51
162.85714285714153
0
ARC
8
0
10
78.0287060213926
20
27.976051566681
40
1
50
77.9559866332617
51
97.23412609720451
0
ARC
8
0
10
78.26267199418997
20
29.101889632742278
40
0.15
50
-99.71144917168365
51
-17.1428571428576
0
ARC
8
0
10
40.114699859508185
20
40.10489210109728
40
39.85304565915763
50
-16.093090212647212
51
-15.335481215925627
0
ARC
8
0
10
78.40336946466127
20
29.601958169356532
40
0.15
50
-14.285714285714555
51
68.28287774311512
0
ARC
8
0
10
78.79078003441013
20
30.684623619930477
40
1
50
-128.66269752577819
51
-109.38455806183495
0
ARC
8
0
10
78.52906615082057
20
30.323597088797555
40
0.555
50
165.71428571428476
51
-130.85076546279254
0
ARC
8
0
10
78.52906615082058
20
30.323597088797563
40
0.555
50
102.27933689136512
51
165.71428571428584
0
ARC
8
0
10
78.58624655453723
20
29.881370094510466
40
1
50
80.81312949040372
51
100.09126895434777
0
ARC
8
0
10
78.763803293685
20
31.017470896289442
40
0.15
50
-96.85430631454521
51
-14.285714285714555
0
ARC
8
0
10
40.11479769074303
20
40.10527630853529
40
39.85304565915763
50
-13.235947355504667
51
-12.47833835878303
0
ARC
8
0
10
78.87939950701762
20
31.523930998342642
40
0.15
50
-11.428571428570534
51
71.14002060025693
0
ARC
8
0
10
79.21236207664957
20
32.624561433431424
40
1
50
-125.80555466863503
51
-106.52741520469161
0
ARC
8
0
10
78.96896921122675
20
32.25093832640154
40
0.555
50
168.5714285714278
51
-127.99362260565002
0
ARC
8
0
10
78.96896921122675
20
32.25093832640154
40
0.555
50
105.13647974850629
51
168.5714285714278
0
ARC
8
0
10
79.04812173139017
20
31.812111262973158
40
1
50
83.67027234754654
51
102.94841181149093
0
ARC
8
0
10
79.16882780285856
20
32.95565027487012
40
0.15
50
-93.99716345739773
51
-11.428571428571862
0
ARC
8
0
10
40.114876249205736
20
40.10566491485673
40
39.85304565915763
50
-10.378804498360607
51
-9.621195501639011
0
ARC
8
0
10
79.25903536865255
20
33.46724280274955
40
0.15
50
-8.571428571425168
51
73.99716345740228
0
ARC
8
0
10
79.53672214075716
20
34.583101881673834
40
1
50
-122.94841181149211
51
-103.67027234754866
0
ARC
8
0
10
79.31225540651401
20
34.197811084659925
40
0.555
50
171.42857142857113
51
-125.13647974850599
0
ARC
8
0
10
79.31225540651401
20
34.197811084659925
40
0.555
50
107.9936226056474
51
171.42857142857113
0
ARC
8
0
10
79.41318325748763
20
33.76347494531248
40
1
50
86.52741520469009
51
105.80555466863366
0
ARC
8
0
10
79.47673856696427
20
34.911609149165386
40
0.15
50
-91.14002060026054
51
-8.57142857142785
0
ARC
8
0
10
40.11493533958789
20
40.106056953926405
40
39.85304565915763
50
-7.521661641217105
51
-6.764052644495533
0
ARC
8
0
10
79.54133321499778
20
35.42706220323915
40
0.15
50
-5.714285714289341
51
76.85430631453664
0
ARC
8
0
10
79.76305381650668
20
36.55537572451156
40
1
50
-120.09126895434811
51
-100.81312949040401
0
ARC
8
0
10
79.55807127311203
20
36.15937513114224
40
0.555
50
174.28571428571382
51
-122.27933689136457
0
ARC
8
0
10
79.55807127311203
20
36.15937513114224
40
0.555
50
110.85076546279208
51
174.28571428571382
0
ARC
8
0
10
79.68052353235589
20
35.73060974395308
40
1
50
89.38455806183204
51
108.66269752577648
0
ARC
8
0
10
79.68677007132752
20
36.88048469722865
40
0.15
50
-88.28287774311386
51
-5.714285714289341
0
ARC
8
0
10
40.11497481498147
20
40.106451451073646
40
39.85304565915763
50
-4.664518784074482
51
-3.906909787352886
0
ARC
8
0
10
79.72559120912787
20
37.39851677998843
40
0.15
50
-2.857142857142798
51
79.71144917168246
0
ARC
8
0
10
79.89079440769096
20
38.53647957841557
40
1
50
-117.23412609720602
51
-97.95598663326227
0
ARC
8
0
10
79.70580567404514
20
38.13075370856068
40
0.555
50
177.14285714285643
51
-119.42219403422126
0
ARC
8
0
10
79.70580567404514
20
38.13075370856068
40
0.555
50
113.70790831993504
51
177.14285714285643
0
ARC
8
0
10
79.84947790594893
20
37.70862505183956
40
1
50
92.24170091897528
51
111.51984038291943
0
ARC
8
0
10
79.79840014453542
20
38.857381984227175
40
0.15
50
-85.42573488597006
51
-2.857142857142798
0
ARC
8
0
10
40.11499457724439
20
40.106847425517856
40
39.85304565915763
50
-1.8073759269347724
51
-1.0497669302131898
0
ENDSEC
0
EOF